solid OpenSCAD_Model
  facet normal 0 0 -1
    outer loop
      vertex -14.7 14.7 0
      vertex 13.9 13.9 0
      vertex -13.9 13.9 0
    endloop
  endfacet
  facet normal 0 -0 -1
    outer loop
      vertex 14.7 14.7 0
      vertex 14.7 -14.7 0
      vertex 13.9 13.9 0
    endloop
  endfacet
  facet normal 0 0 -1
    outer loop
      vertex 14.7 -14.7 0
      vertex 13.9 -13.9 0
      vertex 13.9 13.9 0
    endloop
  endfacet
  facet normal 0 -0 -1
    outer loop
      vertex 13.9 -13.9 0
      vertex 14.7 -14.7 0
      vertex -14.7 -14.7 0
    endloop
  endfacet
  facet normal 0 0 -1
    outer loop
      vertex -14.7 14.7 0
      vertex -13.9 -13.9 0
      vertex -14.7 -14.7 0
    endloop
  endfacet
  facet normal 0 -0 -1
    outer loop
      vertex -13.9 -13.9 0
      vertex 13.9 -13.9 0
      vertex -14.7 -14.7 0
    endloop
  endfacet
  facet normal 0 0 -1
    outer loop
      vertex -14.7 14.7 0
      vertex -13.9 13.9 0
      vertex -13.9 -13.9 0
    endloop
  endfacet
  facet normal -0 0 -1
    outer loop
      vertex 14.7 14.7 0
      vertex 13.9 13.9 0
      vertex -14.7 14.7 0
    endloop
  endfacet
  facet normal 0 -0 1
    outer loop
      vertex -13.9 13.9 0.3
      vertex 13.9 13.9 0.3
      vertex -14.7 14.7 0.3
    endloop
  endfacet
  facet normal -0 0 1
    outer loop
      vertex 13.9 13.9 0.3
      vertex 14.7 -14.7 0.3
      vertex 14.7 14.7 0.3
    endloop
  endfacet
  facet normal 0 0 1
    outer loop
      vertex 13.9 13.9 0.3
      vertex 13.9 -13.9 0.3
      vertex 14.7 -14.7 0.3
    endloop
  endfacet
  facet normal 0 0 1
    outer loop
      vertex -14.7 -14.7 0.3
      vertex 14.7 -14.7 0.3
      vertex 13.9 -13.9 0.3
    endloop
  endfacet
  facet normal 0 0 1
    outer loop
      vertex -14.7 -14.7 0.3
      vertex -13.9 -13.9 0.3
      vertex -14.7 14.7 0.3
    endloop
  endfacet
  facet normal 0 0 1
    outer loop
      vertex -14.7 -14.7 0.3
      vertex 13.9 -13.9 0.3
      vertex -13.9 -13.9 0.3
    endloop
  endfacet
  facet normal 0 -0 1
    outer loop
      vertex -13.9 -13.9 0.3
      vertex -13.9 13.9 0.3
      vertex -14.7 14.7 0.3
    endloop
  endfacet
  facet normal -0 0 1
    outer loop
      vertex -14.7 14.7 0.3
      vertex 13.9 13.9 0.3
      vertex 14.7 14.7 0.3
    endloop
  endfacet
  facet normal 0 1 0
    outer loop
      vertex -14.7 14.7 0
      vertex 14.7 14.7 0.3
      vertex 14.7 14.7 0
    endloop
  endfacet
  facet normal 0 1 0
    outer loop
      vertex -14.7 14.7 0
      vertex -14.7 14.7 0.3
      vertex 14.7 14.7 0.3
    endloop
  endfacet
  facet normal -1 0 0
    outer loop
      vertex -14.7 -14.7 0
      vertex -14.7 14.7 0.3
      vertex -14.7 14.7 0
    endloop
  endfacet
  facet normal -1 0 0
    outer loop
      vertex -14.7 -14.7 0
      vertex -14.7 -14.7 0.3
      vertex -14.7 14.7 0.3
    endloop
  endfacet
  facet normal 0 -1 0
    outer loop
      vertex 14.7 -14.7 0
      vertex -14.7 -14.7 0.3
      vertex -14.7 -14.7 0
    endloop
  endfacet
  facet normal 0 -1 0
    outer loop
      vertex 14.7 -14.7 0
      vertex 14.7 -14.7 0.3
      vertex -14.7 -14.7 0.3
    endloop
  endfacet
  facet normal 1 0 0
    outer loop
      vertex 14.7 14.7 0
      vertex 14.7 -14.7 0.3
      vertex 14.7 -14.7 0
    endloop
  endfacet
  facet normal 1 0 -0
    outer loop
      vertex 14.7 14.7 0
      vertex 14.7 14.7 0.3
      vertex 14.7 -14.7 0.3
    endloop
  endfacet
  facet normal 1 0 -0
    outer loop
      vertex -13.9 13.9 0
      vertex -13.9 13.9 0.3
      vertex -13.9 -13.9 0
    endloop
  endfacet
  facet normal 1 -0 0
    outer loop
      vertex -13.9 -13.9 0.3
      vertex -13.9 -13.9 0
      vertex -13.9 13.9 0.3
    endloop
  endfacet
  facet normal 0 -1 0
    outer loop
      vertex 13.9 13.9 0
      vertex 13.9 13.9 0.3
      vertex -13.9 13.9 0
    endloop
  endfacet
  facet normal 0 -1 0
    outer loop
      vertex -13.9 13.9 0.3
      vertex -13.9 13.9 0
      vertex 13.9 13.9 0.3
    endloop
  endfacet
  facet normal -1 0 0
    outer loop
      vertex 13.9 -13.9 0
      vertex 13.9 -13.9 0.3
      vertex 13.9 13.9 0
    endloop
  endfacet
  facet normal -1 -0 -0
    outer loop
      vertex 13.9 13.9 0.3
      vertex 13.9 13.9 0
      vertex 13.9 -13.9 0.3
    endloop
  endfacet
  facet normal 0 1 0
    outer loop
      vertex -13.9 -13.9 0
      vertex -13.9 -13.9 0.3
      vertex 13.9 -13.9 0
    endloop
  endfacet
  facet normal 0 1 0
    outer loop
      vertex 13.9 -13.9 0.3
      vertex 13.9 -13.9 0
      vertex -13.9 -13.9 0.3
    endloop
  endfacet
endsolid OpenSCAD_Model
