solid OpenSCAD_Model
  facet normal -1 0 0
    outer loop
      vertex -4 12.1 -14.4
      vertex -4 10.9 -13.2
      vertex -4 12.1 -3
    endloop
  endfacet
  facet normal -1 0 0
    outer loop
      vertex -4 12.1 -14.4
      vertex -4 -10.9 -13.2
      vertex -4 10.9 -13.2
    endloop
  endfacet
  facet normal -1 0 0
    outer loop
      vertex -4 -12.1 -14.4
      vertex -4 -10.9 -13.2
      vertex -4 12.1 -14.4
    endloop
  endfacet
  facet normal -1 0 0
    outer loop
      vertex -4 -12.1 -3
      vertex -4 -10.9 -13.2
      vertex -4 -12.1 -14.4
    endloop
  endfacet
  facet normal -1 0 0
    outer loop
      vertex -4 -10.9 -13.2
      vertex -4 -12.1 -3
      vertex -4 -10.9 -0.15
    endloop
  endfacet
  facet normal -1 0 0
    outer loop
      vertex -4 -16.8 -0.15
      vertex -4 -12.1 -3
      vertex -4 -16.8 -3
    endloop
  endfacet
  facet normal -1 0 0
    outer loop
      vertex -4 -12.1 -3
      vertex -4 -16.8 -0.15
      vertex -4 -10.9 -0.15
    endloop
  endfacet
  facet normal -1 0 0
    outer loop
      vertex -4 12.1 -3
      vertex -4 16.8 -0.15
      vertex -4 16.8 -3
    endloop
  endfacet
  facet normal -1 0 0
    outer loop
      vertex -4 12.1 -3
      vertex -4 10.9 -0.15
      vertex -4 16.8 -0.15
    endloop
  endfacet
  facet normal -1 0 0
    outer loop
      vertex -4 10.9 -0.15
      vertex -4 12.1 -3
      vertex -4 10.9 -13.2
    endloop
  endfacet
  facet normal 1 0 0
    outer loop
      vertex 4 -10.9 -0.15
      vertex 4 -12.1 -3
      vertex 4 -10.9 -13.2
    endloop
  endfacet
  facet normal 1 -0 0
    outer loop
      vertex 4 -16.8 -0.15
      vertex 4 -12.1 -3
      vertex 4 -10.9 -0.15
    endloop
  endfacet
  facet normal 1 0 0
    outer loop
      vertex 4 -12.1 -3
      vertex 4 -16.8 -0.15
      vertex 4 -16.8 -3
    endloop
  endfacet
  facet normal 1 0 0
    outer loop
      vertex 4 16.8 -0.15
      vertex 4 12.1 -3
      vertex 4 16.8 -3
    endloop
  endfacet
  facet normal 1 -0 0
    outer loop
      vertex 4 10.9 -0.15
      vertex 4 12.1 -3
      vertex 4 16.8 -0.15
    endloop
  endfacet
  facet normal 1 0 0
    outer loop
      vertex 4 10.9 -13.2
      vertex 4 12.1 -3
      vertex 4 10.9 -0.15
    endloop
  endfacet
  facet normal 1 0 0
    outer loop
      vertex 4 12.1 -3
      vertex 4 10.9 -13.2
      vertex 4 12.1 -14.4
    endloop
  endfacet
  facet normal 1 -0 0
    outer loop
      vertex 4 -10.9 -13.2
      vertex 4 12.1 -14.4
      vertex 4 10.9 -13.2
    endloop
  endfacet
  facet normal 1 0 0
    outer loop
      vertex 4 -10.9 -13.2
      vertex 4 -12.1 -14.4
      vertex 4 12.1 -14.4
    endloop
  endfacet
  facet normal 1 0 0
    outer loop
      vertex 4 -12.1 -14.4
      vertex 4 -10.9 -13.2
      vertex 4 -12.1 -3
    endloop
  endfacet
  facet normal 0 1 -0
    outer loop
      vertex 4 12.1 -14.4
      vertex -4 12.1 -3
      vertex 4 12.1 -3
    endloop
  endfacet
  facet normal 0 1 0
    outer loop
      vertex -4 12.1 -3
      vertex 4 12.1 -14.4
      vertex -4 12.1 -14.4
    endloop
  endfacet
  facet normal 0 0 -1
    outer loop
      vertex -4 -12.1 -14.4
      vertex 4 12.1 -14.4
      vertex 4 -12.1 -14.4
    endloop
  endfacet
  facet normal -0 0 -1
    outer loop
      vertex 4 12.1 -14.4
      vertex -4 -12.1 -14.4
      vertex -4 12.1 -14.4
    endloop
  endfacet
  facet normal 0 -1 0
    outer loop
      vertex -4 -12.1 -14.4
      vertex 4 -12.1 -3
      vertex -4 -12.1 -3
    endloop
  endfacet
  facet normal 0 -1 -0
    outer loop
      vertex 4 -12.1 -3
      vertex -4 -12.1 -14.4
      vertex 4 -12.1 -14.4
    endloop
  endfacet
  facet normal 0 -1 0
    outer loop
      vertex -4 10.9 -13.2
      vertex 4 10.9 -0.15
      vertex -4 10.9 -0.15
    endloop
  endfacet
  facet normal 0 -1 -0
    outer loop
      vertex 4 10.9 -0.15
      vertex -4 10.9 -13.2
      vertex 4 10.9 -13.2
    endloop
  endfacet
  facet normal -0 0 1
    outer loop
      vertex -4 10.9 -13.2
      vertex 4 -10.9 -13.2
      vertex 4 10.9 -13.2
    endloop
  endfacet
  facet normal 0 0 1
    outer loop
      vertex 4 -10.9 -13.2
      vertex -4 10.9 -13.2
      vertex -4 -10.9 -13.2
    endloop
  endfacet
  facet normal 0 1 -0
    outer loop
      vertex 4 -10.9 -13.2
      vertex -4 -10.9 -0.15
      vertex 4 -10.9 -0.15
    endloop
  endfacet
  facet normal 0 1 0
    outer loop
      vertex -4 -10.9 -0.15
      vertex 4 -10.9 -13.2
      vertex -4 -10.9 -13.2
    endloop
  endfacet
  facet normal 0 0 1
    outer loop
      vertex 4 -10.9 -0.15
      vertex 0.9 -14.05 -0.15
      vertex 4 -16.8 -0.15
    endloop
  endfacet
  facet normal 0 0 1
    outer loop
      vertex 4 -10.9 -0.15
      vertex 0.894341 -13.9492 -0.15
      vertex 0.9 -14.05 -0.15
    endloop
  endfacet
  facet normal 0 0 1
    outer loop
      vertex 4 -10.9 -0.15
      vertex 0.877435 -13.8497 -0.15
      vertex 0.894341 -13.9492 -0.15
    endloop
  endfacet
  facet normal 0 0 1
    outer loop
      vertex 4 -10.9 -0.15
      vertex 0.849495 -13.7527 -0.15
      vertex 0.877435 -13.8497 -0.15
    endloop
  endfacet
  facet normal 0 0 1
    outer loop
      vertex 4 -10.9 -0.15
      vertex 0.810871 -13.6595 -0.15
      vertex 0.849495 -13.7527 -0.15
    endloop
  endfacet
  facet normal 0 0 1
    outer loop
      vertex 4 -10.9 -0.15
      vertex 0.762052 -13.5712 -0.15
      vertex 0.810871 -13.6595 -0.15
    endloop
  endfacet
  facet normal 0 0 1
    outer loop
      vertex 4 -10.9 -0.15
      vertex 0.703648 -13.4889 -0.15
      vertex 0.762052 -13.5712 -0.15
    endloop
  endfacet
  facet normal 0 0 1
    outer loop
      vertex 4 -10.9 -0.15
      vertex 0.636395 -13.4136 -0.15
      vertex 0.703648 -13.4889 -0.15
    endloop
  endfacet
  facet normal 0 0 1
    outer loop
      vertex 4 -10.9 -0.15
      vertex 0.56114 -13.3464 -0.15
      vertex 0.636395 -13.4136 -0.15
    endloop
  endfacet
  facet normal 0 0 1
    outer loop
      vertex 4 -10.9 -0.15
      vertex 0.478828 -13.2879 -0.15
      vertex 0.56114 -13.3464 -0.15
    endloop
  endfacet
  facet normal 0 0 1
    outer loop
      vertex 4 -10.9 -0.15
      vertex 0.390495 -13.2391 -0.15
      vertex 0.478828 -13.2879 -0.15
    endloop
  endfacet
  facet normal 0 0 1
    outer loop
      vertex 4 -10.9 -0.15
      vertex 0.297251 -13.2005 -0.15
      vertex 0.390495 -13.2391 -0.15
    endloop
  endfacet
  facet normal 0 0 1
    outer loop
      vertex 4 -10.9 -0.15
      vertex 0.200269 -13.1726 -0.15
      vertex 0.297251 -13.2005 -0.15
    endloop
  endfacet
  facet normal 0 0 1
    outer loop
      vertex 4 -10.9 -0.15
      vertex 0.100767 -13.1557 -0.15
      vertex 0.200269 -13.1726 -0.15
    endloop
  endfacet
  facet normal 0 0 1
    outer loop
      vertex 4 -10.9 -0.15
      vertex 0 -13.15 -0.15
      vertex 0.100767 -13.1557 -0.15
    endloop
  endfacet
  facet normal -0 0 1
    outer loop
      vertex -4 -10.9 -0.15
      vertex 0 -13.15 -0.15
      vertex 4 -10.9 -0.15
    endloop
  endfacet
  facet normal 0 0 1
    outer loop
      vertex 0 -13.15 -0.15
      vertex -4 -10.9 -0.15
      vertex -0.100767 -13.1557 -0.15
    endloop
  endfacet
  facet normal 0 0 1
    outer loop
      vertex -0.100767 -13.1557 -0.15
      vertex -4 -10.9 -0.15
      vertex -0.200269 -13.1726 -0.15
    endloop
  endfacet
  facet normal 0 0 1
    outer loop
      vertex -0.200269 -13.1726 -0.15
      vertex -4 -10.9 -0.15
      vertex -0.297251 -13.2005 -0.15
    endloop
  endfacet
  facet normal 0 0 1
    outer loop
      vertex -0.894341 -13.9492 -0.15
      vertex -4 -10.9 -0.15
      vertex -0.9 -14.05 -0.15
    endloop
  endfacet
  facet normal 0 0 1
    outer loop
      vertex -0.877435 -13.8497 -0.15
      vertex -4 -10.9 -0.15
      vertex -0.894341 -13.9492 -0.15
    endloop
  endfacet
  facet normal 0 0 1
    outer loop
      vertex -0.849495 -13.7527 -0.15
      vertex -4 -10.9 -0.15
      vertex -0.877435 -13.8497 -0.15
    endloop
  endfacet
  facet normal 0 0 1
    outer loop
      vertex -0.810871 -13.6595 -0.15
      vertex -4 -10.9 -0.15
      vertex -0.849495 -13.7527 -0.15
    endloop
  endfacet
  facet normal 0 0 1
    outer loop
      vertex -0.762052 -13.5712 -0.15
      vertex -4 -10.9 -0.15
      vertex -0.810871 -13.6595 -0.15
    endloop
  endfacet
  facet normal 0 0 1
    outer loop
      vertex -0.703648 -13.4889 -0.15
      vertex -4 -10.9 -0.15
      vertex -0.762052 -13.5712 -0.15
    endloop
  endfacet
  facet normal 0 0 1
    outer loop
      vertex -0.636395 -13.4136 -0.15
      vertex -4 -10.9 -0.15
      vertex -0.703648 -13.4889 -0.15
    endloop
  endfacet
  facet normal 0 0 1
    outer loop
      vertex -0.56114 -13.3464 -0.15
      vertex -4 -10.9 -0.15
      vertex -0.636395 -13.4136 -0.15
    endloop
  endfacet
  facet normal 0 0 1
    outer loop
      vertex -0.478828 -13.2879 -0.15
      vertex -4 -10.9 -0.15
      vertex -0.56114 -13.3464 -0.15
    endloop
  endfacet
  facet normal 0 0 1
    outer loop
      vertex -0.390495 -13.2391 -0.15
      vertex -4 -10.9 -0.15
      vertex -0.478828 -13.2879 -0.15
    endloop
  endfacet
  facet normal 0 0 1
    outer loop
      vertex -0.297251 -13.2005 -0.15
      vertex -4 -10.9 -0.15
      vertex -0.390495 -13.2391 -0.15
    endloop
  endfacet
  facet normal -0 0 1
    outer loop
      vertex 0.894341 -14.1508 -0.15
      vertex 4 -16.8 -0.15
      vertex 0.9 -14.05 -0.15
    endloop
  endfacet
  facet normal -0 0 1
    outer loop
      vertex 0.877435 -14.2503 -0.15
      vertex 4 -16.8 -0.15
      vertex 0.894341 -14.1508 -0.15
    endloop
  endfacet
  facet normal -0 0 1
    outer loop
      vertex 0.849495 -14.3473 -0.15
      vertex 4 -16.8 -0.15
      vertex 0.877435 -14.2503 -0.15
    endloop
  endfacet
  facet normal -0 0 1
    outer loop
      vertex 0.810871 -14.4405 -0.15
      vertex 4 -16.8 -0.15
      vertex 0.849495 -14.3473 -0.15
    endloop
  endfacet
  facet normal -0 0 1
    outer loop
      vertex 0.762052 -14.5288 -0.15
      vertex 4 -16.8 -0.15
      vertex 0.810871 -14.4405 -0.15
    endloop
  endfacet
  facet normal -0 0 1
    outer loop
      vertex 0.703648 -14.6111 -0.15
      vertex 4 -16.8 -0.15
      vertex 0.762052 -14.5288 -0.15
    endloop
  endfacet
  facet normal -0 0 1
    outer loop
      vertex 0.636395 -14.6864 -0.15
      vertex 4 -16.8 -0.15
      vertex 0.703648 -14.6111 -0.15
    endloop
  endfacet
  facet normal -0 0 1
    outer loop
      vertex 0.56114 -14.7536 -0.15
      vertex 4 -16.8 -0.15
      vertex 0.636395 -14.6864 -0.15
    endloop
  endfacet
  facet normal -0 0 1
    outer loop
      vertex 0.478828 -14.8121 -0.15
      vertex 4 -16.8 -0.15
      vertex 0.56114 -14.7536 -0.15
    endloop
  endfacet
  facet normal -0 0 1
    outer loop
      vertex 0.390495 -14.8609 -0.15
      vertex 4 -16.8 -0.15
      vertex 0.478828 -14.8121 -0.15
    endloop
  endfacet
  facet normal -0 0 1
    outer loop
      vertex 0.297251 -14.8995 -0.15
      vertex 4 -16.8 -0.15
      vertex 0.390495 -14.8609 -0.15
    endloop
  endfacet
  facet normal -0 0 1
    outer loop
      vertex 0.200269 -14.9274 -0.15
      vertex 4 -16.8 -0.15
      vertex 0.297251 -14.8995 -0.15
    endloop
  endfacet
  facet normal -0 0 1
    outer loop
      vertex 0.100767 -14.9443 -0.15
      vertex 4 -16.8 -0.15
      vertex 0.200269 -14.9274 -0.15
    endloop
  endfacet
  facet normal -0 0 1
    outer loop
      vertex 0 -14.95 -0.15
      vertex 4 -16.8 -0.15
      vertex 0.100767 -14.9443 -0.15
    endloop
  endfacet
  facet normal 0 0 1
    outer loop
      vertex -4 -16.8 -0.15
      vertex 0 -14.95 -0.15
      vertex -0.100767 -14.9443 -0.15
    endloop
  endfacet
  facet normal 0 0 1
    outer loop
      vertex -4 -16.8 -0.15
      vertex -0.100767 -14.9443 -0.15
      vertex -0.200269 -14.9274 -0.15
    endloop
  endfacet
  facet normal 0 0 1
    outer loop
      vertex -4 -16.8 -0.15
      vertex -0.200269 -14.9274 -0.15
      vertex -0.297251 -14.8995 -0.15
    endloop
  endfacet
  facet normal 0 0 1
    outer loop
      vertex -4 -16.8 -0.15
      vertex -0.297251 -14.8995 -0.15
      vertex -0.390495 -14.8609 -0.15
    endloop
  endfacet
  facet normal 0 0 1
    outer loop
      vertex -4 -16.8 -0.15
      vertex -0.9 -14.05 -0.15
      vertex -4 -10.9 -0.15
    endloop
  endfacet
  facet normal 0 0 1
    outer loop
      vertex -0.9 -14.05 -0.15
      vertex -4 -16.8 -0.15
      vertex -0.894341 -14.1508 -0.15
    endloop
  endfacet
  facet normal 0 0 1
    outer loop
      vertex -0.894341 -14.1508 -0.15
      vertex -4 -16.8 -0.15
      vertex -0.877435 -14.2503 -0.15
    endloop
  endfacet
  facet normal 0 0 1
    outer loop
      vertex -0.877435 -14.2503 -0.15
      vertex -4 -16.8 -0.15
      vertex -0.849495 -14.3473 -0.15
    endloop
  endfacet
  facet normal 0 0 1
    outer loop
      vertex -0.849495 -14.3473 -0.15
      vertex -4 -16.8 -0.15
      vertex -0.810871 -14.4405 -0.15
    endloop
  endfacet
  facet normal 0 0 1
    outer loop
      vertex -0.810871 -14.4405 -0.15
      vertex -4 -16.8 -0.15
      vertex -0.762052 -14.5288 -0.15
    endloop
  endfacet
  facet normal 0 0 1
    outer loop
      vertex 0 -14.95 -0.15
      vertex -4 -16.8 -0.15
      vertex 4 -16.8 -0.15
    endloop
  endfacet
  facet normal 0 0 1
    outer loop
      vertex -0.478828 -14.8121 -0.15
      vertex -4 -16.8 -0.15
      vertex -0.390495 -14.8609 -0.15
    endloop
  endfacet
  facet normal 0 0 1
    outer loop
      vertex -0.56114 -14.7536 -0.15
      vertex -4 -16.8 -0.15
      vertex -0.478828 -14.8121 -0.15
    endloop
  endfacet
  facet normal 0 0 1
    outer loop
      vertex -0.636395 -14.6864 -0.15
      vertex -4 -16.8 -0.15
      vertex -0.56114 -14.7536 -0.15
    endloop
  endfacet
  facet normal 0 0 1
    outer loop
      vertex -0.703648 -14.6111 -0.15
      vertex -4 -16.8 -0.15
      vertex -0.636395 -14.6864 -0.15
    endloop
  endfacet
  facet normal 0 0 1
    outer loop
      vertex -0.762052 -14.5288 -0.15
      vertex -4 -16.8 -0.15
      vertex -0.703648 -14.6111 -0.15
    endloop
  endfacet
  facet normal 0 0 1
    outer loop
      vertex 4 16.8 -0.15
      vertex 0.9 14.05 -0.15
      vertex 4 10.9 -0.15
    endloop
  endfacet
  facet normal 0 0 1
    outer loop
      vertex 4 16.8 -0.15
      vertex 0.894341 14.1508 -0.15
      vertex 0.9 14.05 -0.15
    endloop
  endfacet
  facet normal 0 0 1
    outer loop
      vertex 4 16.8 -0.15
      vertex 0.877435 14.2503 -0.15
      vertex 0.894341 14.1508 -0.15
    endloop
  endfacet
  facet normal 0 0 1
    outer loop
      vertex 4 16.8 -0.15
      vertex 0.849495 14.3473 -0.15
      vertex 0.877435 14.2503 -0.15
    endloop
  endfacet
  facet normal 0 0 1
    outer loop
      vertex 4 16.8 -0.15
      vertex 0.810871 14.4405 -0.15
      vertex 0.849495 14.3473 -0.15
    endloop
  endfacet
  facet normal 0 0 1
    outer loop
      vertex 4 16.8 -0.15
      vertex 0.762052 14.5288 -0.15
      vertex 0.810871 14.4405 -0.15
    endloop
  endfacet
  facet normal 0 0 1
    outer loop
      vertex 4 16.8 -0.15
      vertex 0.703648 14.6111 -0.15
      vertex 0.762052 14.5288 -0.15
    endloop
  endfacet
  facet normal 0 0 1
    outer loop
      vertex 4 16.8 -0.15
      vertex 0.636395 14.6864 -0.15
      vertex 0.703648 14.6111 -0.15
    endloop
  endfacet
  facet normal 0 0 1
    outer loop
      vertex 4 16.8 -0.15
      vertex 0.56114 14.7536 -0.15
      vertex 0.636395 14.6864 -0.15
    endloop
  endfacet
  facet normal 0 0 1
    outer loop
      vertex 4 16.8 -0.15
      vertex 0.478828 14.8121 -0.15
      vertex 0.56114 14.7536 -0.15
    endloop
  endfacet
  facet normal 0 0 1
    outer loop
      vertex 4 16.8 -0.15
      vertex 0.390495 14.8609 -0.15
      vertex 0.478828 14.8121 -0.15
    endloop
  endfacet
  facet normal 0 0 1
    outer loop
      vertex 4 16.8 -0.15
      vertex 0.297251 14.8995 -0.15
      vertex 0.390495 14.8609 -0.15
    endloop
  endfacet
  facet normal 0 0 1
    outer loop
      vertex 4 16.8 -0.15
      vertex 0.200269 14.9274 -0.15
      vertex 0.297251 14.8995 -0.15
    endloop
  endfacet
  facet normal 0 0 1
    outer loop
      vertex 4 16.8 -0.15
      vertex 0.100767 14.9443 -0.15
      vertex 0.200269 14.9274 -0.15
    endloop
  endfacet
  facet normal 0 0 1
    outer loop
      vertex 4 16.8 -0.15
      vertex 0 14.95 -0.15
      vertex 0.100767 14.9443 -0.15
    endloop
  endfacet
  facet normal -0 0 1
    outer loop
      vertex -4 16.8 -0.15
      vertex 0 14.95 -0.15
      vertex 4 16.8 -0.15
    endloop
  endfacet
  facet normal 0 0 1
    outer loop
      vertex 0 14.95 -0.15
      vertex -4 16.8 -0.15
      vertex -0.100767 14.9443 -0.15
    endloop
  endfacet
  facet normal 0 0 1
    outer loop
      vertex -0.100767 14.9443 -0.15
      vertex -4 16.8 -0.15
      vertex -0.200269 14.9274 -0.15
    endloop
  endfacet
  facet normal 0 0 1
    outer loop
      vertex -0.200269 14.9274 -0.15
      vertex -4 16.8 -0.15
      vertex -0.297251 14.8995 -0.15
    endloop
  endfacet
  facet normal 0 0 1
    outer loop
      vertex -0.894341 14.1508 -0.15
      vertex -4 16.8 -0.15
      vertex -0.9 14.05 -0.15
    endloop
  endfacet
  facet normal 0 0 1
    outer loop
      vertex -0.877435 14.2503 -0.15
      vertex -4 16.8 -0.15
      vertex -0.894341 14.1508 -0.15
    endloop
  endfacet
  facet normal 0 0 1
    outer loop
      vertex -0.849495 14.3473 -0.15
      vertex -4 16.8 -0.15
      vertex -0.877435 14.2503 -0.15
    endloop
  endfacet
  facet normal 0 0 1
    outer loop
      vertex -0.810871 14.4405 -0.15
      vertex -4 16.8 -0.15
      vertex -0.849495 14.3473 -0.15
    endloop
  endfacet
  facet normal 0 0 1
    outer loop
      vertex -0.762052 14.5288 -0.15
      vertex -4 16.8 -0.15
      vertex -0.810871 14.4405 -0.15
    endloop
  endfacet
  facet normal 0 0 1
    outer loop
      vertex -0.703648 14.6111 -0.15
      vertex -4 16.8 -0.15
      vertex -0.762052 14.5288 -0.15
    endloop
  endfacet
  facet normal 0 0 1
    outer loop
      vertex -0.636395 14.6864 -0.15
      vertex -4 16.8 -0.15
      vertex -0.703648 14.6111 -0.15
    endloop
  endfacet
  facet normal 0 0 1
    outer loop
      vertex -0.56114 14.7536 -0.15
      vertex -4 16.8 -0.15
      vertex -0.636395 14.6864 -0.15
    endloop
  endfacet
  facet normal 0 0 1
    outer loop
      vertex -0.478828 14.8121 -0.15
      vertex -4 16.8 -0.15
      vertex -0.56114 14.7536 -0.15
    endloop
  endfacet
  facet normal 0 0 1
    outer loop
      vertex -0.390495 14.8609 -0.15
      vertex -4 16.8 -0.15
      vertex -0.478828 14.8121 -0.15
    endloop
  endfacet
  facet normal 0 0 1
    outer loop
      vertex -0.297251 14.8995 -0.15
      vertex -4 16.8 -0.15
      vertex -0.390495 14.8609 -0.15
    endloop
  endfacet
  facet normal -0 0 1
    outer loop
      vertex 0.894341 13.9492 -0.15
      vertex 4 10.9 -0.15
      vertex 0.9 14.05 -0.15
    endloop
  endfacet
  facet normal -0 0 1
    outer loop
      vertex 0.877435 13.8497 -0.15
      vertex 4 10.9 -0.15
      vertex 0.894341 13.9492 -0.15
    endloop
  endfacet
  facet normal -0 0 1
    outer loop
      vertex 0.849495 13.7527 -0.15
      vertex 4 10.9 -0.15
      vertex 0.877435 13.8497 -0.15
    endloop
  endfacet
  facet normal -0 0 1
    outer loop
      vertex 0.810871 13.6595 -0.15
      vertex 4 10.9 -0.15
      vertex 0.849495 13.7527 -0.15
    endloop
  endfacet
  facet normal -0 0 1
    outer loop
      vertex 0.762052 13.5712 -0.15
      vertex 4 10.9 -0.15
      vertex 0.810871 13.6595 -0.15
    endloop
  endfacet
  facet normal -0 0 1
    outer loop
      vertex 0.703648 13.4889 -0.15
      vertex 4 10.9 -0.15
      vertex 0.762052 13.5712 -0.15
    endloop
  endfacet
  facet normal -0 0 1
    outer loop
      vertex 0.636395 13.4136 -0.15
      vertex 4 10.9 -0.15
      vertex 0.703648 13.4889 -0.15
    endloop
  endfacet
  facet normal -0 0 1
    outer loop
      vertex 0.56114 13.3464 -0.15
      vertex 4 10.9 -0.15
      vertex 0.636395 13.4136 -0.15
    endloop
  endfacet
  facet normal -0 0 1
    outer loop
      vertex 0.478828 13.2879 -0.15
      vertex 4 10.9 -0.15
      vertex 0.56114 13.3464 -0.15
    endloop
  endfacet
  facet normal -0 0 1
    outer loop
      vertex 0.390495 13.2391 -0.15
      vertex 4 10.9 -0.15
      vertex 0.478828 13.2879 -0.15
    endloop
  endfacet
  facet normal -0 0 1
    outer loop
      vertex 0.297251 13.2005 -0.15
      vertex 4 10.9 -0.15
      vertex 0.390495 13.2391 -0.15
    endloop
  endfacet
  facet normal -0 0 1
    outer loop
      vertex 0.200269 13.1726 -0.15
      vertex 4 10.9 -0.15
      vertex 0.297251 13.2005 -0.15
    endloop
  endfacet
  facet normal -0 0 1
    outer loop
      vertex 0.100767 13.1557 -0.15
      vertex 4 10.9 -0.15
      vertex 0.200269 13.1726 -0.15
    endloop
  endfacet
  facet normal -0 0 1
    outer loop
      vertex 0 13.15 -0.15
      vertex 4 10.9 -0.15
      vertex 0.100767 13.1557 -0.15
    endloop
  endfacet
  facet normal 0 0 1
    outer loop
      vertex -4 10.9 -0.15
      vertex 0 13.15 -0.15
      vertex -0.100767 13.1557 -0.15
    endloop
  endfacet
  facet normal 0 0 1
    outer loop
      vertex -4 10.9 -0.15
      vertex -0.100767 13.1557 -0.15
      vertex -0.200269 13.1726 -0.15
    endloop
  endfacet
  facet normal 0 0 1
    outer loop
      vertex -4 10.9 -0.15
      vertex -0.200269 13.1726 -0.15
      vertex -0.297251 13.2005 -0.15
    endloop
  endfacet
  facet normal 0 0 1
    outer loop
      vertex -4 10.9 -0.15
      vertex -0.297251 13.2005 -0.15
      vertex -0.390495 13.2391 -0.15
    endloop
  endfacet
  facet normal 0 0 1
    outer loop
      vertex -4 16.8 -0.15
      vertex -0.894341 13.9492 -0.15
      vertex -0.9 14.05 -0.15
    endloop
  endfacet
  facet normal 0 0 1
    outer loop
      vertex -4 10.9 -0.15
      vertex -0.894341 13.9492 -0.15
      vertex -4 16.8 -0.15
    endloop
  endfacet
  facet normal 0 0 1
    outer loop
      vertex -0.894341 13.9492 -0.15
      vertex -4 10.9 -0.15
      vertex -0.877435 13.8497 -0.15
    endloop
  endfacet
  facet normal 0 0 1
    outer loop
      vertex -0.877435 13.8497 -0.15
      vertex -4 10.9 -0.15
      vertex -0.849495 13.7527 -0.15
    endloop
  endfacet
  facet normal 0 0 1
    outer loop
      vertex -0.849495 13.7527 -0.15
      vertex -4 10.9 -0.15
      vertex -0.810871 13.6595 -0.15
    endloop
  endfacet
  facet normal 0 0 1
    outer loop
      vertex -0.810871 13.6595 -0.15
      vertex -4 10.9 -0.15
      vertex -0.762052 13.5712 -0.15
    endloop
  endfacet
  facet normal 0 0 1
    outer loop
      vertex -0.762052 13.5712 -0.15
      vertex -4 10.9 -0.15
      vertex -0.703648 13.4889 -0.15
    endloop
  endfacet
  facet normal 0 0 1
    outer loop
      vertex 0 13.15 -0.15
      vertex -4 10.9 -0.15
      vertex 4 10.9 -0.15
    endloop
  endfacet
  facet normal 0 0 1
    outer loop
      vertex -0.478828 13.2879 -0.15
      vertex -4 10.9 -0.15
      vertex -0.390495 13.2391 -0.15
    endloop
  endfacet
  facet normal 0 0 1
    outer loop
      vertex -0.56114 13.3464 -0.15
      vertex -4 10.9 -0.15
      vertex -0.478828 13.2879 -0.15
    endloop
  endfacet
  facet normal 0 0 1
    outer loop
      vertex -0.636395 13.4136 -0.15
      vertex -4 10.9 -0.15
      vertex -0.56114 13.3464 -0.15
    endloop
  endfacet
  facet normal 0 0 1
    outer loop
      vertex -0.703648 13.4889 -0.15
      vertex -4 10.9 -0.15
      vertex -0.636395 13.4136 -0.15
    endloop
  endfacet
  facet normal 0 0 -1
    outer loop
      vertex 0.894341 -14.1508 -3
      vertex 4 -12.1 -3
      vertex 4 -16.8 -3
    endloop
  endfacet
  facet normal 0 0 -1
    outer loop
      vertex 4 -12.1 -3
      vertex 0.894341 -14.1508 -3
      vertex 0.9 -14.05 -3
    endloop
  endfacet
  facet normal 0 0 -1
    outer loop
      vertex 4 -16.8 -3
      vertex 0.877435 -14.2503 -3
      vertex 0.894341 -14.1508 -3
    endloop
  endfacet
  facet normal 0 0 -1
    outer loop
      vertex 4 -16.8 -3
      vertex 0.849495 -14.3473 -3
      vertex 0.877435 -14.2503 -3
    endloop
  endfacet
  facet normal 0 0 -1
    outer loop
      vertex 4 -16.8 -3
      vertex 0.810871 -14.4405 -3
      vertex 0.849495 -14.3473 -3
    endloop
  endfacet
  facet normal 0 0 -1
    outer loop
      vertex 4 -16.8 -3
      vertex 0.762052 -14.5288 -3
      vertex 0.810871 -14.4405 -3
    endloop
  endfacet
  facet normal 0 0 -1
    outer loop
      vertex 4 -16.8 -3
      vertex 0.703648 -14.6111 -3
      vertex 0.762052 -14.5288 -3
    endloop
  endfacet
  facet normal 0 0 -1
    outer loop
      vertex 4 -16.8 -3
      vertex 0.636395 -14.6864 -3
      vertex 0.703648 -14.6111 -3
    endloop
  endfacet
  facet normal 0 0 -1
    outer loop
      vertex 4 -16.8 -3
      vertex 0.56114 -14.7536 -3
      vertex 0.636395 -14.6864 -3
    endloop
  endfacet
  facet normal 0 0 -1
    outer loop
      vertex 4 -16.8 -3
      vertex 0.478828 -14.8121 -3
      vertex 0.56114 -14.7536 -3
    endloop
  endfacet
  facet normal 0 0 -1
    outer loop
      vertex 4 -16.8 -3
      vertex 0.390495 -14.8609 -3
      vertex 0.478828 -14.8121 -3
    endloop
  endfacet
  facet normal 0 0 -1
    outer loop
      vertex 4 -16.8 -3
      vertex 0.297251 -14.8995 -3
      vertex 0.390495 -14.8609 -3
    endloop
  endfacet
  facet normal 0 0 -1
    outer loop
      vertex 4 -16.8 -3
      vertex 0.200269 -14.9274 -3
      vertex 0.297251 -14.8995 -3
    endloop
  endfacet
  facet normal 0 0 -1
    outer loop
      vertex 4 -16.8 -3
      vertex 0.100767 -14.9443 -3
      vertex 0.200269 -14.9274 -3
    endloop
  endfacet
  facet normal 0 0 -1
    outer loop
      vertex 4 -16.8 -3
      vertex 0 -14.95 -3
      vertex 0.100767 -14.9443 -3
    endloop
  endfacet
  facet normal 0 0 -1
    outer loop
      vertex -4 -16.8 -3
      vertex 0 -14.95 -3
      vertex 4 -16.8 -3
    endloop
  endfacet
  facet normal -0 0 -1
    outer loop
      vertex 0 -14.95 -3
      vertex -4 -16.8 -3
      vertex -0.100767 -14.9443 -3
    endloop
  endfacet
  facet normal -0 0 -1
    outer loop
      vertex -0.100767 -14.9443 -3
      vertex -4 -16.8 -3
      vertex -0.200269 -14.9274 -3
    endloop
  endfacet
  facet normal -0 0 -1
    outer loop
      vertex -0.200269 -14.9274 -3
      vertex -4 -16.8 -3
      vertex -0.297251 -14.8995 -3
    endloop
  endfacet
  facet normal 0 0 -1
    outer loop
      vertex -4 -12.1 -3
      vertex -0.894341 -14.1508 -3
      vertex -4 -16.8 -3
    endloop
  endfacet
  facet normal -0 0 -1
    outer loop
      vertex -0.877435 -14.2503 -3
      vertex -4 -16.8 -3
      vertex -0.894341 -14.1508 -3
    endloop
  endfacet
  facet normal -0 0 -1
    outer loop
      vertex -0.849495 -14.3473 -3
      vertex -4 -16.8 -3
      vertex -0.877435 -14.2503 -3
    endloop
  endfacet
  facet normal -0 0 -1
    outer loop
      vertex -0.810871 -14.4405 -3
      vertex -4 -16.8 -3
      vertex -0.849495 -14.3473 -3
    endloop
  endfacet
  facet normal -0 0 -1
    outer loop
      vertex -0.762052 -14.5288 -3
      vertex -4 -16.8 -3
      vertex -0.810871 -14.4405 -3
    endloop
  endfacet
  facet normal -0 0 -1
    outer loop
      vertex -0.703648 -14.6111 -3
      vertex -4 -16.8 -3
      vertex -0.762052 -14.5288 -3
    endloop
  endfacet
  facet normal -0 0 -1
    outer loop
      vertex -0.636395 -14.6864 -3
      vertex -4 -16.8 -3
      vertex -0.703648 -14.6111 -3
    endloop
  endfacet
  facet normal -0 0 -1
    outer loop
      vertex -0.56114 -14.7536 -3
      vertex -4 -16.8 -3
      vertex -0.636395 -14.6864 -3
    endloop
  endfacet
  facet normal -0 0 -1
    outer loop
      vertex -0.478828 -14.8121 -3
      vertex -4 -16.8 -3
      vertex -0.56114 -14.7536 -3
    endloop
  endfacet
  facet normal -0 0 -1
    outer loop
      vertex -0.390495 -14.8609 -3
      vertex -4 -16.8 -3
      vertex -0.478828 -14.8121 -3
    endloop
  endfacet
  facet normal -0 0 -1
    outer loop
      vertex -0.297251 -14.8995 -3
      vertex -4 -16.8 -3
      vertex -0.390495 -14.8609 -3
    endloop
  endfacet
  facet normal 0 0 -1
    outer loop
      vertex 0.894341 -13.9492 -3
      vertex 4 -12.1 -3
      vertex 0.9 -14.05 -3
    endloop
  endfacet
  facet normal 0 0 -1
    outer loop
      vertex 0.877435 -13.8497 -3
      vertex 4 -12.1 -3
      vertex 0.894341 -13.9492 -3
    endloop
  endfacet
  facet normal 0 0 -1
    outer loop
      vertex 0.849495 -13.7527 -3
      vertex 4 -12.1 -3
      vertex 0.877435 -13.8497 -3
    endloop
  endfacet
  facet normal 0 0 -1
    outer loop
      vertex 0.810871 -13.6595 -3
      vertex 4 -12.1 -3
      vertex 0.849495 -13.7527 -3
    endloop
  endfacet
  facet normal 0 0 -1
    outer loop
      vertex 0.762052 -13.5712 -3
      vertex 4 -12.1 -3
      vertex 0.810871 -13.6595 -3
    endloop
  endfacet
  facet normal 0 0 -1
    outer loop
      vertex 0.703648 -13.4889 -3
      vertex 4 -12.1 -3
      vertex 0.762052 -13.5712 -3
    endloop
  endfacet
  facet normal 0 0 -1
    outer loop
      vertex 0.636395 -13.4136 -3
      vertex 4 -12.1 -3
      vertex 0.703648 -13.4889 -3
    endloop
  endfacet
  facet normal 0 0 -1
    outer loop
      vertex 0.56114 -13.3464 -3
      vertex 4 -12.1 -3
      vertex 0.636395 -13.4136 -3
    endloop
  endfacet
  facet normal 0 0 -1
    outer loop
      vertex 0.478828 -13.2879 -3
      vertex 4 -12.1 -3
      vertex 0.56114 -13.3464 -3
    endloop
  endfacet
  facet normal 0 0 -1
    outer loop
      vertex 0.390495 -13.2391 -3
      vertex 4 -12.1 -3
      vertex 0.478828 -13.2879 -3
    endloop
  endfacet
  facet normal 0 0 -1
    outer loop
      vertex 0.297251 -13.2005 -3
      vertex 4 -12.1 -3
      vertex 0.390495 -13.2391 -3
    endloop
  endfacet
  facet normal 0 0 -1
    outer loop
      vertex 0.200269 -13.1726 -3
      vertex 4 -12.1 -3
      vertex 0.297251 -13.2005 -3
    endloop
  endfacet
  facet normal 0 0 -1
    outer loop
      vertex 0.100767 -13.1557 -3
      vertex 4 -12.1 -3
      vertex 0.200269 -13.1726 -3
    endloop
  endfacet
  facet normal 0 0 -1
    outer loop
      vertex 0 -13.15 -3
      vertex 4 -12.1 -3
      vertex 0.100767 -13.1557 -3
    endloop
  endfacet
  facet normal 0 0 -1
    outer loop
      vertex -4 -12.1 -3
      vertex 0 -13.15 -3
      vertex -0.100767 -13.1557 -3
    endloop
  endfacet
  facet normal 0 0 -1
    outer loop
      vertex -4 -12.1 -3
      vertex -0.100767 -13.1557 -3
      vertex -0.200269 -13.1726 -3
    endloop
  endfacet
  facet normal 0 0 -1
    outer loop
      vertex -0.894341 -14.1508 -3
      vertex -4 -12.1 -3
      vertex -0.9 -14.05 -3
    endloop
  endfacet
  facet normal 0 0 -1
    outer loop
      vertex -0.9 -14.05 -3
      vertex -4 -12.1 -3
      vertex -0.894341 -13.9492 -3
    endloop
  endfacet
  facet normal 0 0 -1
    outer loop
      vertex -0.894341 -13.9492 -3
      vertex -4 -12.1 -3
      vertex -0.877435 -13.8497 -3
    endloop
  endfacet
  facet normal 0 0 -1
    outer loop
      vertex -0.877435 -13.8497 -3
      vertex -4 -12.1 -3
      vertex -0.849495 -13.7527 -3
    endloop
  endfacet
  facet normal 0 0 -1
    outer loop
      vertex -0.849495 -13.7527 -3
      vertex -4 -12.1 -3
      vertex -0.810871 -13.6595 -3
    endloop
  endfacet
  facet normal 0 0 -1
    outer loop
      vertex -0.810871 -13.6595 -3
      vertex -4 -12.1 -3
      vertex -0.762052 -13.5712 -3
    endloop
  endfacet
  facet normal 0 0 -1
    outer loop
      vertex -0.762052 -13.5712 -3
      vertex -4 -12.1 -3
      vertex -0.703648 -13.4889 -3
    endloop
  endfacet
  facet normal 0 0 -1
    outer loop
      vertex 0 -13.15 -3
      vertex -4 -12.1 -3
      vertex 4 -12.1 -3
    endloop
  endfacet
  facet normal 0 0 -1
    outer loop
      vertex -0.297251 -13.2005 -3
      vertex -4 -12.1 -3
      vertex -0.200269 -13.1726 -3
    endloop
  endfacet
  facet normal 0 0 -1
    outer loop
      vertex -0.390495 -13.2391 -3
      vertex -4 -12.1 -3
      vertex -0.297251 -13.2005 -3
    endloop
  endfacet
  facet normal 0 0 -1
    outer loop
      vertex -0.478828 -13.2879 -3
      vertex -4 -12.1 -3
      vertex -0.390495 -13.2391 -3
    endloop
  endfacet
  facet normal 0 0 -1
    outer loop
      vertex -0.56114 -13.3464 -3
      vertex -4 -12.1 -3
      vertex -0.478828 -13.2879 -3
    endloop
  endfacet
  facet normal 0 0 -1
    outer loop
      vertex -0.636395 -13.4136 -3
      vertex -4 -12.1 -3
      vertex -0.56114 -13.3464 -3
    endloop
  endfacet
  facet normal 0 0 -1
    outer loop
      vertex -0.703648 -13.4889 -3
      vertex -4 -12.1 -3
      vertex -0.636395 -13.4136 -3
    endloop
  endfacet
  facet normal 0 -1 0
    outer loop
      vertex -4 -16.8 -3
      vertex 4 -16.8 -0.15
      vertex -4 -16.8 -0.15
    endloop
  endfacet
  facet normal 0 -1 -0
    outer loop
      vertex 4 -16.8 -0.15
      vertex -4 -16.8 -3
      vertex 4 -16.8 -3
    endloop
  endfacet
  facet normal 0 1 -0
    outer loop
      vertex 4 16.8 -3
      vertex -4 16.8 -0.15
      vertex 4 16.8 -0.15
    endloop
  endfacet
  facet normal 0 1 0
    outer loop
      vertex -4 16.8 -0.15
      vertex 4 16.8 -3
      vertex -4 16.8 -3
    endloop
  endfacet
  facet normal 0 0 -1
    outer loop
      vertex 0.894341 14.1508 -3
      vertex 4 12.1 -3
      vertex 0.9 14.05 -3
    endloop
  endfacet
  facet normal 0 0 -1
    outer loop
      vertex 4 12.1 -3
      vertex 0.894341 13.9492 -3
      vertex 0.9 14.05 -3
    endloop
  endfacet
  facet normal 0 0 -1
    outer loop
      vertex 4 12.1 -3
      vertex 0.877435 13.8497 -3
      vertex 0.894341 13.9492 -3
    endloop
  endfacet
  facet normal 0 0 -1
    outer loop
      vertex 4 12.1 -3
      vertex 0.849495 13.7527 -3
      vertex 0.877435 13.8497 -3
    endloop
  endfacet
  facet normal 0 0 -1
    outer loop
      vertex 4 12.1 -3
      vertex 0.810871 13.6595 -3
      vertex 0.849495 13.7527 -3
    endloop
  endfacet
  facet normal 0 0 -1
    outer loop
      vertex 4 12.1 -3
      vertex 0.762052 13.5712 -3
      vertex 0.810871 13.6595 -3
    endloop
  endfacet
  facet normal 0 0 -1
    outer loop
      vertex 4 12.1 -3
      vertex 0.703648 13.4889 -3
      vertex 0.762052 13.5712 -3
    endloop
  endfacet
  facet normal 0 0 -1
    outer loop
      vertex 4 12.1 -3
      vertex 0.636395 13.4136 -3
      vertex 0.703648 13.4889 -3
    endloop
  endfacet
  facet normal 0 0 -1
    outer loop
      vertex 4 12.1 -3
      vertex 0.56114 13.3464 -3
      vertex 0.636395 13.4136 -3
    endloop
  endfacet
  facet normal 0 0 -1
    outer loop
      vertex 4 12.1 -3
      vertex 0.478828 13.2879 -3
      vertex 0.56114 13.3464 -3
    endloop
  endfacet
  facet normal 0 0 -1
    outer loop
      vertex 4 12.1 -3
      vertex 0.390495 13.2391 -3
      vertex 0.478828 13.2879 -3
    endloop
  endfacet
  facet normal 0 0 -1
    outer loop
      vertex 4 12.1 -3
      vertex 0.297251 13.2005 -3
      vertex 0.390495 13.2391 -3
    endloop
  endfacet
  facet normal 0 0 -1
    outer loop
      vertex 4 12.1 -3
      vertex 0.200269 13.1726 -3
      vertex 0.297251 13.2005 -3
    endloop
  endfacet
  facet normal 0 0 -1
    outer loop
      vertex 4 12.1 -3
      vertex 0.100767 13.1557 -3
      vertex 0.200269 13.1726 -3
    endloop
  endfacet
  facet normal 0 0 -1
    outer loop
      vertex 4 12.1 -3
      vertex 0 13.15 -3
      vertex 0.100767 13.1557 -3
    endloop
  endfacet
  facet normal 0 0 -1
    outer loop
      vertex -4 12.1 -3
      vertex 0 13.15 -3
      vertex 4 12.1 -3
    endloop
  endfacet
  facet normal -0 0 -1
    outer loop
      vertex 0 13.15 -3
      vertex -4 12.1 -3
      vertex -0.100767 13.1557 -3
    endloop
  endfacet
  facet normal -0 0 -1
    outer loop
      vertex -0.894341 13.9492 -3
      vertex -4 12.1 -3
      vertex -0.9 14.05 -3
    endloop
  endfacet
  facet normal -0 0 -1
    outer loop
      vertex -0.877435 13.8497 -3
      vertex -4 12.1 -3
      vertex -0.894341 13.9492 -3
    endloop
  endfacet
  facet normal -0 0 -1
    outer loop
      vertex -0.849495 13.7527 -3
      vertex -4 12.1 -3
      vertex -0.877435 13.8497 -3
    endloop
  endfacet
  facet normal -0 0 -1
    outer loop
      vertex -0.810871 13.6595 -3
      vertex -4 12.1 -3
      vertex -0.849495 13.7527 -3
    endloop
  endfacet
  facet normal -0 0 -1
    outer loop
      vertex -0.762052 13.5712 -3
      vertex -4 12.1 -3
      vertex -0.810871 13.6595 -3
    endloop
  endfacet
  facet normal -0 0 -1
    outer loop
      vertex -0.703648 13.4889 -3
      vertex -4 12.1 -3
      vertex -0.762052 13.5712 -3
    endloop
  endfacet
  facet normal -0 0 -1
    outer loop
      vertex -0.636395 13.4136 -3
      vertex -4 12.1 -3
      vertex -0.703648 13.4889 -3
    endloop
  endfacet
  facet normal -0 0 -1
    outer loop
      vertex -0.56114 13.3464 -3
      vertex -4 12.1 -3
      vertex -0.636395 13.4136 -3
    endloop
  endfacet
  facet normal -0 0 -1
    outer loop
      vertex -0.478828 13.2879 -3
      vertex -4 12.1 -3
      vertex -0.56114 13.3464 -3
    endloop
  endfacet
  facet normal -0 0 -1
    outer loop
      vertex -0.390495 13.2391 -3
      vertex -4 12.1 -3
      vertex -0.478828 13.2879 -3
    endloop
  endfacet
  facet normal -0 0 -1
    outer loop
      vertex -0.297251 13.2005 -3
      vertex -4 12.1 -3
      vertex -0.390495 13.2391 -3
    endloop
  endfacet
  facet normal -0 0 -1
    outer loop
      vertex -0.200269 13.1726 -3
      vertex -4 12.1 -3
      vertex -0.297251 13.2005 -3
    endloop
  endfacet
  facet normal -0 0 -1
    outer loop
      vertex -0.100767 13.1557 -3
      vertex -4 12.1 -3
      vertex -0.200269 13.1726 -3
    endloop
  endfacet
  facet normal 0 0 -1
    outer loop
      vertex 4 12.1 -3
      vertex 0.894341 14.1508 -3
      vertex 4 16.8 -3
    endloop
  endfacet
  facet normal 0 0 -1
    outer loop
      vertex 0.877435 14.2503 -3
      vertex 4 16.8 -3
      vertex 0.894341 14.1508 -3
    endloop
  endfacet
  facet normal 0 0 -1
    outer loop
      vertex 0.849495 14.3473 -3
      vertex 4 16.8 -3
      vertex 0.877435 14.2503 -3
    endloop
  endfacet
  facet normal 0 0 -1
    outer loop
      vertex 0.810871 14.4405 -3
      vertex 4 16.8 -3
      vertex 0.849495 14.3473 -3
    endloop
  endfacet
  facet normal 0 0 -1
    outer loop
      vertex 0.762052 14.5288 -3
      vertex 4 16.8 -3
      vertex 0.810871 14.4405 -3
    endloop
  endfacet
  facet normal 0 0 -1
    outer loop
      vertex 0.703648 14.6111 -3
      vertex 4 16.8 -3
      vertex 0.762052 14.5288 -3
    endloop
  endfacet
  facet normal 0 0 -1
    outer loop
      vertex 0.636395 14.6864 -3
      vertex 4 16.8 -3
      vertex 0.703648 14.6111 -3
    endloop
  endfacet
  facet normal 0 0 -1
    outer loop
      vertex 0.56114 14.7536 -3
      vertex 4 16.8 -3
      vertex 0.636395 14.6864 -3
    endloop
  endfacet
  facet normal 0 0 -1
    outer loop
      vertex 0.478828 14.8121 -3
      vertex 4 16.8 -3
      vertex 0.56114 14.7536 -3
    endloop
  endfacet
  facet normal 0 0 -1
    outer loop
      vertex 0.390495 14.8609 -3
      vertex 4 16.8 -3
      vertex 0.478828 14.8121 -3
    endloop
  endfacet
  facet normal 0 0 -1
    outer loop
      vertex 0.297251 14.8995 -3
      vertex 4 16.8 -3
      vertex 0.390495 14.8609 -3
    endloop
  endfacet
  facet normal 0 0 -1
    outer loop
      vertex 0.200269 14.9274 -3
      vertex 4 16.8 -3
      vertex 0.297251 14.8995 -3
    endloop
  endfacet
  facet normal 0 0 -1
    outer loop
      vertex 0.100767 14.9443 -3
      vertex 4 16.8 -3
      vertex 0.200269 14.9274 -3
    endloop
  endfacet
  facet normal 0 0 -1
    outer loop
      vertex 0 14.95 -3
      vertex 4 16.8 -3
      vertex 0.100767 14.9443 -3
    endloop
  endfacet
  facet normal 0 0 -1
    outer loop
      vertex -4 16.8 -3
      vertex 0 14.95 -3
      vertex -0.100767 14.9443 -3
    endloop
  endfacet
  facet normal 0 0 -1
    outer loop
      vertex -4 16.8 -3
      vertex -0.100767 14.9443 -3
      vertex -0.200269 14.9274 -3
    endloop
  endfacet
  facet normal 0 0 -1
    outer loop
      vertex -4 16.8 -3
      vertex -0.200269 14.9274 -3
      vertex -0.297251 14.8995 -3
    endloop
  endfacet
  facet normal 0 0 -1
    outer loop
      vertex -4 16.8 -3
      vertex -0.297251 14.8995 -3
      vertex -0.390495 14.8609 -3
    endloop
  endfacet
  facet normal 0 0 -1
    outer loop
      vertex -4 12.1 -3
      vertex -0.894341 14.1508 -3
      vertex -0.9 14.05 -3
    endloop
  endfacet
  facet normal 0 0 -1
    outer loop
      vertex -4 16.8 -3
      vertex -0.894341 14.1508 -3
      vertex -4 12.1 -3
    endloop
  endfacet
  facet normal 0 0 -1
    outer loop
      vertex -0.894341 14.1508 -3
      vertex -4 16.8 -3
      vertex -0.877435 14.2503 -3
    endloop
  endfacet
  facet normal 0 0 -1
    outer loop
      vertex -0.877435 14.2503 -3
      vertex -4 16.8 -3
      vertex -0.849495 14.3473 -3
    endloop
  endfacet
  facet normal 0 0 -1
    outer loop
      vertex -0.849495 14.3473 -3
      vertex -4 16.8 -3
      vertex -0.810871 14.4405 -3
    endloop
  endfacet
  facet normal 0 0 -1
    outer loop
      vertex -0.810871 14.4405 -3
      vertex -4 16.8 -3
      vertex -0.762052 14.5288 -3
    endloop
  endfacet
  facet normal 0 0 -1
    outer loop
      vertex -0.762052 14.5288 -3
      vertex -4 16.8 -3
      vertex -0.703648 14.6111 -3
    endloop
  endfacet
  facet normal 0 0 -1
    outer loop
      vertex -0.703648 14.6111 -3
      vertex -4 16.8 -3
      vertex -0.636395 14.6864 -3
    endloop
  endfacet
  facet normal 0 0 -1
    outer loop
      vertex 0 14.95 -3
      vertex -4 16.8 -3
      vertex 4 16.8 -3
    endloop
  endfacet
  facet normal 0 0 -1
    outer loop
      vertex -0.478828 14.8121 -3
      vertex -4 16.8 -3
      vertex -0.390495 14.8609 -3
    endloop
  endfacet
  facet normal 0 0 -1
    outer loop
      vertex -0.56114 14.7536 -3
      vertex -4 16.8 -3
      vertex -0.478828 14.8121 -3
    endloop
  endfacet
  facet normal 0 0 -1
    outer loop
      vertex -0.636395 14.6864 -3
      vertex -4 16.8 -3
      vertex -0.56114 14.7536 -3
    endloop
  endfacet
  facet normal -0.998428 -0.0560526 0
    outer loop
      vertex 0.9 -14.05 -3
      vertex 0.894341 -13.9492 -0.15
      vertex 0.894341 -13.9492 -3
    endloop
  endfacet
  facet normal -0.998428 -0.0560526 0
    outer loop
      vertex 0.894341 -13.9492 -0.15
      vertex 0.9 -14.05 -3
      vertex 0.9 -14.05 -0.15
    endloop
  endfacet
  facet normal 0.998428 -0.0560526 0
    outer loop
      vertex -0.9 -14.05 -0.15
      vertex -0.894341 -13.9492 -3
      vertex -0.894341 -13.9492 -0.15
    endloop
  endfacet
  facet normal 0.998428 -0.0560526 0
    outer loop
      vertex -0.894341 -13.9492 -3
      vertex -0.9 -14.05 -0.15
      vertex -0.9 -14.05 -3
    endloop
  endfacet
  facet normal -0.0564759 -0.998404 0
    outer loop
      vertex 0 -13.15 -3
      vertex 0.100767 -13.1557 -0.15
      vertex 0 -13.15 -0.15
    endloop
  endfacet
  facet normal -0.0564759 -0.998404 -0
    outer loop
      vertex 0.100767 -13.1557 -0.15
      vertex 0 -13.15 -3
      vertex 0.100767 -13.1557 -3
    endloop
  endfacet
  facet normal 0.0564759 0.998404 -0
    outer loop
      vertex 0 -14.95 -3
      vertex -0.100767 -14.9443 -0.15
      vertex 0 -14.95 -0.15
    endloop
  endfacet
  facet normal 0.0564759 0.998404 0
    outer loop
      vertex -0.100767 -14.9443 -0.15
      vertex 0 -14.95 -3
      vertex -0.100767 -14.9443 -3
    endloop
  endfacet
  facet normal -0.745835 -0.666131 0
    outer loop
      vertex 0.703648 -13.4889 -3
      vertex 0.636395 -13.4136 -0.15
      vertex 0.636395 -13.4136 -3
    endloop
  endfacet
  facet normal -0.745835 -0.666131 0
    outer loop
      vertex 0.636395 -13.4136 -0.15
      vertex 0.703648 -13.4889 -3
      vertex 0.703648 -13.4889 -0.15
    endloop
  endfacet
  facet normal 0.66606 -0.745898 0
    outer loop
      vertex -0.636395 -13.4136 -3
      vertex -0.56114 -13.3464 -0.15
      vertex -0.636395 -13.4136 -0.15
    endloop
  endfacet
  facet normal 0.66606 -0.745898 0
    outer loop
      vertex -0.56114 -13.3464 -0.15
      vertex -0.636395 -13.4136 -3
      vertex -0.56114 -13.3464 -3
    endloop
  endfacet
  facet normal 0.382489 -0.92396 0
    outer loop
      vertex -0.390495 -13.2391 -3
      vertex -0.297251 -13.2005 -0.15
      vertex -0.390495 -13.2391 -0.15
    endloop
  endfacet
  facet normal 0.382489 -0.92396 0
    outer loop
      vertex -0.297251 -13.2005 -0.15
      vertex -0.390495 -13.2391 -3
      vertex -0.297251 -13.2005 -3
    endloop
  endfacet
  facet normal -0.923812 -0.382847 0
    outer loop
      vertex 0.849495 -13.7527 -3
      vertex 0.810871 -13.6595 -0.15
      vertex 0.810871 -13.6595 -3
    endloop
  endfacet
  facet normal -0.923812 -0.382847 0
    outer loop
      vertex 0.810871 -13.6595 -0.15
      vertex 0.849495 -13.7527 -3
      vertex 0.849495 -13.7527 -0.15
    endloop
  endfacet
  facet normal -0.875151 -0.48385 0
    outer loop
      vertex 0.810871 -13.6595 -3
      vertex 0.762052 -13.5712 -0.15
      vertex 0.762052 -13.5712 -3
    endloop
  endfacet
  facet normal -0.875151 -0.48385 0
    outer loop
      vertex 0.762052 -13.5712 -0.15
      vertex 0.810871 -13.6595 -3
      vertex 0.810871 -13.6595 -0.15
    endloop
  endfacet
  facet normal -0.483568 -0.875307 0
    outer loop
      vertex 0.390495 -13.2391 -3
      vertex 0.478828 -13.2879 -0.15
      vertex 0.390495 -13.2391 -0.15
    endloop
  endfacet
  facet normal -0.483568 -0.875307 -0
    outer loop
      vertex 0.478828 -13.2879 -0.15
      vertex 0.390495 -13.2391 -3
      vertex 0.478828 -13.2879 -3
    endloop
  endfacet
  facet normal -0.579307 -0.81511 0
    outer loop
      vertex 0.478828 -13.2879 -3
      vertex 0.56114 -13.3464 -0.15
      vertex 0.478828 -13.2879 -0.15
    endloop
  endfacet
  facet normal -0.579307 -0.81511 -0
    outer loop
      vertex 0.56114 -13.3464 -0.15
      vertex 0.478828 -13.2879 -3
      vertex 0.56114 -13.3464 -3
    endloop
  endfacet
  facet normal 0.923812 -0.382847 0
    outer loop
      vertex -0.849495 -13.7527 -0.15
      vertex -0.810871 -13.6595 -3
      vertex -0.810871 -13.6595 -0.15
    endloop
  endfacet
  facet normal 0.923812 -0.382847 0
    outer loop
      vertex -0.810871 -13.6595 -3
      vertex -0.849495 -13.7527 -0.15
      vertex -0.849495 -13.7527 -3
    endloop
  endfacet
  facet normal 0.483568 -0.875307 0
    outer loop
      vertex -0.478828 -13.2879 -3
      vertex -0.390495 -13.2391 -0.15
      vertex -0.478828 -13.2879 -0.15
    endloop
  endfacet
  facet normal 0.483568 -0.875307 0
    outer loop
      vertex -0.390495 -13.2391 -0.15
      vertex -0.478828 -13.2879 -3
      vertex -0.390495 -13.2391 -3
    endloop
  endfacet
  facet normal 0.167448 -0.985881 0
    outer loop
      vertex -0.200269 -13.1726 -3
      vertex -0.100767 -13.1557 -0.15
      vertex -0.200269 -13.1726 -0.15
    endloop
  endfacet
  facet normal 0.167448 -0.985881 0
    outer loop
      vertex -0.100767 -13.1557 -0.15
      vertex -0.200269 -13.1726 -3
      vertex -0.100767 -13.1557 -3
    endloop
  endfacet
  facet normal -0.483568 0.875307 0
    outer loop
      vertex 0.478828 -14.8121 -3
      vertex 0.390495 -14.8609 -0.15
      vertex 0.478828 -14.8121 -0.15
    endloop
  endfacet
  facet normal -0.483568 0.875307 0
    outer loop
      vertex 0.390495 -14.8609 -0.15
      vertex 0.478828 -14.8121 -3
      vertex 0.390495 -14.8609 -3
    endloop
  endfacet
  facet normal 0.998428 0.0560526 0
    outer loop
      vertex -0.894341 -14.1508 -0.15
      vertex -0.9 -14.05 -3
      vertex -0.9 -14.05 -0.15
    endloop
  endfacet
  facet normal 0.998428 0.0560526 0
    outer loop
      vertex -0.9 -14.05 -3
      vertex -0.894341 -14.1508 -0.15
      vertex -0.894341 -14.1508 -3
    endloop
  endfacet
  facet normal -0.960931 -0.276788 0
    outer loop
      vertex 0.877435 -13.8497 -3
      vertex 0.849495 -13.7527 -0.15
      vertex 0.849495 -13.7527 -3
    endloop
  endfacet
  facet normal -0.960931 -0.276788 0
    outer loop
      vertex 0.849495 -13.7527 -0.15
      vertex 0.877435 -13.8497 -3
      vertex 0.877435 -13.8497 -0.15
    endloop
  endfacet
  facet normal -0.985871 -0.167509 0
    outer loop
      vertex 0.894341 -13.9492 -3
      vertex 0.877435 -13.8497 -0.15
      vertex 0.877435 -13.8497 -3
    endloop
  endfacet
  facet normal -0.985871 -0.167509 0
    outer loop
      vertex 0.877435 -13.8497 -0.15
      vertex 0.894341 -13.9492 -3
      vertex 0.894341 -13.9492 -0.15
    endloop
  endfacet
  facet normal -0.815519 -0.578731 0
    outer loop
      vertex 0.762052 -13.5712 -3
      vertex 0.703648 -13.4889 -0.15
      vertex 0.703648 -13.4889 -3
    endloop
  endfacet
  facet normal -0.815519 -0.578731 0
    outer loop
      vertex 0.703648 -13.4889 -0.15
      vertex 0.762052 -13.5712 -3
      vertex 0.762052 -13.5712 -0.15
    endloop
  endfacet
  facet normal -0.276469 -0.961023 0
    outer loop
      vertex 0.200269 -13.1726 -3
      vertex 0.297251 -13.2005 -0.15
      vertex 0.200269 -13.1726 -0.15
    endloop
  endfacet
  facet normal -0.276469 -0.961023 -0
    outer loop
      vertex 0.297251 -13.2005 -0.15
      vertex 0.200269 -13.1726 -3
      vertex 0.297251 -13.2005 -3
    endloop
  endfacet
  facet normal -0.382489 -0.92396 0
    outer loop
      vertex 0.297251 -13.2005 -3
      vertex 0.390495 -13.2391 -0.15
      vertex 0.297251 -13.2005 -0.15
    endloop
  endfacet
  facet normal -0.382489 -0.92396 -0
    outer loop
      vertex 0.390495 -13.2391 -0.15
      vertex 0.297251 -13.2005 -3
      vertex 0.390495 -13.2391 -3
    endloop
  endfacet
  facet normal -0.167448 -0.985881 0
    outer loop
      vertex 0.100767 -13.1557 -3
      vertex 0.200269 -13.1726 -0.15
      vertex 0.100767 -13.1557 -0.15
    endloop
  endfacet
  facet normal -0.167448 -0.985881 -0
    outer loop
      vertex 0.200269 -13.1726 -0.15
      vertex 0.100767 -13.1557 -3
      vertex 0.200269 -13.1726 -3
    endloop
  endfacet
  facet normal -0.66606 -0.745898 0
    outer loop
      vertex 0.56114 -13.3464 -3
      vertex 0.636395 -13.4136 -0.15
      vertex 0.56114 -13.3464 -0.15
    endloop
  endfacet
  facet normal -0.66606 -0.745898 -0
    outer loop
      vertex 0.636395 -13.4136 -0.15
      vertex 0.56114 -13.3464 -3
      vertex 0.636395 -13.4136 -3
    endloop
  endfacet
  facet normal 0.815519 -0.578731 0
    outer loop
      vertex -0.762052 -13.5712 -0.15
      vertex -0.703648 -13.4889 -3
      vertex -0.703648 -13.4889 -0.15
    endloop
  endfacet
  facet normal 0.815519 -0.578731 0
    outer loop
      vertex -0.703648 -13.4889 -3
      vertex -0.762052 -13.5712 -0.15
      vertex -0.762052 -13.5712 -3
    endloop
  endfacet
  facet normal 0.745835 -0.666131 0
    outer loop
      vertex -0.703648 -13.4889 -0.15
      vertex -0.636395 -13.4136 -3
      vertex -0.636395 -13.4136 -0.15
    endloop
  endfacet
  facet normal 0.745835 -0.666131 0
    outer loop
      vertex -0.636395 -13.4136 -3
      vertex -0.703648 -13.4889 -0.15
      vertex -0.703648 -13.4889 -3
    endloop
  endfacet
  facet normal 0.875151 -0.48385 0
    outer loop
      vertex -0.810871 -13.6595 -0.15
      vertex -0.762052 -13.5712 -3
      vertex -0.762052 -13.5712 -0.15
    endloop
  endfacet
  facet normal 0.875151 -0.48385 0
    outer loop
      vertex -0.762052 -13.5712 -3
      vertex -0.810871 -13.6595 -0.15
      vertex -0.810871 -13.6595 -3
    endloop
  endfacet
  facet normal 0.960931 -0.276788 0
    outer loop
      vertex -0.877435 -13.8497 -0.15
      vertex -0.849495 -13.7527 -3
      vertex -0.849495 -13.7527 -0.15
    endloop
  endfacet
  facet normal 0.960931 -0.276788 0
    outer loop
      vertex -0.849495 -13.7527 -3
      vertex -0.877435 -13.8497 -0.15
      vertex -0.877435 -13.8497 -3
    endloop
  endfacet
  facet normal 0.985871 -0.167509 0
    outer loop
      vertex -0.894341 -13.9492 -0.15
      vertex -0.877435 -13.8497 -3
      vertex -0.877435 -13.8497 -0.15
    endloop
  endfacet
  facet normal 0.985871 -0.167509 0
    outer loop
      vertex -0.877435 -13.8497 -3
      vertex -0.894341 -13.9492 -0.15
      vertex -0.894341 -13.9492 -3
    endloop
  endfacet
  facet normal 0.579307 -0.81511 0
    outer loop
      vertex -0.56114 -13.3464 -3
      vertex -0.478828 -13.2879 -0.15
      vertex -0.56114 -13.3464 -0.15
    endloop
  endfacet
  facet normal 0.579307 -0.81511 0
    outer loop
      vertex -0.478828 -13.2879 -0.15
      vertex -0.56114 -13.3464 -3
      vertex -0.478828 -13.2879 -3
    endloop
  endfacet
  facet normal 0.276469 -0.961023 0
    outer loop
      vertex -0.297251 -13.2005 -3
      vertex -0.200269 -13.1726 -0.15
      vertex -0.297251 -13.2005 -0.15
    endloop
  endfacet
  facet normal 0.276469 -0.961023 0
    outer loop
      vertex -0.200269 -13.1726 -0.15
      vertex -0.297251 -13.2005 -3
      vertex -0.200269 -13.1726 -3
    endloop
  endfacet
  facet normal 0.0564759 -0.998404 0
    outer loop
      vertex -0.100767 -13.1557 -3
      vertex 0 -13.15 -0.15
      vertex -0.100767 -13.1557 -0.15
    endloop
  endfacet
  facet normal 0.0564759 -0.998404 0
    outer loop
      vertex 0 -13.15 -0.15
      vertex -0.100767 -13.1557 -3
      vertex 0 -13.15 -3
    endloop
  endfacet
  facet normal -0.998428 0.0560526 0
    outer loop
      vertex 0.894341 -14.1508 -3
      vertex 0.9 -14.05 -0.15
      vertex 0.9 -14.05 -3
    endloop
  endfacet
  facet normal -0.998428 0.0560526 0
    outer loop
      vertex 0.9 -14.05 -0.15
      vertex 0.894341 -14.1508 -3
      vertex 0.894341 -14.1508 -0.15
    endloop
  endfacet
  facet normal -0.0564759 0.998404 0
    outer loop
      vertex 0.100767 -14.9443 -3
      vertex 0 -14.95 -0.15
      vertex 0.100767 -14.9443 -0.15
    endloop
  endfacet
  facet normal -0.0564759 0.998404 0
    outer loop
      vertex 0 -14.95 -0.15
      vertex 0.100767 -14.9443 -3
      vertex 0 -14.95 -3
    endloop
  endfacet
  facet normal -0.276469 0.961023 0
    outer loop
      vertex 0.297251 -14.8995 -3
      vertex 0.200269 -14.9274 -0.15
      vertex 0.297251 -14.8995 -0.15
    endloop
  endfacet
  facet normal -0.276469 0.961023 0
    outer loop
      vertex 0.200269 -14.9274 -0.15
      vertex 0.297251 -14.8995 -3
      vertex 0.200269 -14.9274 -3
    endloop
  endfacet
  facet normal -0.579307 0.81511 0
    outer loop
      vertex 0.56114 -14.7536 -3
      vertex 0.478828 -14.8121 -0.15
      vertex 0.56114 -14.7536 -0.15
    endloop
  endfacet
  facet normal -0.579307 0.81511 0
    outer loop
      vertex 0.478828 -14.8121 -0.15
      vertex 0.56114 -14.7536 -3
      vertex 0.478828 -14.8121 -3
    endloop
  endfacet
  facet normal -0.745835 0.666131 0
    outer loop
      vertex 0.636395 -14.6864 -3
      vertex 0.703648 -14.6111 -0.15
      vertex 0.703648 -14.6111 -3
    endloop
  endfacet
  facet normal -0.745835 0.666131 0
    outer loop
      vertex 0.703648 -14.6111 -0.15
      vertex 0.636395 -14.6864 -3
      vertex 0.636395 -14.6864 -0.15
    endloop
  endfacet
  facet normal -0.875151 0.48385 0
    outer loop
      vertex 0.762052 -14.5288 -3
      vertex 0.810871 -14.4405 -0.15
      vertex 0.810871 -14.4405 -3
    endloop
  endfacet
  facet normal -0.875151 0.48385 0
    outer loop
      vertex 0.810871 -14.4405 -0.15
      vertex 0.762052 -14.5288 -3
      vertex 0.762052 -14.5288 -0.15
    endloop
  endfacet
  facet normal 0.66606 0.745898 -0
    outer loop
      vertex -0.56114 -14.7536 -3
      vertex -0.636395 -14.6864 -0.15
      vertex -0.56114 -14.7536 -0.15
    endloop
  endfacet
  facet normal 0.66606 0.745898 0
    outer loop
      vertex -0.636395 -14.6864 -0.15
      vertex -0.56114 -14.7536 -3
      vertex -0.636395 -14.6864 -3
    endloop
  endfacet
  facet normal 0.483568 0.875307 -0
    outer loop
      vertex -0.390495 -14.8609 -3
      vertex -0.478828 -14.8121 -0.15
      vertex -0.390495 -14.8609 -0.15
    endloop
  endfacet
  facet normal 0.483568 0.875307 0
    outer loop
      vertex -0.478828 -14.8121 -0.15
      vertex -0.390495 -14.8609 -3
      vertex -0.478828 -14.8121 -3
    endloop
  endfacet
  facet normal 0.382489 0.92396 -0
    outer loop
      vertex -0.297251 -14.8995 -3
      vertex -0.390495 -14.8609 -0.15
      vertex -0.297251 -14.8995 -0.15
    endloop
  endfacet
  facet normal 0.382489 0.92396 0
    outer loop
      vertex -0.390495 -14.8609 -0.15
      vertex -0.297251 -14.8995 -3
      vertex -0.390495 -14.8609 -3
    endloop
  endfacet
  facet normal 0.167448 0.985881 -0
    outer loop
      vertex -0.100767 -14.9443 -3
      vertex -0.200269 -14.9274 -0.15
      vertex -0.100767 -14.9443 -0.15
    endloop
  endfacet
  facet normal 0.167448 0.985881 0
    outer loop
      vertex -0.200269 -14.9274 -0.15
      vertex -0.100767 -14.9443 -3
      vertex -0.200269 -14.9274 -3
    endloop
  endfacet
  facet normal 0.923812 0.382847 0
    outer loop
      vertex -0.810871 -14.4405 -0.15
      vertex -0.849495 -14.3473 -3
      vertex -0.849495 -14.3473 -0.15
    endloop
  endfacet
  facet normal 0.923812 0.382847 0
    outer loop
      vertex -0.849495 -14.3473 -3
      vertex -0.810871 -14.4405 -0.15
      vertex -0.810871 -14.4405 -3
    endloop
  endfacet
  facet normal 0.815519 0.578731 0
    outer loop
      vertex -0.703648 -14.6111 -0.15
      vertex -0.762052 -14.5288 -3
      vertex -0.762052 -14.5288 -0.15
    endloop
  endfacet
  facet normal 0.815519 0.578731 0
    outer loop
      vertex -0.762052 -14.5288 -3
      vertex -0.703648 -14.6111 -0.15
      vertex -0.703648 -14.6111 -3
    endloop
  endfacet
  facet normal 0.985871 0.167509 0
    outer loop
      vertex -0.877435 -14.2503 -0.15
      vertex -0.894341 -14.1508 -3
      vertex -0.894341 -14.1508 -0.15
    endloop
  endfacet
  facet normal 0.985871 0.167509 0
    outer loop
      vertex -0.894341 -14.1508 -3
      vertex -0.877435 -14.2503 -0.15
      vertex -0.877435 -14.2503 -3
    endloop
  endfacet
  facet normal -0.167448 0.985881 0
    outer loop
      vertex 0.200269 -14.9274 -3
      vertex 0.100767 -14.9443 -0.15
      vertex 0.200269 -14.9274 -0.15
    endloop
  endfacet
  facet normal -0.167448 0.985881 0
    outer loop
      vertex 0.100767 -14.9443 -0.15
      vertex 0.200269 -14.9274 -3
      vertex 0.100767 -14.9443 -3
    endloop
  endfacet
  facet normal -0.382489 0.92396 0
    outer loop
      vertex 0.390495 -14.8609 -3
      vertex 0.297251 -14.8995 -0.15
      vertex 0.390495 -14.8609 -0.15
    endloop
  endfacet
  facet normal -0.382489 0.92396 0
    outer loop
      vertex 0.297251 -14.8995 -0.15
      vertex 0.390495 -14.8609 -3
      vertex 0.297251 -14.8995 -3
    endloop
  endfacet
  facet normal -0.66606 0.745898 0
    outer loop
      vertex 0.636395 -14.6864 -3
      vertex 0.56114 -14.7536 -0.15
      vertex 0.636395 -14.6864 -0.15
    endloop
  endfacet
  facet normal -0.66606 0.745898 0
    outer loop
      vertex 0.56114 -14.7536 -0.15
      vertex 0.636395 -14.6864 -3
      vertex 0.56114 -14.7536 -3
    endloop
  endfacet
  facet normal -0.815519 0.578731 0
    outer loop
      vertex 0.703648 -14.6111 -3
      vertex 0.762052 -14.5288 -0.15
      vertex 0.762052 -14.5288 -3
    endloop
  endfacet
  facet normal -0.815519 0.578731 0
    outer loop
      vertex 0.762052 -14.5288 -0.15
      vertex 0.703648 -14.6111 -3
      vertex 0.703648 -14.6111 -0.15
    endloop
  endfacet
  facet normal -0.923812 0.382847 0
    outer loop
      vertex 0.810871 -14.4405 -3
      vertex 0.849495 -14.3473 -0.15
      vertex 0.849495 -14.3473 -3
    endloop
  endfacet
  facet normal -0.923812 0.382847 0
    outer loop
      vertex 0.849495 -14.3473 -0.15
      vertex 0.810871 -14.4405 -3
      vertex 0.810871 -14.4405 -0.15
    endloop
  endfacet
  facet normal -0.985871 0.167509 0
    outer loop
      vertex 0.877435 -14.2503 -3
      vertex 0.894341 -14.1508 -0.15
      vertex 0.894341 -14.1508 -3
    endloop
  endfacet
  facet normal -0.985871 0.167509 0
    outer loop
      vertex 0.894341 -14.1508 -0.15
      vertex 0.877435 -14.2503 -3
      vertex 0.877435 -14.2503 -0.15
    endloop
  endfacet
  facet normal -0.960931 0.276788 0
    outer loop
      vertex 0.849495 -14.3473 -3
      vertex 0.877435 -14.2503 -0.15
      vertex 0.877435 -14.2503 -3
    endloop
  endfacet
  facet normal -0.960931 0.276788 0
    outer loop
      vertex 0.877435 -14.2503 -0.15
      vertex 0.849495 -14.3473 -3
      vertex 0.849495 -14.3473 -0.15
    endloop
  endfacet
  facet normal 0.579307 0.81511 -0
    outer loop
      vertex -0.478828 -14.8121 -3
      vertex -0.56114 -14.7536 -0.15
      vertex -0.478828 -14.8121 -0.15
    endloop
  endfacet
  facet normal 0.579307 0.81511 0
    outer loop
      vertex -0.56114 -14.7536 -0.15
      vertex -0.478828 -14.8121 -3
      vertex -0.56114 -14.7536 -3
    endloop
  endfacet
  facet normal 0.276469 0.961023 -0
    outer loop
      vertex -0.200269 -14.9274 -3
      vertex -0.297251 -14.8995 -0.15
      vertex -0.200269 -14.9274 -0.15
    endloop
  endfacet
  facet normal 0.276469 0.961023 0
    outer loop
      vertex -0.297251 -14.8995 -0.15
      vertex -0.200269 -14.9274 -3
      vertex -0.297251 -14.8995 -3
    endloop
  endfacet
  facet normal 0.875151 0.48385 0
    outer loop
      vertex -0.762052 -14.5288 -0.15
      vertex -0.810871 -14.4405 -3
      vertex -0.810871 -14.4405 -0.15
    endloop
  endfacet
  facet normal 0.875151 0.48385 0
    outer loop
      vertex -0.810871 -14.4405 -3
      vertex -0.762052 -14.5288 -0.15
      vertex -0.762052 -14.5288 -3
    endloop
  endfacet
  facet normal 0.745835 0.666131 0
    outer loop
      vertex -0.636395 -14.6864 -0.15
      vertex -0.703648 -14.6111 -3
      vertex -0.703648 -14.6111 -0.15
    endloop
  endfacet
  facet normal 0.745835 0.666131 0
    outer loop
      vertex -0.703648 -14.6111 -3
      vertex -0.636395 -14.6864 -0.15
      vertex -0.636395 -14.6864 -3
    endloop
  endfacet
  facet normal 0.960931 0.276788 0
    outer loop
      vertex -0.849495 -14.3473 -0.15
      vertex -0.877435 -14.2503 -3
      vertex -0.877435 -14.2503 -0.15
    endloop
  endfacet
  facet normal 0.960931 0.276788 0
    outer loop
      vertex -0.877435 -14.2503 -3
      vertex -0.849495 -14.3473 -0.15
      vertex -0.849495 -14.3473 -3
    endloop
  endfacet
  facet normal -0.998428 -0.0560526 0
    outer loop
      vertex 0.9 14.05 -3
      vertex 0.894341 14.1508 -0.15
      vertex 0.894341 14.1508 -3
    endloop
  endfacet
  facet normal -0.998428 -0.0560526 0
    outer loop
      vertex 0.894341 14.1508 -0.15
      vertex 0.9 14.05 -3
      vertex 0.9 14.05 -0.15
    endloop
  endfacet
  facet normal 0.998428 -0.0560526 0
    outer loop
      vertex -0.9 14.05 -0.15
      vertex -0.894341 14.1508 -3
      vertex -0.894341 14.1508 -0.15
    endloop
  endfacet
  facet normal 0.998428 -0.0560526 0
    outer loop
      vertex -0.894341 14.1508 -3
      vertex -0.9 14.05 -0.15
      vertex -0.9 14.05 -3
    endloop
  endfacet
  facet normal -0.0564759 -0.998404 0
    outer loop
      vertex 0 14.95 -3
      vertex 0.100767 14.9443 -0.15
      vertex 0 14.95 -0.15
    endloop
  endfacet
  facet normal -0.0564759 -0.998404 -0
    outer loop
      vertex 0.100767 14.9443 -0.15
      vertex 0 14.95 -3
      vertex 0.100767 14.9443 -3
    endloop
  endfacet
  facet normal 0.0564759 0.998404 -0
    outer loop
      vertex 0 13.15 -3
      vertex -0.100767 13.1557 -0.15
      vertex 0 13.15 -0.15
    endloop
  endfacet
  facet normal 0.0564759 0.998404 0
    outer loop
      vertex -0.100767 13.1557 -0.15
      vertex 0 13.15 -3
      vertex -0.100767 13.1557 -3
    endloop
  endfacet
  facet normal 0.745835 0.666131 0
    outer loop
      vertex -0.636395 13.4136 -0.15
      vertex -0.703648 13.4889 -3
      vertex -0.703648 13.4889 -0.15
    endloop
  endfacet
  facet normal 0.745835 0.666131 0
    outer loop
      vertex -0.703648 13.4889 -3
      vertex -0.636395 13.4136 -0.15
      vertex -0.636395 13.4136 -3
    endloop
  endfacet
  facet normal -0.745835 -0.666131 0
    outer loop
      vertex 0.703648 14.6111 -3
      vertex 0.636395 14.6864 -0.15
      vertex 0.636395 14.6864 -3
    endloop
  endfacet
  facet normal -0.745835 -0.666131 0
    outer loop
      vertex 0.636395 14.6864 -0.15
      vertex 0.703648 14.6111 -3
      vertex 0.703648 14.6111 -0.15
    endloop
  endfacet
  facet normal 0.66606 -0.745898 0
    outer loop
      vertex -0.636395 14.6864 -3
      vertex -0.56114 14.7536 -0.15
      vertex -0.636395 14.6864 -0.15
    endloop
  endfacet
  facet normal 0.66606 -0.745898 0
    outer loop
      vertex -0.56114 14.7536 -0.15
      vertex -0.636395 14.6864 -3
      vertex -0.56114 14.7536 -3
    endloop
  endfacet
  facet normal 0.382489 -0.92396 0
    outer loop
      vertex -0.390495 14.8609 -3
      vertex -0.297251 14.8995 -0.15
      vertex -0.390495 14.8609 -0.15
    endloop
  endfacet
  facet normal 0.382489 -0.92396 0
    outer loop
      vertex -0.297251 14.8995 -0.15
      vertex -0.390495 14.8609 -3
      vertex -0.297251 14.8995 -3
    endloop
  endfacet
  facet normal 0.960931 0.276788 0
    outer loop
      vertex -0.849495 13.7527 -0.15
      vertex -0.877435 13.8497 -3
      vertex -0.877435 13.8497 -0.15
    endloop
  endfacet
  facet normal 0.960931 0.276788 0
    outer loop
      vertex -0.877435 13.8497 -3
      vertex -0.849495 13.7527 -0.15
      vertex -0.849495 13.7527 -3
    endloop
  endfacet
  facet normal -0.923812 -0.382847 0
    outer loop
      vertex 0.849495 14.3473 -3
      vertex 0.810871 14.4405 -0.15
      vertex 0.810871 14.4405 -3
    endloop
  endfacet
  facet normal -0.923812 -0.382847 0
    outer loop
      vertex 0.810871 14.4405 -0.15
      vertex 0.849495 14.3473 -3
      vertex 0.849495 14.3473 -0.15
    endloop
  endfacet
  facet normal -0.875151 -0.48385 0
    outer loop
      vertex 0.810871 14.4405 -3
      vertex 0.762052 14.5288 -0.15
      vertex 0.762052 14.5288 -3
    endloop
  endfacet
  facet normal -0.875151 -0.48385 0
    outer loop
      vertex 0.762052 14.5288 -0.15
      vertex 0.810871 14.4405 -3
      vertex 0.810871 14.4405 -0.15
    endloop
  endfacet
  facet normal -0.483568 -0.875307 0
    outer loop
      vertex 0.390495 14.8609 -3
      vertex 0.478828 14.8121 -0.15
      vertex 0.390495 14.8609 -0.15
    endloop
  endfacet
  facet normal -0.483568 -0.875307 -0
    outer loop
      vertex 0.478828 14.8121 -0.15
      vertex 0.390495 14.8609 -3
      vertex 0.478828 14.8121 -3
    endloop
  endfacet
  facet normal -0.579307 -0.81511 0
    outer loop
      vertex 0.478828 14.8121 -3
      vertex 0.56114 14.7536 -0.15
      vertex 0.478828 14.8121 -0.15
    endloop
  endfacet
  facet normal -0.579307 -0.81511 -0
    outer loop
      vertex 0.56114 14.7536 -0.15
      vertex 0.478828 14.8121 -3
      vertex 0.56114 14.7536 -3
    endloop
  endfacet
  facet normal 0.923812 -0.382847 0
    outer loop
      vertex -0.849495 14.3473 -0.15
      vertex -0.810871 14.4405 -3
      vertex -0.810871 14.4405 -0.15
    endloop
  endfacet
  facet normal 0.923812 -0.382847 0
    outer loop
      vertex -0.810871 14.4405 -3
      vertex -0.849495 14.3473 -0.15
      vertex -0.849495 14.3473 -3
    endloop
  endfacet
  facet normal 0.483568 -0.875307 0
    outer loop
      vertex -0.478828 14.8121 -3
      vertex -0.390495 14.8609 -0.15
      vertex -0.478828 14.8121 -0.15
    endloop
  endfacet
  facet normal 0.483568 -0.875307 0
    outer loop
      vertex -0.390495 14.8609 -0.15
      vertex -0.478828 14.8121 -3
      vertex -0.390495 14.8609 -3
    endloop
  endfacet
  facet normal 0.167448 -0.985881 0
    outer loop
      vertex -0.200269 14.9274 -3
      vertex -0.100767 14.9443 -0.15
      vertex -0.200269 14.9274 -0.15
    endloop
  endfacet
  facet normal 0.167448 -0.985881 0
    outer loop
      vertex -0.100767 14.9443 -0.15
      vertex -0.200269 14.9274 -3
      vertex -0.100767 14.9443 -3
    endloop
  endfacet
  facet normal -0.923812 0.382847 0
    outer loop
      vertex 0.810871 13.6595 -3
      vertex 0.849495 13.7527 -0.15
      vertex 0.849495 13.7527 -3
    endloop
  endfacet
  facet normal -0.923812 0.382847 0
    outer loop
      vertex 0.849495 13.7527 -0.15
      vertex 0.810871 13.6595 -3
      vertex 0.810871 13.6595 -0.15
    endloop
  endfacet
  facet normal -0.382489 0.92396 0
    outer loop
      vertex 0.390495 13.2391 -3
      vertex 0.297251 13.2005 -0.15
      vertex 0.390495 13.2391 -0.15
    endloop
  endfacet
  facet normal -0.382489 0.92396 0
    outer loop
      vertex 0.297251 13.2005 -0.15
      vertex 0.390495 13.2391 -3
      vertex 0.297251 13.2005 -3
    endloop
  endfacet
  facet normal -0.483568 0.875307 0
    outer loop
      vertex 0.478828 13.2879 -3
      vertex 0.390495 13.2391 -0.15
      vertex 0.478828 13.2879 -0.15
    endloop
  endfacet
  facet normal -0.483568 0.875307 0
    outer loop
      vertex 0.390495 13.2391 -0.15
      vertex 0.478828 13.2879 -3
      vertex 0.390495 13.2391 -3
    endloop
  endfacet
  facet normal 0.998428 0.0560526 0
    outer loop
      vertex -0.894341 13.9492 -0.15
      vertex -0.9 14.05 -3
      vertex -0.9 14.05 -0.15
    endloop
  endfacet
  facet normal 0.998428 0.0560526 0
    outer loop
      vertex -0.9 14.05 -3
      vertex -0.894341 13.9492 -0.15
      vertex -0.894341 13.9492 -3
    endloop
  endfacet
  facet normal -0.960931 -0.276788 0
    outer loop
      vertex 0.877435 14.2503 -3
      vertex 0.849495 14.3473 -0.15
      vertex 0.849495 14.3473 -3
    endloop
  endfacet
  facet normal -0.960931 -0.276788 0
    outer loop
      vertex 0.849495 14.3473 -0.15
      vertex 0.877435 14.2503 -3
      vertex 0.877435 14.2503 -0.15
    endloop
  endfacet
  facet normal -0.985871 -0.167509 0
    outer loop
      vertex 0.894341 14.1508 -3
      vertex 0.877435 14.2503 -0.15
      vertex 0.877435 14.2503 -3
    endloop
  endfacet
  facet normal -0.985871 -0.167509 0
    outer loop
      vertex 0.877435 14.2503 -0.15
      vertex 0.894341 14.1508 -3
      vertex 0.894341 14.1508 -0.15
    endloop
  endfacet
  facet normal -0.815519 -0.578731 0
    outer loop
      vertex 0.762052 14.5288 -3
      vertex 0.703648 14.6111 -0.15
      vertex 0.703648 14.6111 -3
    endloop
  endfacet
  facet normal -0.815519 -0.578731 0
    outer loop
      vertex 0.703648 14.6111 -0.15
      vertex 0.762052 14.5288 -3
      vertex 0.762052 14.5288 -0.15
    endloop
  endfacet
  facet normal -0.276469 -0.961023 0
    outer loop
      vertex 0.200269 14.9274 -3
      vertex 0.297251 14.8995 -0.15
      vertex 0.200269 14.9274 -0.15
    endloop
  endfacet
  facet normal -0.276469 -0.961023 -0
    outer loop
      vertex 0.297251 14.8995 -0.15
      vertex 0.200269 14.9274 -3
      vertex 0.297251 14.8995 -3
    endloop
  endfacet
  facet normal -0.382489 -0.92396 0
    outer loop
      vertex 0.297251 14.8995 -3
      vertex 0.390495 14.8609 -0.15
      vertex 0.297251 14.8995 -0.15
    endloop
  endfacet
  facet normal -0.382489 -0.92396 -0
    outer loop
      vertex 0.390495 14.8609 -0.15
      vertex 0.297251 14.8995 -3
      vertex 0.390495 14.8609 -3
    endloop
  endfacet
  facet normal -0.167448 -0.985881 0
    outer loop
      vertex 0.100767 14.9443 -3
      vertex 0.200269 14.9274 -0.15
      vertex 0.100767 14.9443 -0.15
    endloop
  endfacet
  facet normal -0.167448 -0.985881 -0
    outer loop
      vertex 0.200269 14.9274 -0.15
      vertex 0.100767 14.9443 -3
      vertex 0.200269 14.9274 -3
    endloop
  endfacet
  facet normal -0.66606 -0.745898 0
    outer loop
      vertex 0.56114 14.7536 -3
      vertex 0.636395 14.6864 -0.15
      vertex 0.56114 14.7536 -0.15
    endloop
  endfacet
  facet normal -0.66606 -0.745898 -0
    outer loop
      vertex 0.636395 14.6864 -0.15
      vertex 0.56114 14.7536 -3
      vertex 0.636395 14.6864 -3
    endloop
  endfacet
  facet normal 0.815519 -0.578731 0
    outer loop
      vertex -0.762052 14.5288 -0.15
      vertex -0.703648 14.6111 -3
      vertex -0.703648 14.6111 -0.15
    endloop
  endfacet
  facet normal 0.815519 -0.578731 0
    outer loop
      vertex -0.703648 14.6111 -3
      vertex -0.762052 14.5288 -0.15
      vertex -0.762052 14.5288 -3
    endloop
  endfacet
  facet normal 0.745835 -0.666131 0
    outer loop
      vertex -0.703648 14.6111 -0.15
      vertex -0.636395 14.6864 -3
      vertex -0.636395 14.6864 -0.15
    endloop
  endfacet
  facet normal 0.745835 -0.666131 0
    outer loop
      vertex -0.636395 14.6864 -3
      vertex -0.703648 14.6111 -0.15
      vertex -0.703648 14.6111 -3
    endloop
  endfacet
  facet normal 0.875151 -0.48385 0
    outer loop
      vertex -0.810871 14.4405 -0.15
      vertex -0.762052 14.5288 -3
      vertex -0.762052 14.5288 -0.15
    endloop
  endfacet
  facet normal 0.875151 -0.48385 0
    outer loop
      vertex -0.762052 14.5288 -3
      vertex -0.810871 14.4405 -0.15
      vertex -0.810871 14.4405 -3
    endloop
  endfacet
  facet normal 0.960931 -0.276788 0
    outer loop
      vertex -0.877435 14.2503 -0.15
      vertex -0.849495 14.3473 -3
      vertex -0.849495 14.3473 -0.15
    endloop
  endfacet
  facet normal 0.960931 -0.276788 0
    outer loop
      vertex -0.849495 14.3473 -3
      vertex -0.877435 14.2503 -0.15
      vertex -0.877435 14.2503 -3
    endloop
  endfacet
  facet normal 0.985871 -0.167509 0
    outer loop
      vertex -0.894341 14.1508 -0.15
      vertex -0.877435 14.2503 -3
      vertex -0.877435 14.2503 -0.15
    endloop
  endfacet
  facet normal 0.985871 -0.167509 0
    outer loop
      vertex -0.877435 14.2503 -3
      vertex -0.894341 14.1508 -0.15
      vertex -0.894341 14.1508 -3
    endloop
  endfacet
  facet normal 0.579307 -0.81511 0
    outer loop
      vertex -0.56114 14.7536 -3
      vertex -0.478828 14.8121 -0.15
      vertex -0.56114 14.7536 -0.15
    endloop
  endfacet
  facet normal 0.579307 -0.81511 0
    outer loop
      vertex -0.478828 14.8121 -0.15
      vertex -0.56114 14.7536 -3
      vertex -0.478828 14.8121 -3
    endloop
  endfacet
  facet normal 0.276469 -0.961023 0
    outer loop
      vertex -0.297251 14.8995 -3
      vertex -0.200269 14.9274 -0.15
      vertex -0.297251 14.8995 -0.15
    endloop
  endfacet
  facet normal 0.276469 -0.961023 0
    outer loop
      vertex -0.200269 14.9274 -0.15
      vertex -0.297251 14.8995 -3
      vertex -0.200269 14.9274 -3
    endloop
  endfacet
  facet normal 0.0564759 -0.998404 0
    outer loop
      vertex -0.100767 14.9443 -3
      vertex 0 14.95 -0.15
      vertex -0.100767 14.9443 -0.15
    endloop
  endfacet
  facet normal 0.0564759 -0.998404 0
    outer loop
      vertex 0 14.95 -0.15
      vertex -0.100767 14.9443 -3
      vertex 0 14.95 -3
    endloop
  endfacet
  facet normal -0.998428 0.0560526 0
    outer loop
      vertex 0.894341 13.9492 -3
      vertex 0.9 14.05 -0.15
      vertex 0.9 14.05 -3
    endloop
  endfacet
  facet normal -0.998428 0.0560526 0
    outer loop
      vertex 0.9 14.05 -0.15
      vertex 0.894341 13.9492 -3
      vertex 0.894341 13.9492 -0.15
    endloop
  endfacet
  facet normal -0.0564759 0.998404 0
    outer loop
      vertex 0.100767 13.1557 -3
      vertex 0 13.15 -0.15
      vertex 0.100767 13.1557 -0.15
    endloop
  endfacet
  facet normal -0.0564759 0.998404 0
    outer loop
      vertex 0 13.15 -0.15
      vertex 0.100767 13.1557 -3
      vertex 0 13.15 -3
    endloop
  endfacet
  facet normal -0.276469 0.961023 0
    outer loop
      vertex 0.297251 13.2005 -3
      vertex 0.200269 13.1726 -0.15
      vertex 0.297251 13.2005 -0.15
    endloop
  endfacet
  facet normal -0.276469 0.961023 0
    outer loop
      vertex 0.200269 13.1726 -0.15
      vertex 0.297251 13.2005 -3
      vertex 0.200269 13.1726 -3
    endloop
  endfacet
  facet normal -0.579307 0.81511 0
    outer loop
      vertex 0.56114 13.3464 -3
      vertex 0.478828 13.2879 -0.15
      vertex 0.56114 13.3464 -0.15
    endloop
  endfacet
  facet normal -0.579307 0.81511 0
    outer loop
      vertex 0.478828 13.2879 -0.15
      vertex 0.56114 13.3464 -3
      vertex 0.478828 13.2879 -3
    endloop
  endfacet
  facet normal -0.745835 0.666131 0
    outer loop
      vertex 0.636395 13.4136 -3
      vertex 0.703648 13.4889 -0.15
      vertex 0.703648 13.4889 -3
    endloop
  endfacet
  facet normal -0.745835 0.666131 0
    outer loop
      vertex 0.703648 13.4889 -0.15
      vertex 0.636395 13.4136 -3
      vertex 0.636395 13.4136 -0.15
    endloop
  endfacet
  facet normal -0.875151 0.48385 0
    outer loop
      vertex 0.762052 13.5712 -3
      vertex 0.810871 13.6595 -0.15
      vertex 0.810871 13.6595 -3
    endloop
  endfacet
  facet normal -0.875151 0.48385 0
    outer loop
      vertex 0.810871 13.6595 -0.15
      vertex 0.762052 13.5712 -3
      vertex 0.762052 13.5712 -0.15
    endloop
  endfacet
  facet normal 0.66606 0.745898 -0
    outer loop
      vertex -0.56114 13.3464 -3
      vertex -0.636395 13.4136 -0.15
      vertex -0.56114 13.3464 -0.15
    endloop
  endfacet
  facet normal 0.66606 0.745898 0
    outer loop
      vertex -0.636395 13.4136 -0.15
      vertex -0.56114 13.3464 -3
      vertex -0.636395 13.4136 -3
    endloop
  endfacet
  facet normal 0.483568 0.875307 -0
    outer loop
      vertex -0.390495 13.2391 -3
      vertex -0.478828 13.2879 -0.15
      vertex -0.390495 13.2391 -0.15
    endloop
  endfacet
  facet normal 0.483568 0.875307 0
    outer loop
      vertex -0.478828 13.2879 -0.15
      vertex -0.390495 13.2391 -3
      vertex -0.478828 13.2879 -3
    endloop
  endfacet
  facet normal 0.382489 0.92396 -0
    outer loop
      vertex -0.297251 13.2005 -3
      vertex -0.390495 13.2391 -0.15
      vertex -0.297251 13.2005 -0.15
    endloop
  endfacet
  facet normal 0.382489 0.92396 0
    outer loop
      vertex -0.390495 13.2391 -0.15
      vertex -0.297251 13.2005 -3
      vertex -0.390495 13.2391 -3
    endloop
  endfacet
  facet normal 0.167448 0.985881 -0
    outer loop
      vertex -0.100767 13.1557 -3
      vertex -0.200269 13.1726 -0.15
      vertex -0.100767 13.1557 -0.15
    endloop
  endfacet
  facet normal 0.167448 0.985881 0
    outer loop
      vertex -0.200269 13.1726 -0.15
      vertex -0.100767 13.1557 -3
      vertex -0.200269 13.1726 -3
    endloop
  endfacet
  facet normal 0.923812 0.382847 0
    outer loop
      vertex -0.810871 13.6595 -0.15
      vertex -0.849495 13.7527 -3
      vertex -0.849495 13.7527 -0.15
    endloop
  endfacet
  facet normal 0.923812 0.382847 0
    outer loop
      vertex -0.849495 13.7527 -3
      vertex -0.810871 13.6595 -0.15
      vertex -0.810871 13.6595 -3
    endloop
  endfacet
  facet normal 0.815519 0.578731 0
    outer loop
      vertex -0.703648 13.4889 -0.15
      vertex -0.762052 13.5712 -3
      vertex -0.762052 13.5712 -0.15
    endloop
  endfacet
  facet normal 0.815519 0.578731 0
    outer loop
      vertex -0.762052 13.5712 -3
      vertex -0.703648 13.4889 -0.15
      vertex -0.703648 13.4889 -3
    endloop
  endfacet
  facet normal 0.985871 0.167509 0
    outer loop
      vertex -0.877435 13.8497 -0.15
      vertex -0.894341 13.9492 -3
      vertex -0.894341 13.9492 -0.15
    endloop
  endfacet
  facet normal 0.985871 0.167509 0
    outer loop
      vertex -0.894341 13.9492 -3
      vertex -0.877435 13.8497 -0.15
      vertex -0.877435 13.8497 -3
    endloop
  endfacet
  facet normal -0.167448 0.985881 0
    outer loop
      vertex 0.200269 13.1726 -3
      vertex 0.100767 13.1557 -0.15
      vertex 0.200269 13.1726 -0.15
    endloop
  endfacet
  facet normal -0.167448 0.985881 0
    outer loop
      vertex 0.100767 13.1557 -0.15
      vertex 0.200269 13.1726 -3
      vertex 0.100767 13.1557 -3
    endloop
  endfacet
  facet normal -0.66606 0.745898 0
    outer loop
      vertex 0.636395 13.4136 -3
      vertex 0.56114 13.3464 -0.15
      vertex 0.636395 13.4136 -0.15
    endloop
  endfacet
  facet normal -0.66606 0.745898 0
    outer loop
      vertex 0.56114 13.3464 -0.15
      vertex 0.636395 13.4136 -3
      vertex 0.56114 13.3464 -3
    endloop
  endfacet
  facet normal -0.815519 0.578731 0
    outer loop
      vertex 0.703648 13.4889 -3
      vertex 0.762052 13.5712 -0.15
      vertex 0.762052 13.5712 -3
    endloop
  endfacet
  facet normal -0.815519 0.578731 0
    outer loop
      vertex 0.762052 13.5712 -0.15
      vertex 0.703648 13.4889 -3
      vertex 0.703648 13.4889 -0.15
    endloop
  endfacet
  facet normal -0.985871 0.167509 0
    outer loop
      vertex 0.877435 13.8497 -3
      vertex 0.894341 13.9492 -0.15
      vertex 0.894341 13.9492 -3
    endloop
  endfacet
  facet normal -0.985871 0.167509 0
    outer loop
      vertex 0.894341 13.9492 -0.15
      vertex 0.877435 13.8497 -3
      vertex 0.877435 13.8497 -0.15
    endloop
  endfacet
  facet normal -0.960931 0.276788 0
    outer loop
      vertex 0.849495 13.7527 -3
      vertex 0.877435 13.8497 -0.15
      vertex 0.877435 13.8497 -3
    endloop
  endfacet
  facet normal -0.960931 0.276788 0
    outer loop
      vertex 0.877435 13.8497 -0.15
      vertex 0.849495 13.7527 -3
      vertex 0.849495 13.7527 -0.15
    endloop
  endfacet
  facet normal 0.579307 0.81511 -0
    outer loop
      vertex -0.478828 13.2879 -3
      vertex -0.56114 13.3464 -0.15
      vertex -0.478828 13.2879 -0.15
    endloop
  endfacet
  facet normal 0.579307 0.81511 0
    outer loop
      vertex -0.56114 13.3464 -0.15
      vertex -0.478828 13.2879 -3
      vertex -0.56114 13.3464 -3
    endloop
  endfacet
  facet normal 0.276469 0.961023 -0
    outer loop
      vertex -0.200269 13.1726 -3
      vertex -0.297251 13.2005 -0.15
      vertex -0.200269 13.1726 -0.15
    endloop
  endfacet
  facet normal 0.276469 0.961023 0
    outer loop
      vertex -0.297251 13.2005 -0.15
      vertex -0.200269 13.1726 -3
      vertex -0.297251 13.2005 -3
    endloop
  endfacet
  facet normal 0.875151 0.48385 0
    outer loop
      vertex -0.762052 13.5712 -0.15
      vertex -0.810871 13.6595 -3
      vertex -0.810871 13.6595 -0.15
    endloop
  endfacet
  facet normal 0.875151 0.48385 0
    outer loop
      vertex -0.810871 13.6595 -3
      vertex -0.762052 13.5712 -0.15
      vertex -0.762052 13.5712 -3
    endloop
  endfacet
endsolid OpenSCAD_Model
