solid OpenSCAD_Model
  facet normal -1 0 0
    outer loop
      vertex -24 -12 3
      vertex -24 12 11
      vertex -24 12 3
    endloop
  endfacet
  facet normal -1 -0 0
    outer loop
      vertex -24 12 11
      vertex -24 -12 3
      vertex -24 -12 11
    endloop
  endfacet
  facet normal 0 0 1
    outer loop
      vertex -16 12 11
      vertex -19.4 10 11
      vertex -16 -12 11
    endloop
  endfacet
  facet normal 0 0 1
    outer loop
      vertex -16 12 11
      vertex -20.6 10 11
      vertex -19.4 10 11
    endloop
  endfacet
  facet normal 0 0 1
    outer loop
      vertex -20.6 10 11
      vertex -24 12 11
      vertex -20.6 -10 11
    endloop
  endfacet
  facet normal -0 0 1
    outer loop
      vertex -24 12 11
      vertex -20.6 10 11
      vertex -16 12 11
    endloop
  endfacet
  facet normal -0 0 1
    outer loop
      vertex -19.4 -10 11
      vertex -16 -12 11
      vertex -19.4 10 11
    endloop
  endfacet
  facet normal -0 0 1
    outer loop
      vertex -20.6 -10 11
      vertex -16 -12 11
      vertex -19.4 -10 11
    endloop
  endfacet
  facet normal 0 0 1
    outer loop
      vertex -20.6 -10 11
      vertex -24 -12 11
      vertex -16 -12 11
    endloop
  endfacet
  facet normal 0 0 1
    outer loop
      vertex -24 -12 11
      vertex -20.6 -10 11
      vertex -24 12 11
    endloop
  endfacet
  facet normal 1 -0 0
    outer loop
      vertex -16 -12 11
      vertex -16 12 3
      vertex -16 12 11
    endloop
  endfacet
  facet normal 1 0 0
    outer loop
      vertex -16 12 3
      vertex -16 -12 11
      vertex -16 -12 3
    endloop
  endfacet
  facet normal 0 1 -0
    outer loop
      vertex -16 12 3
      vertex -24 12 11
      vertex -16 12 11
    endloop
  endfacet
  facet normal 0 1 0
    outer loop
      vertex -24 12 11
      vertex -16 12 3
      vertex -24 12 3
    endloop
  endfacet
  facet normal 0 0 1
    outer loop
      vertex 39.9817 -12 3
      vertex 34.5 -12 3
      vertex 39.9817 -12.02 3
    endloop
  endfacet
  facet normal 0 0 1
    outer loop
      vertex 60 20 3
      vertex 53.5 12 3
      vertex 60 -20 3
    endloop
  endfacet
  facet normal 0 0 1
    outer loop
      vertex 60 20 3
      vertex 48.0183 12.02 3
      vertex 53.5 12 3
    endloop
  endfacet
  facet normal 0 0 1
    outer loop
      vertex 60 20 3
      vertex 39.9817 12.02 3
      vertex 48.0183 12.02 3
    endloop
  endfacet
  facet normal 0 0 1
    outer loop
      vertex 39.9817 12.02 3
      vertex 34.5 12 3
      vertex 39.9817 12 3
    endloop
  endfacet
  facet normal 0 0 1
    outer loop
      vertex 60 20 3
      vertex 34.5 12 3
      vertex 39.9817 12.02 3
    endloop
  endfacet
  facet normal 0 0 1
    outer loop
      vertex 34.5 12 3
      vertex 26.75 12 3
      vertex 34.5 -12 3
    endloop
  endfacet
  facet normal 0 0 1
    outer loop
      vertex 60 20 3
      vertex 26.75 12 3
      vertex 34.5 12 3
    endloop
  endfacet
  facet normal 0 0 1
    outer loop
      vertex 60 20 3
      vertex 19.25 12 3
      vertex 26.75 12 3
    endloop
  endfacet
  facet normal 0 0 1
    outer loop
      vertex 19.25 12 3
      vertex 6 12 3
      vertex 19.25 -12 3
    endloop
  endfacet
  facet normal 0 0 1
    outer loop
      vertex 60 20 3
      vertex 6 12 3
      vertex 19.25 12 3
    endloop
  endfacet
  facet normal 0 0 1
    outer loop
      vertex 60 20 3
      vertex -2 12 3
      vertex 6 12 3
    endloop
  endfacet
  facet normal 0 0 1
    outer loop
      vertex -2 12 3
      vertex -5 12 3
      vertex -2 -12 3
    endloop
  endfacet
  facet normal -0 0 1
    outer loop
      vertex -60 20 3
      vertex -2 12 3
      vertex 60 20 3
    endloop
  endfacet
  facet normal 0 0 1
    outer loop
      vertex -2 12 3
      vertex -60 20 3
      vertex -5 12 3
    endloop
  endfacet
  facet normal 0 0 1
    outer loop
      vertex -13 12 3
      vertex -16 12 3
      vertex -13 -12 3
    endloop
  endfacet
  facet normal -0 -0 1
    outer loop
      vertex -40.5509 15.1114 3
      vertex -5 12 3
      vertex -60 20 3
    endloop
  endfacet
  facet normal 0 0 1
    outer loop
      vertex -5 12 3
      vertex -40.5509 15.1114 3
      vertex -13 12 3
    endloop
  endfacet
  facet normal 0 0 1
    outer loop
      vertex -24 12 3
      vertex -28.5 0 3
      vertex -24 -12 3
    endloop
  endfacet
  facet normal 0 0 1
    outer loop
      vertex -24 12 3
      vertex -28.5975 1.73545 3
      vertex -28.5 0 3
    endloop
  endfacet
  facet normal 0 0 1
    outer loop
      vertex -24 12 3
      vertex -28.8886 3.44907 3
      vertex -28.5975 1.73545 3
    endloop
  endfacet
  facet normal 0 0 1
    outer loop
      vertex -24 12 3
      vertex -29.3698 5.11932 3
      vertex -28.8886 3.44907 3
    endloop
  endfacet
  facet normal 0 0 1
    outer loop
      vertex -24 12 3
      vertex -30.035 6.7252 3
      vertex -29.3698 5.11932 3
    endloop
  endfacet
  facet normal 0 0 1
    outer loop
      vertex -24 12 3
      vertex -30.8758 8.2465 3
      vertex -30.035 6.7252 3
    endloop
  endfacet
  facet normal 0 0 1
    outer loop
      vertex -24 12 3
      vertex -31.8816 9.66409 3
      vertex -30.8758 8.2465 3
    endloop
  endfacet
  facet normal 0 0 1
    outer loop
      vertex -24 12 3
      vertex -33.0398 10.9602 3
      vertex -31.8816 9.66409 3
    endloop
  endfacet
  facet normal 0 0 1
    outer loop
      vertex -24 12 3
      vertex -34.3359 12.1184 3
      vertex -33.0398 10.9602 3
    endloop
  endfacet
  facet normal -0 -0 1
    outer loop
      vertex -38.8807 14.6302 3
      vertex -16 12 3
      vertex -40.5509 15.1114 3
    endloop
  endfacet
  facet normal 0 0 1
    outer loop
      vertex -24 12 3
      vertex -35.7535 13.1242 3
      vertex -34.3359 12.1184 3
    endloop
  endfacet
  facet normal 0 0 1
    outer loop
      vertex -24 12 3
      vertex -37.2748 13.965 3
      vertex -35.7535 13.1242 3
    endloop
  endfacet
  facet normal 0 0 1
    outer loop
      vertex -24 12 3
      vertex -38.8807 14.6302 3
      vertex -37.2748 13.965 3
    endloop
  endfacet
  facet normal 0 0 1
    outer loop
      vertex -16 12 3
      vertex -38.8807 14.6302 3
      vertex -24 12 3
    endloop
  endfacet
  facet normal 0 0 1
    outer loop
      vertex -13 12 3
      vertex -40.5509 15.1114 3
      vertex -16 12 3
    endloop
  endfacet
  facet normal 0 0 1
    outer loop
      vertex -40.5509 15.1114 3
      vertex -60 20 3
      vertex -42.2645 15.4025 3
    endloop
  endfacet
  facet normal 0 0 1
    outer loop
      vertex -59.4025 1.73545 3
      vertex -60 20 3
      vertex -59.5 0 3
    endloop
  endfacet
  facet normal 0 0 1
    outer loop
      vertex -59.1114 3.44907 3
      vertex -60 20 3
      vertex -59.4025 1.73545 3
    endloop
  endfacet
  facet normal 0 0 1
    outer loop
      vertex -58.6302 5.11932 3
      vertex -60 20 3
      vertex -59.1114 3.44907 3
    endloop
  endfacet
  facet normal 0 0 1
    outer loop
      vertex -57.965 6.7252 3
      vertex -60 20 3
      vertex -58.6302 5.11932 3
    endloop
  endfacet
  facet normal 0 0 1
    outer loop
      vertex -57.1242 8.2465 3
      vertex -60 20 3
      vertex -57.965 6.7252 3
    endloop
  endfacet
  facet normal 0 0 1
    outer loop
      vertex -56.1184 9.66409 3
      vertex -60 20 3
      vertex -57.1242 8.2465 3
    endloop
  endfacet
  facet normal 0 0 1
    outer loop
      vertex -54.9602 10.9602 3
      vertex -60 20 3
      vertex -56.1184 9.66409 3
    endloop
  endfacet
  facet normal 0 0 1
    outer loop
      vertex -53.6641 12.1184 3
      vertex -60 20 3
      vertex -54.9602 10.9602 3
    endloop
  endfacet
  facet normal 0 0 1
    outer loop
      vertex -52.2465 13.1242 3
      vertex -60 20 3
      vertex -53.6641 12.1184 3
    endloop
  endfacet
  facet normal 0 0 1
    outer loop
      vertex -50.7252 13.965 3
      vertex -60 20 3
      vertex -52.2465 13.1242 3
    endloop
  endfacet
  facet normal 0 0 1
    outer loop
      vertex -49.1193 14.6302 3
      vertex -60 20 3
      vertex -50.7252 13.965 3
    endloop
  endfacet
  facet normal 0 0 1
    outer loop
      vertex -47.4491 15.1114 3
      vertex -60 20 3
      vertex -49.1193 14.6302 3
    endloop
  endfacet
  facet normal 0 0 1
    outer loop
      vertex -45.7355 15.4025 3
      vertex -60 20 3
      vertex -47.4491 15.1114 3
    endloop
  endfacet
  facet normal 0 0 1
    outer loop
      vertex -44 15.5 3
      vertex -60 20 3
      vertex -45.7355 15.4025 3
    endloop
  endfacet
  facet normal 0 0 1
    outer loop
      vertex -42.2645 15.4025 3
      vertex -60 20 3
      vertex -44 15.5 3
    endloop
  endfacet
  facet normal -0 0 1
    outer loop
      vertex 53.5 -12 3
      vertex 60 -20 3
      vertex 53.5 12 3
    endloop
  endfacet
  facet normal 0 0 1
    outer loop
      vertex 48.0183 -12.02 3
      vertex 53.5 -12 3
      vertex 48.0183 -12 3
    endloop
  endfacet
  facet normal 0 0 1
    outer loop
      vertex 53.5 -12 3
      vertex 48.0183 -12.02 3
      vertex 60 -20 3
    endloop
  endfacet
  facet normal -0 0 1
    outer loop
      vertex 39.9817 -12.02 3
      vertex 60 -20 3
      vertex 48.0183 -12.02 3
    endloop
  endfacet
  facet normal 0 0 1
    outer loop
      vertex 34.5 -12 3
      vertex 60 -20 3
      vertex 39.9817 -12.02 3
    endloop
  endfacet
  facet normal 0 0 1
    outer loop
      vertex 26.75 -12 3
      vertex 34.5 -12 3
      vertex 26.75 12 3
    endloop
  endfacet
  facet normal -0 0 1
    outer loop
      vertex 26.75 -12 3
      vertex 60 -20 3
      vertex 34.5 -12 3
    endloop
  endfacet
  facet normal -0 0 1
    outer loop
      vertex 19.25 -12 3
      vertex 60 -20 3
      vertex 26.75 -12 3
    endloop
  endfacet
  facet normal 0 0 1
    outer loop
      vertex 6 -12 3
      vertex 19.25 -12 3
      vertex 6 12 3
    endloop
  endfacet
  facet normal -0 0 1
    outer loop
      vertex 6 -12 3
      vertex 60 -20 3
      vertex 19.25 -12 3
    endloop
  endfacet
  facet normal -0 0 1
    outer loop
      vertex -2 -12 3
      vertex 60 -20 3
      vertex 6 -12 3
    endloop
  endfacet
  facet normal 0 0 1
    outer loop
      vertex -5 -12 3
      vertex -2 -12 3
      vertex -5 12 3
    endloop
  endfacet
  facet normal 0 0 1
    outer loop
      vertex -60 -20 3
      vertex -2 -12 3
      vertex -5 -12 3
    endloop
  endfacet
  facet normal 0 0 1
    outer loop
      vertex -40.5509 -15.1114 3
      vertex -5 -12 3
      vertex -13 -12 3
    endloop
  endfacet
  facet normal 0 0 1
    outer loop
      vertex -16 -12 3
      vertex -13 -12 3
      vertex -16 12 3
    endloop
  endfacet
  facet normal 0 0 1
    outer loop
      vertex -40.5509 -15.1114 3
      vertex -13 -12 3
      vertex -16 -12 3
    endloop
  endfacet
  facet normal 0 0 1
    outer loop
      vertex -38.8807 -14.6302 3
      vertex -16 -12 3
      vertex -24 -12 3
    endloop
  endfacet
  facet normal -0 0 1
    outer loop
      vertex -28.5975 -1.73545 3
      vertex -24 -12 3
      vertex -28.5 0 3
    endloop
  endfacet
  facet normal -0 0 1
    outer loop
      vertex -28.8886 -3.44907 3
      vertex -24 -12 3
      vertex -28.5975 -1.73545 3
    endloop
  endfacet
  facet normal -0 0 1
    outer loop
      vertex -29.3698 -5.11932 3
      vertex -24 -12 3
      vertex -28.8886 -3.44907 3
    endloop
  endfacet
  facet normal -0 0 1
    outer loop
      vertex -30.035 -6.7252 3
      vertex -24 -12 3
      vertex -29.3698 -5.11932 3
    endloop
  endfacet
  facet normal -0 0 1
    outer loop
      vertex -30.8758 -8.2465 3
      vertex -24 -12 3
      vertex -30.035 -6.7252 3
    endloop
  endfacet
  facet normal -0 0 1
    outer loop
      vertex -31.8816 -9.66409 3
      vertex -24 -12 3
      vertex -30.8758 -8.2465 3
    endloop
  endfacet
  facet normal -0 0 1
    outer loop
      vertex -33.0398 -10.9602 3
      vertex -24 -12 3
      vertex -31.8816 -9.66409 3
    endloop
  endfacet
  facet normal 0 0 1
    outer loop
      vertex -34.3359 -12.1184 3
      vertex -24 -12 3
      vertex -33.0398 -10.9602 3
    endloop
  endfacet
  facet normal 0 0 1
    outer loop
      vertex -35.7535 -13.1242 3
      vertex -24 -12 3
      vertex -34.3359 -12.1184 3
    endloop
  endfacet
  facet normal 0 0 1
    outer loop
      vertex -37.2748 -13.965 3
      vertex -24 -12 3
      vertex -35.7535 -13.1242 3
    endloop
  endfacet
  facet normal 0 0 1
    outer loop
      vertex -38.8807 -14.6302 3
      vertex -24 -12 3
      vertex -37.2748 -13.965 3
    endloop
  endfacet
  facet normal 0 0 1
    outer loop
      vertex -16 -12 3
      vertex -38.8807 -14.6302 3
      vertex -40.5509 -15.1114 3
    endloop
  endfacet
  facet normal 0 0 1
    outer loop
      vertex -5 -12 3
      vertex -40.5509 -15.1114 3
      vertex -60 -20 3
    endloop
  endfacet
  facet normal 0 0 1
    outer loop
      vertex -60 -20 3
      vertex -40.5509 -15.1114 3
      vertex -42.2645 -15.4025 3
    endloop
  endfacet
  facet normal 0 0 1
    outer loop
      vertex -60 -20 3
      vertex -42.2645 -15.4025 3
      vertex -44 -15.5 3
    endloop
  endfacet
  facet normal 0 0 1
    outer loop
      vertex -2 -12 3
      vertex -60 -20 3
      vertex 60 -20 3
    endloop
  endfacet
  facet normal 0 0 1
    outer loop
      vertex -45.7355 -15.4025 3
      vertex -60 -20 3
      vertex -44 -15.5 3
    endloop
  endfacet
  facet normal 0 0 1
    outer loop
      vertex -47.4491 -15.1114 3
      vertex -60 -20 3
      vertex -45.7355 -15.4025 3
    endloop
  endfacet
  facet normal 0 0 1
    outer loop
      vertex -49.1193 -14.6302 3
      vertex -60 -20 3
      vertex -47.4491 -15.1114 3
    endloop
  endfacet
  facet normal 0 0 1
    outer loop
      vertex -50.7252 -13.965 3
      vertex -60 -20 3
      vertex -49.1193 -14.6302 3
    endloop
  endfacet
  facet normal 0 0 1
    outer loop
      vertex -52.2465 -13.1242 3
      vertex -60 -20 3
      vertex -50.7252 -13.965 3
    endloop
  endfacet
  facet normal 0 0 1
    outer loop
      vertex -53.6641 -12.1184 3
      vertex -60 -20 3
      vertex -52.2465 -13.1242 3
    endloop
  endfacet
  facet normal 0 0 1
    outer loop
      vertex -54.9602 -10.9602 3
      vertex -60 -20 3
      vertex -53.6641 -12.1184 3
    endloop
  endfacet
  facet normal 0 0 1
    outer loop
      vertex -56.1184 -9.66409 3
      vertex -60 -20 3
      vertex -54.9602 -10.9602 3
    endloop
  endfacet
  facet normal 0 0 1
    outer loop
      vertex -57.1242 -8.2465 3
      vertex -60 -20 3
      vertex -56.1184 -9.66409 3
    endloop
  endfacet
  facet normal 0 0 1
    outer loop
      vertex -57.965 -6.7252 3
      vertex -60 -20 3
      vertex -57.1242 -8.2465 3
    endloop
  endfacet
  facet normal 0 0 1
    outer loop
      vertex -58.6302 -5.11932 3
      vertex -60 -20 3
      vertex -57.965 -6.7252 3
    endloop
  endfacet
  facet normal 0 0 1
    outer loop
      vertex -59.1114 -3.44907 3
      vertex -60 -20 3
      vertex -58.6302 -5.11932 3
    endloop
  endfacet
  facet normal 0 0 1
    outer loop
      vertex -59.4025 -1.73545 3
      vertex -60 -20 3
      vertex -59.1114 -3.44907 3
    endloop
  endfacet
  facet normal 0 0 1
    outer loop
      vertex -59.5 0 3
      vertex -60 -20 3
      vertex -59.4025 -1.73545 3
    endloop
  endfacet
  facet normal 0 0 1
    outer loop
      vertex -60 -20 3
      vertex -59.5 0 3
      vertex -60 20 3
    endloop
  endfacet
  facet normal 0 0 1
    outer loop
      vertex 53.5 12 3
      vertex 48.0183 12.02 3
      vertex 48.0183 12 3
    endloop
  endfacet
  facet normal 0 -1 0
    outer loop
      vertex -24 -12 3
      vertex -16 -12 11
      vertex -24 -12 11
    endloop
  endfacet
  facet normal 0 -1 -0
    outer loop
      vertex -16 -12 11
      vertex -24 -12 3
      vertex -16 -12 3
    endloop
  endfacet
  facet normal -1 0 0
    outer loop
      vertex -13 -12 3
      vertex -13 12 11
      vertex -13 12 3
    endloop
  endfacet
  facet normal -1 -0 0
    outer loop
      vertex -13 12 11
      vertex -13 -12 3
      vertex -13 -12 11
    endloop
  endfacet
  facet normal 0 0 1
    outer loop
      vertex -5 12 11
      vertex -8.35 10 11
      vertex -5 -12 11
    endloop
  endfacet
  facet normal 0 0 1
    outer loop
      vertex -5 12 11
      vertex -9.65 10 11
      vertex -8.35 10 11
    endloop
  endfacet
  facet normal 0 0 1
    outer loop
      vertex -9.65 10 11
      vertex -13 12 11
      vertex -9.65 -10 11
    endloop
  endfacet
  facet normal -0 0 1
    outer loop
      vertex -13 12 11
      vertex -9.65 10 11
      vertex -5 12 11
    endloop
  endfacet
  facet normal -0 0 1
    outer loop
      vertex -8.35 -10 11
      vertex -5 -12 11
      vertex -8.35 10 11
    endloop
  endfacet
  facet normal -0 0 1
    outer loop
      vertex -9.65 -10 11
      vertex -5 -12 11
      vertex -8.35 -10 11
    endloop
  endfacet
  facet normal 0 0 1
    outer loop
      vertex -9.65 -10 11
      vertex -13 -12 11
      vertex -5 -12 11
    endloop
  endfacet
  facet normal 0 0 1
    outer loop
      vertex -13 -12 11
      vertex -9.65 -10 11
      vertex -13 12 11
    endloop
  endfacet
  facet normal 1 -0 0
    outer loop
      vertex -5 -12 11
      vertex -5 12 3
      vertex -5 12 11
    endloop
  endfacet
  facet normal 1 0 0
    outer loop
      vertex -5 12 3
      vertex -5 -12 11
      vertex -5 -12 3
    endloop
  endfacet
  facet normal 0 1 -0
    outer loop
      vertex -5 12 3
      vertex -13 12 11
      vertex -5 12 11
    endloop
  endfacet
  facet normal 0 1 0
    outer loop
      vertex -13 12 11
      vertex -5 12 3
      vertex -13 12 3
    endloop
  endfacet
  facet normal 0 -1 0
    outer loop
      vertex -13 -12 3
      vertex -5 -12 11
      vertex -13 -12 11
    endloop
  endfacet
  facet normal 0 -1 -0
    outer loop
      vertex -5 -12 11
      vertex -13 -12 3
      vertex -5 -12 3
    endloop
  endfacet
  facet normal -1 0 0
    outer loop
      vertex -2 -12 3
      vertex -2 12 11
      vertex -2 12 3
    endloop
  endfacet
  facet normal -1 -0 0
    outer loop
      vertex -2 12 11
      vertex -2 -12 3
      vertex -2 -12 11
    endloop
  endfacet
  facet normal 0 0 1
    outer loop
      vertex 6 12 11
      vertex 2.7 10 11
      vertex 6 -12 11
    endloop
  endfacet
  facet normal 0 0 1
    outer loop
      vertex 6 12 11
      vertex 1.3 10 11
      vertex 2.7 10 11
    endloop
  endfacet
  facet normal 0 0 1
    outer loop
      vertex 1.3 10 11
      vertex -2 12 11
      vertex 1.3 -10 11
    endloop
  endfacet
  facet normal -0 0 1
    outer loop
      vertex -2 12 11
      vertex 1.3 10 11
      vertex 6 12 11
    endloop
  endfacet
  facet normal -0 0 1
    outer loop
      vertex 2.7 -10 11
      vertex 6 -12 11
      vertex 2.7 10 11
    endloop
  endfacet
  facet normal -0 0 1
    outer loop
      vertex 1.3 -10 11
      vertex 6 -12 11
      vertex 2.7 -10 11
    endloop
  endfacet
  facet normal 0 0 1
    outer loop
      vertex 1.3 -10 11
      vertex -2 -12 11
      vertex 6 -12 11
    endloop
  endfacet
  facet normal 0 0 1
    outer loop
      vertex -2 -12 11
      vertex 1.3 -10 11
      vertex -2 12 11
    endloop
  endfacet
  facet normal 1 -0 0
    outer loop
      vertex 6 -12 11
      vertex 6 12 3
      vertex 6 12 11
    endloop
  endfacet
  facet normal 1 0 0
    outer loop
      vertex 6 12 3
      vertex 6 -12 11
      vertex 6 -12 3
    endloop
  endfacet
  facet normal 0 1 -0
    outer loop
      vertex 6 12 3
      vertex -2 12 11
      vertex 6 12 11
    endloop
  endfacet
  facet normal 0 1 0
    outer loop
      vertex -2 12 11
      vertex 6 12 3
      vertex -2 12 3
    endloop
  endfacet
  facet normal 0 -1 0
    outer loop
      vertex -2 -12 3
      vertex 6 -12 11
      vertex -2 -12 11
    endloop
  endfacet
  facet normal 0 -1 -0
    outer loop
      vertex 6 -12 11
      vertex -2 -12 3
      vertex 6 -12 3
    endloop
  endfacet
  facet normal -1 0 0
    outer loop
      vertex -60 -20 0
      vertex -60 20 3
      vertex -60 20 0
    endloop
  endfacet
  facet normal -1 -0 0
    outer loop
      vertex -60 20 3
      vertex -60 -20 0
      vertex -60 -20 3
    endloop
  endfacet
  facet normal 1 -0 0
    outer loop
      vertex 60 -20 3
      vertex 60 20 0
      vertex 60 20 3
    endloop
  endfacet
  facet normal 1 0 0
    outer loop
      vertex 60 20 0
      vertex 60 -20 3
      vertex 60 -20 0
    endloop
  endfacet
  facet normal 0 1 -0
    outer loop
      vertex 60 20 0
      vertex -60 20 3
      vertex 60 20 3
    endloop
  endfacet
  facet normal 0 1 0
    outer loop
      vertex -60 20 3
      vertex 60 20 0
      vertex -60 20 0
    endloop
  endfacet
  facet normal 0 0 -1
    outer loop
      vertex -60 -20 0
      vertex 60 20 0
      vertex 60 -20 0
    endloop
  endfacet
  facet normal -0 0 -1
    outer loop
      vertex 60 20 0
      vertex -60 -20 0
      vertex -60 20 0
    endloop
  endfacet
  facet normal 0 -1 0
    outer loop
      vertex -60 -20 0
      vertex 60 -20 3
      vertex -60 -20 3
    endloop
  endfacet
  facet normal 0 -1 -0
    outer loop
      vertex 60 -20 3
      vertex -60 -20 0
      vertex 60 -20 0
    endloop
  endfacet
  facet normal 0.998426 0.0560929 0
    outer loop
      vertex -28.5 0 9
      vertex -28.5975 1.73545 3
      vertex -28.5975 1.73545 9
    endloop
  endfacet
  facet normal 0.998426 0.0560929 0
    outer loop
      vertex -28.5975 1.73545 3
      vertex -28.5 0 9
      vertex -28.5 0 3
    endloop
  endfacet
  facet normal -0.998426 0.0560929 0
    outer loop
      vertex -59.5 0 3
      vertex -59.4025 1.73545 9
      vertex -59.4025 1.73545 3
    endloop
  endfacet
  facet normal -0.998426 0.0560929 0
    outer loop
      vertex -59.4025 1.73545 9
      vertex -59.5 0 3
      vertex -59.5 0 9
    endloop
  endfacet
  facet normal 0.0560913 0.998426 -0
    outer loop
      vertex -42.2645 15.4025 3
      vertex -44 15.5 9
      vertex -42.2645 15.4025 9
    endloop
  endfacet
  facet normal 0.0560913 0.998426 0
    outer loop
      vertex -44 15.5 9
      vertex -42.2645 15.4025 3
      vertex -44 15.5 3
    endloop
  endfacet
  facet normal -0.0560913 -0.998426 0
    outer loop
      vertex -45.7355 -15.4025 3
      vertex -44 -15.5 9
      vertex -45.7355 -15.4025 9
    endloop
  endfacet
  facet normal -0.0560913 -0.998426 -0
    outer loop
      vertex -44 -15.5 9
      vertex -45.7355 -15.4025 3
      vertex -44 -15.5 3
    endloop
  endfacet
  facet normal -0.745664 -0.666323 0
    outer loop
      vertex -54.9602 -10.9602 3
      vertex -56.1184 -9.66409 9
      vertex -56.1184 -9.66409 3
    endloop
  endfacet
  facet normal -0.745664 -0.666323 0
    outer loop
      vertex -56.1184 -9.66409 9
      vertex -54.9602 -10.9602 3
      vertex -54.9602 -10.9602 9
    endloop
  endfacet
  facet normal 0.745664 0.666323 0
    outer loop
      vertex -31.8816 9.66409 9
      vertex -33.0398 10.9602 3
      vertex -33.0398 10.9602 9
    endloop
  endfacet
  facet normal 0.745664 0.666323 0
    outer loop
      vertex -33.0398 10.9602 3
      vertex -31.8816 9.66409 9
      vertex -31.8816 9.66409 3
    endloop
  endfacet
  facet normal -0.666326 0.745661 0
    outer loop
      vertex -53.6641 12.1184 3
      vertex -54.9602 10.9602 9
      vertex -53.6641 12.1184 9
    endloop
  endfacet
  facet normal -0.666326 0.745661 0
    outer loop
      vertex -54.9602 10.9602 9
      vertex -53.6641 12.1184 3
      vertex -54.9602 10.9602 3
    endloop
  endfacet
  facet normal -0.382691 0.923877 0
    outer loop
      vertex -49.1193 14.6302 3
      vertex -50.7252 13.965 9
      vertex -49.1193 14.6302 9
    endloop
  endfacet
  facet normal -0.382691 0.923877 0
    outer loop
      vertex -50.7252 13.965 9
      vertex -49.1193 14.6302 3
      vertex -50.7252 13.965 3
    endloop
  endfacet
  facet normal -0.923875 -0.382695 0
    outer loop
      vertex -57.965 -6.7252 3
      vertex -58.6302 -5.11932 9
      vertex -58.6302 -5.11932 3
    endloop
  endfacet
  facet normal -0.923875 -0.382695 0
    outer loop
      vertex -58.6302 -5.11932 9
      vertex -57.965 -6.7252 3
      vertex -57.965 -6.7252 9
    endloop
  endfacet
  facet normal 0.923875 0.382695 0
    outer loop
      vertex -29.3698 5.11932 9
      vertex -30.035 6.7252 3
      vertex -30.035 6.7252 9
    endloop
  endfacet
  facet normal 0.923875 0.382695 0
    outer loop
      vertex -30.035 6.7252 3
      vertex -29.3698 5.11932 9
      vertex -29.3698 5.11932 3
    endloop
  endfacet
  facet normal 0.985876 0.167475 0
    outer loop
      vertex -28.5975 1.73545 9
      vertex -28.8886 3.44907 3
      vertex -28.8886 3.44907 9
    endloop
  endfacet
  facet normal 0.985876 0.167475 0
    outer loop
      vertex -28.8886 3.44907 3
      vertex -28.5975 1.73545 9
      vertex -28.5975 1.73545 3
    endloop
  endfacet
  facet normal 0.875222 0.483722 0
    outer loop
      vertex -30.035 6.7252 9
      vertex -30.8758 8.2465 3
      vertex -30.8758 8.2465 9
    endloop
  endfacet
  facet normal 0.875222 0.483722 0
    outer loop
      vertex -30.8758 8.2465 3
      vertex -30.035 6.7252 9
      vertex -30.035 6.7252 3
    endloop
  endfacet
  facet normal 0.483722 0.875222 -0
    outer loop
      vertex -35.7535 13.1242 3
      vertex -37.2748 13.965 9
      vertex -35.7535 13.1242 9
    endloop
  endfacet
  facet normal 0.483722 0.875222 0
    outer loop
      vertex -37.2748 13.965 9
      vertex -35.7535 13.1242 3
      vertex -37.2748 13.965 3
    endloop
  endfacet
  facet normal 0.578656 0.815572 -0
    outer loop
      vertex -34.3359 12.1184 3
      vertex -35.7535 13.1242 9
      vertex -34.3359 12.1184 9
    endloop
  endfacet
  facet normal 0.578656 0.815572 0
    outer loop
      vertex -35.7535 13.1242 9
      vertex -34.3359 12.1184 3
      vertex -35.7535 13.1242 3
    endloop
  endfacet
  facet normal -0.875222 0.483722 0
    outer loop
      vertex -57.965 6.7252 3
      vertex -57.1242 8.2465 9
      vertex -57.1242 8.2465 3
    endloop
  endfacet
  facet normal -0.875222 0.483722 0
    outer loop
      vertex -57.1242 8.2465 9
      vertex -57.965 6.7252 3
      vertex -57.965 6.7252 9
    endloop
  endfacet
  facet normal -0.483722 0.875222 0
    outer loop
      vertex -50.7252 13.965 3
      vertex -52.2465 13.1242 9
      vertex -50.7252 13.965 9
    endloop
  endfacet
  facet normal -0.483722 0.875222 0
    outer loop
      vertex -52.2465 13.1242 9
      vertex -50.7252 13.965 3
      vertex -52.2465 13.1242 3
    endloop
  endfacet
  facet normal -0.167477 0.985876 0
    outer loop
      vertex -45.7355 15.4025 3
      vertex -47.4491 15.1114 9
      vertex -45.7355 15.4025 9
    endloop
  endfacet
  facet normal -0.167477 0.985876 0
    outer loop
      vertex -47.4491 15.1114 9
      vertex -45.7355 15.4025 3
      vertex -47.4491 15.1114 3
    endloop
  endfacet
  facet normal 0.382691 -0.923877 0
    outer loop
      vertex -38.8807 -14.6302 3
      vertex -37.2748 -13.965 9
      vertex -38.8807 -14.6302 9
    endloop
  endfacet
  facet normal 0.382691 -0.923877 0
    outer loop
      vertex -37.2748 -13.965 9
      vertex -38.8807 -14.6302 3
      vertex -37.2748 -13.965 3
    endloop
  endfacet
  facet normal 0.483722 -0.875222 0
    outer loop
      vertex -37.2748 -13.965 3
      vertex -35.7535 -13.1242 9
      vertex -37.2748 -13.965 9
    endloop
  endfacet
  facet normal 0.483722 -0.875222 0
    outer loop
      vertex -35.7535 -13.1242 9
      vertex -37.2748 -13.965 3
      vertex -35.7535 -13.1242 3
    endloop
  endfacet
  facet normal -0.875222 -0.483722 0
    outer loop
      vertex -57.1242 -8.2465 3
      vertex -57.965 -6.7252 9
      vertex -57.965 -6.7252 3
    endloop
  endfacet
  facet normal -0.875222 -0.483722 0
    outer loop
      vertex -57.965 -6.7252 9
      vertex -57.1242 -8.2465 3
      vertex -57.1242 -8.2465 9
    endloop
  endfacet
  facet normal 0.960916 0.27684 0
    outer loop
      vertex -28.8886 3.44907 9
      vertex -29.3698 5.11932 3
      vertex -29.3698 5.11932 9
    endloop
  endfacet
  facet normal 0.960916 0.27684 0
    outer loop
      vertex -29.3698 5.11932 3
      vertex -28.8886 3.44907 9
      vertex -28.8886 3.44907 3
    endloop
  endfacet
  facet normal 0.81557 0.578658 0
    outer loop
      vertex -30.8758 8.2465 9
      vertex -31.8816 9.66409 3
      vertex -31.8816 9.66409 9
    endloop
  endfacet
  facet normal 0.81557 0.578658 0
    outer loop
      vertex -31.8816 9.66409 3
      vertex -30.8758 8.2465 9
      vertex -30.8758 8.2465 3
    endloop
  endfacet
  facet normal 0.276848 0.960914 -0
    outer loop
      vertex -38.8807 14.6302 3
      vertex -40.5509 15.1114 9
      vertex -38.8807 14.6302 9
    endloop
  endfacet
  facet normal 0.276848 0.960914 0
    outer loop
      vertex -40.5509 15.1114 9
      vertex -38.8807 14.6302 3
      vertex -40.5509 15.1114 3
    endloop
  endfacet
  facet normal 0.382691 0.923877 -0
    outer loop
      vertex -37.2748 13.965 3
      vertex -38.8807 14.6302 9
      vertex -37.2748 13.965 9
    endloop
  endfacet
  facet normal 0.382691 0.923877 0
    outer loop
      vertex -38.8807 14.6302 9
      vertex -37.2748 13.965 3
      vertex -38.8807 14.6302 3
    endloop
  endfacet
  facet normal 0.167477 0.985876 -0
    outer loop
      vertex -40.5509 15.1114 3
      vertex -42.2645 15.4025 9
      vertex -40.5509 15.1114 9
    endloop
  endfacet
  facet normal 0.167477 0.985876 0
    outer loop
      vertex -42.2645 15.4025 9
      vertex -40.5509 15.1114 3
      vertex -42.2645 15.4025 3
    endloop
  endfacet
  facet normal 0.666326 0.745661 -0
    outer loop
      vertex -33.0398 10.9602 3
      vertex -34.3359 12.1184 9
      vertex -33.0398 10.9602 9
    endloop
  endfacet
  facet normal 0.666326 0.745661 0
    outer loop
      vertex -34.3359 12.1184 9
      vertex -33.0398 10.9602 3
      vertex -34.3359 12.1184 3
    endloop
  endfacet
  facet normal -0.960916 0.27684 0
    outer loop
      vertex -59.1114 3.44907 3
      vertex -58.6302 5.11932 9
      vertex -58.6302 5.11932 3
    endloop
  endfacet
  facet normal -0.960916 0.27684 0
    outer loop
      vertex -58.6302 5.11932 9
      vertex -59.1114 3.44907 3
      vertex -59.1114 3.44907 9
    endloop
  endfacet
  facet normal -0.81557 0.578658 0
    outer loop
      vertex -57.1242 8.2465 3
      vertex -56.1184 9.66409 9
      vertex -56.1184 9.66409 3
    endloop
  endfacet
  facet normal -0.81557 0.578658 0
    outer loop
      vertex -56.1184 9.66409 9
      vertex -57.1242 8.2465 3
      vertex -57.1242 8.2465 9
    endloop
  endfacet
  facet normal -0.745664 0.666323 0
    outer loop
      vertex -56.1184 9.66409 3
      vertex -54.9602 10.9602 9
      vertex -54.9602 10.9602 3
    endloop
  endfacet
  facet normal -0.745664 0.666323 0
    outer loop
      vertex -54.9602 10.9602 9
      vertex -56.1184 9.66409 3
      vertex -56.1184 9.66409 9
    endloop
  endfacet
  facet normal -0.923875 0.382695 0
    outer loop
      vertex -58.6302 5.11932 3
      vertex -57.965 6.7252 9
      vertex -57.965 6.7252 3
    endloop
  endfacet
  facet normal -0.923875 0.382695 0
    outer loop
      vertex -57.965 6.7252 9
      vertex -58.6302 5.11932 3
      vertex -58.6302 5.11932 9
    endloop
  endfacet
  facet normal -0.985876 0.167475 0
    outer loop
      vertex -59.4025 1.73545 3
      vertex -59.1114 3.44907 9
      vertex -59.1114 3.44907 3
    endloop
  endfacet
  facet normal -0.985876 0.167475 0
    outer loop
      vertex -59.1114 3.44907 9
      vertex -59.4025 1.73545 3
      vertex -59.4025 1.73545 9
    endloop
  endfacet
  facet normal 0 0 1
    outer loop
      vertex -31.35 0 9
      vertex -28.5 0 9
      vertex -28.5975 1.73545 9
    endloop
  endfacet
  facet normal 0 0 1
    outer loop
      vertex -31.4295 1.41635 9
      vertex -28.5975 1.73545 9
      vertex -28.8886 3.44907 9
    endloop
  endfacet
  facet normal 0 0 1
    outer loop
      vertex -28.5 0 9
      vertex -31.35 0 9
      vertex -28.5975 -1.73545 9
    endloop
  endfacet
  facet normal 0 0 1
    outer loop
      vertex -31.6672 2.81489 9
      vertex -28.8886 3.44907 9
      vertex -29.3698 5.11932 9
    endloop
  endfacet
  facet normal -0 0 1
    outer loop
      vertex -31.4295 -1.41635 9
      vertex -28.5975 -1.73545 9
      vertex -31.35 0 9
    endloop
  endfacet
  facet normal 0 0 1
    outer loop
      vertex -32.0599 4.17803 9
      vertex -29.3698 5.11932 9
      vertex -30.035 6.7252 9
    endloop
  endfacet
  facet normal 0 0 1
    outer loop
      vertex -28.5975 -1.73545 9
      vertex -31.4295 -1.41635 9
      vertex -28.8886 -3.44907 9
    endloop
  endfacet
  facet normal 0 0 1
    outer loop
      vertex -32.6027 5.48863 9
      vertex -30.035 6.7252 9
      vertex -30.8758 8.2465 9
    endloop
  endfacet
  facet normal -0 0 1
    outer loop
      vertex -31.6672 -2.81489 9
      vertex -28.8886 -3.44907 9
      vertex -31.4295 -1.41635 9
    endloop
  endfacet
  facet normal 0 0 1
    outer loop
      vertex -28.8886 -3.44907 9
      vertex -31.6672 -2.81489 9
      vertex -29.3698 -5.11932 9
    endloop
  endfacet
  facet normal 0 0 1
    outer loop
      vertex -28.5975 1.73545 9
      vertex -31.4295 1.41635 9
      vertex -31.35 0 9
    endloop
  endfacet
  facet normal 0 0 1
    outer loop
      vertex -28.8886 3.44907 9
      vertex -31.6672 2.81489 9
      vertex -31.4295 1.41635 9
    endloop
  endfacet
  facet normal 0 0 1
    outer loop
      vertex -33.2889 6.73021 9
      vertex -30.8758 8.2465 9
      vertex -31.8816 9.66409 9
    endloop
  endfacet
  facet normal 0 0 1
    outer loop
      vertex -29.3698 5.11932 9
      vertex -32.0599 4.17803 9
      vertex -31.6672 2.81489 9
    endloop
  endfacet
  facet normal 0 0 1
    outer loop
      vertex -30.035 6.7252 9
      vertex -32.6027 5.48863 9
      vertex -32.0599 4.17803 9
    endloop
  endfacet
  facet normal 0 0 1
    outer loop
      vertex -34.1098 7.88715 9
      vertex -31.8816 9.66409 9
      vertex -33.0398 10.9602 9
    endloop
  endfacet
  facet normal 0 0 1
    outer loop
      vertex -30.8758 8.2465 9
      vertex -33.2889 6.73021 9
      vertex -32.6027 5.48863 9
    endloop
  endfacet
  facet normal 0 0 1
    outer loop
      vertex -31.8816 9.66409 9
      vertex -34.1098 7.88715 9
      vertex -33.2889 6.73021 9
    endloop
  endfacet
  facet normal 0 0 1
    outer loop
      vertex -35.0551 8.9449 9
      vertex -33.0398 10.9602 9
      vertex -34.3359 12.1184 9
    endloop
  endfacet
  facet normal 0 0 1
    outer loop
      vertex -33.0398 10.9602 9
      vertex -35.0551 8.9449 9
      vertex -34.1098 7.88715 9
    endloop
  endfacet
  facet normal 0 0 1
    outer loop
      vertex -36.1129 9.89017 9
      vertex -34.3359 12.1184 9
      vertex -35.7535 13.1242 9
    endloop
  endfacet
  facet normal 0 0 1
    outer loop
      vertex -34.3359 12.1184 9
      vertex -36.1129 9.89017 9
      vertex -35.0551 8.9449 9
    endloop
  endfacet
  facet normal 0 0 1
    outer loop
      vertex -35.7535 13.1242 9
      vertex -37.2698 10.7111 9
      vertex -36.1129 9.89017 9
    endloop
  endfacet
  facet normal 0 0 1
    outer loop
      vertex -37.2748 13.965 9
      vertex -37.2698 10.7111 9
      vertex -35.7535 13.1242 9
    endloop
  endfacet
  facet normal 0 0 1
    outer loop
      vertex -37.2748 13.965 9
      vertex -38.5114 11.3973 9
      vertex -37.2698 10.7111 9
    endloop
  endfacet
  facet normal 0 0 1
    outer loop
      vertex -38.8807 14.6302 9
      vertex -38.5114 11.3973 9
      vertex -37.2748 13.965 9
    endloop
  endfacet
  facet normal 0 0 1
    outer loop
      vertex -38.8807 14.6302 9
      vertex -39.822 11.9401 9
      vertex -38.5114 11.3973 9
    endloop
  endfacet
  facet normal 0 0 1
    outer loop
      vertex -40.5509 15.1114 9
      vertex -39.822 11.9401 9
      vertex -38.8807 14.6302 9
    endloop
  endfacet
  facet normal 0 0 1
    outer loop
      vertex -40.5509 15.1114 9
      vertex -41.1851 12.3328 9
      vertex -39.822 11.9401 9
    endloop
  endfacet
  facet normal 0 0 1
    outer loop
      vertex -42.2645 15.4025 9
      vertex -41.1851 12.3328 9
      vertex -40.5509 15.1114 9
    endloop
  endfacet
  facet normal 0 0 1
    outer loop
      vertex -42.2645 15.4025 9
      vertex -42.5836 12.5705 9
      vertex -41.1851 12.3328 9
    endloop
  endfacet
  facet normal 0 0 1
    outer loop
      vertex -44 15.5 9
      vertex -42.5836 12.5705 9
      vertex -42.2645 15.4025 9
    endloop
  endfacet
  facet normal 0 0 1
    outer loop
      vertex -44 15.5 9
      vertex -44 12.65 9
      vertex -42.5836 12.5705 9
    endloop
  endfacet
  facet normal 0 0 1
    outer loop
      vertex -44 15.5 9
      vertex -45.4164 12.5705 9
      vertex -44 12.65 9
    endloop
  endfacet
  facet normal -0 0 1
    outer loop
      vertex -45.7355 15.4025 9
      vertex -45.4164 12.5705 9
      vertex -44 15.5 9
    endloop
  endfacet
  facet normal 0 0 1
    outer loop
      vertex -45.7355 15.4025 9
      vertex -46.8149 12.3328 9
      vertex -45.4164 12.5705 9
    endloop
  endfacet
  facet normal -0 0 1
    outer loop
      vertex -47.4491 15.1114 9
      vertex -46.8149 12.3328 9
      vertex -45.7355 15.4025 9
    endloop
  endfacet
  facet normal 0 0 1
    outer loop
      vertex -47.4491 15.1114 9
      vertex -48.178 11.9401 9
      vertex -46.8149 12.3328 9
    endloop
  endfacet
  facet normal -0 0 1
    outer loop
      vertex -49.1193 14.6302 9
      vertex -48.178 11.9401 9
      vertex -47.4491 15.1114 9
    endloop
  endfacet
  facet normal 0 0 1
    outer loop
      vertex -49.1193 14.6302 9
      vertex -49.4886 11.3973 9
      vertex -48.178 11.9401 9
    endloop
  endfacet
  facet normal -0 0 1
    outer loop
      vertex -50.7252 13.965 9
      vertex -49.4886 11.3973 9
      vertex -49.1193 14.6302 9
    endloop
  endfacet
  facet normal 0 0 1
    outer loop
      vertex -50.7252 13.965 9
      vertex -50.7302 10.7111 9
      vertex -49.4886 11.3973 9
    endloop
  endfacet
  facet normal -0 0 1
    outer loop
      vertex -52.2465 13.1242 9
      vertex -50.7302 10.7111 9
      vertex -50.7252 13.965 9
    endloop
  endfacet
  facet normal 0 0 1
    outer loop
      vertex -50.7302 10.7111 9
      vertex -52.2465 13.1242 9
      vertex -51.8871 9.89017 9
    endloop
  endfacet
  facet normal -0 0 1
    outer loop
      vertex -53.6641 12.1184 9
      vertex -51.8871 9.89017 9
      vertex -52.2465 13.1242 9
    endloop
  endfacet
  facet normal 0 0 1
    outer loop
      vertex -51.8871 9.89017 9
      vertex -53.6641 12.1184 9
      vertex -52.9449 8.9449 9
    endloop
  endfacet
  facet normal -0 0 1
    outer loop
      vertex -54.9602 10.9602 9
      vertex -52.9449 8.9449 9
      vertex -53.6641 12.1184 9
    endloop
  endfacet
  facet normal 0 0 1
    outer loop
      vertex -52.9449 8.9449 9
      vertex -54.9602 10.9602 9
      vertex -53.8902 7.88715 9
    endloop
  endfacet
  facet normal -0 0 1
    outer loop
      vertex -56.1184 9.66409 9
      vertex -53.8902 7.88715 9
      vertex -54.9602 10.9602 9
    endloop
  endfacet
  facet normal 0 0 1
    outer loop
      vertex -53.8902 7.88715 9
      vertex -56.1184 9.66409 9
      vertex -54.7111 6.73021 9
    endloop
  endfacet
  facet normal -0 0 1
    outer loop
      vertex -57.1242 8.2465 9
      vertex -54.7111 6.73021 9
      vertex -56.1184 9.66409 9
    endloop
  endfacet
  facet normal 0 0 1
    outer loop
      vertex -54.7111 6.73021 9
      vertex -57.1242 8.2465 9
      vertex -55.3973 5.48863 9
    endloop
  endfacet
  facet normal -0 0 1
    outer loop
      vertex -57.965 6.7252 9
      vertex -55.3973 5.48863 9
      vertex -57.1242 8.2465 9
    endloop
  endfacet
  facet normal 0 0 1
    outer loop
      vertex -55.3973 5.48863 9
      vertex -57.965 6.7252 9
      vertex -55.9401 4.17803 9
    endloop
  endfacet
  facet normal -0 0 1
    outer loop
      vertex -58.6302 5.11932 9
      vertex -55.9401 4.17803 9
      vertex -57.965 6.7252 9
    endloop
  endfacet
  facet normal 0 0 1
    outer loop
      vertex -55.9401 4.17803 9
      vertex -58.6302 5.11932 9
      vertex -56.3328 2.81489 9
    endloop
  endfacet
  facet normal -0 0 1
    outer loop
      vertex -32.0599 -4.17803 9
      vertex -29.3698 -5.11932 9
      vertex -31.6672 -2.81489 9
    endloop
  endfacet
  facet normal 0 0 1
    outer loop
      vertex -29.3698 -5.11932 9
      vertex -32.0599 -4.17803 9
      vertex -30.035 -6.7252 9
    endloop
  endfacet
  facet normal -0 0 1
    outer loop
      vertex -32.6027 -5.48863 9
      vertex -30.035 -6.7252 9
      vertex -32.0599 -4.17803 9
    endloop
  endfacet
  facet normal 0 0 1
    outer loop
      vertex -30.035 -6.7252 9
      vertex -32.6027 -5.48863 9
      vertex -30.8758 -8.2465 9
    endloop
  endfacet
  facet normal -0 0 1
    outer loop
      vertex -33.2889 -6.73021 9
      vertex -30.8758 -8.2465 9
      vertex -32.6027 -5.48863 9
    endloop
  endfacet
  facet normal 0 0 1
    outer loop
      vertex -30.8758 -8.2465 9
      vertex -33.2889 -6.73021 9
      vertex -31.8816 -9.66409 9
    endloop
  endfacet
  facet normal -0 0 1
    outer loop
      vertex -34.1098 -7.88715 9
      vertex -31.8816 -9.66409 9
      vertex -33.2889 -6.73021 9
    endloop
  endfacet
  facet normal 0 0 1
    outer loop
      vertex -31.8816 -9.66409 9
      vertex -34.1098 -7.88715 9
      vertex -33.0398 -10.9602 9
    endloop
  endfacet
  facet normal -0 0 1
    outer loop
      vertex -35.0551 -8.9449 9
      vertex -33.0398 -10.9602 9
      vertex -34.1098 -7.88715 9
    endloop
  endfacet
  facet normal 0 0 1
    outer loop
      vertex -33.0398 -10.9602 9
      vertex -35.0551 -8.9449 9
      vertex -34.3359 -12.1184 9
    endloop
  endfacet
  facet normal -0 0 1
    outer loop
      vertex -36.1129 -9.89017 9
      vertex -34.3359 -12.1184 9
      vertex -35.0551 -8.9449 9
    endloop
  endfacet
  facet normal 0 0 1
    outer loop
      vertex -34.3359 -12.1184 9
      vertex -36.1129 -9.89017 9
      vertex -35.7535 -13.1242 9
    endloop
  endfacet
  facet normal -0 0 1
    outer loop
      vertex -37.2698 -10.7111 9
      vertex -35.7535 -13.1242 9
      vertex -36.1129 -9.89017 9
    endloop
  endfacet
  facet normal 0 0 1
    outer loop
      vertex -37.2698 -10.7111 9
      vertex -37.2748 -13.965 9
      vertex -35.7535 -13.1242 9
    endloop
  endfacet
  facet normal -0 0 1
    outer loop
      vertex -38.5114 -11.3973 9
      vertex -37.2748 -13.965 9
      vertex -37.2698 -10.7111 9
    endloop
  endfacet
  facet normal 0 0 1
    outer loop
      vertex -38.5114 -11.3973 9
      vertex -38.8807 -14.6302 9
      vertex -37.2748 -13.965 9
    endloop
  endfacet
  facet normal -0 0 1
    outer loop
      vertex -39.822 -11.9401 9
      vertex -38.8807 -14.6302 9
      vertex -38.5114 -11.3973 9
    endloop
  endfacet
  facet normal 0 0 1
    outer loop
      vertex -39.822 -11.9401 9
      vertex -40.5509 -15.1114 9
      vertex -38.8807 -14.6302 9
    endloop
  endfacet
  facet normal -0 0 1
    outer loop
      vertex -41.1851 -12.3328 9
      vertex -40.5509 -15.1114 9
      vertex -39.822 -11.9401 9
    endloop
  endfacet
  facet normal 0 0 1
    outer loop
      vertex -41.1851 -12.3328 9
      vertex -42.2645 -15.4025 9
      vertex -40.5509 -15.1114 9
    endloop
  endfacet
  facet normal -0 0 1
    outer loop
      vertex -42.5836 -12.5705 9
      vertex -42.2645 -15.4025 9
      vertex -41.1851 -12.3328 9
    endloop
  endfacet
  facet normal -0 0 1
    outer loop
      vertex -44 -12.65 9
      vertex -42.2645 -15.4025 9
      vertex -42.5836 -12.5705 9
    endloop
  endfacet
  facet normal 0 0 1
    outer loop
      vertex -44 -12.65 9
      vertex -44 -15.5 9
      vertex -42.2645 -15.4025 9
    endloop
  endfacet
  facet normal 0 0 1
    outer loop
      vertex -45.4164 -12.5705 9
      vertex -44 -15.5 9
      vertex -44 -12.65 9
    endloop
  endfacet
  facet normal 0 0 1
    outer loop
      vertex -45.4164 -12.5705 9
      vertex -45.7355 -15.4025 9
      vertex -44 -15.5 9
    endloop
  endfacet
  facet normal 0 0 1
    outer loop
      vertex -46.8149 -12.3328 9
      vertex -45.7355 -15.4025 9
      vertex -45.4164 -12.5705 9
    endloop
  endfacet
  facet normal 0 0 1
    outer loop
      vertex -46.8149 -12.3328 9
      vertex -47.4491 -15.1114 9
      vertex -45.7355 -15.4025 9
    endloop
  endfacet
  facet normal 0 0 1
    outer loop
      vertex -48.178 -11.9401 9
      vertex -47.4491 -15.1114 9
      vertex -46.8149 -12.3328 9
    endloop
  endfacet
  facet normal 0 0 1
    outer loop
      vertex -48.178 -11.9401 9
      vertex -49.1193 -14.6302 9
      vertex -47.4491 -15.1114 9
    endloop
  endfacet
  facet normal 0 0 1
    outer loop
      vertex -49.4886 -11.3973 9
      vertex -49.1193 -14.6302 9
      vertex -48.178 -11.9401 9
    endloop
  endfacet
  facet normal 0 0 1
    outer loop
      vertex -49.4886 -11.3973 9
      vertex -50.7252 -13.965 9
      vertex -49.1193 -14.6302 9
    endloop
  endfacet
  facet normal 0 0 1
    outer loop
      vertex -50.7302 -10.7111 9
      vertex -50.7252 -13.965 9
      vertex -49.4886 -11.3973 9
    endloop
  endfacet
  facet normal 0 0 1
    outer loop
      vertex -52.2465 -13.1242 9
      vertex -50.7302 -10.7111 9
      vertex -51.8871 -9.89017 9
    endloop
  endfacet
  facet normal 0 0 1
    outer loop
      vertex -50.7302 -10.7111 9
      vertex -52.2465 -13.1242 9
      vertex -50.7252 -13.965 9
    endloop
  endfacet
  facet normal 0 0 1
    outer loop
      vertex -53.6641 -12.1184 9
      vertex -51.8871 -9.89017 9
      vertex -52.9449 -8.9449 9
    endloop
  endfacet
  facet normal 0 0 1
    outer loop
      vertex -51.8871 -9.89017 9
      vertex -53.6641 -12.1184 9
      vertex -52.2465 -13.1242 9
    endloop
  endfacet
  facet normal 0 0 1
    outer loop
      vertex -54.9602 -10.9602 9
      vertex -52.9449 -8.9449 9
      vertex -53.8902 -7.88715 9
    endloop
  endfacet
  facet normal 0 0 1
    outer loop
      vertex -56.1184 -9.66409 9
      vertex -53.8902 -7.88715 9
      vertex -54.7111 -6.73021 9
    endloop
  endfacet
  facet normal 0 0 1
    outer loop
      vertex -52.9449 -8.9449 9
      vertex -54.9602 -10.9602 9
      vertex -53.6641 -12.1184 9
    endloop
  endfacet
  facet normal 0 0 1
    outer loop
      vertex -57.1242 -8.2465 9
      vertex -54.7111 -6.73021 9
      vertex -55.3973 -5.48863 9
    endloop
  endfacet
  facet normal 0 0 1
    outer loop
      vertex -57.965 -6.7252 9
      vertex -55.3973 -5.48863 9
      vertex -55.9401 -4.17803 9
    endloop
  endfacet
  facet normal 0 0 1
    outer loop
      vertex -53.8902 -7.88715 9
      vertex -56.1184 -9.66409 9
      vertex -54.9602 -10.9602 9
    endloop
  endfacet
  facet normal 0 0 1
    outer loop
      vertex -58.6302 -5.11932 9
      vertex -55.9401 -4.17803 9
      vertex -56.3328 -2.81489 9
    endloop
  endfacet
  facet normal 0 0 1
    outer loop
      vertex -59.1114 -3.44907 9
      vertex -56.3328 -2.81489 9
      vertex -56.5705 -1.41635 9
    endloop
  endfacet
  facet normal 0 0 1
    outer loop
      vertex -59.4025 -1.73545 9
      vertex -56.5705 -1.41635 9
      vertex -56.65 0 9
    endloop
  endfacet
  facet normal -0 0 1
    outer loop
      vertex -59.1114 3.44907 9
      vertex -56.3328 2.81489 9
      vertex -58.6302 5.11932 9
    endloop
  endfacet
  facet normal 0 0 1
    outer loop
      vertex -54.7111 -6.73021 9
      vertex -57.1242 -8.2465 9
      vertex -56.1184 -9.66409 9
    endloop
  endfacet
  facet normal 0 0 1
    outer loop
      vertex -56.3328 2.81489 9
      vertex -59.1114 3.44907 9
      vertex -56.5705 1.41635 9
    endloop
  endfacet
  facet normal 0 0 1
    outer loop
      vertex -55.3973 -5.48863 9
      vertex -57.965 -6.7252 9
      vertex -57.1242 -8.2465 9
    endloop
  endfacet
  facet normal -0 0 1
    outer loop
      vertex -59.4025 1.73545 9
      vertex -56.5705 1.41635 9
      vertex -59.1114 3.44907 9
    endloop
  endfacet
  facet normal 0 0 1
    outer loop
      vertex -55.9401 -4.17803 9
      vertex -58.6302 -5.11932 9
      vertex -57.965 -6.7252 9
    endloop
  endfacet
  facet normal 0 0 1
    outer loop
      vertex -56.5705 1.41635 9
      vertex -59.4025 1.73545 9
      vertex -56.65 0 9
    endloop
  endfacet
  facet normal 0 0 1
    outer loop
      vertex -56.3328 -2.81489 9
      vertex -59.1114 -3.44907 9
      vertex -58.6302 -5.11932 9
    endloop
  endfacet
  facet normal 0 0 1
    outer loop
      vertex -59.5 0 9
      vertex -56.65 0 9
      vertex -59.4025 1.73545 9
    endloop
  endfacet
  facet normal 0 0 1
    outer loop
      vertex -56.5705 -1.41635 9
      vertex -59.4025 -1.73545 9
      vertex -59.1114 -3.44907 9
    endloop
  endfacet
  facet normal 0 0 1
    outer loop
      vertex -56.65 0 9
      vertex -59.5 0 9
      vertex -59.4025 -1.73545 9
    endloop
  endfacet
  facet normal -0.578656 0.815572 0
    outer loop
      vertex -52.2465 13.1242 3
      vertex -53.6641 12.1184 9
      vertex -52.2465 13.1242 9
    endloop
  endfacet
  facet normal -0.578656 0.815572 0
    outer loop
      vertex -53.6641 12.1184 9
      vertex -52.2465 13.1242 3
      vertex -53.6641 12.1184 3
    endloop
  endfacet
  facet normal -0.276848 0.960914 0
    outer loop
      vertex -47.4491 15.1114 3
      vertex -49.1193 14.6302 9
      vertex -47.4491 15.1114 9
    endloop
  endfacet
  facet normal -0.276848 0.960914 0
    outer loop
      vertex -49.1193 14.6302 9
      vertex -47.4491 15.1114 3
      vertex -49.1193 14.6302 3
    endloop
  endfacet
  facet normal -0.0560913 0.998426 0
    outer loop
      vertex -44 15.5 3
      vertex -45.7355 15.4025 9
      vertex -44 15.5 9
    endloop
  endfacet
  facet normal -0.0560913 0.998426 0
    outer loop
      vertex -45.7355 15.4025 9
      vertex -44 15.5 3
      vertex -45.7355 15.4025 3
    endloop
  endfacet
  facet normal 0.998426 -0.0560929 0
    outer loop
      vertex -28.5975 -1.73545 9
      vertex -28.5 0 3
      vertex -28.5 0 9
    endloop
  endfacet
  facet normal 0.998426 -0.0560929 0
    outer loop
      vertex -28.5 0 3
      vertex -28.5975 -1.73545 9
      vertex -28.5975 -1.73545 3
    endloop
  endfacet
  facet normal 0.0560913 -0.998426 0
    outer loop
      vertex -44 -15.5 3
      vertex -42.2645 -15.4025 9
      vertex -44 -15.5 9
    endloop
  endfacet
  facet normal 0.0560913 -0.998426 0
    outer loop
      vertex -42.2645 -15.4025 9
      vertex -44 -15.5 3
      vertex -42.2645 -15.4025 3
    endloop
  endfacet
  facet normal 0.276848 -0.960914 0
    outer loop
      vertex -40.5509 -15.1114 3
      vertex -38.8807 -14.6302 9
      vertex -40.5509 -15.1114 9
    endloop
  endfacet
  facet normal 0.276848 -0.960914 0
    outer loop
      vertex -38.8807 -14.6302 9
      vertex -40.5509 -15.1114 3
      vertex -38.8807 -14.6302 3
    endloop
  endfacet
  facet normal 0.578656 -0.815572 0
    outer loop
      vertex -35.7535 -13.1242 3
      vertex -34.3359 -12.1184 9
      vertex -35.7535 -13.1242 9
    endloop
  endfacet
  facet normal 0.578656 -0.815572 0
    outer loop
      vertex -34.3359 -12.1184 9
      vertex -35.7535 -13.1242 3
      vertex -34.3359 -12.1184 3
    endloop
  endfacet
  facet normal 0.745664 -0.666323 0
    outer loop
      vertex -33.0398 -10.9602 9
      vertex -31.8816 -9.66409 3
      vertex -31.8816 -9.66409 9
    endloop
  endfacet
  facet normal 0.745664 -0.666323 0
    outer loop
      vertex -31.8816 -9.66409 3
      vertex -33.0398 -10.9602 9
      vertex -33.0398 -10.9602 3
    endloop
  endfacet
  facet normal 0.875222 -0.483722 0
    outer loop
      vertex -30.8758 -8.2465 9
      vertex -30.035 -6.7252 3
      vertex -30.035 -6.7252 9
    endloop
  endfacet
  facet normal 0.875222 -0.483722 0
    outer loop
      vertex -30.035 -6.7252 3
      vertex -30.8758 -8.2465 9
      vertex -30.8758 -8.2465 3
    endloop
  endfacet
  facet normal 0.960916 -0.27684 0
    outer loop
      vertex -29.3698 -5.11932 9
      vertex -28.8886 -3.44907 3
      vertex -28.8886 -3.44907 9
    endloop
  endfacet
  facet normal 0.960916 -0.27684 0
    outer loop
      vertex -28.8886 -3.44907 3
      vertex -29.3698 -5.11932 9
      vertex -29.3698 -5.11932 3
    endloop
  endfacet
  facet normal -0.666326 -0.745661 0
    outer loop
      vertex -54.9602 -10.9602 3
      vertex -53.6641 -12.1184 9
      vertex -54.9602 -10.9602 9
    endloop
  endfacet
  facet normal -0.666326 -0.745661 -0
    outer loop
      vertex -53.6641 -12.1184 9
      vertex -54.9602 -10.9602 3
      vertex -53.6641 -12.1184 3
    endloop
  endfacet
  facet normal -0.483722 -0.875222 0
    outer loop
      vertex -52.2465 -13.1242 3
      vertex -50.7252 -13.965 9
      vertex -52.2465 -13.1242 9
    endloop
  endfacet
  facet normal -0.483722 -0.875222 -0
    outer loop
      vertex -50.7252 -13.965 9
      vertex -52.2465 -13.1242 3
      vertex -50.7252 -13.965 3
    endloop
  endfacet
  facet normal -0.382691 -0.923877 0
    outer loop
      vertex -50.7252 -13.965 3
      vertex -49.1193 -14.6302 9
      vertex -50.7252 -13.965 9
    endloop
  endfacet
  facet normal -0.382691 -0.923877 -0
    outer loop
      vertex -49.1193 -14.6302 9
      vertex -50.7252 -13.965 3
      vertex -49.1193 -14.6302 3
    endloop
  endfacet
  facet normal -0.167477 -0.985876 0
    outer loop
      vertex -47.4491 -15.1114 3
      vertex -45.7355 -15.4025 9
      vertex -47.4491 -15.1114 9
    endloop
  endfacet
  facet normal -0.167477 -0.985876 -0
    outer loop
      vertex -45.7355 -15.4025 9
      vertex -47.4491 -15.1114 3
      vertex -45.7355 -15.4025 3
    endloop
  endfacet
  facet normal -0.81557 -0.578658 0
    outer loop
      vertex -56.1184 -9.66409 3
      vertex -57.1242 -8.2465 9
      vertex -57.1242 -8.2465 3
    endloop
  endfacet
  facet normal -0.81557 -0.578658 0
    outer loop
      vertex -57.1242 -8.2465 9
      vertex -56.1184 -9.66409 3
      vertex -56.1184 -9.66409 9
    endloop
  endfacet
  facet normal -0.960916 -0.27684 0
    outer loop
      vertex -58.6302 -5.11932 3
      vertex -59.1114 -3.44907 9
      vertex -59.1114 -3.44907 3
    endloop
  endfacet
  facet normal -0.960916 -0.27684 0
    outer loop
      vertex -59.1114 -3.44907 9
      vertex -58.6302 -5.11932 3
      vertex -58.6302 -5.11932 9
    endloop
  endfacet
  facet normal -0.998426 -0.0560929 0
    outer loop
      vertex -59.4025 -1.73545 3
      vertex -59.5 0 9
      vertex -59.5 0 3
    endloop
  endfacet
  facet normal -0.998426 -0.0560929 0
    outer loop
      vertex -59.5 0 9
      vertex -59.4025 -1.73545 3
      vertex -59.4025 -1.73545 9
    endloop
  endfacet
  facet normal 0.167477 -0.985876 0
    outer loop
      vertex -42.2645 -15.4025 3
      vertex -40.5509 -15.1114 9
      vertex -42.2645 -15.4025 9
    endloop
  endfacet
  facet normal 0.167477 -0.985876 0
    outer loop
      vertex -40.5509 -15.1114 9
      vertex -42.2645 -15.4025 3
      vertex -40.5509 -15.1114 3
    endloop
  endfacet
  facet normal 0.666326 -0.745661 0
    outer loop
      vertex -34.3359 -12.1184 3
      vertex -33.0398 -10.9602 9
      vertex -34.3359 -12.1184 9
    endloop
  endfacet
  facet normal 0.666326 -0.745661 0
    outer loop
      vertex -33.0398 -10.9602 9
      vertex -34.3359 -12.1184 3
      vertex -33.0398 -10.9602 3
    endloop
  endfacet
  facet normal 0.81557 -0.578658 0
    outer loop
      vertex -31.8816 -9.66409 9
      vertex -30.8758 -8.2465 3
      vertex -30.8758 -8.2465 9
    endloop
  endfacet
  facet normal 0.81557 -0.578658 0
    outer loop
      vertex -30.8758 -8.2465 3
      vertex -31.8816 -9.66409 9
      vertex -31.8816 -9.66409 3
    endloop
  endfacet
  facet normal 0.923875 -0.382695 0
    outer loop
      vertex -30.035 -6.7252 9
      vertex -29.3698 -5.11932 3
      vertex -29.3698 -5.11932 9
    endloop
  endfacet
  facet normal 0.923875 -0.382695 0
    outer loop
      vertex -29.3698 -5.11932 3
      vertex -30.035 -6.7252 9
      vertex -30.035 -6.7252 3
    endloop
  endfacet
  facet normal 0.985876 -0.167475 0
    outer loop
      vertex -28.8886 -3.44907 9
      vertex -28.5975 -1.73545 3
      vertex -28.5975 -1.73545 9
    endloop
  endfacet
  facet normal 0.985876 -0.167475 0
    outer loop
      vertex -28.5975 -1.73545 3
      vertex -28.8886 -3.44907 9
      vertex -28.8886 -3.44907 3
    endloop
  endfacet
  facet normal -0.578656 -0.815572 0
    outer loop
      vertex -53.6641 -12.1184 3
      vertex -52.2465 -13.1242 9
      vertex -53.6641 -12.1184 9
    endloop
  endfacet
  facet normal -0.578656 -0.815572 -0
    outer loop
      vertex -52.2465 -13.1242 9
      vertex -53.6641 -12.1184 3
      vertex -52.2465 -13.1242 3
    endloop
  endfacet
  facet normal -0.276848 -0.960914 0
    outer loop
      vertex -49.1193 -14.6302 3
      vertex -47.4491 -15.1114 9
      vertex -49.1193 -14.6302 9
    endloop
  endfacet
  facet normal -0.276848 -0.960914 -0
    outer loop
      vertex -47.4491 -15.1114 9
      vertex -49.1193 -14.6302 3
      vertex -47.4491 -15.1114 3
    endloop
  endfacet
  facet normal -0.985876 -0.167475 0
    outer loop
      vertex -59.1114 -3.44907 3
      vertex -59.4025 -1.73545 9
      vertex -59.4025 -1.73545 3
    endloop
  endfacet
  facet normal -0.985876 -0.167475 0
    outer loop
      vertex -59.4025 -1.73545 9
      vertex -59.1114 -3.44907 3
      vertex -59.1114 -3.44907 9
    endloop
  endfacet
  facet normal 0 1 -0
    outer loop
      vertex 26.75 12 3
      vertex 17.75 12 6
      vertex 28.25 12 6
    endloop
  endfacet
  facet normal 0 1 0
    outer loop
      vertex 17.75 12 6
      vertex 26.75 12 3
      vertex 19.25 12 3
    endloop
  endfacet
  facet normal 0.894427 0 -0.447214
    outer loop
      vertex 28.25 -12 6
      vertex 26.75 12 3
      vertex 28.25 12 6
    endloop
  endfacet
  facet normal 0.894427 0 -0.447214
    outer loop
      vertex 26.75 12 3
      vertex 28.25 -12 6
      vertex 26.75 -12 3
    endloop
  endfacet
  facet normal 0 -1 0
    outer loop
      vertex 19.25 -12 3
      vertex 28.25 -12 6
      vertex 17.75 -12 6
    endloop
  endfacet
  facet normal 0 -1 0
    outer loop
      vertex 28.25 -12 6
      vertex 19.25 -12 3
      vertex 26.75 -12 3
    endloop
  endfacet
  facet normal -0 0 1
    outer loop
      vertex 17.75 12 6
      vertex 28.25 -12 6
      vertex 28.25 12 6
    endloop
  endfacet
  facet normal 0 0 1
    outer loop
      vertex 28.25 -12 6
      vertex 17.75 12 6
      vertex 17.75 -12 6
    endloop
  endfacet
  facet normal -0.894427 0 -0.447214
    outer loop
      vertex 19.25 -12 3
      vertex 17.75 12 6
      vertex 19.25 12 3
    endloop
  endfacet
  facet normal -0.894427 -0 -0.447214
    outer loop
      vertex 17.75 12 6
      vertex 19.25 -12 3
      vertex 17.75 -12 6
    endloop
  endfacet
  facet normal -1 0 0
    outer loop
      vertex 34.5 -12 3
      vertex 34.5 12 10
      vertex 34.5 12 3
    endloop
  endfacet
  facet normal -1 -0 0
    outer loop
      vertex 34.5 12 10
      vertex 34.5 -12 3
      vertex 34.5 -12 10
    endloop
  endfacet
  facet normal -0 0 1
    outer loop
      vertex 34.5 12 10
      vertex 53.5 -12 10
      vertex 53.5 12 10
    endloop
  endfacet
  facet normal 0 0 1
    outer loop
      vertex 53.5 -12 10
      vertex 34.5 12 10
      vertex 34.5 -12 10
    endloop
  endfacet
  facet normal 1 -0 0
    outer loop
      vertex 53.5 -12 10
      vertex 53.5 12 3
      vertex 53.5 12 10
    endloop
  endfacet
  facet normal 1 0 0
    outer loop
      vertex 53.5 12 3
      vertex 53.5 -12 10
      vertex 53.5 -12 3
    endloop
  endfacet
  facet normal 0 1 0
    outer loop
      vertex 53.5 12 10
      vertex 49.5 12 6.23
      vertex 34.5 12 10
    endloop
  endfacet
  facet normal 0 1 -0
    outer loop
      vertex 53.5 12 3
      vertex 49.5 12 6.23
      vertex 53.5 12 10
    endloop
  endfacet
  facet normal 0 1 0
    outer loop
      vertex 49.5 12 6.23
      vertex 53.5 12 3
      vertex 48.0183 12 3
    endloop
  endfacet
  facet normal 0 1 -0
    outer loop
      vertex 38.5 12 6.23
      vertex 34.5 12 10
      vertex 49.5 12 6.23
    endloop
  endfacet
  facet normal 0 1 0
    outer loop
      vertex 34.5 12 3
      vertex 38.5 12 6.23
      vertex 39.9817 12 3
    endloop
  endfacet
  facet normal 0 1 0
    outer loop
      vertex 38.5 12 6.23
      vertex 34.5 12 3
      vertex 34.5 12 10
    endloop
  endfacet
  facet normal 0 -1 0
    outer loop
      vertex 34.5 -12 10
      vertex 38.5 -12 6.23
      vertex 53.5 -12 10
    endloop
  endfacet
  facet normal 0 -1 0
    outer loop
      vertex 34.5 -12 3
      vertex 38.5 -12 6.23
      vertex 34.5 -12 10
    endloop
  endfacet
  facet normal 0 -1 -0
    outer loop
      vertex 38.5 -12 6.23
      vertex 34.5 -12 3
      vertex 39.9817 -12 3
    endloop
  endfacet
  facet normal 0 -1 0
    outer loop
      vertex 49.5 -12 6.23
      vertex 53.5 -12 10
      vertex 38.5 -12 6.23
    endloop
  endfacet
  facet normal 0 -1 0
    outer loop
      vertex 53.5 -12 3
      vertex 49.5 -12 6.23
      vertex 48.0183 -12 3
    endloop
  endfacet
  facet normal 0 -1 0
    outer loop
      vertex 49.5 -12 6.23
      vertex 53.5 -12 3
      vertex 53.5 -12 10
    endloop
  endfacet
  facet normal 1 -0 0
    outer loop
      vertex -20.6 -10 11
      vertex -20.6 10 2.98
      vertex -20.6 10 11
    endloop
  endfacet
  facet normal 1 0 0
    outer loop
      vertex -20.6 10 2.98
      vertex -20.6 -10 11
      vertex -20.6 -10 2.98
    endloop
  endfacet
  facet normal -1 0 0
    outer loop
      vertex -19.4 -10 2.98
      vertex -19.4 10 11
      vertex -19.4 10 2.98
    endloop
  endfacet
  facet normal -1 -0 0
    outer loop
      vertex -19.4 10 11
      vertex -19.4 -10 2.98
      vertex -19.4 -10 11
    endloop
  endfacet
  facet normal 0 -1 0
    outer loop
      vertex -20.6 10 2.98
      vertex -19.4 10 11
      vertex -20.6 10 11
    endloop
  endfacet
  facet normal 0 -1 -0
    outer loop
      vertex -19.4 10 11
      vertex -20.6 10 2.98
      vertex -19.4 10 2.98
    endloop
  endfacet
  facet normal -0 0 1
    outer loop
      vertex -20.6 10 2.98
      vertex -19.4 -10 2.98
      vertex -19.4 10 2.98
    endloop
  endfacet
  facet normal 0 0 1
    outer loop
      vertex -19.4 -10 2.98
      vertex -20.6 10 2.98
      vertex -20.6 -10 2.98
    endloop
  endfacet
  facet normal 0 1 -0
    outer loop
      vertex -19.4 -10 2.98
      vertex -20.6 -10 11
      vertex -19.4 -10 11
    endloop
  endfacet
  facet normal 0 1 0
    outer loop
      vertex -20.6 -10 11
      vertex -19.4 -10 2.98
      vertex -20.6 -10 2.98
    endloop
  endfacet
  facet normal 1 -0 0
    outer loop
      vertex -9.65 -10 11
      vertex -9.65 10 2.98
      vertex -9.65 10 11
    endloop
  endfacet
  facet normal 1 0 0
    outer loop
      vertex -9.65 10 2.98
      vertex -9.65 -10 11
      vertex -9.65 -10 2.98
    endloop
  endfacet
  facet normal -1 0 0
    outer loop
      vertex -8.35 -10 2.98
      vertex -8.35 10 11
      vertex -8.35 10 2.98
    endloop
  endfacet
  facet normal -1 -0 0
    outer loop
      vertex -8.35 10 11
      vertex -8.35 -10 2.98
      vertex -8.35 -10 11
    endloop
  endfacet
  facet normal -0 0 1
    outer loop
      vertex -9.65 10 2.98
      vertex -8.35 -10 2.98
      vertex -8.35 10 2.98
    endloop
  endfacet
  facet normal 0 0 1
    outer loop
      vertex -8.35 -10 2.98
      vertex -9.65 10 2.98
      vertex -9.65 -10 2.98
    endloop
  endfacet
  facet normal 0 1 -0
    outer loop
      vertex -8.35 -10 2.98
      vertex -9.65 -10 11
      vertex -8.35 -10 11
    endloop
  endfacet
  facet normal 0 1 0
    outer loop
      vertex -9.65 -10 11
      vertex -8.35 -10 2.98
      vertex -9.65 -10 2.98
    endloop
  endfacet
  facet normal 0 -1 0
    outer loop
      vertex -9.65 10 2.98
      vertex -8.35 10 11
      vertex -9.65 10 11
    endloop
  endfacet
  facet normal 0 -1 -0
    outer loop
      vertex -8.35 10 11
      vertex -9.65 10 2.98
      vertex -8.35 10 2.98
    endloop
  endfacet
  facet normal 1 -0 0
    outer loop
      vertex 1.3 -10 11
      vertex 1.3 10 2.98
      vertex 1.3 10 11
    endloop
  endfacet
  facet normal 1 0 0
    outer loop
      vertex 1.3 10 2.98
      vertex 1.3 -10 11
      vertex 1.3 -10 2.98
    endloop
  endfacet
  facet normal -1 0 0
    outer loop
      vertex 2.7 -10 2.98
      vertex 2.7 10 11
      vertex 2.7 10 2.98
    endloop
  endfacet
  facet normal -1 -0 0
    outer loop
      vertex 2.7 10 11
      vertex 2.7 -10 2.98
      vertex 2.7 -10 11
    endloop
  endfacet
  facet normal 0 -1 0
    outer loop
      vertex 1.3 10 2.98
      vertex 2.7 10 11
      vertex 1.3 10 11
    endloop
  endfacet
  facet normal 0 -1 -0
    outer loop
      vertex 2.7 10 11
      vertex 1.3 10 2.98
      vertex 2.7 10 2.98
    endloop
  endfacet
  facet normal -0 0 1
    outer loop
      vertex 1.3 10 2.98
      vertex 2.7 -10 2.98
      vertex 2.7 10 2.98
    endloop
  endfacet
  facet normal 0 0 1
    outer loop
      vertex 2.7 -10 2.98
      vertex 1.3 10 2.98
      vertex 1.3 -10 2.98
    endloop
  endfacet
  facet normal 0 1 -0
    outer loop
      vertex 2.7 -10 2.98
      vertex 1.3 -10 11
      vertex 2.7 -10 11
    endloop
  endfacet
  facet normal 0 1 0
    outer loop
      vertex 1.3 -10 11
      vertex 2.7 -10 2.98
      vertex 1.3 -10 2.98
    endloop
  endfacet
  facet normal -0.998428 -0.056042 0
    outer loop
      vertex -31.35 0 2.98
      vertex -31.4295 1.41635 9
      vertex -31.4295 1.41635 2.98
    endloop
  endfacet
  facet normal -0.998428 -0.056042 0
    outer loop
      vertex -31.4295 1.41635 9
      vertex -31.35 0 2.98
      vertex -31.35 0 9
    endloop
  endfacet
  facet normal 0.998428 -0.056042 0
    outer loop
      vertex -56.65 0 9
      vertex -56.5705 1.41635 2.98
      vertex -56.5705 1.41635 9
    endloop
  endfacet
  facet normal 0.998428 -0.056042 0
    outer loop
      vertex -56.5705 1.41635 2.98
      vertex -56.65 0 9
      vertex -56.65 0 2.98
    endloop
  endfacet
  facet normal 0.05604 -0.998429 0
    outer loop
      vertex -45.4164 12.5705 2.98
      vertex -44 12.65 9
      vertex -45.4164 12.5705 9
    endloop
  endfacet
  facet normal 0.05604 -0.998429 0
    outer loop
      vertex -44 12.65 9
      vertex -45.4164 12.5705 2.98
      vertex -44 12.65 2.98
    endloop
  endfacet
  facet normal -0.05604 0.998429 0
    outer loop
      vertex -42.5836 -12.5705 2.98
      vertex -44 -12.65 9
      vertex -42.5836 -12.5705 9
    endloop
  endfacet
  facet normal -0.05604 0.998429 0
    outer loop
      vertex -44 -12.65 9
      vertex -42.5836 -12.5705 2.98
      vertex -44 -12.65 2.98
    endloop
  endfacet
  facet normal -0.666332 -0.745655 0
    outer loop
      vertex -36.1129 9.89017 2.98
      vertex -35.0551 8.9449 9
      vertex -36.1129 9.89017 9
    endloop
  endfacet
  facet normal -0.666332 -0.745655 -0
    outer loop
      vertex -35.0551 8.9449 9
      vertex -36.1129 9.89017 2.98
      vertex -35.0551 8.9449 2.98
    endloop
  endfacet
  facet normal 0.666332 -0.745655 0
    outer loop
      vertex -52.9449 8.9449 2.98
      vertex -51.8871 9.89017 9
      vertex -52.9449 8.9449 9
    endloop
  endfacet
  facet normal 0.666332 -0.745655 0
    outer loop
      vertex -51.8871 9.89017 9
      vertex -52.9449 8.9449 2.98
      vertex -51.8871 9.89017 2.98
    endloop
  endfacet
  facet normal 0.382642 -0.923897 0
    outer loop
      vertex -49.4886 11.3973 2.98
      vertex -48.178 11.9401 9
      vertex -49.4886 11.3973 9
    endloop
  endfacet
  facet normal 0.382642 -0.923897 0
    outer loop
      vertex -48.178 11.9401 9
      vertex -49.4886 11.3973 2.98
      vertex -48.178 11.9401 2.98
    endloop
  endfacet
  facet normal -0.875223 -0.483721 0
    outer loop
      vertex -32.6027 5.48863 2.98
      vertex -33.2889 6.73021 9
      vertex -33.2889 6.73021 2.98
    endloop
  endfacet
  facet normal -0.875223 -0.483721 0
    outer loop
      vertex -33.2889 6.73021 9
      vertex -32.6027 5.48863 2.98
      vertex -32.6027 5.48863 9
    endloop
  endfacet
  facet normal -0.276834 -0.960918 0
    outer loop
      vertex -41.1851 12.3328 2.98
      vertex -39.822 11.9401 9
      vertex -41.1851 12.3328 9
    endloop
  endfacet
  facet normal -0.276834 -0.960918 -0
    outer loop
      vertex -39.822 11.9401 9
      vertex -41.1851 12.3328 2.98
      vertex -39.822 11.9401 2.98
    endloop
  endfacet
  facet normal -0.167565 -0.985861 0
    outer loop
      vertex -42.5836 12.5705 2.98
      vertex -41.1851 12.3328 9
      vertex -42.5836 12.5705 9
    endloop
  endfacet
  facet normal -0.167565 -0.985861 -0
    outer loop
      vertex -41.1851 12.3328 9
      vertex -42.5836 12.5705 2.98
      vertex -41.1851 12.3328 2.98
    endloop
  endfacet
  facet normal -0.483715 -0.875226 0
    outer loop
      vertex -38.5114 11.3973 2.98
      vertex -37.2698 10.7111 9
      vertex -38.5114 11.3973 9
    endloop
  endfacet
  facet normal -0.483715 -0.875226 -0
    outer loop
      vertex -37.2698 10.7111 9
      vertex -38.5114 11.3973 2.98
      vertex -37.2698 10.7111 2.98
    endloop
  endfacet
  facet normal 0.923897 -0.382642 0
    outer loop
      vertex -55.9401 4.17803 9
      vertex -55.3973 5.48863 2.98
      vertex -55.3973 5.48863 9
    endloop
  endfacet
  facet normal 0.923897 -0.382642 0
    outer loop
      vertex -55.3973 5.48863 2.98
      vertex -55.9401 4.17803 9
      vertex -55.9401 4.17803 2.98
    endloop
  endfacet
  facet normal 0.96092 -0.276826 0
    outer loop
      vertex -56.3328 2.81489 9
      vertex -55.9401 4.17803 2.98
      vertex -55.9401 4.17803 9
    endloop
  endfacet
  facet normal 0.96092 -0.276826 0
    outer loop
      vertex -55.9401 4.17803 2.98
      vertex -56.3328 2.81489 9
      vertex -56.3328 2.81489 2.98
    endloop
  endfacet
  facet normal 0.483715 -0.875226 0
    outer loop
      vertex -50.7302 10.7111 2.98
      vertex -49.4886 11.3973 9
      vertex -50.7302 10.7111 9
    endloop
  endfacet
  facet normal 0.483715 -0.875226 0
    outer loop
      vertex -49.4886 11.3973 9
      vertex -50.7302 10.7111 2.98
      vertex -49.4886 11.3973 2.98
    endloop
  endfacet
  facet normal 0.167565 -0.985861 0
    outer loop
      vertex -46.8149 12.3328 2.98
      vertex -45.4164 12.5705 9
      vertex -46.8149 12.3328 9
    endloop
  endfacet
  facet normal 0.167565 -0.985861 0
    outer loop
      vertex -45.4164 12.5705 9
      vertex -46.8149 12.3328 2.98
      vertex -45.4164 12.5705 2.98
    endloop
  endfacet
  facet normal -0.985862 0.16756 0
    outer loop
      vertex -31.6672 -2.81489 2.98
      vertex -31.4295 -1.41635 9
      vertex -31.4295 -1.41635 2.98
    endloop
  endfacet
  facet normal -0.985862 0.16756 0
    outer loop
      vertex -31.4295 -1.41635 9
      vertex -31.6672 -2.81489 2.98
      vertex -31.6672 -2.81489 9
    endloop
  endfacet
  facet normal -0.167565 0.985861 0
    outer loop
      vertex -41.1851 -12.3328 2.98
      vertex -42.5836 -12.5705 9
      vertex -41.1851 -12.3328 9
    endloop
  endfacet
  facet normal -0.167565 0.985861 0
    outer loop
      vertex -42.5836 -12.5705 9
      vertex -41.1851 -12.3328 2.98
      vertex -42.5836 -12.5705 2.98
    endloop
  endfacet
  facet normal -0.96092 -0.276826 0
    outer loop
      vertex -31.6672 2.81489 2.98
      vertex -32.0599 4.17803 9
      vertex -32.0599 4.17803 2.98
    endloop
  endfacet
  facet normal -0.96092 -0.276826 0
    outer loop
      vertex -32.0599 4.17803 9
      vertex -31.6672 2.81489 2.98
      vertex -31.6672 2.81489 9
    endloop
  endfacet
  facet normal -0.985862 -0.16756 0
    outer loop
      vertex -31.4295 1.41635 2.98
      vertex -31.6672 2.81489 9
      vertex -31.6672 2.81489 2.98
    endloop
  endfacet
  facet normal -0.985862 -0.16756 0
    outer loop
      vertex -31.6672 2.81489 9
      vertex -31.4295 1.41635 2.98
      vertex -31.4295 1.41635 9
    endloop
  endfacet
  facet normal -0.923897 -0.382642 0
    outer loop
      vertex -32.0599 4.17803 2.98
      vertex -32.6027 5.48863 9
      vertex -32.6027 5.48863 2.98
    endloop
  endfacet
  facet normal -0.923897 -0.382642 0
    outer loop
      vertex -32.6027 5.48863 9
      vertex -32.0599 4.17803 2.98
      vertex -32.0599 4.17803 9
    endloop
  endfacet
  facet normal -0.745629 -0.666361 0
    outer loop
      vertex -34.1098 7.88715 2.98
      vertex -35.0551 8.9449 9
      vertex -35.0551 8.9449 2.98
    endloop
  endfacet
  facet normal -0.745629 -0.666361 0
    outer loop
      vertex -35.0551 8.9449 9
      vertex -34.1098 7.88715 2.98
      vertex -34.1098 7.88715 9
    endloop
  endfacet
  facet normal -0.815558 -0.578675 0
    outer loop
      vertex -33.2889 6.73021 2.98
      vertex -34.1098 7.88715 9
      vertex -34.1098 7.88715 2.98
    endloop
  endfacet
  facet normal -0.815558 -0.578675 0
    outer loop
      vertex -34.1098 7.88715 9
      vertex -33.2889 6.73021 2.98
      vertex -33.2889 6.73021 9
    endloop
  endfacet
  facet normal -0.05604 -0.998429 0
    outer loop
      vertex -44 12.65 2.98
      vertex -42.5836 12.5705 9
      vertex -44 12.65 9
    endloop
  endfacet
  facet normal -0.05604 -0.998429 -0
    outer loop
      vertex -42.5836 12.5705 9
      vertex -44 12.65 2.98
      vertex -42.5836 12.5705 2.98
    endloop
  endfacet
  facet normal -0.382642 -0.923897 0
    outer loop
      vertex -39.822 11.9401 2.98
      vertex -38.5114 11.3973 9
      vertex -39.822 11.9401 9
    endloop
  endfacet
  facet normal -0.382642 -0.923897 -0
    outer loop
      vertex -38.5114 11.3973 9
      vertex -39.822 11.9401 2.98
      vertex -38.5114 11.3973 2.98
    endloop
  endfacet
  facet normal -0.578702 -0.815539 0
    outer loop
      vertex -37.2698 10.7111 2.98
      vertex -36.1129 9.89017 9
      vertex -37.2698 10.7111 9
    endloop
  endfacet
  facet normal -0.578702 -0.815539 -0
    outer loop
      vertex -36.1129 9.89017 9
      vertex -37.2698 10.7111 2.98
      vertex -36.1129 9.89017 2.98
    endloop
  endfacet
  facet normal 0.815558 -0.578675 0
    outer loop
      vertex -54.7111 6.73021 9
      vertex -53.8902 7.88715 2.98
      vertex -53.8902 7.88715 9
    endloop
  endfacet
  facet normal 0.815558 -0.578675 0
    outer loop
      vertex -53.8902 7.88715 2.98
      vertex -54.7111 6.73021 9
      vertex -54.7111 6.73021 2.98
    endloop
  endfacet
  facet normal 0.745629 -0.666361 0
    outer loop
      vertex -53.8902 7.88715 9
      vertex -52.9449 8.9449 2.98
      vertex -52.9449 8.9449 9
    endloop
  endfacet
  facet normal 0.745629 -0.666361 0
    outer loop
      vertex -52.9449 8.9449 2.98
      vertex -53.8902 7.88715 9
      vertex -53.8902 7.88715 2.98
    endloop
  endfacet
  facet normal 0.875223 -0.483721 0
    outer loop
      vertex -55.3973 5.48863 9
      vertex -54.7111 6.73021 2.98
      vertex -54.7111 6.73021 9
    endloop
  endfacet
  facet normal 0.875223 -0.483721 0
    outer loop
      vertex -54.7111 6.73021 2.98
      vertex -55.3973 5.48863 9
      vertex -55.3973 5.48863 2.98
    endloop
  endfacet
  facet normal 0.985862 -0.16756 0
    outer loop
      vertex -56.5705 1.41635 9
      vertex -56.3328 2.81489 2.98
      vertex -56.3328 2.81489 9
    endloop
  endfacet
  facet normal 0.985862 -0.16756 0
    outer loop
      vertex -56.3328 2.81489 2.98
      vertex -56.5705 1.41635 9
      vertex -56.5705 1.41635 2.98
    endloop
  endfacet
  facet normal 0.578702 -0.815539 0
    outer loop
      vertex -51.8871 9.89017 2.98
      vertex -50.7302 10.7111 9
      vertex -51.8871 9.89017 9
    endloop
  endfacet
  facet normal 0.578702 -0.815539 0
    outer loop
      vertex -50.7302 10.7111 9
      vertex -51.8871 9.89017 2.98
      vertex -50.7302 10.7111 2.98
    endloop
  endfacet
  facet normal 0.276834 -0.960918 0
    outer loop
      vertex -48.178 11.9401 2.98
      vertex -46.8149 12.3328 9
      vertex -48.178 11.9401 9
    endloop
  endfacet
  facet normal 0.276834 -0.960918 0
    outer loop
      vertex -46.8149 12.3328 9
      vertex -48.178 11.9401 2.98
      vertex -46.8149 12.3328 2.98
    endloop
  endfacet
  facet normal -0.998428 0.056042 0
    outer loop
      vertex -31.4295 -1.41635 2.98
      vertex -31.35 0 9
      vertex -31.35 0 2.98
    endloop
  endfacet
  facet normal -0.998428 0.056042 0
    outer loop
      vertex -31.35 0 9
      vertex -31.4295 -1.41635 2.98
      vertex -31.4295 -1.41635 9
    endloop
  endfacet
  facet normal -0.578702 0.815539 0
    outer loop
      vertex -36.1129 -9.89017 2.98
      vertex -37.2698 -10.7111 9
      vertex -36.1129 -9.89017 9
    endloop
  endfacet
  facet normal -0.578702 0.815539 0
    outer loop
      vertex -37.2698 -10.7111 9
      vertex -36.1129 -9.89017 2.98
      vertex -37.2698 -10.7111 2.98
    endloop
  endfacet
  facet normal -0.745629 0.666361 0
    outer loop
      vertex -35.0551 -8.9449 2.98
      vertex -34.1098 -7.88715 9
      vertex -34.1098 -7.88715 2.98
    endloop
  endfacet
  facet normal -0.745629 0.666361 0
    outer loop
      vertex -34.1098 -7.88715 9
      vertex -35.0551 -8.9449 2.98
      vertex -35.0551 -8.9449 9
    endloop
  endfacet
  facet normal 0.666332 0.745655 -0
    outer loop
      vertex -51.8871 -9.89017 2.98
      vertex -52.9449 -8.9449 9
      vertex -51.8871 -9.89017 9
    endloop
  endfacet
  facet normal 0.666332 0.745655 0
    outer loop
      vertex -52.9449 -8.9449 9
      vertex -51.8871 -9.89017 2.98
      vertex -52.9449 -8.9449 2.98
    endloop
  endfacet
  facet normal 0.815558 0.578675 0
    outer loop
      vertex -53.8902 -7.88715 9
      vertex -54.7111 -6.73021 2.98
      vertex -54.7111 -6.73021 9
    endloop
  endfacet
  facet normal 0.815558 0.578675 0
    outer loop
      vertex -54.7111 -6.73021 2.98
      vertex -53.8902 -7.88715 9
      vertex -53.8902 -7.88715 2.98
    endloop
  endfacet
  facet normal 0 0 1
    outer loop
      vertex -31.4295 1.41635 2.98
      vertex -31.4295 -1.41635 2.98
      vertex -31.35 0 2.98
    endloop
  endfacet
  facet normal 0 0 1
    outer loop
      vertex -31.6672 2.81489 2.98
      vertex -31.4295 -1.41635 2.98
      vertex -31.4295 1.41635 2.98
    endloop
  endfacet
  facet normal 0 0 1
    outer loop
      vertex -31.6672 2.81489 2.98
      vertex -31.6672 -2.81489 2.98
      vertex -31.4295 -1.41635 2.98
    endloop
  endfacet
  facet normal 0 0 1
    outer loop
      vertex -32.0599 4.17803 2.98
      vertex -31.6672 -2.81489 2.98
      vertex -31.6672 2.81489 2.98
    endloop
  endfacet
  facet normal 0 0 1
    outer loop
      vertex -32.0599 4.17803 2.98
      vertex -32.0599 -4.17803 2.98
      vertex -31.6672 -2.81489 2.98
    endloop
  endfacet
  facet normal 0 0 1
    outer loop
      vertex -32.6027 5.48863 2.98
      vertex -32.0599 -4.17803 2.98
      vertex -32.0599 4.17803 2.98
    endloop
  endfacet
  facet normal 0 0 1
    outer loop
      vertex -32.6027 5.48863 2.98
      vertex -32.6027 -5.48863 2.98
      vertex -32.0599 -4.17803 2.98
    endloop
  endfacet
  facet normal 0 0 1
    outer loop
      vertex -33.2889 6.73021 2.98
      vertex -32.6027 -5.48863 2.98
      vertex -32.6027 5.48863 2.98
    endloop
  endfacet
  facet normal 0 0 1
    outer loop
      vertex -33.2889 6.73021 2.98
      vertex -33.2889 -6.73021 2.98
      vertex -32.6027 -5.48863 2.98
    endloop
  endfacet
  facet normal 0 0 1
    outer loop
      vertex -34.1098 7.88715 2.98
      vertex -33.2889 -6.73021 2.98
      vertex -33.2889 6.73021 2.98
    endloop
  endfacet
  facet normal 0 0 1
    outer loop
      vertex -34.1098 7.88715 2.98
      vertex -34.1098 -7.88715 2.98
      vertex -33.2889 -6.73021 2.98
    endloop
  endfacet
  facet normal 0 0 1
    outer loop
      vertex -35.0551 8.9449 2.98
      vertex -34.1098 -7.88715 2.98
      vertex -34.1098 7.88715 2.98
    endloop
  endfacet
  facet normal 0 0 1
    outer loop
      vertex -35.0551 8.9449 2.98
      vertex -35.0551 -8.9449 2.98
      vertex -34.1098 -7.88715 2.98
    endloop
  endfacet
  facet normal 0 0 1
    outer loop
      vertex -36.1129 9.89017 2.98
      vertex -35.0551 -8.9449 2.98
      vertex -35.0551 8.9449 2.98
    endloop
  endfacet
  facet normal 0 0 1
    outer loop
      vertex -36.1129 9.89017 2.98
      vertex -36.1129 -9.89017 2.98
      vertex -35.0551 -8.9449 2.98
    endloop
  endfacet
  facet normal 0 0 1
    outer loop
      vertex -37.2698 10.7111 2.98
      vertex -36.1129 -9.89017 2.98
      vertex -36.1129 9.89017 2.98
    endloop
  endfacet
  facet normal 0 0 1
    outer loop
      vertex -37.2698 10.7111 2.98
      vertex -37.2698 -10.7111 2.98
      vertex -36.1129 -9.89017 2.98
    endloop
  endfacet
  facet normal 0 0 1
    outer loop
      vertex -38.5114 11.3973 2.98
      vertex -37.2698 -10.7111 2.98
      vertex -37.2698 10.7111 2.98
    endloop
  endfacet
  facet normal 0 0 1
    outer loop
      vertex -38.5114 11.3973 2.98
      vertex -38.5114 -11.3973 2.98
      vertex -37.2698 -10.7111 2.98
    endloop
  endfacet
  facet normal 0 0 1
    outer loop
      vertex -39.822 11.9401 2.98
      vertex -38.5114 -11.3973 2.98
      vertex -38.5114 11.3973 2.98
    endloop
  endfacet
  facet normal 0 0 1
    outer loop
      vertex -39.822 11.9401 2.98
      vertex -39.822 -11.9401 2.98
      vertex -38.5114 -11.3973 2.98
    endloop
  endfacet
  facet normal 0 0 1
    outer loop
      vertex -41.1851 12.3328 2.98
      vertex -39.822 -11.9401 2.98
      vertex -39.822 11.9401 2.98
    endloop
  endfacet
  facet normal 0 0 1
    outer loop
      vertex -41.1851 12.3328 2.98
      vertex -41.1851 -12.3328 2.98
      vertex -39.822 -11.9401 2.98
    endloop
  endfacet
  facet normal 0 0 1
    outer loop
      vertex -42.5836 12.5705 2.98
      vertex -41.1851 -12.3328 2.98
      vertex -41.1851 12.3328 2.98
    endloop
  endfacet
  facet normal 0 0 1
    outer loop
      vertex -42.5836 12.5705 2.98
      vertex -42.5836 -12.5705 2.98
      vertex -41.1851 -12.3328 2.98
    endloop
  endfacet
  facet normal 0 0 1
    outer loop
      vertex -44 12.65 2.98
      vertex -42.5836 -12.5705 2.98
      vertex -42.5836 12.5705 2.98
    endloop
  endfacet
  facet normal 0 0 1
    outer loop
      vertex -44 12.65 2.98
      vertex -44 -12.65 2.98
      vertex -42.5836 -12.5705 2.98
    endloop
  endfacet
  facet normal -0 0 1
    outer loop
      vertex -45.4164 12.5705 2.98
      vertex -44 -12.65 2.98
      vertex -44 12.65 2.98
    endloop
  endfacet
  facet normal 0 0 1
    outer loop
      vertex -45.4164 12.5705 2.98
      vertex -45.4164 -12.5705 2.98
      vertex -44 -12.65 2.98
    endloop
  endfacet
  facet normal -0 0 1
    outer loop
      vertex -46.8149 12.3328 2.98
      vertex -45.4164 -12.5705 2.98
      vertex -45.4164 12.5705 2.98
    endloop
  endfacet
  facet normal 0 0 1
    outer loop
      vertex -46.8149 12.3328 2.98
      vertex -46.8149 -12.3328 2.98
      vertex -45.4164 -12.5705 2.98
    endloop
  endfacet
  facet normal -0 0 1
    outer loop
      vertex -48.178 11.9401 2.98
      vertex -46.8149 -12.3328 2.98
      vertex -46.8149 12.3328 2.98
    endloop
  endfacet
  facet normal 0 0 1
    outer loop
      vertex -48.178 11.9401 2.98
      vertex -48.178 -11.9401 2.98
      vertex -46.8149 -12.3328 2.98
    endloop
  endfacet
  facet normal -0 0 1
    outer loop
      vertex -49.4886 11.3973 2.98
      vertex -48.178 -11.9401 2.98
      vertex -48.178 11.9401 2.98
    endloop
  endfacet
  facet normal 0 0 1
    outer loop
      vertex -49.4886 11.3973 2.98
      vertex -49.4886 -11.3973 2.98
      vertex -48.178 -11.9401 2.98
    endloop
  endfacet
  facet normal -0 0 1
    outer loop
      vertex -50.7302 10.7111 2.98
      vertex -49.4886 -11.3973 2.98
      vertex -49.4886 11.3973 2.98
    endloop
  endfacet
  facet normal 0 0 1
    outer loop
      vertex -50.7302 10.7111 2.98
      vertex -50.7302 -10.7111 2.98
      vertex -49.4886 -11.3973 2.98
    endloop
  endfacet
  facet normal -0 0 1
    outer loop
      vertex -51.8871 9.89017 2.98
      vertex -50.7302 -10.7111 2.98
      vertex -50.7302 10.7111 2.98
    endloop
  endfacet
  facet normal 0 0 1
    outer loop
      vertex -51.8871 9.89017 2.98
      vertex -51.8871 -9.89017 2.98
      vertex -50.7302 -10.7111 2.98
    endloop
  endfacet
  facet normal -0 0 1
    outer loop
      vertex -52.9449 8.9449 2.98
      vertex -51.8871 -9.89017 2.98
      vertex -51.8871 9.89017 2.98
    endloop
  endfacet
  facet normal 0 0 1
    outer loop
      vertex -52.9449 8.9449 2.98
      vertex -52.9449 -8.9449 2.98
      vertex -51.8871 -9.89017 2.98
    endloop
  endfacet
  facet normal -0 0 1
    outer loop
      vertex -53.8902 7.88715 2.98
      vertex -52.9449 -8.9449 2.98
      vertex -52.9449 8.9449 2.98
    endloop
  endfacet
  facet normal 0 0 1
    outer loop
      vertex -53.8902 7.88715 2.98
      vertex -53.8902 -7.88715 2.98
      vertex -52.9449 -8.9449 2.98
    endloop
  endfacet
  facet normal -0 0 1
    outer loop
      vertex -54.7111 6.73021 2.98
      vertex -53.8902 -7.88715 2.98
      vertex -53.8902 7.88715 2.98
    endloop
  endfacet
  facet normal 0 0 1
    outer loop
      vertex -54.7111 6.73021 2.98
      vertex -54.7111 -6.73021 2.98
      vertex -53.8902 -7.88715 2.98
    endloop
  endfacet
  facet normal -0 0 1
    outer loop
      vertex -55.3973 5.48863 2.98
      vertex -54.7111 -6.73021 2.98
      vertex -54.7111 6.73021 2.98
    endloop
  endfacet
  facet normal 0 0 1
    outer loop
      vertex -55.3973 5.48863 2.98
      vertex -55.3973 -5.48863 2.98
      vertex -54.7111 -6.73021 2.98
    endloop
  endfacet
  facet normal -0 0 1
    outer loop
      vertex -55.9401 4.17803 2.98
      vertex -55.3973 -5.48863 2.98
      vertex -55.3973 5.48863 2.98
    endloop
  endfacet
  facet normal 0 0 1
    outer loop
      vertex -55.9401 4.17803 2.98
      vertex -55.9401 -4.17803 2.98
      vertex -55.3973 -5.48863 2.98
    endloop
  endfacet
  facet normal -0 0 1
    outer loop
      vertex -56.3328 2.81489 2.98
      vertex -55.9401 -4.17803 2.98
      vertex -55.9401 4.17803 2.98
    endloop
  endfacet
  facet normal 0 0 1
    outer loop
      vertex -56.3328 2.81489 2.98
      vertex -56.3328 -2.81489 2.98
      vertex -55.9401 -4.17803 2.98
    endloop
  endfacet
  facet normal -0 0 1
    outer loop
      vertex -56.5705 1.41635 2.98
      vertex -56.3328 -2.81489 2.98
      vertex -56.3328 2.81489 2.98
    endloop
  endfacet
  facet normal 0 0 1
    outer loop
      vertex -56.5705 1.41635 2.98
      vertex -56.5705 -1.41635 2.98
      vertex -56.3328 -2.81489 2.98
    endloop
  endfacet
  facet normal 0 -0 1
    outer loop
      vertex -56.5705 -1.41635 2.98
      vertex -56.5705 1.41635 2.98
      vertex -56.65 0 2.98
    endloop
  endfacet
  facet normal -0.815558 0.578675 0
    outer loop
      vertex -34.1098 -7.88715 2.98
      vertex -33.2889 -6.73021 9
      vertex -33.2889 -6.73021 2.98
    endloop
  endfacet
  facet normal -0.815558 0.578675 0
    outer loop
      vertex -33.2889 -6.73021 9
      vertex -34.1098 -7.88715 2.98
      vertex -34.1098 -7.88715 9
    endloop
  endfacet
  facet normal -0.923897 0.382642 0
    outer loop
      vertex -32.6027 -5.48863 2.98
      vertex -32.0599 -4.17803 9
      vertex -32.0599 -4.17803 2.98
    endloop
  endfacet
  facet normal -0.923897 0.382642 0
    outer loop
      vertex -32.0599 -4.17803 9
      vertex -32.6027 -5.48863 2.98
      vertex -32.6027 -5.48863 9
    endloop
  endfacet
  facet normal 0.276834 0.960918 -0
    outer loop
      vertex -46.8149 -12.3328 2.98
      vertex -48.178 -11.9401 9
      vertex -46.8149 -12.3328 9
    endloop
  endfacet
  facet normal 0.276834 0.960918 0
    outer loop
      vertex -48.178 -11.9401 9
      vertex -46.8149 -12.3328 2.98
      vertex -48.178 -11.9401 2.98
    endloop
  endfacet
  facet normal 0.745629 0.666361 0
    outer loop
      vertex -52.9449 -8.9449 9
      vertex -53.8902 -7.88715 2.98
      vertex -53.8902 -7.88715 9
    endloop
  endfacet
  facet normal 0.745629 0.666361 0
    outer loop
      vertex -53.8902 -7.88715 2.98
      vertex -52.9449 -8.9449 9
      vertex -52.9449 -8.9449 2.98
    endloop
  endfacet
  facet normal 0.96092 0.276826 0
    outer loop
      vertex -55.9401 -4.17803 9
      vertex -56.3328 -2.81489 2.98
      vertex -56.3328 -2.81489 9
    endloop
  endfacet
  facet normal 0.96092 0.276826 0
    outer loop
      vertex -56.3328 -2.81489 2.98
      vertex -55.9401 -4.17803 9
      vertex -55.9401 -4.17803 2.98
    endloop
  endfacet
  facet normal 0.998428 0.056042 0
    outer loop
      vertex -56.5705 -1.41635 9
      vertex -56.65 0 2.98
      vertex -56.65 0 9
    endloop
  endfacet
  facet normal 0.998428 0.056042 0
    outer loop
      vertex -56.65 0 2.98
      vertex -56.5705 -1.41635 9
      vertex -56.5705 -1.41635 2.98
    endloop
  endfacet
  facet normal -0.276834 0.960918 0
    outer loop
      vertex -39.822 -11.9401 2.98
      vertex -41.1851 -12.3328 9
      vertex -39.822 -11.9401 9
    endloop
  endfacet
  facet normal -0.276834 0.960918 0
    outer loop
      vertex -41.1851 -12.3328 9
      vertex -39.822 -11.9401 2.98
      vertex -41.1851 -12.3328 2.98
    endloop
  endfacet
  facet normal -0.483715 0.875226 0
    outer loop
      vertex -37.2698 -10.7111 2.98
      vertex -38.5114 -11.3973 9
      vertex -37.2698 -10.7111 9
    endloop
  endfacet
  facet normal -0.483715 0.875226 0
    outer loop
      vertex -38.5114 -11.3973 9
      vertex -37.2698 -10.7111 2.98
      vertex -38.5114 -11.3973 2.98
    endloop
  endfacet
  facet normal -0.382642 0.923897 0
    outer loop
      vertex -38.5114 -11.3973 2.98
      vertex -39.822 -11.9401 9
      vertex -38.5114 -11.3973 9
    endloop
  endfacet
  facet normal -0.382642 0.923897 0
    outer loop
      vertex -39.822 -11.9401 9
      vertex -38.5114 -11.3973 2.98
      vertex -39.822 -11.9401 2.98
    endloop
  endfacet
  facet normal -0.875223 0.483721 0
    outer loop
      vertex -33.2889 -6.73021 2.98
      vertex -32.6027 -5.48863 9
      vertex -32.6027 -5.48863 2.98
    endloop
  endfacet
  facet normal -0.875223 0.483721 0
    outer loop
      vertex -32.6027 -5.48863 9
      vertex -33.2889 -6.73021 2.98
      vertex -33.2889 -6.73021 9
    endloop
  endfacet
  facet normal -0.666332 0.745655 0
    outer loop
      vertex -35.0551 -8.9449 2.98
      vertex -36.1129 -9.89017 9
      vertex -35.0551 -8.9449 9
    endloop
  endfacet
  facet normal -0.666332 0.745655 0
    outer loop
      vertex -36.1129 -9.89017 9
      vertex -35.0551 -8.9449 2.98
      vertex -36.1129 -9.89017 2.98
    endloop
  endfacet
  facet normal -0.96092 0.276826 0
    outer loop
      vertex -32.0599 -4.17803 2.98
      vertex -31.6672 -2.81489 9
      vertex -31.6672 -2.81489 2.98
    endloop
  endfacet
  facet normal -0.96092 0.276826 0
    outer loop
      vertex -31.6672 -2.81489 9
      vertex -32.0599 -4.17803 2.98
      vertex -32.0599 -4.17803 9
    endloop
  endfacet
  facet normal 0.483715 0.875226 -0
    outer loop
      vertex -49.4886 -11.3973 2.98
      vertex -50.7302 -10.7111 9
      vertex -49.4886 -11.3973 9
    endloop
  endfacet
  facet normal 0.483715 0.875226 0
    outer loop
      vertex -50.7302 -10.7111 9
      vertex -49.4886 -11.3973 2.98
      vertex -50.7302 -10.7111 2.98
    endloop
  endfacet
  facet normal 0.875223 0.483721 0
    outer loop
      vertex -54.7111 -6.73021 9
      vertex -55.3973 -5.48863 2.98
      vertex -55.3973 -5.48863 9
    endloop
  endfacet
  facet normal 0.875223 0.483721 0
    outer loop
      vertex -55.3973 -5.48863 2.98
      vertex -54.7111 -6.73021 9
      vertex -54.7111 -6.73021 2.98
    endloop
  endfacet
  facet normal 0.923897 0.382642 0
    outer loop
      vertex -55.3973 -5.48863 9
      vertex -55.9401 -4.17803 2.98
      vertex -55.9401 -4.17803 9
    endloop
  endfacet
  facet normal 0.923897 0.382642 0
    outer loop
      vertex -55.9401 -4.17803 2.98
      vertex -55.3973 -5.48863 9
      vertex -55.3973 -5.48863 2.98
    endloop
  endfacet
  facet normal 0.985862 0.16756 0
    outer loop
      vertex -56.3328 -2.81489 9
      vertex -56.5705 -1.41635 2.98
      vertex -56.5705 -1.41635 9
    endloop
  endfacet
  facet normal 0.985862 0.16756 0
    outer loop
      vertex -56.5705 -1.41635 2.98
      vertex -56.3328 -2.81489 9
      vertex -56.3328 -2.81489 2.98
    endloop
  endfacet
  facet normal 0.167565 0.985861 -0
    outer loop
      vertex -45.4164 -12.5705 2.98
      vertex -46.8149 -12.3328 9
      vertex -45.4164 -12.5705 9
    endloop
  endfacet
  facet normal 0.167565 0.985861 0
    outer loop
      vertex -46.8149 -12.3328 9
      vertex -45.4164 -12.5705 2.98
      vertex -46.8149 -12.3328 2.98
    endloop
  endfacet
  facet normal 0.578702 0.815539 -0
    outer loop
      vertex -50.7302 -10.7111 2.98
      vertex -51.8871 -9.89017 9
      vertex -50.7302 -10.7111 9
    endloop
  endfacet
  facet normal 0.578702 0.815539 0
    outer loop
      vertex -51.8871 -9.89017 9
      vertex -50.7302 -10.7111 2.98
      vertex -51.8871 -9.89017 2.98
    endloop
  endfacet
  facet normal 0.382642 0.923897 -0
    outer loop
      vertex -48.178 -11.9401 2.98
      vertex -49.4886 -11.3973 9
      vertex -48.178 -11.9401 9
    endloop
  endfacet
  facet normal 0.382642 0.923897 0
    outer loop
      vertex -49.4886 -11.3973 9
      vertex -48.178 -11.9401 2.98
      vertex -49.4886 -11.3973 2.98
    endloop
  endfacet
  facet normal 0.05604 0.998429 -0
    outer loop
      vertex -44 -12.65 2.98
      vertex -45.4164 -12.5705 9
      vertex -44 -12.65 9
    endloop
  endfacet
  facet normal 0.05604 0.998429 0
    outer loop
      vertex -45.4164 -12.5705 9
      vertex -44 -12.65 2.98
      vertex -45.4164 -12.5705 2.98
    endloop
  endfacet
  facet normal 0 -1 0
    outer loop
      vertex 40 12.02 2.96001
      vertex 48.0183 12.02 3
      vertex 39.9817 12.02 3
    endloop
  endfacet
  facet normal 0 -1 0
    outer loop
      vertex 48.0183 12.02 3
      vertex 40 12.02 2.96001
      vertex 48 12.02 2.96001
    endloop
  endfacet
  facet normal -0.909312 0 0.416114
    outer loop
      vertex 48 12.02 2.96001
      vertex 48.0183 12 3
      vertex 48.0183 12.02 3
    endloop
  endfacet
  facet normal -0.908928 0 0.416953
    outer loop
      vertex 48.0183 12 3
      vertex 48.0183 -12 3
      vertex 49.5 12 6.23
    endloop
  endfacet
  facet normal -0.909312 0 0.416114
    outer loop
      vertex 48 12.02 2.96001
      vertex 48.0183 -12 3
      vertex 48.0183 12 3
    endloop
  endfacet
  facet normal -0.909312 0 0.416114
    outer loop
      vertex 48 -12.02 2.96001
      vertex 48.0183 -12 3
      vertex 48 12.02 2.96001
    endloop
  endfacet
  facet normal -0.909312 0 0.416114
    outer loop
      vertex 48.0183 -12 3
      vertex 48 -12.02 2.96001
      vertex 48.0183 -12.02 3
    endloop
  endfacet
  facet normal -0.908928 0 0.416953
    outer loop
      vertex 49.5 12 6.23
      vertex 48.0183 -12 3
      vertex 49.5 -12 6.23
    endloop
  endfacet
  facet normal 0 1 -0
    outer loop
      vertex 48 -12.02 2.96001
      vertex 39.9817 -12.02 3
      vertex 48.0183 -12.02 3
    endloop
  endfacet
  facet normal 0 1 0
    outer loop
      vertex 39.9817 -12.02 3
      vertex 48 -12.02 2.96001
      vertex 40 -12.02 2.96001
    endloop
  endfacet
  facet normal 0 0 -1
    outer loop
      vertex 38.5 -12 6.23
      vertex 49.5 12 6.23
      vertex 49.5 -12 6.23
    endloop
  endfacet
  facet normal -0 0 -1
    outer loop
      vertex 49.5 12 6.23
      vertex 38.5 -12 6.23
      vertex 38.5 12 6.23
    endloop
  endfacet
  facet normal 0.908928 0 0.416953
    outer loop
      vertex 38.5 12 6.23
      vertex 38.5 -12 6.23
      vertex 39.9817 12 3
    endloop
  endfacet
  facet normal 0.909312 -0 0.416114
    outer loop
      vertex 39.9817 12 3
      vertex 40 12.02 2.96001
      vertex 39.9817 12.02 3
    endloop
  endfacet
  facet normal 0.908928 -0 0.416953
    outer loop
      vertex 39.9817 -12 3
      vertex 39.9817 12 3
      vertex 38.5 -12 6.23
    endloop
  endfacet
  facet normal 0.909312 0 0.416114
    outer loop
      vertex 39.9817 12 3
      vertex 39.9817 -12 3
      vertex 40 12.02 2.96001
    endloop
  endfacet
  facet normal 0.909312 0 0.416114
    outer loop
      vertex 40 -12.02 2.96001
      vertex 39.9817 -12 3
      vertex 39.9817 -12.02 3
    endloop
  endfacet
  facet normal 0.909312 0 0.416114
    outer loop
      vertex 39.9817 -12 3
      vertex 40 -12.02 2.96001
      vertex 40 12.02 2.96001
    endloop
  endfacet
  facet normal -0 0 1
    outer loop
      vertex 40 12.02 2.96001
      vertex 48 -12.02 2.96001
      vertex 48 12.02 2.96001
    endloop
  endfacet
  facet normal 0 0 1
    outer loop
      vertex 48 -12.02 2.96001
      vertex 40 12.02 2.96001
      vertex 40 -12.02 2.96001
    endloop
  endfacet
endsolid OpenSCAD_Model
