solid OpenSCAD_Model
  facet normal -1 0 0
    outer loop
      vertex 4.5 16.95 3
      vertex 4.5 14.2 9.35
      vertex 4.5 16.95 37.5
    endloop
  endfacet
  facet normal -1 0 0
    outer loop
      vertex 4.5 16.95 3
      vertex 4.5 -14.2 9.35
      vertex 4.5 14.2 9.35
    endloop
  endfacet
  facet normal -1 0 0
    outer loop
      vertex 4.5 -16.95 3
      vertex 4.5 -14.2 9.35
      vertex 4.5 16.95 3
    endloop
  endfacet
  facet normal -1 0 0
    outer loop
      vertex 4.5 -16.95 37.5
      vertex 4.5 -14.2 9.35
      vertex 4.5 -16.95 3
    endloop
  endfacet
  facet normal -1 0 0
    outer loop
      vertex 4.5 -14.2 9.35
      vertex 4.5 -16.95 37.5
      vertex 4.5 -14.2 37.5
    endloop
  endfacet
  facet normal -1 -0 0
    outer loop
      vertex 4.5 16.95 37.5
      vertex 4.5 14.2 9.35
      vertex 4.5 14.2 37.5
    endloop
  endfacet
  facet normal -0 0 1
    outer loop
      vertex 4.5 -14.2 37.5
      vertex 11.5 -16.95 37.5
      vertex 11.5 -14.2 37.5
    endloop
  endfacet
  facet normal 0 0 1
    outer loop
      vertex 11.5 -16.95 37.5
      vertex 4.5 -14.2 37.5
      vertex 4.5 -16.95 37.5
    endloop
  endfacet
  facet normal -0 0 1
    outer loop
      vertex 4.5 16.95 37.5
      vertex 11.5 14.2 37.5
      vertex 11.5 16.95 37.5
    endloop
  endfacet
  facet normal 0 0 1
    outer loop
      vertex 11.5 14.2 37.5
      vertex 4.5 16.95 37.5
      vertex 4.5 14.2 37.5
    endloop
  endfacet
  facet normal 1 0 0
    outer loop
      vertex 11.5 -14.2 37.5
      vertex 11.5 -16.95 37.5
      vertex 11.5 -14.2 9.35
    endloop
  endfacet
  facet normal 1 0 0
    outer loop
      vertex 11.5 14.2 9.35
      vertex 11.5 16.95 37.5
      vertex 11.5 14.2 37.5
    endloop
  endfacet
  facet normal 1 0 0
    outer loop
      vertex 11.5 16.95 37.5
      vertex 11.5 14.2 9.35
      vertex 11.5 16.95 3
    endloop
  endfacet
  facet normal 1 -0 0
    outer loop
      vertex 11.5 -14.2 9.35
      vertex 11.5 16.95 3
      vertex 11.5 14.2 9.35
    endloop
  endfacet
  facet normal 1 0 0
    outer loop
      vertex 11.5 -14.2 9.35
      vertex 11.5 -16.95 3
      vertex 11.5 16.95 3
    endloop
  endfacet
  facet normal 1 0 0
    outer loop
      vertex 11.5 -16.95 3
      vertex 11.5 -14.2 9.35
      vertex 11.5 -16.95 37.5
    endloop
  endfacet
  facet normal 0 1 -0
    outer loop
      vertex 11.5 16.95 3
      vertex 4.5 16.95 37.5
      vertex 11.5 16.95 37.5
    endloop
  endfacet
  facet normal 0 1 0
    outer loop
      vertex 4.5 16.95 37.5
      vertex 11.5 16.95 3
      vertex 4.5 16.95 3
    endloop
  endfacet
  facet normal -0 0 1
    outer loop
      vertex -19.3046 -8.54727 3
      vertex -15.25 -30.017 3
      vertex -15.25 -2.79558 3
    endloop
  endfacet
  facet normal -0 0 1
    outer loop
      vertex -22.1331 -11.3757 3
      vertex -15.25 -30.017 3
      vertex -19.3046 -8.54727 3
    endloop
  endfacet
  facet normal 0 0 1
    outer loop
      vertex -15.25 -30.017 3
      vertex -22.1331 -11.3757 3
      vertex -15.445 -30.0501 3
    endloop
  endfacet
  facet normal 0 0 1
    outer loop
      vertex -15.445 -30.0501 3
      vertex -22.1331 -11.3757 3
      vertex -15.6606 -30.1122 3
    endloop
  endfacet
  facet normal -0 0 1
    outer loop
      vertex -26.6939 -14.2395 3
      vertex -15.6606 -30.1122 3
      vertex -22.1331 -11.3757 3
    endloop
  endfacet
  facet normal 0 0 1
    outer loop
      vertex -15.6606 -30.1122 3
      vertex -26.6939 -14.2395 3
      vertex -15.8678 -30.1981 3
    endloop
  endfacet
  facet normal 0 0 1
    outer loop
      vertex -15.8678 -30.1981 3
      vertex -26.6939 -14.2395 3
      vertex -16.0641 -30.3066 3
    endloop
  endfacet
  facet normal 0 0 1
    outer loop
      vertex -16.0641 -30.3066 3
      vertex -26.6939 -14.2395 3
      vertex -16.247 -30.4363 3
    endloop
  endfacet
  facet normal 0 0 1
    outer loop
      vertex -16.247 -30.4363 3
      vertex -26.6939 -14.2395 3
      vertex -16.4142 -30.5858 3
    endloop
  endfacet
  facet normal 0 0 1
    outer loop
      vertex -16.4142 -30.5858 3
      vertex -26.6939 -14.2395 3
      vertex -16.5637 -30.753 3
    endloop
  endfacet
  facet normal 0 0 1
    outer loop
      vertex -16.5637 -30.753 3
      vertex -26.6939 -14.2395 3
      vertex -16.6934 -30.9359 3
    endloop
  endfacet
  facet normal 0 0 1
    outer loop
      vertex -16.6934 -30.9359 3
      vertex -26.6939 -14.2395 3
      vertex -16.8019 -31.1322 3
    endloop
  endfacet
  facet normal 0 0 1
    outer loop
      vertex -16.8878 -31.3394 3
      vertex -26.6939 -14.2395 3
      vertex -16.9499 -31.555 3
    endloop
  endfacet
  facet normal 0 0 1
    outer loop
      vertex -16.8019 -31.1322 3
      vertex -26.6939 -14.2395 3
      vertex -16.8878 -31.3394 3
    endloop
  endfacet
  facet normal 0 -0 1
    outer loop
      vertex -19.3046 -8.54727 3
      vertex -15.25 -2.79558 3
      vertex -20.1532 -7.69874 3
    endloop
  endfacet
  facet normal 0 0 1
    outer loop
      vertex 4.5 -16.95 3
      vertex -13.0126 -31.7761 3
      vertex -13 -32 3
    endloop
  endfacet
  facet normal 0 0 1
    outer loop
      vertex -7.99092 2.76644 3
      vertex -13.0501 -31.555 3
      vertex -13.0126 -31.7761 3
    endloop
  endfacet
  facet normal 0 0 1
    outer loop
      vertex -7.99092 2.76644 3
      vertex -13.1122 -31.3394 3
      vertex -13.0501 -31.555 3
    endloop
  endfacet
  facet normal 0 0 1
    outer loop
      vertex -7.99092 2.76644 3
      vertex -13.1981 -31.1322 3
      vertex -13.1122 -31.3394 3
    endloop
  endfacet
  facet normal 0 0 1
    outer loop
      vertex -7.99092 2.76644 3
      vertex -13.3066 -30.9359 3
      vertex -13.1981 -31.1322 3
    endloop
  endfacet
  facet normal 0 0 1
    outer loop
      vertex -7.99092 2.76644 3
      vertex -13.4363 -30.753 3
      vertex -13.3066 -30.9359 3
    endloop
  endfacet
  facet normal 0 -0 1
    outer loop
      vertex -13.5858 -30.5858 3
      vertex -7.99092 2.76644 3
      vertex -14.75 -2.29558 3
    endloop
  endfacet
  facet normal 0 0 1
    outer loop
      vertex -7.99092 2.76644 3
      vertex -13.5858 -30.5858 3
      vertex -13.4363 -30.753 3
    endloop
  endfacet
  facet normal 0 0 1
    outer loop
      vertex -13.5858 -30.5858 3
      vertex -14.75 -2.29558 3
      vertex -13.753 -30.4363 3
    endloop
  endfacet
  facet normal 0 0 1
    outer loop
      vertex -13.753 -30.4363 3
      vertex -14.75 -2.29558 3
      vertex -13.9359 -30.3066 3
    endloop
  endfacet
  facet normal 0 0 1
    outer loop
      vertex -13.9359 -30.3066 3
      vertex -14.75 -2.29558 3
      vertex -14.1322 -30.1981 3
    endloop
  endfacet
  facet normal 0 0 1
    outer loop
      vertex -14.1322 -30.1981 3
      vertex -14.75 -2.29558 3
      vertex -14.3394 -30.1122 3
    endloop
  endfacet
  facet normal 0 0 1
    outer loop
      vertex -14.3394 -30.1122 3
      vertex -14.75 -2.29558 3
      vertex -14.555 -30.0501 3
    endloop
  endfacet
  facet normal 0 0 1
    outer loop
      vertex -14.555 -30.0501 3
      vertex -14.75 -2.29558 3
      vertex -14.75 -30.017 3
    endloop
  endfacet
  facet normal 0 0 1
    outer loop
      vertex -2.29871 10.1557 3
      vertex -6.01102 6.44339 3
      vertex -5.16249 5.59486 3
    endloop
  endfacet
  facet normal 0 0 1
    outer loop
      vertex 62.8 25 3
      vertex 65.8 22 3
      vertex 65.7811 22.3359 3
    endloop
  endfacet
  facet normal 0 0 1
    outer loop
      vertex 65.8 22 3
      vertex 54.3 -16.95 3
      vertex 65.8 -47 3
    endloop
  endfacet
  facet normal 0 0 1
    outer loop
      vertex 62.8 25 3
      vertex 65.7811 22.3359 3
      vertex 65.7248 22.6676 3
    endloop
  endfacet
  facet normal 0 -0 1
    outer loop
      vertex 62.8 -50 3
      vertex 65.8 -47 3
      vertex 54.3 -16.95 3
    endloop
  endfacet
  facet normal 0 0 1
    outer loop
      vertex 62.8 25 3
      vertex 65.7248 22.6676 3
      vertex 65.6316 22.9908 3
    endloop
  endfacet
  facet normal 0 0 1
    outer loop
      vertex 65.8 -47 3
      vertex 62.8 -50 3
      vertex 65.7811 -47.3359 3
    endloop
  endfacet
  facet normal 0 0 1
    outer loop
      vertex 62.8 25 3
      vertex 65.6316 22.9908 3
      vertex 65.5029 23.3017 3
    endloop
  endfacet
  facet normal 0 0 1
    outer loop
      vertex 65.7811 -47.3359 3
      vertex 62.8 -50 3
      vertex 65.7248 -47.6676 3
    endloop
  endfacet
  facet normal 0 0 1
    outer loop
      vertex 62.8 25 3
      vertex 65.5029 23.3017 3
      vertex 65.3402 23.5961 3
    endloop
  endfacet
  facet normal 0 0 1
    outer loop
      vertex 65.7248 -47.6676 3
      vertex 62.8 -50 3
      vertex 65.6316 -47.9908 3
    endloop
  endfacet
  facet normal 0 0 1
    outer loop
      vertex 62.8 25 3
      vertex 65.3402 23.5961 3
      vertex 65.1455 23.8705 3
    endloop
  endfacet
  facet normal 0 0 1
    outer loop
      vertex 65.6316 -47.9908 3
      vertex 62.8 -50 3
      vertex 65.5029 -48.3017 3
    endloop
  endfacet
  facet normal 0 0 1
    outer loop
      vertex 62.8 25 3
      vertex 65.1455 23.8705 3
      vertex 64.9213 24.1213 3
    endloop
  endfacet
  facet normal 0 0 1
    outer loop
      vertex 65.5029 -48.3017 3
      vertex 62.8 -50 3
      vertex 65.3402 -48.5961 3
    endloop
  endfacet
  facet normal 0 0 1
    outer loop
      vertex 62.8 25 3
      vertex 64.9213 24.1213 3
      vertex 64.6705 24.3455 3
    endloop
  endfacet
  facet normal 0 0 1
    outer loop
      vertex 65.3402 -48.5961 3
      vertex 62.8 -50 3
      vertex 65.1455 -48.8705 3
    endloop
  endfacet
  facet normal 0 0 1
    outer loop
      vertex 62.8 25 3
      vertex 64.6705 24.3455 3
      vertex 64.3961 24.5402 3
    endloop
  endfacet
  facet normal 0 0 1
    outer loop
      vertex 65.1455 -48.8705 3
      vertex 62.8 -50 3
      vertex 64.9213 -49.1213 3
    endloop
  endfacet
  facet normal 0 0 1
    outer loop
      vertex 62.8 25 3
      vertex 64.3961 24.5402 3
      vertex 64.1016 24.7029 3
    endloop
  endfacet
  facet normal 0 0 1
    outer loop
      vertex 64.9213 -49.1213 3
      vertex 62.8 -50 3
      vertex 64.6705 -49.3455 3
    endloop
  endfacet
  facet normal 0 0 1
    outer loop
      vertex 62.8 25 3
      vertex 64.1016 24.7029 3
      vertex 63.7908 24.8316 3
    endloop
  endfacet
  facet normal 0 0 1
    outer loop
      vertex 64.6705 -49.3455 3
      vertex 62.8 -50 3
      vertex 64.3961 -49.5402 3
    endloop
  endfacet
  facet normal 0 0 1
    outer loop
      vertex 62.8 25 3
      vertex 63.7908 24.8316 3
      vertex 63.4676 24.9248 3
    endloop
  endfacet
  facet normal 0 0 1
    outer loop
      vertex 64.3961 -49.5402 3
      vertex 62.8 -50 3
      vertex 64.1016 -49.7029 3
    endloop
  endfacet
  facet normal 0 0 1
    outer loop
      vertex 62.8 25 3
      vertex 63.4676 24.9248 3
      vertex 63.1359 24.9811 3
    endloop
  endfacet
  facet normal 0 0 1
    outer loop
      vertex 64.1016 -49.7029 3
      vertex 62.8 -50 3
      vertex 63.7908 -49.8316 3
    endloop
  endfacet
  facet normal 0 0 1
    outer loop
      vertex 65.8 22 3
      vertex 62.8 25 3
      vertex 54.3 16.95 3
    endloop
  endfacet
  facet normal 0 0 1
    outer loop
      vertex 63.7908 -49.8316 3
      vertex 62.8 -50 3
      vertex 63.4676 -49.9248 3
    endloop
  endfacet
  facet normal 0 0 1
    outer loop
      vertex 65.8 22 3
      vertex 54.3 16.95 3
      vertex 54.3 -16.95 3
    endloop
  endfacet
  facet normal 0 0 1
    outer loop
      vertex 62.8 25 3
      vertex 47.3 16.95 3
      vertex 54.3 16.95 3
    endloop
  endfacet
  facet normal 0 0 1
    outer loop
      vertex 47.3 16.95 3
      vertex 11.5 16.95 3
      vertex 47.3 -16.95 3
    endloop
  endfacet
  facet normal 0 0 1
    outer loop
      vertex 62.8 25 3
      vertex 11.5 16.95 3
      vertex 47.3 16.95 3
    endloop
  endfacet
  facet normal -0 0 1
    outer loop
      vertex -33 25 3
      vertex 11.5 16.95 3
      vertex 62.8 25 3
    endloop
  endfacet
  facet normal 0 0 1
    outer loop
      vertex 4.5 16.95 3
      vertex -2.29871 10.1557 3
      vertex 4.5 -16.95 3
    endloop
  endfacet
  facet normal 0 0 1
    outer loop
      vertex 4.5 16.95 3
      vertex -5.65747 13.5145 3
      vertex -2.29871 10.1557 3
    endloop
  endfacet
  facet normal 0 0 1
    outer loop
      vertex -5.65747 13.5145 3
      vertex -10.2183 10.6507 3
      vertex -9.36978 9.80215 3
    endloop
  endfacet
  facet normal 0 0 1
    outer loop
      vertex -13.0467 7.82225 3
      vertex -24.3604 -3.49146 3
      vertex -23.5119 -4.33998 3
    endloop
  endfacet
  facet normal 0 0 1
    outer loop
      vertex -33 25 3
      vertex -13.0467 7.82225 3
      vertex -10.2183 10.6507 3
    endloop
  endfacet
  facet normal 0 0 1
    outer loop
      vertex -24.3604 -3.49146 3
      vertex -36 22 3
      vertex -27.1889 -6.31988 3
    endloop
  endfacet
  facet normal 0 0 1
    outer loop
      vertex -13.0467 7.82225 3
      vertex -36 22 3
      vertex -24.3604 -3.49146 3
    endloop
  endfacet
  facet normal 0 0 1
    outer loop
      vertex -13.0467 7.82225 3
      vertex -33 25 3
      vertex -36 22 3
    endloop
  endfacet
  facet normal 0 0 1
    outer loop
      vertex -5.65747 13.5145 3
      vertex -33 25 3
      vertex -10.2183 10.6507 3
    endloop
  endfacet
  facet normal 0 0 1
    outer loop
      vertex 4.5 16.95 3
      vertex -33 25 3
      vertex -5.65747 13.5145 3
    endloop
  endfacet
  facet normal 0 0 1
    outer loop
      vertex 11.5 16.95 3
      vertex -33 25 3
      vertex 4.5 16.95 3
    endloop
  endfacet
  facet normal 0 0 1
    outer loop
      vertex 63.4676 -49.9248 3
      vertex 62.8 -50 3
      vertex 63.1359 -49.9811 3
    endloop
  endfacet
  facet normal -0 0 1
    outer loop
      vertex 47.3 -16.95 3
      vertex 62.8 -50 3
      vertex 54.3 -16.95 3
    endloop
  endfacet
  facet normal 0 0 1
    outer loop
      vertex 11.5 -16.95 3
      vertex 47.3 -16.95 3
      vertex 11.5 16.95 3
    endloop
  endfacet
  facet normal 0 0 1
    outer loop
      vertex 47.3 -16.95 3
      vertex 11.5 -16.95 3
      vertex 62.8 -50 3
    endloop
  endfacet
  facet normal 0 0 1
    outer loop
      vertex -13.1122 -32.6606 3
      vertex 11.5 -16.95 3
      vertex 4.5 -16.95 3
    endloop
  endfacet
  facet normal -0 0 1
    outer loop
      vertex -5.16249 5.59486 3
      vertex 4.5 -16.95 3
      vertex -2.29871 10.1557 3
    endloop
  endfacet
  facet normal -0 0 1
    outer loop
      vertex -7.99092 2.76644 3
      vertex 4.5 -16.95 3
      vertex -5.16249 5.59486 3
    endloop
  endfacet
  facet normal 0 0 1
    outer loop
      vertex -14.75 -2.29558 3
      vertex -7.99092 2.76644 3
      vertex -8.83945 3.61497 3
    endloop
  endfacet
  facet normal 0 0 1
    outer loop
      vertex -13.0126 -31.7761 3
      vertex 4.5 -16.95 3
      vertex -7.99092 2.76644 3
    endloop
  endfacet
  facet normal 0 0 1
    outer loop
      vertex -13.0126 -32.2239 3
      vertex 4.5 -16.95 3
      vertex -13 -32 3
    endloop
  endfacet
  facet normal 0 0 1
    outer loop
      vertex -13.0501 -32.445 3
      vertex 4.5 -16.95 3
      vertex -13.0126 -32.2239 3
    endloop
  endfacet
  facet normal 0 0 1
    outer loop
      vertex -13.1122 -32.6606 3
      vertex 4.5 -16.95 3
      vertex -13.0501 -32.445 3
    endloop
  endfacet
  facet normal 0 0 1
    outer loop
      vertex 11.5 -16.95 3
      vertex -13.1122 -32.6606 3
      vertex -13.1981 -32.8678 3
    endloop
  endfacet
  facet normal 0 0 1
    outer loop
      vertex 11.5 -16.95 3
      vertex -13.1981 -32.8678 3
      vertex -13.3066 -33.0641 3
    endloop
  endfacet
  facet normal 0 0 1
    outer loop
      vertex -13.4363 -33.247 3
      vertex 11.5 -16.95 3
      vertex -13.3066 -33.0641 3
    endloop
  endfacet
  facet normal 0 0 1
    outer loop
      vertex 11.5 -16.95 3
      vertex -13.4363 -33.247 3
      vertex 62.8 -50 3
    endloop
  endfacet
  facet normal -0 0 1
    outer loop
      vertex -13.5858 -33.4142 3
      vertex 62.8 -50 3
      vertex -13.4363 -33.247 3
    endloop
  endfacet
  facet normal -0 0 1
    outer loop
      vertex -13.753 -33.5637 3
      vertex 62.8 -50 3
      vertex -13.5858 -33.4142 3
    endloop
  endfacet
  facet normal -0 0 1
    outer loop
      vertex -13.9359 -33.6934 3
      vertex 62.8 -50 3
      vertex -13.753 -33.5637 3
    endloop
  endfacet
  facet normal -0 0 1
    outer loop
      vertex -14.1322 -33.8019 3
      vertex 62.8 -50 3
      vertex -13.9359 -33.6934 3
    endloop
  endfacet
  facet normal 0 0 1
    outer loop
      vertex -33 -50 3
      vertex -14.1322 -33.8019 3
      vertex -14.3394 -33.8878 3
    endloop
  endfacet
  facet normal 0 0 1
    outer loop
      vertex -33 -50 3
      vertex -14.3394 -33.8878 3
      vertex -14.555 -33.9499 3
    endloop
  endfacet
  facet normal 0 0 1
    outer loop
      vertex -33 -50 3
      vertex -14.555 -33.9499 3
      vertex -14.7761 -33.9874 3
    endloop
  endfacet
  facet normal 0 0 1
    outer loop
      vertex -33 -50 3
      vertex -14.7761 -33.9874 3
      vertex -15 -34 3
    endloop
  endfacet
  facet normal 0 0 1
    outer loop
      vertex -33 -50 3
      vertex -15 -34 3
      vertex -15.2239 -33.9874 3
    endloop
  endfacet
  facet normal 0 0 1
    outer loop
      vertex -33 -50 3
      vertex -15.2239 -33.9874 3
      vertex -15.445 -33.9499 3
    endloop
  endfacet
  facet normal 0 0 1
    outer loop
      vertex -16.9499 -31.555 3
      vertex -26.6939 -14.2395 3
      vertex -16.9874 -31.7761 3
    endloop
  endfacet
  facet normal 0 0 1
    outer loop
      vertex -36 -47 3
      vertex -16.9874 -31.7761 3
      vertex -26.6939 -14.2395 3
    endloop
  endfacet
  facet normal 0 0 1
    outer loop
      vertex -16.9874 -31.7761 3
      vertex -36 -47 3
      vertex -17 -32 3
    endloop
  endfacet
  facet normal 0 0 1
    outer loop
      vertex -26.6939 -14.2395 3
      vertex -22.1331 -11.3757 3
      vertex -22.9816 -10.5272 3
    endloop
  endfacet
  facet normal 0 0 1
    outer loop
      vertex -17 -32 3
      vertex -36 -47 3
      vertex -16.9874 -32.2239 3
    endloop
  endfacet
  facet normal 0 0 1
    outer loop
      vertex -16.9874 -32.2239 3
      vertex -36 -47 3
      vertex -16.9499 -32.445 3
    endloop
  endfacet
  facet normal 0 0 1
    outer loop
      vertex -16.9499 -32.445 3
      vertex -36 -47 3
      vertex -16.8878 -32.6606 3
    endloop
  endfacet
  facet normal 0 0 1
    outer loop
      vertex -36 -47 3
      vertex -26.6939 -14.2395 3
      vertex -30.0527 -10.8807 3
    endloop
  endfacet
  facet normal 0 0 1
    outer loop
      vertex -16.8878 -32.6606 3
      vertex -36 -47 3
      vertex -16.8019 -32.8678 3
    endloop
  endfacet
  facet normal 0 0 1
    outer loop
      vertex -14.1322 -33.8019 3
      vertex -33 -50 3
      vertex 62.8 -50 3
    endloop
  endfacet
  facet normal 0 0 1
    outer loop
      vertex -15.6606 -33.8878 3
      vertex -33 -50 3
      vertex -15.445 -33.9499 3
    endloop
  endfacet
  facet normal 0 0 1
    outer loop
      vertex -15.8678 -33.8019 3
      vertex -33 -50 3
      vertex -15.6606 -33.8878 3
    endloop
  endfacet
  facet normal 0 0 1
    outer loop
      vertex -16.0641 -33.6934 3
      vertex -33 -50 3
      vertex -15.8678 -33.8019 3
    endloop
  endfacet
  facet normal 0 0 1
    outer loop
      vertex -16.247 -33.5637 3
      vertex -33 -50 3
      vertex -16.0641 -33.6934 3
    endloop
  endfacet
  facet normal 0 0 1
    outer loop
      vertex -16.4142 -33.4142 3
      vertex -33 -50 3
      vertex -16.247 -33.5637 3
    endloop
  endfacet
  facet normal 0 0 1
    outer loop
      vertex -16.5637 -33.247 3
      vertex -33 -50 3
      vertex -16.4142 -33.4142 3
    endloop
  endfacet
  facet normal 0 0 1
    outer loop
      vertex -36 -47 3
      vertex -16.5637 -33.247 3
      vertex -16.6934 -33.0641 3
    endloop
  endfacet
  facet normal 0 0 1
    outer loop
      vertex -16.8019 -32.8678 3
      vertex -36 -47 3
      vertex -16.6934 -33.0641 3
    endloop
  endfacet
  facet normal 0 0 1
    outer loop
      vertex -27.1889 -6.31988 3
      vertex -36 22 3
      vertex -30.0527 -10.8807 3
    endloop
  endfacet
  facet normal 0 0 1
    outer loop
      vertex -36 22 3
      vertex -33 25 3
      vertex -33.3359 24.9811 3
    endloop
  endfacet
  facet normal 0 0 1
    outer loop
      vertex -36 -47 3
      vertex -30.0527 -10.8807 3
      vertex -36 22 3
    endloop
  endfacet
  facet normal 0 0 1
    outer loop
      vertex -36 22 3
      vertex -33.3359 24.9811 3
      vertex -33.6675 24.9248 3
    endloop
  endfacet
  facet normal 0 0 1
    outer loop
      vertex -16.5637 -33.247 3
      vertex -36 -47 3
      vertex -33 -50 3
    endloop
  endfacet
  facet normal 0 0 1
    outer loop
      vertex -36 22 3
      vertex -33.6675 24.9248 3
      vertex -33.9908 24.8316 3
    endloop
  endfacet
  facet normal 0 0 1
    outer loop
      vertex -33 -50 3
      vertex -36 -47 3
      vertex -33.3359 -49.9811 3
    endloop
  endfacet
  facet normal 0 0 1
    outer loop
      vertex -36 22 3
      vertex -33.9908 24.8316 3
      vertex -34.3016 24.7029 3
    endloop
  endfacet
  facet normal 0 0 1
    outer loop
      vertex -33.3359 -49.9811 3
      vertex -36 -47 3
      vertex -33.6675 -49.9248 3
    endloop
  endfacet
  facet normal 0 0 1
    outer loop
      vertex -36 22 3
      vertex -34.3016 24.7029 3
      vertex -34.5961 24.5402 3
    endloop
  endfacet
  facet normal 0 0 1
    outer loop
      vertex -33.6675 -49.9248 3
      vertex -36 -47 3
      vertex -33.9908 -49.8316 3
    endloop
  endfacet
  facet normal 0 0 1
    outer loop
      vertex -36 22 3
      vertex -34.5961 24.5402 3
      vertex -34.8705 24.3455 3
    endloop
  endfacet
  facet normal 0 0 1
    outer loop
      vertex -33.9908 -49.8316 3
      vertex -36 -47 3
      vertex -34.3016 -49.7029 3
    endloop
  endfacet
  facet normal 0 0 1
    outer loop
      vertex -36 22 3
      vertex -34.8705 24.3455 3
      vertex -35.1213 24.1213 3
    endloop
  endfacet
  facet normal 0 0 1
    outer loop
      vertex -34.3016 -49.7029 3
      vertex -36 -47 3
      vertex -34.5961 -49.5402 3
    endloop
  endfacet
  facet normal 0 0 1
    outer loop
      vertex -36 22 3
      vertex -35.1213 24.1213 3
      vertex -35.3455 23.8705 3
    endloop
  endfacet
  facet normal 0 0 1
    outer loop
      vertex -34.5961 -49.5402 3
      vertex -36 -47 3
      vertex -34.8705 -49.3455 3
    endloop
  endfacet
  facet normal 0 0 1
    outer loop
      vertex -36 22 3
      vertex -35.3455 23.8705 3
      vertex -35.5402 23.5961 3
    endloop
  endfacet
  facet normal 0 0 1
    outer loop
      vertex -34.8705 -49.3455 3
      vertex -36 -47 3
      vertex -35.1213 -49.1213 3
    endloop
  endfacet
  facet normal 0 0 1
    outer loop
      vertex -36 22 3
      vertex -35.5402 23.5961 3
      vertex -35.7029 23.3017 3
    endloop
  endfacet
  facet normal 0 0 1
    outer loop
      vertex -35.1213 -49.1213 3
      vertex -36 -47 3
      vertex -35.3455 -48.8705 3
    endloop
  endfacet
  facet normal 0 0 1
    outer loop
      vertex -36 22 3
      vertex -35.7029 23.3017 3
      vertex -35.8316 22.9908 3
    endloop
  endfacet
  facet normal 0 0 1
    outer loop
      vertex -35.3455 -48.8705 3
      vertex -36 -47 3
      vertex -35.5402 -48.5961 3
    endloop
  endfacet
  facet normal 0 0 1
    outer loop
      vertex -36 22 3
      vertex -35.8316 22.9908 3
      vertex -35.9248 22.6676 3
    endloop
  endfacet
  facet normal 0 0 1
    outer loop
      vertex -35.5402 -48.5961 3
      vertex -36 -47 3
      vertex -35.7029 -48.3017 3
    endloop
  endfacet
  facet normal 0 0 1
    outer loop
      vertex -36 22 3
      vertex -35.9248 22.6676 3
      vertex -35.9811 22.3359 3
    endloop
  endfacet
  facet normal 0 0 1
    outer loop
      vertex -35.7029 -48.3017 3
      vertex -36 -47 3
      vertex -35.8316 -47.9908 3
    endloop
  endfacet
  facet normal 0 0 1
    outer loop
      vertex -35.8316 -47.9908 3
      vertex -36 -47 3
      vertex -35.9248 -47.6676 3
    endloop
  endfacet
  facet normal 0 0 1
    outer loop
      vertex -35.9248 -47.6676 3
      vertex -36 -47 3
      vertex -35.9811 -47.3359 3
    endloop
  endfacet
  facet normal 0 0 1
    outer loop
      vertex -12.1982 6.97372 3
      vertex -13.0467 7.82225 3
      vertex -23.5119 -4.33998 3
    endloop
  endfacet
  facet normal 0 0 1
    outer loop
      vertex -26.3403 -7.16841 3
      vertex -27.1889 -6.31988 3
      vertex -30.0527 -10.8807 3
    endloop
  endfacet
  facet normal 0 -1 0
    outer loop
      vertex 4.5 -16.95 3
      vertex 11.5 -16.95 37.5
      vertex 4.5 -16.95 37.5
    endloop
  endfacet
  facet normal 0 -1 -0
    outer loop
      vertex 11.5 -16.95 37.5
      vertex 4.5 -16.95 3
      vertex 11.5 -16.95 3
    endloop
  endfacet
  facet normal 0 -1 0
    outer loop
      vertex 4.5 14.2 9.35
      vertex 11.5 14.2 37.5
      vertex 4.5 14.2 37.5
    endloop
  endfacet
  facet normal 0 -1 -0
    outer loop
      vertex 11.5 14.2 37.5
      vertex 4.5 14.2 9.35
      vertex 11.5 14.2 9.35
    endloop
  endfacet
  facet normal -0 0 1
    outer loop
      vertex 4.5 14.2 9.35
      vertex 11.5 -14.2 9.35
      vertex 11.5 14.2 9.35
    endloop
  endfacet
  facet normal 0 0 1
    outer loop
      vertex 11.5 -14.2 9.35
      vertex 4.5 14.2 9.35
      vertex 4.5 -14.2 9.35
    endloop
  endfacet
  facet normal 0 1 -0
    outer loop
      vertex 11.5 -14.2 9.35
      vertex 4.5 -14.2 37.5
      vertex 11.5 -14.2 37.5
    endloop
  endfacet
  facet normal 0 1 0
    outer loop
      vertex 4.5 -14.2 37.5
      vertex 11.5 -14.2 9.35
      vertex 4.5 -14.2 9.35
    endloop
  endfacet
  facet normal -1 0 0
    outer loop
      vertex 47.3 16.95 3
      vertex 47.3 14.2 9.35
      vertex 47.3 16.95 37.5
    endloop
  endfacet
  facet normal -1 0 0
    outer loop
      vertex 47.3 16.95 3
      vertex 47.3 -14.2 9.35
      vertex 47.3 14.2 9.35
    endloop
  endfacet
  facet normal -1 0 0
    outer loop
      vertex 47.3 -16.95 3
      vertex 47.3 -14.2 9.35
      vertex 47.3 16.95 3
    endloop
  endfacet
  facet normal -1 0 0
    outer loop
      vertex 47.3 -16.95 37.5
      vertex 47.3 -14.2 9.35
      vertex 47.3 -16.95 3
    endloop
  endfacet
  facet normal -1 0 0
    outer loop
      vertex 47.3 -14.2 9.35
      vertex 47.3 -16.95 37.5
      vertex 47.3 -14.2 37.5
    endloop
  endfacet
  facet normal -1 -0 0
    outer loop
      vertex 47.3 16.95 37.5
      vertex 47.3 14.2 9.35
      vertex 47.3 14.2 37.5
    endloop
  endfacet
  facet normal -0 0 1
    outer loop
      vertex 47.3 -14.2 37.5
      vertex 54.3 -16.95 37.5
      vertex 54.3 -14.2 37.5
    endloop
  endfacet
  facet normal 0 0 1
    outer loop
      vertex 54.3 -16.95 37.5
      vertex 47.3 -14.2 37.5
      vertex 47.3 -16.95 37.5
    endloop
  endfacet
  facet normal -0 0 1
    outer loop
      vertex 47.3 16.95 37.5
      vertex 54.3 14.2 37.5
      vertex 54.3 16.95 37.5
    endloop
  endfacet
  facet normal 0 0 1
    outer loop
      vertex 54.3 14.2 37.5
      vertex 47.3 16.95 37.5
      vertex 47.3 14.2 37.5
    endloop
  endfacet
  facet normal 1 0 0
    outer loop
      vertex 54.3 -14.2 37.5
      vertex 54.3 -16.95 37.5
      vertex 54.3 -14.2 9.35
    endloop
  endfacet
  facet normal 1 0 0
    outer loop
      vertex 54.3 14.2 9.35
      vertex 54.3 16.95 37.5
      vertex 54.3 14.2 37.5
    endloop
  endfacet
  facet normal 1 0 0
    outer loop
      vertex 54.3 16.95 37.5
      vertex 54.3 14.2 9.35
      vertex 54.3 16.95 3
    endloop
  endfacet
  facet normal 1 -0 0
    outer loop
      vertex 54.3 -14.2 9.35
      vertex 54.3 16.95 3
      vertex 54.3 14.2 9.35
    endloop
  endfacet
  facet normal 1 0 0
    outer loop
      vertex 54.3 -14.2 9.35
      vertex 54.3 -16.95 3
      vertex 54.3 16.95 3
    endloop
  endfacet
  facet normal 1 0 0
    outer loop
      vertex 54.3 -16.95 3
      vertex 54.3 -14.2 9.35
      vertex 54.3 -16.95 37.5
    endloop
  endfacet
  facet normal 0 1 -0
    outer loop
      vertex 54.3 16.95 3
      vertex 47.3 16.95 37.5
      vertex 54.3 16.95 37.5
    endloop
  endfacet
  facet normal 0 1 0
    outer loop
      vertex 47.3 16.95 37.5
      vertex 54.3 16.95 3
      vertex 47.3 16.95 3
    endloop
  endfacet
  facet normal 0 -1 0
    outer loop
      vertex 47.3 -16.95 3
      vertex 54.3 -16.95 37.5
      vertex 47.3 -16.95 37.5
    endloop
  endfacet
  facet normal 0 -1 -0
    outer loop
      vertex 54.3 -16.95 37.5
      vertex 47.3 -16.95 3
      vertex 54.3 -16.95 3
    endloop
  endfacet
  facet normal -0 0 1
    outer loop
      vertex 47.3 14.2 9.35
      vertex 54.3 -14.2 9.35
      vertex 54.3 14.2 9.35
    endloop
  endfacet
  facet normal 0 0 1
    outer loop
      vertex 54.3 -14.2 9.35
      vertex 47.3 14.2 9.35
      vertex 47.3 -14.2 9.35
    endloop
  endfacet
  facet normal 0 1 -0
    outer loop
      vertex 54.3 -14.2 9.35
      vertex 47.3 -14.2 37.5
      vertex 54.3 -14.2 37.5
    endloop
  endfacet
  facet normal 0 1 0
    outer loop
      vertex 47.3 -14.2 37.5
      vertex 54.3 -14.2 9.35
      vertex 47.3 -14.2 9.35
    endloop
  endfacet
  facet normal 0 -1 0
    outer loop
      vertex 47.3 14.2 9.35
      vertex 54.3 14.2 37.5
      vertex 47.3 14.2 37.5
    endloop
  endfacet
  facet normal 0 -1 -0
    outer loop
      vertex 54.3 14.2 37.5
      vertex 47.3 14.2 9.35
      vertex 54.3 14.2 9.35
    endloop
  endfacet
  facet normal 0.277076 -0.960848 0
    outer loop
      vertex 63.4676 -49.9248 0
      vertex 63.7908 -49.8316 3
      vertex 63.4676 -49.9248 3
    endloop
  endfacet
  facet normal 0.277076 -0.960848 0
    outer loop
      vertex 63.7908 -49.8316 3
      vertex 63.4676 -49.9248 0
      vertex 63.7908 -49.8316 0
    endloop
  endfacet
  facet normal 0.0561779 -0.998421 0
    outer loop
      vertex 62.8 -50 0
      vertex 63.1359 -49.9811 3
      vertex 62.8 -50 3
    endloop
  endfacet
  facet normal 0.0561779 -0.998421 0
    outer loop
      vertex 63.1359 -49.9811 3
      vertex 62.8 -50 0
      vertex 63.1359 -49.9811 0
    endloop
  endfacet
  facet normal -0.167387 0.985891 0
    outer loop
      vertex -33.3359 24.9811 0
      vertex -33.6675 24.9248 3
      vertex -33.3359 24.9811 3
    endloop
  endfacet
  facet normal -0.167387 0.985891 0
    outer loop
      vertex -33.6675 24.9248 3
      vertex -33.3359 24.9811 0
      vertex -33.6675 24.9248 0
    endloop
  endfacet
  facet normal 0.167338 -0.9859 0
    outer loop
      vertex 63.1359 -49.9811 0
      vertex 63.4676 -49.9248 3
      vertex 63.1359 -49.9811 3
    endloop
  endfacet
  facet normal 0.167338 -0.9859 0
    outer loop
      vertex 63.4676 -49.9248 3
      vertex 63.1359 -49.9811 0
      vertex 63.4676 -49.9248 0
    endloop
  endfacet
  facet normal 0.666465 0.745537 -0
    outer loop
      vertex 64.9213 24.1213 0
      vertex 64.6705 24.3455 3
      vertex 64.9213 24.1213 3
    endloop
  endfacet
  facet normal 0.666465 0.745537 0
    outer loop
      vertex 64.6705 24.3455 3
      vertex 64.9213 24.1213 0
      vertex 64.6705 24.3455 0
    endloop
  endfacet
  facet normal -0.998421 0.0561779 0
    outer loop
      vertex -36 22 0
      vertex -35.9811 22.3359 3
      vertex -35.9811 22.3359 0
    endloop
  endfacet
  facet normal -0.998421 0.0561779 0
    outer loop
      vertex -35.9811 22.3359 3
      vertex -36 22 0
      vertex -36 22 3
    endloop
  endfacet
  facet normal -1 0 0
    outer loop
      vertex -36 -47 0
      vertex -36 22 3
      vertex -36 22 0
    endloop
  endfacet
  facet normal -1 -0 0
    outer loop
      vertex -36 22 3
      vertex -36 -47 0
      vertex -36 -47 3
    endloop
  endfacet
  facet normal 0 -1 0
    outer loop
      vertex -33 -50 0
      vertex 62.8 -50 3
      vertex -33 -50 3
    endloop
  endfacet
  facet normal 0 -1 -0
    outer loop
      vertex 62.8 -50 3
      vertex -33 -50 0
      vertex 62.8 -50 0
    endloop
  endfacet
  facet normal 0.0561779 0.998421 -0
    outer loop
      vertex 63.1359 24.9811 0
      vertex 62.8 25 3
      vertex 63.1359 24.9811 3
    endloop
  endfacet
  facet normal 0.0561779 0.998421 0
    outer loop
      vertex 62.8 25 3
      vertex 63.1359 24.9811 0
      vertex 62.8 25 0
    endloop
  endfacet
  facet normal 0 1 -0
    outer loop
      vertex 62.8 25 0
      vertex -33 25 3
      vertex 62.8 25 3
    endloop
  endfacet
  facet normal 0 1 0
    outer loop
      vertex -33 25 3
      vertex 62.8 25 0
      vertex -33 25 0
    endloop
  endfacet
  facet normal 1 -0 0
    outer loop
      vertex 65.8 -47 3
      vertex 65.8 22 0
      vertex 65.8 22 3
    endloop
  endfacet
  facet normal 1 0 0
    outer loop
      vertex 65.8 22 0
      vertex 65.8 -47 3
      vertex 65.8 -47 0
    endloop
  endfacet
  facet normal 0.666465 -0.745537 0
    outer loop
      vertex 64.6705 -49.3455 0
      vertex 64.9213 -49.1213 3
      vertex 64.6705 -49.3455 3
    endloop
  endfacet
  facet normal 0.666465 -0.745537 0
    outer loop
      vertex 64.9213 -49.1213 3
      vertex 64.6705 -49.3455 0
      vertex 64.9213 -49.1213 0
    endloop
  endfacet
  facet normal -0.578677 0.815557 0
    outer loop
      vertex -34.5961 24.5402 0
      vertex -34.8705 24.3455 3
      vertex -34.5961 24.5402 3
    endloop
  endfacet
  facet normal -0.578677 0.815557 0
    outer loop
      vertex -34.8705 24.3455 3
      vertex -34.5961 24.5402 0
      vertex -34.8705 24.3455 0
    endloop
  endfacet
  facet normal -0.483572 -0.875304 0
    outer loop
      vertex -34.5961 -49.5402 0
      vertex -34.3016 -49.7029 3
      vertex -34.5961 -49.5402 3
    endloop
  endfacet
  facet normal -0.483572 -0.875304 -0
    outer loop
      vertex -34.3016 -49.7029 3
      vertex -34.5961 -49.5402 0
      vertex -34.3016 -49.7029 0
    endloop
  endfacet
  facet normal -0.578677 -0.815557 0
    outer loop
      vertex -34.8705 -49.3455 0
      vertex -34.5961 -49.5402 3
      vertex -34.8705 -49.3455 3
    endloop
  endfacet
  facet normal -0.578677 -0.815557 -0
    outer loop
      vertex -34.5961 -49.5402 3
      vertex -34.8705 -49.3455 0
      vertex -34.5961 -49.5402 0
    endloop
  endfacet
  facet normal -0.0561779 -0.998421 0
    outer loop
      vertex -33.3359 -49.9811 0
      vertex -33 -50 3
      vertex -33.3359 -49.9811 3
    endloop
  endfacet
  facet normal -0.0561779 -0.998421 -0
    outer loop
      vertex -33 -50 3
      vertex -33.3359 -49.9811 0
      vertex -33 -50 0
    endloop
  endfacet
  facet normal -0.276997 -0.960871 0
    outer loop
      vertex -33.9908 -49.8316 0
      vertex -33.6675 -49.9248 3
      vertex -33.9908 -49.8316 3
    endloop
  endfacet
  facet normal -0.276997 -0.960871 -0
    outer loop
      vertex -33.6675 -49.9248 3
      vertex -33.9908 -49.8316 0
      vertex -33.6675 -49.9248 0
    endloop
  endfacet
  facet normal 0.483572 0.875304 -0
    outer loop
      vertex 64.3961 24.5402 0
      vertex 64.1016 24.7029 3
      vertex 64.3961 24.5402 3
    endloop
  endfacet
  facet normal 0.483572 0.875304 0
    outer loop
      vertex 64.1016 24.7029 3
      vertex 64.3961 24.5402 0
      vertex 64.1016 24.7029 0
    endloop
  endfacet
  facet normal 0.578677 0.815557 -0
    outer loop
      vertex 64.6705 24.3455 0
      vertex 64.3961 24.5402 3
      vertex 64.6705 24.3455 3
    endloop
  endfacet
  facet normal 0.578677 0.815557 0
    outer loop
      vertex 64.3961 24.5402 3
      vertex 64.6705 24.3455 0
      vertex 64.3961 24.5402 0
    endloop
  endfacet
  facet normal 0.277076 0.960848 -0
    outer loop
      vertex 63.7908 24.8316 0
      vertex 63.4676 24.9248 3
      vertex 63.7908 24.8316 3
    endloop
  endfacet
  facet normal 0.277076 0.960848 0
    outer loop
      vertex 63.4676 24.9248 3
      vertex 63.7908 24.8316 0
      vertex 63.4676 24.9248 0
    endloop
  endfacet
  facet normal -0.0561779 0.998421 0
    outer loop
      vertex -33 25 0
      vertex -33.3359 24.9811 3
      vertex -33 25 3
    endloop
  endfacet
  facet normal -0.0561779 0.998421 0
    outer loop
      vertex -33.3359 24.9811 3
      vertex -33 25 0
      vertex -33.3359 24.9811 0
    endloop
  endfacet
  facet normal 0.998421 -0.0561779 0
    outer loop
      vertex 65.7811 -47.3359 3
      vertex 65.8 -47 0
      vertex 65.8 -47 3
    endloop
  endfacet
  facet normal 0.998421 -0.0561779 0
    outer loop
      vertex 65.8 -47 0
      vertex 65.7811 -47.3359 3
      vertex 65.7811 -47.3359 0
    endloop
  endfacet
  facet normal 0.9859 -0.167338 0
    outer loop
      vertex 65.7248 -47.6676 3
      vertex 65.7811 -47.3359 0
      vertex 65.7811 -47.3359 3
    endloop
  endfacet
  facet normal 0.9859 -0.167338 0
    outer loop
      vertex 65.7811 -47.3359 0
      vertex 65.7248 -47.6676 3
      vertex 65.7248 -47.6676 0
    endloop
  endfacet
  facet normal -0.483572 0.875304 0
    outer loop
      vertex -34.3016 24.7029 0
      vertex -34.5961 24.5402 3
      vertex -34.3016 24.7029 3
    endloop
  endfacet
  facet normal -0.483572 0.875304 0
    outer loop
      vertex -34.5961 24.5402 3
      vertex -34.3016 24.7029 0
      vertex -34.5961 24.5402 0
    endloop
  endfacet
  facet normal -0.745537 0.666465 0
    outer loop
      vertex -35.3455 23.8705 0
      vertex -35.1213 24.1213 3
      vertex -35.1213 24.1213 0
    endloop
  endfacet
  facet normal -0.745537 0.666465 0
    outer loop
      vertex -35.1213 24.1213 3
      vertex -35.3455 23.8705 0
      vertex -35.3455 23.8705 3
    endloop
  endfacet
  facet normal -0.815557 0.578677 0
    outer loop
      vertex -35.5402 23.5961 0
      vertex -35.3455 23.8705 3
      vertex -35.3455 23.8705 0
    endloop
  endfacet
  facet normal -0.815557 0.578677 0
    outer loop
      vertex -35.3455 23.8705 3
      vertex -35.5402 23.5961 0
      vertex -35.5402 23.5961 3
    endloop
  endfacet
  facet normal -0.167387 -0.985891 0
    outer loop
      vertex -33.6675 -49.9248 0
      vertex -33.3359 -49.9811 3
      vertex -33.6675 -49.9248 3
    endloop
  endfacet
  facet normal -0.167387 -0.985891 -0
    outer loop
      vertex -33.3359 -49.9811 3
      vertex -33.6675 -49.9248 0
      vertex -33.3359 -49.9811 0
    endloop
  endfacet
  facet normal 0.382588 0.923919 -0
    outer loop
      vertex 64.1016 24.7029 0
      vertex 63.7908 24.8316 3
      vertex 64.1016 24.7029 3
    endloop
  endfacet
  facet normal 0.382588 0.923919 0
    outer loop
      vertex 63.7908 24.8316 3
      vertex 64.1016 24.7029 0
      vertex 63.7908 24.8316 0
    endloop
  endfacet
  facet normal 0.923963 0.382483 0
    outer loop
      vertex 65.6316 22.9908 3
      vertex 65.5029 23.3017 0
      vertex 65.5029 23.3017 3
    endloop
  endfacet
  facet normal 0.923963 0.382483 0
    outer loop
      vertex 65.5029 23.3017 0
      vertex 65.6316 22.9908 3
      vertex 65.6316 22.9908 0
    endloop
  endfacet
  facet normal 0.815557 0.578677 0
    outer loop
      vertex 65.3402 23.5961 3
      vertex 65.1455 23.8705 0
      vertex 65.1455 23.8705 3
    endloop
  endfacet
  facet normal 0.815557 0.578677 0
    outer loop
      vertex 65.1455 23.8705 0
      vertex 65.3402 23.5961 3
      vertex 65.3402 23.5961 0
    endloop
  endfacet
  facet normal 0.875235 -0.483698 0
    outer loop
      vertex 65.3402 -48.5961 3
      vertex 65.5029 -48.3017 0
      vertex 65.5029 -48.3017 3
    endloop
  endfacet
  facet normal 0.875235 -0.483698 0
    outer loop
      vertex 65.5029 -48.3017 0
      vertex 65.3402 -48.5961 3
      vertex 65.3402 -48.5961 0
    endloop
  endfacet
  facet normal -0.382588 0.923919 0
    outer loop
      vertex -33.9908 24.8316 0
      vertex -34.3016 24.7029 3
      vertex -33.9908 24.8316 3
    endloop
  endfacet
  facet normal -0.382588 0.923919 0
    outer loop
      vertex -34.3016 24.7029 3
      vertex -33.9908 24.8316 0
      vertex -34.3016 24.7029 0
    endloop
  endfacet
  facet normal -0.276997 0.960871 0
    outer loop
      vertex -33.6675 24.9248 0
      vertex -33.9908 24.8316 3
      vertex -33.6675 24.9248 3
    endloop
  endfacet
  facet normal -0.276997 0.960871 0
    outer loop
      vertex -33.9908 24.8316 3
      vertex -33.6675 24.9248 0
      vertex -33.9908 24.8316 0
    endloop
  endfacet
  facet normal -0.666465 0.745537 0
    outer loop
      vertex -34.8705 24.3455 0
      vertex -35.1213 24.1213 3
      vertex -34.8705 24.3455 3
    endloop
  endfacet
  facet normal -0.666465 0.745537 0
    outer loop
      vertex -35.1213 24.1213 3
      vertex -34.8705 24.3455 0
      vertex -35.1213 24.1213 0
    endloop
  endfacet
  facet normal -0.960848 0.277076 0
    outer loop
      vertex -35.9248 22.6676 0
      vertex -35.8316 22.9908 3
      vertex -35.8316 22.9908 0
    endloop
  endfacet
  facet normal -0.960848 0.277076 0
    outer loop
      vertex -35.8316 22.9908 3
      vertex -35.9248 22.6676 0
      vertex -35.9248 22.6676 3
    endloop
  endfacet
  facet normal -0.875235 0.483698 0
    outer loop
      vertex -35.7029 23.3017 0
      vertex -35.5402 23.5961 3
      vertex -35.5402 23.5961 0
    endloop
  endfacet
  facet normal -0.875235 0.483698 0
    outer loop
      vertex -35.5402 23.5961 3
      vertex -35.7029 23.3017 0
      vertex -35.7029 23.3017 3
    endloop
  endfacet
  facet normal -0.923963 0.382483 0
    outer loop
      vertex -35.8316 22.9908 0
      vertex -35.7029 23.3017 3
      vertex -35.7029 23.3017 0
    endloop
  endfacet
  facet normal -0.923963 0.382483 0
    outer loop
      vertex -35.7029 23.3017 3
      vertex -35.8316 22.9908 0
      vertex -35.8316 22.9908 3
    endloop
  endfacet
  facet normal -0.998421 -0.0561779 0
    outer loop
      vertex -35.9811 -47.3359 0
      vertex -36 -47 3
      vertex -36 -47 0
    endloop
  endfacet
  facet normal -0.998421 -0.0561779 0
    outer loop
      vertex -36 -47 3
      vertex -35.9811 -47.3359 0
      vertex -35.9811 -47.3359 3
    endloop
  endfacet
  facet normal 0 0 -1
    outer loop
      vertex 62.8 -50 0
      vertex 65.8 -47 0
      vertex 65.7811 -47.3359 0
    endloop
  endfacet
  facet normal 0 0 -1
    outer loop
      vertex -13.1122 -31.3394 0
      vertex 65.8 -47 0
      vertex 62.8 -50 0
    endloop
  endfacet
  facet normal 0 0 -1
    outer loop
      vertex 62.8 -50 0
      vertex 65.7811 -47.3359 0
      vertex 65.7248 -47.6676 0
    endloop
  endfacet
  facet normal 0 0 -1
    outer loop
      vertex 65.8 -47 0
      vertex -13.1122 -31.3394 0
      vertex 65.8 22 0
    endloop
  endfacet
  facet normal 0 0 -1
    outer loop
      vertex 62.8 -50 0
      vertex 65.7248 -47.6676 0
      vertex 65.6316 -47.9908 0
    endloop
  endfacet
  facet normal 0 0 -1
    outer loop
      vertex 65.8 22 0
      vertex 62.8 25 0
      vertex 65.7811 22.3359 0
    endloop
  endfacet
  facet normal 0 0 -1
    outer loop
      vertex 62.8 -50 0
      vertex 65.6316 -47.9908 0
      vertex 65.5029 -48.3017 0
    endloop
  endfacet
  facet normal 0 0 -1
    outer loop
      vertex 65.7811 22.3359 0
      vertex 62.8 25 0
      vertex 65.7248 22.6676 0
    endloop
  endfacet
  facet normal 0 0 -1
    outer loop
      vertex 62.8 -50 0
      vertex 65.5029 -48.3017 0
      vertex 65.3402 -48.5961 0
    endloop
  endfacet
  facet normal 0 0 -1
    outer loop
      vertex 65.7248 22.6676 0
      vertex 62.8 25 0
      vertex 65.6316 22.9908 0
    endloop
  endfacet
  facet normal 0 0 -1
    outer loop
      vertex 62.8 -50 0
      vertex 65.3402 -48.5961 0
      vertex 65.1455 -48.8705 0
    endloop
  endfacet
  facet normal 0 0 -1
    outer loop
      vertex 65.6316 22.9908 0
      vertex 62.8 25 0
      vertex 65.5029 23.3017 0
    endloop
  endfacet
  facet normal 0 0 -1
    outer loop
      vertex 62.8 -50 0
      vertex 65.1455 -48.8705 0
      vertex 64.9213 -49.1213 0
    endloop
  endfacet
  facet normal 0 0 -1
    outer loop
      vertex 65.5029 23.3017 0
      vertex 62.8 25 0
      vertex 65.3402 23.5961 0
    endloop
  endfacet
  facet normal 0 0 -1
    outer loop
      vertex 62.8 -50 0
      vertex 64.9213 -49.1213 0
      vertex 64.6705 -49.3455 0
    endloop
  endfacet
  facet normal 0 0 -1
    outer loop
      vertex 65.3402 23.5961 0
      vertex 62.8 25 0
      vertex 65.1455 23.8705 0
    endloop
  endfacet
  facet normal 0 0 -1
    outer loop
      vertex 62.8 -50 0
      vertex 64.6705 -49.3455 0
      vertex 64.3961 -49.5402 0
    endloop
  endfacet
  facet normal 0 0 -1
    outer loop
      vertex 65.1455 23.8705 0
      vertex 62.8 25 0
      vertex 64.9213 24.1213 0
    endloop
  endfacet
  facet normal 0 0 -1
    outer loop
      vertex 62.8 -50 0
      vertex 64.3961 -49.5402 0
      vertex 64.1016 -49.7029 0
    endloop
  endfacet
  facet normal 0 0 -1
    outer loop
      vertex 64.9213 24.1213 0
      vertex 62.8 25 0
      vertex 64.6705 24.3455 0
    endloop
  endfacet
  facet normal 0 0 -1
    outer loop
      vertex 62.8 -50 0
      vertex 64.1016 -49.7029 0
      vertex 63.7908 -49.8316 0
    endloop
  endfacet
  facet normal 0 0 -1
    outer loop
      vertex 64.6705 24.3455 0
      vertex 62.8 25 0
      vertex 64.3961 24.5402 0
    endloop
  endfacet
  facet normal 0 0 -1
    outer loop
      vertex 62.8 -50 0
      vertex 63.7908 -49.8316 0
      vertex 63.4676 -49.9248 0
    endloop
  endfacet
  facet normal 0 0 -1
    outer loop
      vertex 64.3961 24.5402 0
      vertex 62.8 25 0
      vertex 64.1016 24.7029 0
    endloop
  endfacet
  facet normal 0 0 -1
    outer loop
      vertex 62.8 -50 0
      vertex 63.4676 -49.9248 0
      vertex 63.1359 -49.9811 0
    endloop
  endfacet
  facet normal 0 0 -1
    outer loop
      vertex 64.1016 24.7029 0
      vertex 62.8 25 0
      vertex 63.7908 24.8316 0
    endloop
  endfacet
  facet normal 0 0 -1
    outer loop
      vertex 63.7908 24.8316 0
      vertex 62.8 25 0
      vertex 63.4676 24.9248 0
    endloop
  endfacet
  facet normal 0 0 -1
    outer loop
      vertex 63.4676 24.9248 0
      vertex 62.8 25 0
      vertex 63.1359 24.9811 0
    endloop
  endfacet
  facet normal 0 0 -1
    outer loop
      vertex -13.0126 -31.7761 0
      vertex 62.8 -50 0
      vertex -13 -32 0
    endloop
  endfacet
  facet normal 0 0 -1
    outer loop
      vertex 62.8 -50 0
      vertex -13.0126 -32.2239 0
      vertex -13 -32 0
    endloop
  endfacet
  facet normal 0 0 -1
    outer loop
      vertex 62.8 -50 0
      vertex -13.0501 -32.445 0
      vertex -13.0126 -32.2239 0
    endloop
  endfacet
  facet normal 0 0 -1
    outer loop
      vertex 62.8 -50 0
      vertex -13.1122 -32.6606 0
      vertex -13.0501 -32.445 0
    endloop
  endfacet
  facet normal 0 0 -1
    outer loop
      vertex 62.8 -50 0
      vertex -13.1981 -32.8678 0
      vertex -13.1122 -32.6606 0
    endloop
  endfacet
  facet normal 0 0 -1
    outer loop
      vertex 62.8 -50 0
      vertex -13.3066 -33.0641 0
      vertex -13.1981 -32.8678 0
    endloop
  endfacet
  facet normal 0 0 -1
    outer loop
      vertex 62.8 -50 0
      vertex -13.4363 -33.247 0
      vertex -13.3066 -33.0641 0
    endloop
  endfacet
  facet normal 0 0 -1
    outer loop
      vertex 62.8 -50 0
      vertex -13.5858 -33.4142 0
      vertex -13.4363 -33.247 0
    endloop
  endfacet
  facet normal 0 0 -1
    outer loop
      vertex 62.8 -50 0
      vertex -13.753 -33.5637 0
      vertex -13.5858 -33.4142 0
    endloop
  endfacet
  facet normal 0 0 -1
    outer loop
      vertex 62.8 -50 0
      vertex -13.9359 -33.6934 0
      vertex -13.753 -33.5637 0
    endloop
  endfacet
  facet normal 0 0 -1
    outer loop
      vertex 62.8 -50 0
      vertex -14.1322 -33.8019 0
      vertex -13.9359 -33.6934 0
    endloop
  endfacet
  facet normal 0 0 -1
    outer loop
      vertex -33 -50 0
      vertex -14.1322 -33.8019 0
      vertex 62.8 -50 0
    endloop
  endfacet
  facet normal 0 0 -1
    outer loop
      vertex -14.1322 -33.8019 0
      vertex -33 -50 0
      vertex -14.3394 -33.8878 0
    endloop
  endfacet
  facet normal 0 0 -1
    outer loop
      vertex -14.3394 -33.8878 0
      vertex -33 -50 0
      vertex -14.555 -33.9499 0
    endloop
  endfacet
  facet normal 0 0 -1
    outer loop
      vertex -14.555 -33.9499 0
      vertex -33 -50 0
      vertex -14.7761 -33.9874 0
    endloop
  endfacet
  facet normal 0 0 -1
    outer loop
      vertex -14.7761 -33.9874 0
      vertex -33 -50 0
      vertex -15 -34 0
    endloop
  endfacet
  facet normal -0 0 -1
    outer loop
      vertex -15 -34 0
      vertex -33 -50 0
      vertex -15.2239 -33.9874 0
    endloop
  endfacet
  facet normal -0 0 -1
    outer loop
      vertex -16.9499 -32.445 0
      vertex -36 -47 0
      vertex -16.9874 -32.2239 0
    endloop
  endfacet
  facet normal -0 0 -1
    outer loop
      vertex -16.8878 -32.6606 0
      vertex -36 -47 0
      vertex -16.9499 -32.445 0
    endloop
  endfacet
  facet normal -0 0 -1
    outer loop
      vertex -16.8019 -32.8678 0
      vertex -36 -47 0
      vertex -16.8878 -32.6606 0
    endloop
  endfacet
  facet normal -0 0 -1
    outer loop
      vertex -16.6934 -33.0641 0
      vertex -36 -47 0
      vertex -16.8019 -32.8678 0
    endloop
  endfacet
  facet normal -0 0 -1
    outer loop
      vertex -16.5637 -33.247 0
      vertex -36 -47 0
      vertex -16.6934 -33.0641 0
    endloop
  endfacet
  facet normal 0 0 -1
    outer loop
      vertex -36 -47 0
      vertex -16.5637 -33.247 0
      vertex -33 -50 0
    endloop
  endfacet
  facet normal -0 0 -1
    outer loop
      vertex -16.4142 -33.4142 0
      vertex -33 -50 0
      vertex -16.5637 -33.247 0
    endloop
  endfacet
  facet normal -0 0 -1
    outer loop
      vertex -16.247 -33.5637 0
      vertex -33 -50 0
      vertex -16.4142 -33.4142 0
    endloop
  endfacet
  facet normal -0 0 -1
    outer loop
      vertex -16.0641 -33.6934 0
      vertex -33 -50 0
      vertex -16.247 -33.5637 0
    endloop
  endfacet
  facet normal -0 0 -1
    outer loop
      vertex -15.8678 -33.8019 0
      vertex -33 -50 0
      vertex -16.0641 -33.6934 0
    endloop
  endfacet
  facet normal -0 0 -1
    outer loop
      vertex -15.6606 -33.8878 0
      vertex -33 -50 0
      vertex -15.8678 -33.8019 0
    endloop
  endfacet
  facet normal -0 0 -1
    outer loop
      vertex -15.445 -33.9499 0
      vertex -33 -50 0
      vertex -15.6606 -33.8878 0
    endloop
  endfacet
  facet normal -0 0 -1
    outer loop
      vertex -15.2239 -33.9874 0
      vertex -33 -50 0
      vertex -15.445 -33.9499 0
    endloop
  endfacet
  facet normal 0 0 -1
    outer loop
      vertex -13.0501 -31.555 0
      vertex 62.8 -50 0
      vertex -13.0126 -31.7761 0
    endloop
  endfacet
  facet normal 0 0 -1
    outer loop
      vertex -13.1122 -31.3394 0
      vertex 62.8 -50 0
      vertex -13.0501 -31.555 0
    endloop
  endfacet
  facet normal 0 0 -1
    outer loop
      vertex -13.1981 -31.1322 0
      vertex 65.8 22 0
      vertex -13.1122 -31.3394 0
    endloop
  endfacet
  facet normal -0 0 -1
    outer loop
      vertex 65.8 22 0
      vertex -13.1981 -31.1322 0
      vertex 62.8 25 0
    endloop
  endfacet
  facet normal 0 0 -1
    outer loop
      vertex -13.3066 -30.9359 0
      vertex 62.8 25 0
      vertex -13.1981 -31.1322 0
    endloop
  endfacet
  facet normal 0 0 -1
    outer loop
      vertex -13.4363 -30.753 0
      vertex 62.8 25 0
      vertex -13.3066 -30.9359 0
    endloop
  endfacet
  facet normal 0 0 -1
    outer loop
      vertex -13.5858 -30.5858 0
      vertex 62.8 25 0
      vertex -13.4363 -30.753 0
    endloop
  endfacet
  facet normal 0 0 -1
    outer loop
      vertex -13.753 -30.4363 0
      vertex 62.8 25 0
      vertex -13.5858 -30.5858 0
    endloop
  endfacet
  facet normal 0 0 -1
    outer loop
      vertex -13.9359 -30.3066 0
      vertex 62.8 25 0
      vertex -13.753 -30.4363 0
    endloop
  endfacet
  facet normal 0 0 -1
    outer loop
      vertex -33 25 0
      vertex -13.9359 -30.3066 0
      vertex -14.1322 -30.1981 0
    endloop
  endfacet
  facet normal 0 0 -1
    outer loop
      vertex -33 25 0
      vertex -14.1322 -30.1981 0
      vertex -14.3394 -30.1122 0
    endloop
  endfacet
  facet normal 0 0 -1
    outer loop
      vertex -33 25 0
      vertex -14.3394 -30.1122 0
      vertex -14.555 -30.0501 0
    endloop
  endfacet
  facet normal 0 0 -1
    outer loop
      vertex -33 25 0
      vertex -14.555 -30.0501 0
      vertex -14.7761 -30.0126 0
    endloop
  endfacet
  facet normal 0 0 -1
    outer loop
      vertex -36 22 0
      vertex -14.7761 -30.0126 0
      vertex -15 -30 0
    endloop
  endfacet
  facet normal 0 0 -1
    outer loop
      vertex -36 22 0
      vertex -15 -30 0
      vertex -15.2239 -30.0126 0
    endloop
  endfacet
  facet normal 0 0 -1
    outer loop
      vertex -36 22 0
      vertex -15.2239 -30.0126 0
      vertex -15.445 -30.0501 0
    endloop
  endfacet
  facet normal 0 0 -1
    outer loop
      vertex -36 22 0
      vertex -15.445 -30.0501 0
      vertex -15.6606 -30.1122 0
    endloop
  endfacet
  facet normal 0 0 -1
    outer loop
      vertex -36 22 0
      vertex -15.6606 -30.1122 0
      vertex -15.8678 -30.1981 0
    endloop
  endfacet
  facet normal 0 0 -1
    outer loop
      vertex -36 22 0
      vertex -15.8678 -30.1981 0
      vertex -16.0641 -30.3066 0
    endloop
  endfacet
  facet normal -0 0 -1
    outer loop
      vertex -16.9874 -32.2239 0
      vertex -36 -47 0
      vertex -17 -32 0
    endloop
  endfacet
  facet normal -0 0 -1
    outer loop
      vertex -17 -32 0
      vertex -36 -47 0
      vertex -16.9874 -31.7761 0
    endloop
  endfacet
  facet normal -0 0 -1
    outer loop
      vertex -16.9874 -31.7761 0
      vertex -36 -47 0
      vertex -16.9499 -31.555 0
    endloop
  endfacet
  facet normal -0 0 -1
    outer loop
      vertex -16.9499 -31.555 0
      vertex -36 -47 0
      vertex -16.8878 -31.3394 0
    endloop
  endfacet
  facet normal -0 0 -1
    outer loop
      vertex -16.8878 -31.3394 0
      vertex -36 -47 0
      vertex -16.8019 -31.1322 0
    endloop
  endfacet
  facet normal -0 0 -1
    outer loop
      vertex -16.8019 -31.1322 0
      vertex -36 -47 0
      vertex -16.6934 -30.9359 0
    endloop
  endfacet
  facet normal 0 0 -1
    outer loop
      vertex -13.9359 -30.3066 0
      vertex -33 25 0
      vertex 62.8 25 0
    endloop
  endfacet
  facet normal 0 0 -1
    outer loop
      vertex -36 22 0
      vertex -16.0641 -30.3066 0
      vertex -16.247 -30.4363 0
    endloop
  endfacet
  facet normal 0 0 -1
    outer loop
      vertex -36 22 0
      vertex -16.247 -30.4363 0
      vertex -16.4142 -30.5858 0
    endloop
  endfacet
  facet normal 0 0 -1
    outer loop
      vertex -36 22 0
      vertex -16.4142 -30.5858 0
      vertex -16.5637 -30.753 0
    endloop
  endfacet
  facet normal 0 0 -1
    outer loop
      vertex -36 22 0
      vertex -16.6934 -30.9359 0
      vertex -36 -47 0
    endloop
  endfacet
  facet normal 0 0 -1
    outer loop
      vertex -36 -47 0
      vertex -33 -50 0
      vertex -33.3359 -49.9811 0
    endloop
  endfacet
  facet normal 0 0 -1
    outer loop
      vertex -16.6934 -30.9359 0
      vertex -36 22 0
      vertex -16.5637 -30.753 0
    endloop
  endfacet
  facet normal 0 0 -1
    outer loop
      vertex -36 -47 0
      vertex -33.3359 -49.9811 0
      vertex -33.6675 -49.9248 0
    endloop
  endfacet
  facet normal 0 0 -1
    outer loop
      vertex -14.7761 -30.0126 0
      vertex -36 22 0
      vertex -33 25 0
    endloop
  endfacet
  facet normal 0 0 -1
    outer loop
      vertex -36 -47 0
      vertex -33.6675 -49.9248 0
      vertex -33.9908 -49.8316 0
    endloop
  endfacet
  facet normal 0 0 -1
    outer loop
      vertex -33 25 0
      vertex -36 22 0
      vertex -33.3359 24.9811 0
    endloop
  endfacet
  facet normal 0 0 -1
    outer loop
      vertex -36 -47 0
      vertex -33.9908 -49.8316 0
      vertex -34.3016 -49.7029 0
    endloop
  endfacet
  facet normal 0 0 -1
    outer loop
      vertex -33.3359 24.9811 0
      vertex -36 22 0
      vertex -33.6675 24.9248 0
    endloop
  endfacet
  facet normal 0 0 -1
    outer loop
      vertex -36 -47 0
      vertex -34.3016 -49.7029 0
      vertex -34.5961 -49.5402 0
    endloop
  endfacet
  facet normal 0 0 -1
    outer loop
      vertex -33.6675 24.9248 0
      vertex -36 22 0
      vertex -33.9908 24.8316 0
    endloop
  endfacet
  facet normal 0 0 -1
    outer loop
      vertex -36 -47 0
      vertex -34.5961 -49.5402 0
      vertex -34.8705 -49.3455 0
    endloop
  endfacet
  facet normal 0 0 -1
    outer loop
      vertex -33.9908 24.8316 0
      vertex -36 22 0
      vertex -34.3016 24.7029 0
    endloop
  endfacet
  facet normal 0 0 -1
    outer loop
      vertex -36 -47 0
      vertex -34.8705 -49.3455 0
      vertex -35.1213 -49.1213 0
    endloop
  endfacet
  facet normal 0 0 -1
    outer loop
      vertex -34.3016 24.7029 0
      vertex -36 22 0
      vertex -34.5961 24.5402 0
    endloop
  endfacet
  facet normal 0 0 -1
    outer loop
      vertex -36 -47 0
      vertex -35.1213 -49.1213 0
      vertex -35.3455 -48.8705 0
    endloop
  endfacet
  facet normal 0 0 -1
    outer loop
      vertex -34.5961 24.5402 0
      vertex -36 22 0
      vertex -34.8705 24.3455 0
    endloop
  endfacet
  facet normal 0 0 -1
    outer loop
      vertex -36 -47 0
      vertex -35.3455 -48.8705 0
      vertex -35.5402 -48.5961 0
    endloop
  endfacet
  facet normal 0 0 -1
    outer loop
      vertex -34.8705 24.3455 0
      vertex -36 22 0
      vertex -35.1213 24.1213 0
    endloop
  endfacet
  facet normal 0 0 -1
    outer loop
      vertex -36 -47 0
      vertex -35.5402 -48.5961 0
      vertex -35.7029 -48.3017 0
    endloop
  endfacet
  facet normal 0 0 -1
    outer loop
      vertex -35.1213 24.1213 0
      vertex -36 22 0
      vertex -35.3455 23.8705 0
    endloop
  endfacet
  facet normal 0 0 -1
    outer loop
      vertex -36 -47 0
      vertex -35.7029 -48.3017 0
      vertex -35.8316 -47.9908 0
    endloop
  endfacet
  facet normal 0 0 -1
    outer loop
      vertex -35.3455 23.8705 0
      vertex -36 22 0
      vertex -35.5402 23.5961 0
    endloop
  endfacet
  facet normal 0 0 -1
    outer loop
      vertex -36 -47 0
      vertex -35.8316 -47.9908 0
      vertex -35.9248 -47.6676 0
    endloop
  endfacet
  facet normal 0 0 -1
    outer loop
      vertex -35.5402 23.5961 0
      vertex -36 22 0
      vertex -35.7029 23.3017 0
    endloop
  endfacet
  facet normal 0 0 -1
    outer loop
      vertex -36 -47 0
      vertex -35.9248 -47.6676 0
      vertex -35.9811 -47.3359 0
    endloop
  endfacet
  facet normal 0 0 -1
    outer loop
      vertex -35.7029 23.3017 0
      vertex -36 22 0
      vertex -35.8316 22.9908 0
    endloop
  endfacet
  facet normal 0 0 -1
    outer loop
      vertex -35.8316 22.9908 0
      vertex -36 22 0
      vertex -35.9248 22.6676 0
    endloop
  endfacet
  facet normal 0 0 -1
    outer loop
      vertex -35.9248 22.6676 0
      vertex -36 22 0
      vertex -35.9811 22.3359 0
    endloop
  endfacet
  facet normal -0.9859 -0.167338 0
    outer loop
      vertex -35.9248 -47.6676 0
      vertex -35.9811 -47.3359 3
      vertex -35.9811 -47.3359 0
    endloop
  endfacet
  facet normal -0.9859 -0.167338 0
    outer loop
      vertex -35.9811 -47.3359 3
      vertex -35.9248 -47.6676 0
      vertex -35.9248 -47.6676 3
    endloop
  endfacet
  facet normal -0.960848 -0.277076 0
    outer loop
      vertex -35.8316 -47.9908 0
      vertex -35.9248 -47.6676 3
      vertex -35.9248 -47.6676 0
    endloop
  endfacet
  facet normal -0.960848 -0.277076 0
    outer loop
      vertex -35.9248 -47.6676 3
      vertex -35.8316 -47.9908 0
      vertex -35.8316 -47.9908 3
    endloop
  endfacet
  facet normal -0.875235 -0.483698 0
    outer loop
      vertex -35.5402 -48.5961 0
      vertex -35.7029 -48.3017 3
      vertex -35.7029 -48.3017 0
    endloop
  endfacet
  facet normal -0.875235 -0.483698 0
    outer loop
      vertex -35.7029 -48.3017 3
      vertex -35.5402 -48.5961 0
      vertex -35.5402 -48.5961 3
    endloop
  endfacet
  facet normal -0.745537 -0.666465 0
    outer loop
      vertex -35.1213 -49.1213 0
      vertex -35.3455 -48.8705 3
      vertex -35.3455 -48.8705 0
    endloop
  endfacet
  facet normal -0.745537 -0.666465 0
    outer loop
      vertex -35.3455 -48.8705 3
      vertex -35.1213 -49.1213 0
      vertex -35.1213 -49.1213 3
    endloop
  endfacet
  facet normal -0.382588 -0.923919 0
    outer loop
      vertex -34.3016 -49.7029 0
      vertex -33.9908 -49.8316 3
      vertex -34.3016 -49.7029 3
    endloop
  endfacet
  facet normal -0.382588 -0.923919 -0
    outer loop
      vertex -33.9908 -49.8316 3
      vertex -34.3016 -49.7029 0
      vertex -33.9908 -49.8316 0
    endloop
  endfacet
  facet normal 0.167338 0.9859 -0
    outer loop
      vertex 63.4676 24.9248 0
      vertex 63.1359 24.9811 3
      vertex 63.4676 24.9248 3
    endloop
  endfacet
  facet normal 0.167338 0.9859 0
    outer loop
      vertex 63.1359 24.9811 3
      vertex 63.4676 24.9248 0
      vertex 63.1359 24.9811 0
    endloop
  endfacet
  facet normal 0.998421 0.0561779 0
    outer loop
      vertex 65.8 22 3
      vertex 65.7811 22.3359 0
      vertex 65.7811 22.3359 3
    endloop
  endfacet
  facet normal 0.998421 0.0561779 0
    outer loop
      vertex 65.7811 22.3359 0
      vertex 65.8 22 3
      vertex 65.8 22 0
    endloop
  endfacet
  facet normal 0.9859 0.167338 0
    outer loop
      vertex 65.7811 22.3359 3
      vertex 65.7248 22.6676 0
      vertex 65.7248 22.6676 3
    endloop
  endfacet
  facet normal 0.9859 0.167338 0
    outer loop
      vertex 65.7248 22.6676 0
      vertex 65.7811 22.3359 3
      vertex 65.7811 22.3359 0
    endloop
  endfacet
  facet normal 0.960848 0.277076 0
    outer loop
      vertex 65.7248 22.6676 3
      vertex 65.6316 22.9908 0
      vertex 65.6316 22.9908 3
    endloop
  endfacet
  facet normal 0.960848 0.277076 0
    outer loop
      vertex 65.6316 22.9908 0
      vertex 65.7248 22.6676 3
      vertex 65.7248 22.6676 0
    endloop
  endfacet
  facet normal 0.875235 0.483698 0
    outer loop
      vertex 65.5029 23.3017 3
      vertex 65.3402 23.5961 0
      vertex 65.3402 23.5961 3
    endloop
  endfacet
  facet normal 0.875235 0.483698 0
    outer loop
      vertex 65.3402 23.5961 0
      vertex 65.5029 23.3017 3
      vertex 65.5029 23.3017 0
    endloop
  endfacet
  facet normal 0.923963 -0.382483 0
    outer loop
      vertex 65.5029 -48.3017 3
      vertex 65.6316 -47.9908 0
      vertex 65.6316 -47.9908 3
    endloop
  endfacet
  facet normal 0.923963 -0.382483 0
    outer loop
      vertex 65.6316 -47.9908 0
      vertex 65.5029 -48.3017 3
      vertex 65.5029 -48.3017 0
    endloop
  endfacet
  facet normal 0.815557 -0.578677 0
    outer loop
      vertex 65.1455 -48.8705 3
      vertex 65.3402 -48.5961 0
      vertex 65.3402 -48.5961 3
    endloop
  endfacet
  facet normal 0.815557 -0.578677 0
    outer loop
      vertex 65.3402 -48.5961 0
      vertex 65.1455 -48.8705 3
      vertex 65.1455 -48.8705 0
    endloop
  endfacet
  facet normal 0.745537 -0.666465 0
    outer loop
      vertex 64.9213 -49.1213 3
      vertex 65.1455 -48.8705 0
      vertex 65.1455 -48.8705 3
    endloop
  endfacet
  facet normal 0.745537 -0.666465 0
    outer loop
      vertex 65.1455 -48.8705 0
      vertex 64.9213 -49.1213 3
      vertex 64.9213 -49.1213 0
    endloop
  endfacet
  facet normal 0.578677 -0.815557 0
    outer loop
      vertex 64.3961 -49.5402 0
      vertex 64.6705 -49.3455 3
      vertex 64.3961 -49.5402 3
    endloop
  endfacet
  facet normal 0.578677 -0.815557 0
    outer loop
      vertex 64.6705 -49.3455 3
      vertex 64.3961 -49.5402 0
      vertex 64.6705 -49.3455 0
    endloop
  endfacet
  facet normal 0.382588 -0.923919 0
    outer loop
      vertex 63.7908 -49.8316 0
      vertex 64.1016 -49.7029 3
      vertex 63.7908 -49.8316 3
    endloop
  endfacet
  facet normal 0.382588 -0.923919 0
    outer loop
      vertex 64.1016 -49.7029 3
      vertex 63.7908 -49.8316 0
      vertex 64.1016 -49.7029 0
    endloop
  endfacet
  facet normal -0.9859 0.167338 0
    outer loop
      vertex -35.9811 22.3359 0
      vertex -35.9248 22.6676 3
      vertex -35.9248 22.6676 0
    endloop
  endfacet
  facet normal -0.9859 0.167338 0
    outer loop
      vertex -35.9248 22.6676 3
      vertex -35.9811 22.3359 0
      vertex -35.9811 22.3359 3
    endloop
  endfacet
  facet normal -0.923963 -0.382483 0
    outer loop
      vertex -35.7029 -48.3017 0
      vertex -35.8316 -47.9908 3
      vertex -35.8316 -47.9908 0
    endloop
  endfacet
  facet normal -0.923963 -0.382483 0
    outer loop
      vertex -35.8316 -47.9908 3
      vertex -35.7029 -48.3017 0
      vertex -35.7029 -48.3017 3
    endloop
  endfacet
  facet normal -0.815557 -0.578677 0
    outer loop
      vertex -35.3455 -48.8705 0
      vertex -35.5402 -48.5961 3
      vertex -35.5402 -48.5961 0
    endloop
  endfacet
  facet normal -0.815557 -0.578677 0
    outer loop
      vertex -35.5402 -48.5961 3
      vertex -35.3455 -48.8705 0
      vertex -35.3455 -48.8705 3
    endloop
  endfacet
  facet normal -0.666465 -0.745537 0
    outer loop
      vertex -35.1213 -49.1213 0
      vertex -34.8705 -49.3455 3
      vertex -35.1213 -49.1213 3
    endloop
  endfacet
  facet normal -0.666465 -0.745537 -0
    outer loop
      vertex -34.8705 -49.3455 3
      vertex -35.1213 -49.1213 0
      vertex -34.8705 -49.3455 0
    endloop
  endfacet
  facet normal 0.745537 0.666465 0
    outer loop
      vertex 65.1455 23.8705 3
      vertex 64.9213 24.1213 0
      vertex 64.9213 24.1213 3
    endloop
  endfacet
  facet normal 0.745537 0.666465 0
    outer loop
      vertex 64.9213 24.1213 0
      vertex 65.1455 23.8705 3
      vertex 65.1455 23.8705 0
    endloop
  endfacet
  facet normal 0.960848 -0.277076 0
    outer loop
      vertex 65.6316 -47.9908 3
      vertex 65.7248 -47.6676 0
      vertex 65.7248 -47.6676 3
    endloop
  endfacet
  facet normal 0.960848 -0.277076 0
    outer loop
      vertex 65.7248 -47.6676 0
      vertex 65.6316 -47.9908 3
      vertex 65.6316 -47.9908 0
    endloop
  endfacet
  facet normal 0.483572 -0.875304 0
    outer loop
      vertex 64.1016 -49.7029 0
      vertex 64.3961 -49.5402 3
      vertex 64.1016 -49.7029 3
    endloop
  endfacet
  facet normal 0.483572 -0.875304 0
    outer loop
      vertex 64.3961 -49.5402 3
      vertex 64.1016 -49.7029 0
      vertex 64.3961 -49.5402 0
    endloop
  endfacet
  facet normal 0.707115 0.707098 0
    outer loop
      vertex -24.3604 -3.49146 6.55
      vertex -23.5119 -4.33998 3.01
      vertex -24.3604 -3.49146 3
    endloop
  endfacet
  facet normal 0.707113 0.7071 -9.67239e-07
    outer loop
      vertex -24.3604 -3.49146 6.55
      vertex -20.1532 -7.69874 3.01
      vertex -23.5119 -4.33998 3.01
    endloop
  endfacet
  facet normal 0.707107 0.707106 -1.43176e-05
    outer loop
      vertex -19.3046 -8.54727 6.55
      vertex -20.1532 -7.69874 3.01
      vertex -24.3604 -3.49146 6.55
    endloop
  endfacet
  facet normal 0.707078 0.707136 -0
    outer loop
      vertex -19.3046 -8.54727 3
      vertex -20.1532 -7.69874 3.01
      vertex -19.3046 -8.54727 6.55
    endloop
  endfacet
  facet normal 0.707078 0.707136 0
    outer loop
      vertex -20.1532 -7.69874 3.01
      vertex -19.3046 -8.54727 3
      vertex -20.1532 -7.69874 3
    endloop
  endfacet
  facet normal 0.707115 0.707098 0
    outer loop
      vertex -24.3604 -3.49146 3
      vertex -23.5119 -4.33998 3.01
      vertex -23.5119 -4.33998 3
    endloop
  endfacet
  facet normal 0 0 1
    outer loop
      vertex -24.3604 -3.49146 6.55
      vertex -22.1331 -11.3757 6.55
      vertex -19.3046 -8.54727 6.55
    endloop
  endfacet
  facet normal 0 0 1
    outer loop
      vertex -22.1331 -11.3757 6.55
      vertex -24.3604 -3.49146 6.55
      vertex -27.1889 -6.31988 6.55
    endloop
  endfacet
  facet normal -0.707107 -0.707107 0
    outer loop
      vertex -22.9816 -10.5272 3
      vertex -22.1331 -11.3757 3
      vertex -22.9816 -10.5272 3.01
    endloop
  endfacet
  facet normal -0.707078 -0.707136 -0
    outer loop
      vertex -26.3403 -7.16841 3.01
      vertex -27.1889 -6.31988 3
      vertex -26.3403 -7.16841 3
    endloop
  endfacet
  facet normal -0.707078 -0.707136 0
    outer loop
      vertex -27.1889 -6.31988 3
      vertex -26.3403 -7.16841 3.01
      vertex -27.1889 -6.31988 6.55
    endloop
  endfacet
  facet normal -0.707116 -0.707097 -1.85242e-05
    outer loop
      vertex -22.9816 -10.5272 3.01
      vertex -27.1889 -6.31988 6.55
      vertex -26.3403 -7.16841 3.01
    endloop
  endfacet
  facet normal -0.707107 -0.707107 -0
    outer loop
      vertex -22.1331 -11.3757 6.55
      vertex -22.9816 -10.5272 3.01
      vertex -22.1331 -11.3757 3
    endloop
  endfacet
  facet normal -0.707108 -0.707105 6.7046e-07
    outer loop
      vertex -22.9816 -10.5272 3.01
      vertex -22.1331 -11.3757 6.55
      vertex -27.1889 -6.31988 6.55
    endloop
  endfacet
  facet normal 0.707098 -0.707116 0
    outer loop
      vertex -22.1331 -11.3757 6.55
      vertex -19.3046 -8.54727 3
      vertex -19.3046 -8.54727 6.55
    endloop
  endfacet
  facet normal 0.707098 -0.707116 0
    outer loop
      vertex -19.3046 -8.54727 3
      vertex -22.1331 -11.3757 6.55
      vertex -22.1331 -11.3757 3
    endloop
  endfacet
  facet normal -0.707097 0.707117 0
    outer loop
      vertex -27.1889 -6.31988 3
      vertex -24.3604 -3.49146 6.55
      vertex -24.3604 -3.49146 3
    endloop
  endfacet
  facet normal -0.707097 0.707117 0
    outer loop
      vertex -24.3604 -3.49146 6.55
      vertex -27.1889 -6.31988 3
      vertex -27.1889 -6.31988 6.55
    endloop
  endfacet
  facet normal 0.707119 0.707094 0
    outer loop
      vertex -10.2183 10.6507 6.55
      vertex -9.36978 9.80215 3.01
      vertex -10.2183 10.6507 3
    endloop
  endfacet
  facet normal 0.707107 0.707107 -5.99243e-06
    outer loop
      vertex -10.2183 10.6507 6.55
      vertex -6.01102 6.44339 3.01
      vertex -9.36978 9.80215 3.01
    endloop
  endfacet
  facet normal 0.707109 0.707105 -1.00572e-06
    outer loop
      vertex -5.16249 5.59486 6.55
      vertex -6.01102 6.44339 3.01
      vertex -10.2183 10.6507 6.55
    endloop
  endfacet
  facet normal 0.707107 0.707107 -0
    outer loop
      vertex -5.16249 5.59486 3
      vertex -6.01102 6.44339 3.01
      vertex -5.16249 5.59486 6.55
    endloop
  endfacet
  facet normal 0.707107 0.707107 0
    outer loop
      vertex -6.01102 6.44339 3.01
      vertex -5.16249 5.59486 3
      vertex -6.01102 6.44339 3
    endloop
  endfacet
  facet normal 0.707119 0.707094 0
    outer loop
      vertex -10.2183 10.6507 3
      vertex -9.36978 9.80215 3.01
      vertex -9.36978 9.80215 3
    endloop
  endfacet
  facet normal 0 0 1
    outer loop
      vertex -10.2183 10.6507 6.55
      vertex -7.99092 2.76644 6.55
      vertex -5.16249 5.59486 6.55
    endloop
  endfacet
  facet normal 0 0 1
    outer loop
      vertex -7.99092 2.76644 6.55
      vertex -10.2183 10.6507 6.55
      vertex -13.0467 7.82225 6.55
    endloop
  endfacet
  facet normal -0.707113 0.707101 0
    outer loop
      vertex -13.0467 7.82225 3
      vertex -10.2183 10.6507 6.55
      vertex -10.2183 10.6507 3
    endloop
  endfacet
  facet normal -0.707113 0.707101 0
    outer loop
      vertex -10.2183 10.6507 6.55
      vertex -13.0467 7.82225 3
      vertex -13.0467 7.82225 6.55
    endloop
  endfacet
  facet normal -0.707107 -0.707107 0
    outer loop
      vertex -8.83945 3.61497 3
      vertex -7.99092 2.76644 3
      vertex -8.83945 3.61497 3.01
    endloop
  endfacet
  facet normal -0.707119 -0.707094 -0
    outer loop
      vertex -12.1982 6.97372 3.01
      vertex -13.0467 7.82225 3
      vertex -12.1982 6.97372 3
    endloop
  endfacet
  facet normal -0.707119 -0.707094 0
    outer loop
      vertex -13.0467 7.82225 3
      vertex -12.1982 6.97372 3.01
      vertex -13.0467 7.82225 6.55
    endloop
  endfacet
  facet normal -0.707107 -0.707107 5.99243e-06
    outer loop
      vertex -8.83945 3.61497 3.01
      vertex -13.0467 7.82225 6.55
      vertex -12.1982 6.97372 3.01
    endloop
  endfacet
  facet normal -0.707107 -0.707107 -0
    outer loop
      vertex -7.99092 2.76644 6.55
      vertex -8.83945 3.61497 3.01
      vertex -7.99092 2.76644 3
    endloop
  endfacet
  facet normal -0.707109 -0.707105 1.00573e-06
    outer loop
      vertex -8.83945 3.61497 3.01
      vertex -7.99092 2.76644 6.55
      vertex -13.0467 7.82225 6.55
    endloop
  endfacet
  facet normal 0.707106 -0.707108 0
    outer loop
      vertex -7.99092 2.76644 6.55
      vertex -5.16249 5.59486 3
      vertex -5.16249 5.59486 6.55
    endloop
  endfacet
  facet normal 0.707106 -0.707108 0
    outer loop
      vertex -5.16249 5.59486 3
      vertex -7.99092 2.76644 6.55
      vertex -7.99092 2.76644 3
    endloop
  endfacet
  facet normal -0.707111 -0.707103 0
    outer loop
      vertex -5.65747 13.5145 1.49
      vertex -2.29871 10.1557 3
      vertex -5.65747 13.5145 3
    endloop
  endfacet
  facet normal -0.707111 -0.707103 -0
    outer loop
      vertex -2.29871 10.1557 3
      vertex -5.65747 13.5145 1.49
      vertex -2.29871 10.1557 1.49
    endloop
  endfacet
  facet normal 0 0 -1
    outer loop
      vertex -22.9816 -10.5272 3.01
      vertex -23.5119 -4.33998 3.01
      vertex -20.1532 -7.69874 3.01
    endloop
  endfacet
  facet normal 0 -0 -1
    outer loop
      vertex -23.5119 -4.33998 3.01
      vertex -22.9816 -10.5272 3.01
      vertex -26.3403 -7.16841 3.01
    endloop
  endfacet
  facet normal 0 0 -1
    outer loop
      vertex -8.83945 3.61497 3.01
      vertex -9.36978 9.80215 3.01
      vertex -6.01102 6.44339 3.01
    endloop
  endfacet
  facet normal 0 -0 -1
    outer loop
      vertex -9.36978 9.80215 3.01
      vertex -8.83945 3.61497 3.01
      vertex -12.1982 6.97372 3.01
    endloop
  endfacet
  facet normal 0.707111 -0.707103 0
    outer loop
      vertex -23.5119 -4.33998 3.01
      vertex -26.3403 -7.16841 3.01
      vertex -23.5119 -4.33998 3
    endloop
  endfacet
  facet normal 0.707108 -0.707106 0
    outer loop
      vertex -9.36978 9.80215 3.01
      vertex -12.1982 6.97372 3.01
      vertex -9.36978 9.80215 3
    endloop
  endfacet
  facet normal 0.707111 -0.707103 0
    outer loop
      vertex -9.36978 9.80215 3
      vertex -5.65747 13.5145 1.49
      vertex -5.65747 13.5145 3
    endloop
  endfacet
  facet normal 0.707108 -0.707106 0
    outer loop
      vertex -12.1982 6.97372 3
      vertex -9.36978 9.80215 3
      vertex -12.1982 6.97372 3.01
    endloop
  endfacet
  facet normal 0.707108 -0.707106 -1.25851e-05
    outer loop
      vertex -9.36978 9.80215 3
      vertex -12.1982 6.97372 3
      vertex -5.65747 13.5145 1.49
    endloop
  endfacet
  facet normal 0.707107 -0.707107 -2.34141e-05
    outer loop
      vertex -23.5119 -4.33998 3
      vertex -5.65747 13.5145 1.49
      vertex -12.1982 6.97372 3
    endloop
  endfacet
  facet normal 0.707111 -0.707103 0
    outer loop
      vertex -26.3403 -7.16841 3
      vertex -23.5119 -4.33998 3
      vertex -26.3403 -7.16841 3.01
    endloop
  endfacet
  facet normal 0.707111 -0.707103 -6.995e-05
    outer loop
      vertex -30.0527 -10.8807 1.49
      vertex -23.5119 -4.33998 3
      vertex -26.3403 -7.16841 3
    endloop
  endfacet
  facet normal 0.707096 -0.707117 0
    outer loop
      vertex -30.0527 -10.8807 1.49
      vertex -26.3403 -7.16841 3
      vertex -30.0527 -10.8807 3
    endloop
  endfacet
  facet normal 0.707106 -0.707107 -3.3696e-05
    outer loop
      vertex -23.5119 -4.33998 3
      vertex -30.0527 -10.8807 1.49
      vertex -5.65747 13.5145 1.49
    endloop
  endfacet
  facet normal 0.707107 0.707107 0
    outer loop
      vertex -26.6939 -14.2395 3
      vertex -30.0527 -10.8807 1.49
      vertex -30.0527 -10.8807 3
    endloop
  endfacet
  facet normal 0.707107 0.707107 0
    outer loop
      vertex -30.0527 -10.8807 1.49
      vertex -26.6939 -14.2395 3
      vertex -26.6939 -14.2395 1.49
    endloop
  endfacet
  facet normal 0 0 1
    outer loop
      vertex -5.65747 13.5145 1.49
      vertex -26.6939 -14.2395 1.49
      vertex -2.29871 10.1557 1.49
    endloop
  endfacet
  facet normal 0 -0 1
    outer loop
      vertex -26.6939 -14.2395 1.49
      vertex -5.65747 13.5145 1.49
      vertex -30.0527 -10.8807 1.49
    endloop
  endfacet
  facet normal -0.707107 0.707107 0
    outer loop
      vertex -2.29871 10.1557 1.49
      vertex -6.01102 6.44339 3
      vertex -2.29871 10.1557 3
    endloop
  endfacet
  facet normal -0.707106 0.707108 0
    outer loop
      vertex -6.01102 6.44339 3
      vertex -8.83945 3.61497 3
      vertex -6.01102 6.44339 3.01
    endloop
  endfacet
  facet normal -0.707106 0.707108 6.14621e-06
    outer loop
      vertex -2.29871 10.1557 1.49
      vertex -8.83945 3.61497 3
      vertex -6.01102 6.44339 3
    endloop
  endfacet
  facet normal -0.707107 0.707107 -3.72688e-06
    outer loop
      vertex -2.29871 10.1557 1.49
      vertex -14.75 -2.29558 2.65
      vertex -8.83945 3.61497 3
    endloop
  endfacet
  facet normal -0.707107 0.707107 -6.09575e-06
    outer loop
      vertex -2.29871 10.1557 1.49
      vertex -15.25 -2.79558 2.65
      vertex -14.75 -2.29558 2.65
    endloop
  endfacet
  facet normal -0.707104 0.70711 0
    outer loop
      vertex -15.25 -2.79558 2.65
      vertex -20.1532 -7.69874 3
      vertex -15.25 -2.79558 3
    endloop
  endfacet
  facet normal -0.707107 0.707107 -9.33195e-06
    outer loop
      vertex -26.6939 -14.2395 1.49
      vertex -15.25 -2.79558 2.65
      vertex -2.29871 10.1557 1.49
    endloop
  endfacet
  facet normal -0.707114 0.707099 0
    outer loop
      vertex -20.1532 -7.69874 3
      vertex -22.9816 -10.5272 3
      vertex -20.1532 -7.69874 3.01
    endloop
  endfacet
  facet normal -0.707105 0.707108 -4.0547e-05
    outer loop
      vertex -15.25 -2.79558 2.65
      vertex -26.6939 -14.2395 1.49
      vertex -20.1532 -7.69874 3
    endloop
  endfacet
  facet normal -0.707114 0.707099 3.68771e-05
    outer loop
      vertex -20.1532 -7.69874 3
      vertex -26.6939 -14.2395 1.49
      vertex -22.9816 -10.5272 3
    endloop
  endfacet
  facet normal -0.707107 0.707107 0
    outer loop
      vertex -22.9816 -10.5272 3
      vertex -26.6939 -14.2395 1.49
      vertex -26.6939 -14.2395 3
    endloop
  endfacet
  facet normal -0.707106 0.707108 0
    outer loop
      vertex -6.01102 6.44339 3.01
      vertex -8.83945 3.61497 3
      vertex -8.83945 3.61497 3.01
    endloop
  endfacet
  facet normal -0.707107 0.707107 0
    outer loop
      vertex -8.83945 3.61497 3
      vertex -14.75 -2.29558 2.65
      vertex -14.75 -2.29558 3
    endloop
  endfacet
  facet normal -0.707114 0.707099 0
    outer loop
      vertex -20.1532 -7.69874 3.01
      vertex -22.9816 -10.5272 3
      vertex -22.9816 -10.5272 3.01
    endloop
  endfacet
  facet normal -0.99842 -0.0561862 0
    outer loop
      vertex -13 -32 0
      vertex -13.0126 -31.7761 3
      vertex -13.0126 -31.7761 0
    endloop
  endfacet
  facet normal -0.99842 -0.0561862 0
    outer loop
      vertex -13.0126 -31.7761 3
      vertex -13 -32 0
      vertex -13 -32 3
    endloop
  endfacet
  facet normal 0.99842 -0.0561862 0
    outer loop
      vertex -17 -32 3
      vertex -16.9874 -31.7761 0
      vertex -16.9874 -31.7761 3
    endloop
  endfacet
  facet normal 0.99842 -0.0561862 0
    outer loop
      vertex -16.9874 -31.7761 0
      vertex -17 -32 3
      vertex -17 -32 0
    endloop
  endfacet
  facet normal 0.0561862 -0.99842 0
    outer loop
      vertex -15.2239 -30.0126 0
      vertex -15 -30 2.65
      vertex -15.2239 -30.0126 2.65
    endloop
  endfacet
  facet normal 0.0561862 -0.99842 0
    outer loop
      vertex -15 -30 2.65
      vertex -15.2239 -30.0126 0
      vertex -15 -30 0
    endloop
  endfacet
  facet normal 0.0561862 0.99842 -0
    outer loop
      vertex -15 -34 0
      vertex -15.2239 -33.9874 3
      vertex -15 -34 3
    endloop
  endfacet
  facet normal 0.0561862 0.99842 0
    outer loop
      vertex -15.2239 -33.9874 3
      vertex -15 -34 0
      vertex -15.2239 -33.9874 0
    endloop
  endfacet
  facet normal 0.745463 0.666547 0
    outer loop
      vertex -16.4142 -33.4142 3
      vertex -16.5637 -33.247 0
      vertex -16.5637 -33.247 3
    endloop
  endfacet
  facet normal 0.745463 0.666547 0
    outer loop
      vertex -16.5637 -33.247 0
      vertex -16.4142 -33.4142 3
      vertex -16.4142 -33.4142 0
    endloop
  endfacet
  facet normal -0.666547 -0.745463 0
    outer loop
      vertex -13.753 -30.4363 0
      vertex -13.5858 -30.5858 3
      vertex -13.753 -30.4363 3
    endloop
  endfacet
  facet normal -0.666547 -0.745463 -0
    outer loop
      vertex -13.5858 -30.5858 3
      vertex -13.753 -30.4363 0
      vertex -13.5858 -30.5858 0
    endloop
  endfacet
  facet normal 0.666547 -0.745463 0
    outer loop
      vertex -16.4142 -30.5858 0
      vertex -16.247 -30.4363 3
      vertex -16.4142 -30.5858 3
    endloop
  endfacet
  facet normal 0.666547 -0.745463 0
    outer loop
      vertex -16.247 -30.4363 3
      vertex -16.4142 -30.5858 0
      vertex -16.247 -30.4363 0
    endloop
  endfacet
  facet normal 0.382969 -0.923761 0
    outer loop
      vertex -15.8678 -30.1981 0
      vertex -15.6606 -30.1122 3
      vertex -15.8678 -30.1981 3
    endloop
  endfacet
  facet normal 0.382969 -0.923761 0
    outer loop
      vertex -15.6606 -30.1122 3
      vertex -15.8678 -30.1981 0
      vertex -15.6606 -30.1122 0
    endloop
  endfacet
  facet normal -0.875207 -0.483749 0
    outer loop
      vertex -13.1981 -31.1322 0
      vertex -13.3066 -30.9359 3
      vertex -13.3066 -30.9359 0
    endloop
  endfacet
  facet normal -0.875207 -0.483749 0
    outer loop
      vertex -13.3066 -30.9359 3
      vertex -13.1981 -31.1322 0
      vertex -13.1981 -31.1322 3
    endloop
  endfacet
  facet normal -0.276781 -0.960933 0
    outer loop
      vertex -14.555 -30.0501 0
      vertex -14.3394 -30.1122 3
      vertex -14.555 -30.0501 3
    endloop
  endfacet
  facet normal -0.276781 -0.960933 -0
    outer loop
      vertex -14.3394 -30.1122 3
      vertex -14.555 -30.0501 0
      vertex -14.3394 -30.1122 0
    endloop
  endfacet
  facet normal -0.166237 -0.986086 -0
    outer loop
      vertex -14.7761 -30.0126 2.65
      vertex -14.7761 -30.0126 0
      vertex -14.75 -30.017 2.65
    endloop
  endfacet
  facet normal -0.16735 -0.985898 0
    outer loop
      vertex -14.75 -30.017 2.65
      vertex -14.555 -30.0501 3
      vertex -14.75 -30.017 3
    endloop
  endfacet
  facet normal -0.167218 -0.98592 9.94476e-06
    outer loop
      vertex -14.555 -30.0501 0
      vertex -14.75 -30.017 2.65
      vertex -14.7761 -30.0126 0
    endloop
  endfacet
  facet normal -0.16735 -0.985898 0
    outer loop
      vertex -14.75 -30.017 2.65
      vertex -14.555 -30.0501 0
      vertex -14.555 -30.0501 3
    endloop
  endfacet
  facet normal -0.483749 -0.875207 0
    outer loop
      vertex -14.1322 -30.1981 0
      vertex -13.9359 -30.3066 3
      vertex -14.1322 -30.1981 3
    endloop
  endfacet
  facet normal -0.483749 -0.875207 -0
    outer loop
      vertex -13.9359 -30.3066 3
      vertex -14.1322 -30.1981 0
      vertex -13.9359 -30.3066 0
    endloop
  endfacet
  facet normal 0.875207 -0.483749 0
    outer loop
      vertex -16.8019 -31.1322 3
      vertex -16.6934 -30.9359 0
      vertex -16.6934 -30.9359 3
    endloop
  endfacet
  facet normal 0.875207 -0.483749 0
    outer loop
      vertex -16.6934 -30.9359 0
      vertex -16.8019 -31.1322 3
      vertex -16.8019 -31.1322 0
    endloop
  endfacet
  facet normal 0.483749 -0.875207 0
    outer loop
      vertex -16.0641 -30.3066 0
      vertex -15.8678 -30.1981 3
      vertex -16.0641 -30.3066 3
    endloop
  endfacet
  facet normal 0.483749 -0.875207 0
    outer loop
      vertex -15.8678 -30.1981 3
      vertex -16.0641 -30.3066 0
      vertex -15.8678 -30.1981 0
    endloop
  endfacet
  facet normal 0.16735 -0.985898 0
    outer loop
      vertex -15.445 -30.0501 3
      vertex -15.25 -30.017 2.65
      vertex -15.25 -30.017 3
    endloop
  endfacet
  facet normal 0.16735 -0.985898 0
    outer loop
      vertex -15.445 -30.0501 0
      vertex -15.25 -30.017 2.65
      vertex -15.445 -30.0501 3
    endloop
  endfacet
  facet normal 0.167218 -0.98592 9.94476e-06
    outer loop
      vertex -15.2239 -30.0126 0
      vertex -15.25 -30.017 2.65
      vertex -15.445 -30.0501 0
    endloop
  endfacet
  facet normal 0.166237 -0.986086 0
    outer loop
      vertex -15.25 -30.017 2.65
      vertex -15.2239 -30.0126 0
      vertex -15.2239 -30.0126 2.65
    endloop
  endfacet
  facet normal -0.483749 0.875207 0
    outer loop
      vertex -13.9359 -33.6934 0
      vertex -14.1322 -33.8019 3
      vertex -13.9359 -33.6934 3
    endloop
  endfacet
  facet normal -0.483749 0.875207 0
    outer loop
      vertex -14.1322 -33.8019 3
      vertex -13.9359 -33.6934 0
      vertex -14.1322 -33.8019 0
    endloop
  endfacet
  facet normal -0.960933 0.276781 0
    outer loop
      vertex -13.1122 -32.6606 0
      vertex -13.0501 -32.445 3
      vertex -13.0501 -32.445 0
    endloop
  endfacet
  facet normal -0.960933 0.276781 0
    outer loop
      vertex -13.0501 -32.445 3
      vertex -13.1122 -32.6606 0
      vertex -13.1122 -32.6606 3
    endloop
  endfacet
  facet normal 0.875207 0.483749 0
    outer loop
      vertex -16.6934 -33.0641 3
      vertex -16.8019 -32.8678 0
      vertex -16.8019 -32.8678 3
    endloop
  endfacet
  facet normal 0.875207 0.483749 0
    outer loop
      vertex -16.8019 -32.8678 0
      vertex -16.6934 -33.0641 3
      vertex -16.6934 -33.0641 0
    endloop
  endfacet
  facet normal -0.960933 -0.276781 0
    outer loop
      vertex -13.0501 -31.555 0
      vertex -13.1122 -31.3394 3
      vertex -13.1122 -31.3394 0
    endloop
  endfacet
  facet normal -0.960933 -0.276781 0
    outer loop
      vertex -13.1122 -31.3394 3
      vertex -13.0501 -31.555 0
      vertex -13.0501 -31.555 3
    endloop
  endfacet
  facet normal -0.98592 -0.167218 0
    outer loop
      vertex -13.0126 -31.7761 0
      vertex -13.0501 -31.555 3
      vertex -13.0501 -31.555 0
    endloop
  endfacet
  facet normal -0.98592 -0.167218 0
    outer loop
      vertex -13.0501 -31.555 3
      vertex -13.0126 -31.7761 0
      vertex -13.0126 -31.7761 3
    endloop
  endfacet
  facet normal -0.923761 -0.382969 0
    outer loop
      vertex -13.1122 -31.3394 0
      vertex -13.1981 -31.1322 3
      vertex -13.1981 -31.1322 0
    endloop
  endfacet
  facet normal -0.923761 -0.382969 0
    outer loop
      vertex -13.1981 -31.1322 3
      vertex -13.1122 -31.3394 0
      vertex -13.1122 -31.3394 3
    endloop
  endfacet
  facet normal -0.745463 -0.666547 0
    outer loop
      vertex -13.4363 -30.753 0
      vertex -13.5858 -30.5858 3
      vertex -13.5858 -30.5858 0
    endloop
  endfacet
  facet normal -0.745463 -0.666547 0
    outer loop
      vertex -13.5858 -30.5858 3
      vertex -13.4363 -30.753 0
      vertex -13.4363 -30.753 3
    endloop
  endfacet
  facet normal -0.815718 -0.57845 0
    outer loop
      vertex -13.3066 -30.9359 0
      vertex -13.4363 -30.753 3
      vertex -13.4363 -30.753 0
    endloop
  endfacet
  facet normal -0.815718 -0.57845 0
    outer loop
      vertex -13.4363 -30.753 3
      vertex -13.3066 -30.9359 0
      vertex -13.3066 -30.9359 3
    endloop
  endfacet
  facet normal -0.0561862 -0.99842 0
    outer loop
      vertex -15 -30 0
      vertex -14.7761 -30.0126 2.65
      vertex -15 -30 2.65
    endloop
  endfacet
  facet normal -0.0561862 -0.99842 -0
    outer loop
      vertex -14.7761 -30.0126 2.65
      vertex -15 -30 0
      vertex -14.7761 -30.0126 0
    endloop
  endfacet
  facet normal -0.382969 -0.923761 0
    outer loop
      vertex -14.3394 -30.1122 0
      vertex -14.1322 -30.1981 3
      vertex -14.3394 -30.1122 3
    endloop
  endfacet
  facet normal -0.382969 -0.923761 -0
    outer loop
      vertex -14.1322 -30.1981 3
      vertex -14.3394 -30.1122 0
      vertex -14.1322 -30.1981 0
    endloop
  endfacet
  facet normal -0.57845 -0.815718 0
    outer loop
      vertex -13.9359 -30.3066 0
      vertex -13.753 -30.4363 3
      vertex -13.9359 -30.3066 3
    endloop
  endfacet
  facet normal -0.57845 -0.815718 -0
    outer loop
      vertex -13.753 -30.4363 3
      vertex -13.9359 -30.3066 0
      vertex -13.753 -30.4363 0
    endloop
  endfacet
  facet normal 0.960933 -0.276781 0
    outer loop
      vertex -16.9499 -31.555 3
      vertex -16.8878 -31.3394 0
      vertex -16.8878 -31.3394 3
    endloop
  endfacet
  facet normal 0.960933 -0.276781 0
    outer loop
      vertex -16.8878 -31.3394 0
      vertex -16.9499 -31.555 3
      vertex -16.9499 -31.555 0
    endloop
  endfacet
  facet normal 0.815718 -0.57845 0
    outer loop
      vertex -16.6934 -30.9359 3
      vertex -16.5637 -30.753 0
      vertex -16.5637 -30.753 3
    endloop
  endfacet
  facet normal 0.815718 -0.57845 0
    outer loop
      vertex -16.5637 -30.753 0
      vertex -16.6934 -30.9359 3
      vertex -16.6934 -30.9359 0
    endloop
  endfacet
  facet normal 0.745463 -0.666547 0
    outer loop
      vertex -16.5637 -30.753 3
      vertex -16.4142 -30.5858 0
      vertex -16.4142 -30.5858 3
    endloop
  endfacet
  facet normal 0.745463 -0.666547 0
    outer loop
      vertex -16.4142 -30.5858 0
      vertex -16.5637 -30.753 3
      vertex -16.5637 -30.753 0
    endloop
  endfacet
  facet normal 0.923761 -0.382969 0
    outer loop
      vertex -16.8878 -31.3394 3
      vertex -16.8019 -31.1322 0
      vertex -16.8019 -31.1322 3
    endloop
  endfacet
  facet normal 0.923761 -0.382969 0
    outer loop
      vertex -16.8019 -31.1322 0
      vertex -16.8878 -31.3394 3
      vertex -16.8878 -31.3394 0
    endloop
  endfacet
  facet normal 0.98592 -0.167218 0
    outer loop
      vertex -16.9874 -31.7761 3
      vertex -16.9499 -31.555 0
      vertex -16.9499 -31.555 3
    endloop
  endfacet
  facet normal 0.98592 -0.167218 0
    outer loop
      vertex -16.9499 -31.555 0
      vertex -16.9874 -31.7761 3
      vertex -16.9874 -31.7761 0
    endloop
  endfacet
  facet normal 0.57845 -0.815718 0
    outer loop
      vertex -16.247 -30.4363 0
      vertex -16.0641 -30.3066 3
      vertex -16.247 -30.4363 3
    endloop
  endfacet
  facet normal 0.57845 -0.815718 0
    outer loop
      vertex -16.0641 -30.3066 3
      vertex -16.247 -30.4363 0
      vertex -16.0641 -30.3066 0
    endloop
  endfacet
  facet normal 0.276781 -0.960933 0
    outer loop
      vertex -15.6606 -30.1122 0
      vertex -15.445 -30.0501 3
      vertex -15.6606 -30.1122 3
    endloop
  endfacet
  facet normal 0.276781 -0.960933 0
    outer loop
      vertex -15.445 -30.0501 3
      vertex -15.6606 -30.1122 0
      vertex -15.445 -30.0501 0
    endloop
  endfacet
  facet normal -0.0561862 0.99842 0
    outer loop
      vertex -14.7761 -33.9874 0
      vertex -15 -34 3
      vertex -14.7761 -33.9874 3
    endloop
  endfacet
  facet normal -0.0561862 0.99842 0
    outer loop
      vertex -15 -34 3
      vertex -14.7761 -33.9874 0
      vertex -15 -34 0
    endloop
  endfacet
  facet normal -0.276781 0.960933 0
    outer loop
      vertex -14.3394 -33.8878 0
      vertex -14.555 -33.9499 3
      vertex -14.3394 -33.8878 3
    endloop
  endfacet
  facet normal -0.276781 0.960933 0
    outer loop
      vertex -14.555 -33.9499 3
      vertex -14.3394 -33.8878 0
      vertex -14.555 -33.9499 0
    endloop
  endfacet
  facet normal -0.57845 0.815718 0
    outer loop
      vertex -13.753 -33.5637 0
      vertex -13.9359 -33.6934 3
      vertex -13.753 -33.5637 3
    endloop
  endfacet
  facet normal -0.57845 0.815718 0
    outer loop
      vertex -13.9359 -33.6934 3
      vertex -13.753 -33.5637 0
      vertex -13.9359 -33.6934 0
    endloop
  endfacet
  facet normal -0.745463 0.666547 0
    outer loop
      vertex -13.5858 -33.4142 0
      vertex -13.4363 -33.247 3
      vertex -13.4363 -33.247 0
    endloop
  endfacet
  facet normal -0.745463 0.666547 0
    outer loop
      vertex -13.4363 -33.247 3
      vertex -13.5858 -33.4142 0
      vertex -13.5858 -33.4142 3
    endloop
  endfacet
  facet normal -0.875207 0.483749 0
    outer loop
      vertex -13.3066 -33.0641 0
      vertex -13.1981 -32.8678 3
      vertex -13.1981 -32.8678 0
    endloop
  endfacet
  facet normal -0.875207 0.483749 0
    outer loop
      vertex -13.1981 -32.8678 3
      vertex -13.3066 -33.0641 0
      vertex -13.3066 -33.0641 3
    endloop
  endfacet
  facet normal 0.666547 0.745463 -0
    outer loop
      vertex -16.247 -33.5637 0
      vertex -16.4142 -33.4142 3
      vertex -16.247 -33.5637 3
    endloop
  endfacet
  facet normal 0.666547 0.745463 0
    outer loop
      vertex -16.4142 -33.4142 3
      vertex -16.247 -33.5637 0
      vertex -16.4142 -33.4142 0
    endloop
  endfacet
  facet normal 0.483749 0.875207 -0
    outer loop
      vertex -15.8678 -33.8019 0
      vertex -16.0641 -33.6934 3
      vertex -15.8678 -33.8019 3
    endloop
  endfacet
  facet normal 0.483749 0.875207 0
    outer loop
      vertex -16.0641 -33.6934 3
      vertex -15.8678 -33.8019 0
      vertex -16.0641 -33.6934 0
    endloop
  endfacet
  facet normal 0.382969 0.923761 -0
    outer loop
      vertex -15.6606 -33.8878 0
      vertex -15.8678 -33.8019 3
      vertex -15.6606 -33.8878 3
    endloop
  endfacet
  facet normal 0.382969 0.923761 0
    outer loop
      vertex -15.8678 -33.8019 3
      vertex -15.6606 -33.8878 0
      vertex -15.8678 -33.8019 0
    endloop
  endfacet
  facet normal 0.167218 0.98592 -0
    outer loop
      vertex -15.2239 -33.9874 0
      vertex -15.445 -33.9499 3
      vertex -15.2239 -33.9874 3
    endloop
  endfacet
  facet normal 0.167218 0.98592 0
    outer loop
      vertex -15.445 -33.9499 3
      vertex -15.2239 -33.9874 0
      vertex -15.445 -33.9499 0
    endloop
  endfacet
  facet normal 0.815718 0.57845 0
    outer loop
      vertex -16.5637 -33.247 3
      vertex -16.6934 -33.0641 0
      vertex -16.6934 -33.0641 3
    endloop
  endfacet
  facet normal 0.815718 0.57845 0
    outer loop
      vertex -16.6934 -33.0641 0
      vertex -16.5637 -33.247 3
      vertex -16.5637 -33.247 0
    endloop
  endfacet
  facet normal 0.960933 0.276781 0
    outer loop
      vertex -16.8878 -32.6606 3
      vertex -16.9499 -32.445 0
      vertex -16.9499 -32.445 3
    endloop
  endfacet
  facet normal 0.960933 0.276781 0
    outer loop
      vertex -16.9499 -32.445 0
      vertex -16.8878 -32.6606 3
      vertex -16.8878 -32.6606 0
    endloop
  endfacet
  facet normal 0.99842 0.0561862 0
    outer loop
      vertex -16.9874 -32.2239 3
      vertex -17 -32 0
      vertex -17 -32 3
    endloop
  endfacet
  facet normal 0.99842 0.0561862 0
    outer loop
      vertex -17 -32 0
      vertex -16.9874 -32.2239 3
      vertex -16.9874 -32.2239 0
    endloop
  endfacet
  facet normal -0.167218 0.98592 0
    outer loop
      vertex -14.555 -33.9499 0
      vertex -14.7761 -33.9874 3
      vertex -14.555 -33.9499 3
    endloop
  endfacet
  facet normal -0.167218 0.98592 0
    outer loop
      vertex -14.7761 -33.9874 3
      vertex -14.555 -33.9499 0
      vertex -14.7761 -33.9874 0
    endloop
  endfacet
  facet normal -0.382969 0.923761 0
    outer loop
      vertex -14.1322 -33.8019 0
      vertex -14.3394 -33.8878 3
      vertex -14.1322 -33.8019 3
    endloop
  endfacet
  facet normal -0.382969 0.923761 0
    outer loop
      vertex -14.3394 -33.8878 3
      vertex -14.1322 -33.8019 0
      vertex -14.3394 -33.8878 0
    endloop
  endfacet
  facet normal -0.666547 0.745463 0
    outer loop
      vertex -13.5858 -33.4142 0
      vertex -13.753 -33.5637 3
      vertex -13.5858 -33.4142 3
    endloop
  endfacet
  facet normal -0.666547 0.745463 0
    outer loop
      vertex -13.753 -33.5637 3
      vertex -13.5858 -33.4142 0
      vertex -13.753 -33.5637 0
    endloop
  endfacet
  facet normal -0.815718 0.57845 0
    outer loop
      vertex -13.4363 -33.247 0
      vertex -13.3066 -33.0641 3
      vertex -13.3066 -33.0641 0
    endloop
  endfacet
  facet normal -0.815718 0.57845 0
    outer loop
      vertex -13.3066 -33.0641 3
      vertex -13.4363 -33.247 0
      vertex -13.4363 -33.247 3
    endloop
  endfacet
  facet normal -0.923761 0.382969 0
    outer loop
      vertex -13.1981 -32.8678 0
      vertex -13.1122 -32.6606 3
      vertex -13.1122 -32.6606 0
    endloop
  endfacet
  facet normal -0.923761 0.382969 0
    outer loop
      vertex -13.1122 -32.6606 3
      vertex -13.1981 -32.8678 0
      vertex -13.1981 -32.8678 3
    endloop
  endfacet
  facet normal -0.98592 0.167218 0
    outer loop
      vertex -13.0501 -32.445 0
      vertex -13.0126 -32.2239 3
      vertex -13.0126 -32.2239 0
    endloop
  endfacet
  facet normal -0.98592 0.167218 0
    outer loop
      vertex -13.0126 -32.2239 3
      vertex -13.0501 -32.445 0
      vertex -13.0501 -32.445 3
    endloop
  endfacet
  facet normal 0.57845 0.815718 -0
    outer loop
      vertex -16.0641 -33.6934 0
      vertex -16.247 -33.5637 3
      vertex -16.0641 -33.6934 3
    endloop
  endfacet
  facet normal 0.57845 0.815718 0
    outer loop
      vertex -16.247 -33.5637 3
      vertex -16.0641 -33.6934 0
      vertex -16.247 -33.5637 0
    endloop
  endfacet
  facet normal 0.276781 0.960933 -0
    outer loop
      vertex -15.445 -33.9499 0
      vertex -15.6606 -33.8878 3
      vertex -15.445 -33.9499 3
    endloop
  endfacet
  facet normal 0.276781 0.960933 0
    outer loop
      vertex -15.6606 -33.8878 3
      vertex -15.445 -33.9499 0
      vertex -15.6606 -33.8878 0
    endloop
  endfacet
  facet normal 0.923761 0.382969 0
    outer loop
      vertex -16.8019 -32.8678 3
      vertex -16.8878 -32.6606 0
      vertex -16.8878 -32.6606 3
    endloop
  endfacet
  facet normal 0.923761 0.382969 0
    outer loop
      vertex -16.8878 -32.6606 0
      vertex -16.8019 -32.8678 3
      vertex -16.8019 -32.8678 0
    endloop
  endfacet
  facet normal 0.98592 0.167218 0
    outer loop
      vertex -16.9499 -32.445 3
      vertex -16.9874 -32.2239 0
      vertex -16.9874 -32.2239 3
    endloop
  endfacet
  facet normal 0.98592 0.167218 0
    outer loop
      vertex -16.9874 -32.2239 0
      vertex -16.9499 -32.445 3
      vertex -16.9499 -32.445 0
    endloop
  endfacet
  facet normal -0.99842 0.0561862 0
    outer loop
      vertex -13.0126 -32.2239 0
      vertex -13 -32 3
      vertex -13 -32 0
    endloop
  endfacet
  facet normal -0.99842 0.0561862 0
    outer loop
      vertex -13 -32 3
      vertex -13.0126 -32.2239 0
      vertex -13.0126 -32.2239 3
    endloop
  endfacet
  facet normal 1 -0 0
    outer loop
      vertex -15.25 -30.017 3
      vertex -15.25 -2.79558 2.65
      vertex -15.25 -2.79558 3
    endloop
  endfacet
  facet normal 1 0 0
    outer loop
      vertex -15.25 -2.79558 2.65
      vertex -15.25 -30.017 3
      vertex -15.25 -30.017 2.65
    endloop
  endfacet
  facet normal -1 0 0
    outer loop
      vertex -14.75 -30.017 2.65
      vertex -14.75 -2.29558 3
      vertex -14.75 -2.29558 2.65
    endloop
  endfacet
  facet normal -1 -0 0
    outer loop
      vertex -14.75 -2.29558 3
      vertex -14.75 -30.017 2.65
      vertex -14.75 -30.017 3
    endloop
  endfacet
  facet normal -0 0 1
    outer loop
      vertex -15.25 -2.79558 2.65
      vertex -14.75 -30.017 2.65
      vertex -14.75 -2.29558 2.65
    endloop
  endfacet
  facet normal 0 0 1
    outer loop
      vertex -14.75 -30.017 2.65
      vertex -15.25 -2.79558 2.65
      vertex -14.7761 -30.0126 2.65
    endloop
  endfacet
  facet normal 0 0 1
    outer loop
      vertex -14.7761 -30.0126 2.65
      vertex -15.25 -2.79558 2.65
      vertex -15 -30 2.65
    endloop
  endfacet
  facet normal 0 0 1
    outer loop
      vertex -15 -30 2.65
      vertex -15.25 -2.79558 2.65
      vertex -15.2239 -30.0126 2.65
    endloop
  endfacet
  facet normal 0 0 1
    outer loop
      vertex -15.2239 -30.0126 2.65
      vertex -15.25 -2.79558 2.65
      vertex -15.25 -30.017 2.65
    endloop
  endfacet
endsolid OpenSCAD_Model
