solid OpenSCAD_Model
  facet normal -1 0 0
    outer loop
      vertex 0 9.2 -11.5
      vertex 0 5.75 -3.25
      vertex 0 9.2 11.5
    endloop
  endfacet
  facet normal -1 0 0
    outer loop
      vertex 0 9.2 -11.5
      vertex 0 -5.75 -3.25
      vertex 0 5.75 -3.25
    endloop
  endfacet
  facet normal -1 -0 0
    outer loop
      vertex 0 -5.75 -3.25
      vertex 0 -9.2 -11.5
      vertex 0 -5.75 3.25
    endloop
  endfacet
  facet normal -1 0 0
    outer loop
      vertex 0 -9.2 -11.5
      vertex 0 -5.75 -3.25
      vertex 0 9.2 -11.5
    endloop
  endfacet
  facet normal -1 0 0
    outer loop
      vertex 0 5.75 3.25
      vertex 0 9.2 11.5
      vertex 0 5.75 -3.25
    endloop
  endfacet
  facet normal -1 0 0
    outer loop
      vertex 0 -5.75 3.25
      vertex 0 9.2 11.5
      vertex 0 5.75 3.25
    endloop
  endfacet
  facet normal -1 0 0
    outer loop
      vertex 0 -5.75 3.25
      vertex 0 -9.2 11.5
      vertex 0 9.2 11.5
    endloop
  endfacet
  facet normal -1 0 0
    outer loop
      vertex 0 -9.2 11.5
      vertex 0 -5.75 3.25
      vertex 0 -9.2 -11.5
    endloop
  endfacet
  facet normal -0 0 1
    outer loop
      vertex 0 9.2 11.5
      vertex 5.4 -9.2 11.5
      vertex 5.4 9.2 11.5
    endloop
  endfacet
  facet normal 0 0 1
    outer loop
      vertex 5.4 -9.2 11.5
      vertex 0 9.2 11.5
      vertex 0 -9.2 11.5
    endloop
  endfacet
  facet normal 1 0 0
    outer loop
      vertex 5.4 9.2 11.5
      vertex 5.4 8 6.75
      vertex 5.4 9.2 -6.72
    endloop
  endfacet
  facet normal 1 0 0
    outer loop
      vertex 5.4 9.2 11.5
      vertex 5.4 -8 6.75
      vertex 5.4 8 6.75
    endloop
  endfacet
  facet normal 1 0 0
    outer loop
      vertex 5.4 -8 6.75
      vertex 5.4 -9.2 11.5
      vertex 5.4 -8 -6.75
    endloop
  endfacet
  facet normal 1 -0 0
    outer loop
      vertex 5.4 -9.2 11.5
      vertex 5.4 -8 6.75
      vertex 5.4 9.2 11.5
    endloop
  endfacet
  facet normal 1 0 0
    outer loop
      vertex 5.4 9.2 -6.72
      vertex 5.4 8 6.75
      vertex 5.4 8 -6.72
    endloop
  endfacet
  facet normal 1 -0 0
    outer loop
      vertex 5.4 -8 -6.75
      vertex 5.4 3.6 -11.5
      vertex 5.4 3.6 -6.75
    endloop
  endfacet
  facet normal 1 0 0
    outer loop
      vertex 5.4 -8 -6.75
      vertex 5.4 -9.2 -11.5
      vertex 5.4 3.6 -11.5
    endloop
  endfacet
  facet normal 1 0 0
    outer loop
      vertex 5.4 -9.2 -11.5
      vertex 5.4 -8 -6.75
      vertex 5.4 -9.2 11.5
    endloop
  endfacet
  facet normal 0 1 0
    outer loop
      vertex 3.73765 9.2 10.4409
      vertex 5.4 9.2 11.5
      vertex 3.9 9.2 10.45
    endloop
  endfacet
  facet normal 0 1 0
    outer loop
      vertex 5.4 9.2 11.5
      vertex 4.06235 9.2 10.4409
      vertex 3.9 9.2 10.45
    endloop
  endfacet
  facet normal 0 1 0
    outer loop
      vertex 5.4 9.2 11.5
      vertex 4.22266 9.2 10.4136
      vertex 4.06235 9.2 10.4409
    endloop
  endfacet
  facet normal 0 1 0
    outer loop
      vertex 5.4 9.2 11.5
      vertex 4.3789 9.2 10.3686
      vertex 4.22266 9.2 10.4136
    endloop
  endfacet
  facet normal 0 1 0
    outer loop
      vertex 5.4 9.2 11.5
      vertex 4.52913 9.2 10.3064
      vertex 4.3789 9.2 10.3686
    endloop
  endfacet
  facet normal 0 1 0
    outer loop
      vertex 5.4 9.2 11.5
      vertex 4.67145 9.2 10.2277
      vertex 4.52913 9.2 10.3064
    endloop
  endfacet
  facet normal 0 1 0
    outer loop
      vertex 5.4 9.2 11.5
      vertex 4.80406 9.2 10.1337
      vertex 4.67145 9.2 10.2277
    endloop
  endfacet
  facet normal 0 1 0
    outer loop
      vertex 5.4 9.2 11.5
      vertex 4.9253 9.2 10.0253
      vertex 4.80406 9.2 10.1337
    endloop
  endfacet
  facet normal 0 1 0
    outer loop
      vertex 5.4 9.2 11.5
      vertex 5.03366 9.2 9.90406
      vertex 4.9253 9.2 10.0253
    endloop
  endfacet
  facet normal 0 1 0
    outer loop
      vertex 5.4 9.2 11.5
      vertex 5.12775 9.2 9.77145
      vertex 5.03366 9.2 9.90406
    endloop
  endfacet
  facet normal 0 1 0
    outer loop
      vertex 5.4 9.2 11.5
      vertex 5.2064 9.2 9.62913
      vertex 5.12775 9.2 9.77145
    endloop
  endfacet
  facet normal 0 1 0
    outer loop
      vertex 5.4 9.2 11.5
      vertex 5.26863 9.2 9.4789
      vertex 5.2064 9.2 9.62913
    endloop
  endfacet
  facet normal 0 1 0
    outer loop
      vertex 5.4 9.2 11.5
      vertex 5.31365 9.2 9.32265
      vertex 5.26863 9.2 9.4789
    endloop
  endfacet
  facet normal 0 1 0
    outer loop
      vertex 5.4 9.2 11.5
      vertex 5.34088 9.2 9.16235
      vertex 5.31365 9.2 9.32265
    endloop
  endfacet
  facet normal 0 1 0
    outer loop
      vertex 5.4 9.2 11.5
      vertex 5.35 9.2 9
      vertex 5.34088 9.2 9.16235
    endloop
  endfacet
  facet normal 0 1 0
    outer loop
      vertex 4.06235 9.2 7.55912
      vertex 5.4 9.2 -6.72
      vertex 3.9 9.2 7.55
    endloop
  endfacet
  facet normal 0 1 0
    outer loop
      vertex 4.22266 9.2 7.58635
      vertex 5.4 9.2 -6.72
      vertex 4.06235 9.2 7.55912
    endloop
  endfacet
  facet normal 0 1 0
    outer loop
      vertex 4.3789 9.2 7.63137
      vertex 5.4 9.2 -6.72
      vertex 4.22266 9.2 7.58635
    endloop
  endfacet
  facet normal 0 1 0
    outer loop
      vertex 4.52913 9.2 7.69359
      vertex 5.4 9.2 -6.72
      vertex 4.3789 9.2 7.63137
    endloop
  endfacet
  facet normal 0 1 0
    outer loop
      vertex 4.67145 9.2 7.77225
      vertex 5.4 9.2 -6.72
      vertex 4.52913 9.2 7.69359
    endloop
  endfacet
  facet normal 0 1 0
    outer loop
      vertex 4.80406 9.2 7.86634
      vertex 5.4 9.2 -6.72
      vertex 4.67145 9.2 7.77225
    endloop
  endfacet
  facet normal 0 1 0
    outer loop
      vertex 4.9253 9.2 7.97469
      vertex 5.4 9.2 -6.72
      vertex 4.80406 9.2 7.86634
    endloop
  endfacet
  facet normal 0 1 0
    outer loop
      vertex 5.03366 9.2 8.09594
      vertex 5.4 9.2 -6.72
      vertex 4.9253 9.2 7.97469
    endloop
  endfacet
  facet normal 0 1 0
    outer loop
      vertex 5.12775 9.2 8.22855
      vertex 5.4 9.2 -6.72
      vertex 5.03366 9.2 8.09594
    endloop
  endfacet
  facet normal 0 1 0
    outer loop
      vertex 5.2064 9.2 8.37087
      vertex 5.4 9.2 -6.72
      vertex 5.12775 9.2 8.22855
    endloop
  endfacet
  facet normal 0 1 0
    outer loop
      vertex 5.26863 9.2 8.5211
      vertex 5.4 9.2 -6.72
      vertex 5.2064 9.2 8.37087
    endloop
  endfacet
  facet normal 0 1 0
    outer loop
      vertex 5.31365 9.2 8.67734
      vertex 5.4 9.2 -6.72
      vertex 5.26863 9.2 8.5211
    endloop
  endfacet
  facet normal 0 1 0
    outer loop
      vertex 5.34088 9.2 8.83765
      vertex 5.4 9.2 -6.72
      vertex 5.31365 9.2 8.67734
    endloop
  endfacet
  facet normal 0 1 0
    outer loop
      vertex 5.35 9.2 9
      vertex 5.4 9.2 -6.72
      vertex 5.34088 9.2 8.83765
    endloop
  endfacet
  facet normal 0 1 -0
    outer loop
      vertex 5.4 9.2 -6.72
      vertex 5.35 9.2 9
      vertex 5.4 9.2 11.5
    endloop
  endfacet
  facet normal 0 1 0
    outer loop
      vertex 3.57734 9.2 10.4136
      vertex 5.4 9.2 11.5
      vertex 3.73765 9.2 10.4409
    endloop
  endfacet
  facet normal 0 1 0
    outer loop
      vertex 5.4 9.2 11.5
      vertex 3.57734 9.2 10.4136
      vertex 0 9.2 11.5
    endloop
  endfacet
  facet normal 0 1 -0
    outer loop
      vertex 3.42109 9.2 10.3686
      vertex 0 9.2 11.5
      vertex 3.57734 9.2 10.4136
    endloop
  endfacet
  facet normal 0 1 -0
    outer loop
      vertex 3.27087 9.2 10.3064
      vertex 0 9.2 11.5
      vertex 3.42109 9.2 10.3686
    endloop
  endfacet
  facet normal 0 1 -0
    outer loop
      vertex 3.12855 9.2 10.2277
      vertex 0 9.2 11.5
      vertex 3.27087 9.2 10.3064
    endloop
  endfacet
  facet normal 0 1 -0
    outer loop
      vertex 2.99594 9.2 10.1337
      vertex 0 9.2 11.5
      vertex 3.12855 9.2 10.2277
    endloop
  endfacet
  facet normal 0 1 -0
    outer loop
      vertex 2.87469 9.2 10.0253
      vertex 0 9.2 11.5
      vertex 2.99594 9.2 10.1337
    endloop
  endfacet
  facet normal 0 1 -0
    outer loop
      vertex 2.76634 9.2 9.90406
      vertex 0 9.2 11.5
      vertex 2.87469 9.2 10.0253
    endloop
  endfacet
  facet normal 0 1 -0
    outer loop
      vertex 2.67225 9.2 9.77145
      vertex 0 9.2 11.5
      vertex 2.76634 9.2 9.90406
    endloop
  endfacet
  facet normal 0 1 -0
    outer loop
      vertex 2.59359 9.2 9.62913
      vertex 0 9.2 11.5
      vertex 2.67225 9.2 9.77145
    endloop
  endfacet
  facet normal 0 1 -0
    outer loop
      vertex 2.53137 9.2 9.4789
      vertex 0 9.2 11.5
      vertex 2.59359 9.2 9.62913
    endloop
  endfacet
  facet normal 0 1 -0
    outer loop
      vertex 2.48635 9.2 9.32265
      vertex 0 9.2 11.5
      vertex 2.53137 9.2 9.4789
    endloop
  endfacet
  facet normal 0 1 -0
    outer loop
      vertex 2.45912 9.2 9.16235
      vertex 0 9.2 11.5
      vertex 2.48635 9.2 9.32265
    endloop
  endfacet
  facet normal 0 1 -0
    outer loop
      vertex 2.45 9.2 9
      vertex 0 9.2 11.5
      vertex 2.45912 9.2 9.16235
    endloop
  endfacet
  facet normal 0 1 0
    outer loop
      vertex 2.45912 9.2 8.83765
      vertex 0 9.2 11.5
      vertex 2.45 9.2 9
    endloop
  endfacet
  facet normal 0 1 0
    outer loop
      vertex 2.48635 9.2 8.67734
      vertex 0 9.2 11.5
      vertex 2.45912 9.2 8.83765
    endloop
  endfacet
  facet normal 0 1 0
    outer loop
      vertex 2.53137 9.2 8.5211
      vertex 0 9.2 11.5
      vertex 2.48635 9.2 8.67734
    endloop
  endfacet
  facet normal 0 1 0
    outer loop
      vertex 2.59359 9.2 8.37087
      vertex 0 9.2 11.5
      vertex 2.53137 9.2 8.5211
    endloop
  endfacet
  facet normal 0 1 0
    outer loop
      vertex 2.67225 9.2 8.22855
      vertex 0 9.2 11.5
      vertex 2.59359 9.2 8.37087
    endloop
  endfacet
  facet normal 0 1 0
    outer loop
      vertex 3.2 9.2 -6.72
      vertex 2.67225 9.2 8.22855
      vertex 2.76634 9.2 8.09594
    endloop
  endfacet
  facet normal 0 1 0
    outer loop
      vertex 3.2 9.2 -6.72
      vertex 3.9 9.2 7.55
      vertex 5.4 9.2 -6.72
    endloop
  endfacet
  facet normal 0 1 0
    outer loop
      vertex 3.9 9.2 7.55
      vertex 3.2 9.2 -6.72
      vertex 3.73765 9.2 7.55912
    endloop
  endfacet
  facet normal 0 1 0
    outer loop
      vertex 3.73765 9.2 7.55912
      vertex 3.2 9.2 -6.72
      vertex 3.57734 9.2 7.58635
    endloop
  endfacet
  facet normal 0 1 0
    outer loop
      vertex 3.57734 9.2 7.58635
      vertex 3.2 9.2 -6.72
      vertex 3.42109 9.2 7.63137
    endloop
  endfacet
  facet normal 0 1 0
    outer loop
      vertex 3.42109 9.2 7.63137
      vertex 3.2 9.2 -6.72
      vertex 3.27087 9.2 7.69359
    endloop
  endfacet
  facet normal 0 1 0
    outer loop
      vertex 3.27087 9.2 7.69359
      vertex 3.2 9.2 -6.72
      vertex 3.12855 9.2 7.77225
    endloop
  endfacet
  facet normal 0 1 0
    outer loop
      vertex 3.12855 9.2 7.77225
      vertex 3.2 9.2 -6.72
      vertex 2.99594 9.2 7.86634
    endloop
  endfacet
  facet normal 0 1 0
    outer loop
      vertex 2.99594 9.2 7.86634
      vertex 3.2 9.2 -6.72
      vertex 2.87469 9.2 7.97469
    endloop
  endfacet
  facet normal 0 1 0
    outer loop
      vertex 2.87469 9.2 7.97469
      vertex 3.2 9.2 -6.72
      vertex 2.76634 9.2 8.09594
    endloop
  endfacet
  facet normal 0 1 0
    outer loop
      vertex 2.67225 9.2 8.22855
      vertex 3.2 9.2 -6.72
      vertex 0 9.2 11.5
    endloop
  endfacet
  facet normal 0 1 0
    outer loop
      vertex 0 9.2 -11.5
      vertex 3.2 9.2 -6.72
      vertex 3.2 9.2 -11.5
    endloop
  endfacet
  facet normal 0 1 0
    outer loop
      vertex 3.2 9.2 -6.72
      vertex 0 9.2 -11.5
      vertex 0 9.2 11.5
    endloop
  endfacet
  facet normal 0 0 -1
    outer loop
      vertex 5.4 -9.2 -11.5
      vertex 3.2 3.6 -11.5
      vertex 5.4 3.6 -11.5
    endloop
  endfacet
  facet normal 0 0 -1
    outer loop
      vertex 0 -9.2 -11.5
      vertex 3.2 3.6 -11.5
      vertex 5.4 -9.2 -11.5
    endloop
  endfacet
  facet normal 0 0 -1
    outer loop
      vertex 0 9.2 -11.5
      vertex 3.2 3.6 -11.5
      vertex 0 -9.2 -11.5
    endloop
  endfacet
  facet normal 0 0 -1
    outer loop
      vertex 3.2 3.6 -11.5
      vertex 0 9.2 -11.5
      vertex 3.2 9.2 -11.5
    endloop
  endfacet
  facet normal 0 -1 0
    outer loop
      vertex 3.57734 -9.2 10.4136
      vertex 5.4 -9.2 11.5
      vertex 0 -9.2 11.5
    endloop
  endfacet
  facet normal 0 -1 0
    outer loop
      vertex 5.4 -9.2 11.5
      vertex 3.73765 -9.2 10.4409
      vertex 3.9 -9.2 10.45
    endloop
  endfacet
  facet normal 0 -1 0
    outer loop
      vertex 5.4 -9.2 11.5
      vertex 3.57734 -9.2 10.4136
      vertex 3.73765 -9.2 10.4409
    endloop
  endfacet
  facet normal 0 -1 0
    outer loop
      vertex 0 -9.2 11.5
      vertex 3.42109 -9.2 10.3686
      vertex 3.57734 -9.2 10.4136
    endloop
  endfacet
  facet normal 0 -1 0
    outer loop
      vertex 0 -9.2 11.5
      vertex 3.27087 -9.2 10.3064
      vertex 3.42109 -9.2 10.3686
    endloop
  endfacet
  facet normal 0 -1 0
    outer loop
      vertex 0 -9.2 11.5
      vertex 3.12855 -9.2 10.2277
      vertex 3.27087 -9.2 10.3064
    endloop
  endfacet
  facet normal 0 -1 0
    outer loop
      vertex 0 -9.2 11.5
      vertex 2.99594 -9.2 10.1337
      vertex 3.12855 -9.2 10.2277
    endloop
  endfacet
  facet normal 0 -1 0
    outer loop
      vertex 0 -9.2 11.5
      vertex 2.87469 -9.2 10.0253
      vertex 2.99594 -9.2 10.1337
    endloop
  endfacet
  facet normal 0 -1 0
    outer loop
      vertex 0 -9.2 11.5
      vertex 2.76634 -9.2 9.90406
      vertex 2.87469 -9.2 10.0253
    endloop
  endfacet
  facet normal 0 -1 0
    outer loop
      vertex 0 -9.2 11.5
      vertex 2.67225 -9.2 9.77145
      vertex 2.76634 -9.2 9.90406
    endloop
  endfacet
  facet normal 0 -1 0
    outer loop
      vertex 0 -9.2 11.5
      vertex 2.59359 -9.2 9.62913
      vertex 2.67225 -9.2 9.77145
    endloop
  endfacet
  facet normal 0 -1 0
    outer loop
      vertex 0 -9.2 11.5
      vertex 2.53137 -9.2 9.4789
      vertex 2.59359 -9.2 9.62913
    endloop
  endfacet
  facet normal 0 -1 0
    outer loop
      vertex 0 -9.2 11.5
      vertex 2.48635 -9.2 9.32265
      vertex 2.53137 -9.2 9.4789
    endloop
  endfacet
  facet normal 0 -1 0
    outer loop
      vertex 0 -9.2 11.5
      vertex 2.45912 -9.2 9.16235
      vertex 2.48635 -9.2 9.32265
    endloop
  endfacet
  facet normal 0 -1 0
    outer loop
      vertex 0 -9.2 11.5
      vertex 2.45 -9.2 9
      vertex 2.45912 -9.2 9.16235
    endloop
  endfacet
  facet normal 0 -1 0
    outer loop
      vertex 0 -9.2 11.5
      vertex 2.45912 -9.2 8.83765
      vertex 2.45 -9.2 9
    endloop
  endfacet
  facet normal 0 -1 0
    outer loop
      vertex 0 -9.2 11.5
      vertex 2.48635 -9.2 8.67734
      vertex 2.45912 -9.2 8.83765
    endloop
  endfacet
  facet normal 0 -1 0
    outer loop
      vertex 0 -9.2 11.5
      vertex 2.53137 -9.2 8.5211
      vertex 2.48635 -9.2 8.67734
    endloop
  endfacet
  facet normal 0 -1 0
    outer loop
      vertex 0 -9.2 11.5
      vertex 2.59359 -9.2 8.37087
      vertex 2.53137 -9.2 8.5211
    endloop
  endfacet
  facet normal 0 -1 0
    outer loop
      vertex 0 -9.2 11.5
      vertex 2.67225 -9.2 8.22855
      vertex 2.59359 -9.2 8.37087
    endloop
  endfacet
  facet normal 0 -1 0
    outer loop
      vertex 0 -9.2 -11.5
      vertex 2.67225 -9.2 8.22855
      vertex 0 -9.2 11.5
    endloop
  endfacet
  facet normal 0 -1 0
    outer loop
      vertex 5.4 -9.2 -11.5
      vertex 3.73765 -9.2 7.55912
      vertex 0 -9.2 -11.5
    endloop
  endfacet
  facet normal 0 -1 -0
    outer loop
      vertex 3.57734 -9.2 7.58635
      vertex 0 -9.2 -11.5
      vertex 3.73765 -9.2 7.55912
    endloop
  endfacet
  facet normal 0 -1 -0
    outer loop
      vertex 3.42109 -9.2 7.63137
      vertex 0 -9.2 -11.5
      vertex 3.57734 -9.2 7.58635
    endloop
  endfacet
  facet normal 0 -1 -0
    outer loop
      vertex 3.27087 -9.2 7.69359
      vertex 0 -9.2 -11.5
      vertex 3.42109 -9.2 7.63137
    endloop
  endfacet
  facet normal 0 -1 -0
    outer loop
      vertex 3.12855 -9.2 7.77225
      vertex 0 -9.2 -11.5
      vertex 3.27087 -9.2 7.69359
    endloop
  endfacet
  facet normal 0 -1 -0
    outer loop
      vertex 2.99594 -9.2 7.86634
      vertex 0 -9.2 -11.5
      vertex 3.12855 -9.2 7.77225
    endloop
  endfacet
  facet normal 0 -1 -0
    outer loop
      vertex 2.87469 -9.2 7.97469
      vertex 0 -9.2 -11.5
      vertex 2.99594 -9.2 7.86634
    endloop
  endfacet
  facet normal 0 -1 -0
    outer loop
      vertex 2.76634 -9.2 8.09594
      vertex 0 -9.2 -11.5
      vertex 2.87469 -9.2 7.97469
    endloop
  endfacet
  facet normal 0 -1 -0
    outer loop
      vertex 2.67225 -9.2 8.22855
      vertex 0 -9.2 -11.5
      vertex 2.76634 -9.2 8.09594
    endloop
  endfacet
  facet normal 0 -1 0
    outer loop
      vertex 4.06235 -9.2 10.4409
      vertex 5.4 -9.2 11.5
      vertex 3.9 -9.2 10.45
    endloop
  endfacet
  facet normal 0 -1 0
    outer loop
      vertex 4.22266 -9.2 10.4136
      vertex 5.4 -9.2 11.5
      vertex 4.06235 -9.2 10.4409
    endloop
  endfacet
  facet normal 0 -1 0
    outer loop
      vertex 4.3789 -9.2 10.3686
      vertex 5.4 -9.2 11.5
      vertex 4.22266 -9.2 10.4136
    endloop
  endfacet
  facet normal 0 -1 0
    outer loop
      vertex 4.52913 -9.2 10.3064
      vertex 5.4 -9.2 11.5
      vertex 4.3789 -9.2 10.3686
    endloop
  endfacet
  facet normal 0 -1 0
    outer loop
      vertex 4.67145 -9.2 10.2277
      vertex 5.4 -9.2 11.5
      vertex 4.52913 -9.2 10.3064
    endloop
  endfacet
  facet normal 0 -1 0
    outer loop
      vertex 4.80406 -9.2 10.1337
      vertex 5.4 -9.2 11.5
      vertex 4.67145 -9.2 10.2277
    endloop
  endfacet
  facet normal 0 -1 0
    outer loop
      vertex 4.9253 -9.2 10.0253
      vertex 5.4 -9.2 11.5
      vertex 4.80406 -9.2 10.1337
    endloop
  endfacet
  facet normal 0 -1 0
    outer loop
      vertex 5.03366 -9.2 9.90406
      vertex 5.4 -9.2 11.5
      vertex 4.9253 -9.2 10.0253
    endloop
  endfacet
  facet normal 0 -1 0
    outer loop
      vertex 5.12775 -9.2 9.77145
      vertex 5.4 -9.2 11.5
      vertex 5.03366 -9.2 9.90406
    endloop
  endfacet
  facet normal 0 -1 0
    outer loop
      vertex 5.2064 -9.2 9.62913
      vertex 5.4 -9.2 11.5
      vertex 5.12775 -9.2 9.77145
    endloop
  endfacet
  facet normal 0 -1 0
    outer loop
      vertex 5.26863 -9.2 9.4789
      vertex 5.4 -9.2 11.5
      vertex 5.2064 -9.2 9.62913
    endloop
  endfacet
  facet normal 0 -1 0
    outer loop
      vertex 5.31365 -9.2 9.32265
      vertex 5.4 -9.2 11.5
      vertex 5.26863 -9.2 9.4789
    endloop
  endfacet
  facet normal 0 -1 0
    outer loop
      vertex 5.34088 -9.2 9.16235
      vertex 5.4 -9.2 11.5
      vertex 5.31365 -9.2 9.32265
    endloop
  endfacet
  facet normal 0 -1 0
    outer loop
      vertex 5.35 -9.2 9
      vertex 5.4 -9.2 11.5
      vertex 5.34088 -9.2 9.16235
    endloop
  endfacet
  facet normal 0 -1 0
    outer loop
      vertex 3.73765 -9.2 7.55912
      vertex 5.4 -9.2 -11.5
      vertex 3.9 -9.2 7.55
    endloop
  endfacet
  facet normal 0 -1 0
    outer loop
      vertex 3.9 -9.2 7.55
      vertex 5.4 -9.2 -11.5
      vertex 4.06235 -9.2 7.55912
    endloop
  endfacet
  facet normal 0 -1 0
    outer loop
      vertex 4.06235 -9.2 7.55912
      vertex 5.4 -9.2 -11.5
      vertex 4.22266 -9.2 7.58635
    endloop
  endfacet
  facet normal 0 -1 0
    outer loop
      vertex 4.22266 -9.2 7.58635
      vertex 5.4 -9.2 -11.5
      vertex 4.3789 -9.2 7.63137
    endloop
  endfacet
  facet normal 0 -1 0
    outer loop
      vertex 4.3789 -9.2 7.63137
      vertex 5.4 -9.2 -11.5
      vertex 4.52913 -9.2 7.69359
    endloop
  endfacet
  facet normal 0 -1 0
    outer loop
      vertex 4.52913 -9.2 7.69359
      vertex 5.4 -9.2 -11.5
      vertex 4.67145 -9.2 7.77225
    endloop
  endfacet
  facet normal 0 -1 0
    outer loop
      vertex 4.67145 -9.2 7.77225
      vertex 5.4 -9.2 -11.5
      vertex 4.80406 -9.2 7.86634
    endloop
  endfacet
  facet normal 0 -1 0
    outer loop
      vertex 4.80406 -9.2 7.86634
      vertex 5.4 -9.2 -11.5
      vertex 4.9253 -9.2 7.97469
    endloop
  endfacet
  facet normal 0 -1 0
    outer loop
      vertex 4.9253 -9.2 7.97469
      vertex 5.4 -9.2 -11.5
      vertex 5.03366 -9.2 8.09594
    endloop
  endfacet
  facet normal 0 -1 0
    outer loop
      vertex 5.03366 -9.2 8.09594
      vertex 5.4 -9.2 -11.5
      vertex 5.12775 -9.2 8.22855
    endloop
  endfacet
  facet normal 0 -1 0
    outer loop
      vertex 5.12775 -9.2 8.22855
      vertex 5.4 -9.2 -11.5
      vertex 5.2064 -9.2 8.37087
    endloop
  endfacet
  facet normal 0 -1 0
    outer loop
      vertex 5.2064 -9.2 8.37087
      vertex 5.4 -9.2 -11.5
      vertex 5.26863 -9.2 8.5211
    endloop
  endfacet
  facet normal 0 -1 0
    outer loop
      vertex 5.35 -9.2 9
      vertex 5.4 -9.2 -11.5
      vertex 5.4 -9.2 11.5
    endloop
  endfacet
  facet normal 0 -1 0
    outer loop
      vertex 5.34088 -9.2 8.83765
      vertex 5.4 -9.2 -11.5
      vertex 5.35 -9.2 9
    endloop
  endfacet
  facet normal 0 -1 0
    outer loop
      vertex 5.31365 -9.2 8.67734
      vertex 5.4 -9.2 -11.5
      vertex 5.34088 -9.2 8.83765
    endloop
  endfacet
  facet normal 0 -1 0
    outer loop
      vertex 5.26863 -9.2 8.5211
      vertex 5.4 -9.2 -11.5
      vertex 5.31365 -9.2 8.67734
    endloop
  endfacet
  facet normal 1 0 0
    outer loop
      vertex 1.2 8 6.75
      vertex 1.2 5.75 3.25
      vertex 1.2 8 -6.75
    endloop
  endfacet
  facet normal 1 0 0
    outer loop
      vertex 1.2 8 6.75
      vertex 1.2 -5.75 3.25
      vertex 1.2 5.75 3.25
    endloop
  endfacet
  facet normal 1 0 0
    outer loop
      vertex 1.2 -5.75 3.25
      vertex 1.2 -8 6.75
      vertex 1.2 -5.75 -3.25
    endloop
  endfacet
  facet normal 1 -0 0
    outer loop
      vertex 1.2 -8 6.75
      vertex 1.2 -5.75 3.25
      vertex 1.2 8 6.75
    endloop
  endfacet
  facet normal 1 -0 0
    outer loop
      vertex 1.2 5.75 -3.25
      vertex 1.2 8 -6.75
      vertex 1.2 5.75 3.25
    endloop
  endfacet
  facet normal 1 -0 0
    outer loop
      vertex 1.2 -5.75 -3.25
      vertex 1.2 8 -6.75
      vertex 1.2 5.75 -3.25
    endloop
  endfacet
  facet normal 1 0 0
    outer loop
      vertex 1.2 -5.75 -3.25
      vertex 1.2 -8 -6.75
      vertex 1.2 8 -6.75
    endloop
  endfacet
  facet normal 1 0 0
    outer loop
      vertex 1.2 -8 -6.75
      vertex 1.2 -5.75 -3.25
      vertex 1.2 -8 6.75
    endloop
  endfacet
  facet normal 0 0 -1
    outer loop
      vertex 1.2 -8 6.75
      vertex 5.4 8 6.75
      vertex 5.4 -8 6.75
    endloop
  endfacet
  facet normal -0 0 -1
    outer loop
      vertex 5.4 8 6.75
      vertex 1.2 -8 6.75
      vertex 1.2 8 6.75
    endloop
  endfacet
  facet normal 0 -1 0
    outer loop
      vertex 1.2 8 6.75
      vertex 3.2 8 -6.72
      vertex 5.4 8 6.75
    endloop
  endfacet
  facet normal 0 -1 0
    outer loop
      vertex 1.2 8 -6.75
      vertex 3.2 8 -6.72
      vertex 1.2 8 6.75
    endloop
  endfacet
  facet normal 0 -1 -0
    outer loop
      vertex 3.2 8 -6.72
      vertex 1.2 8 -6.75
      vertex 3.2 8 -6.75
    endloop
  endfacet
  facet normal 0 -1 -0
    outer loop
      vertex 5.4 8 6.75
      vertex 3.2 8 -6.72
      vertex 5.4 8 -6.72
    endloop
  endfacet
  facet normal 0 0 1
    outer loop
      vertex 3.2 8 -6.75
      vertex 1.2 8 -6.75
      vertex 3.2 3.6 -6.75
    endloop
  endfacet
  facet normal -0 0 1
    outer loop
      vertex 3.2 3.6 -6.75
      vertex 5.4 -8 -6.75
      vertex 5.4 3.6 -6.75
    endloop
  endfacet
  facet normal 0 0 1
    outer loop
      vertex 1.2 -8 -6.75
      vertex 3.2 3.6 -6.75
      vertex 1.2 8 -6.75
    endloop
  endfacet
  facet normal 0 0 1
    outer loop
      vertex 3.2 3.6 -6.75
      vertex 1.2 -8 -6.75
      vertex 5.4 -8 -6.75
    endloop
  endfacet
  facet normal 0 1 -0
    outer loop
      vertex 5.4 -8 -6.75
      vertex 1.2 -8 6.75
      vertex 5.4 -8 6.75
    endloop
  endfacet
  facet normal 0 1 0
    outer loop
      vertex 1.2 -8 6.75
      vertex 5.4 -8 -6.75
      vertex 1.2 -8 -6.75
    endloop
  endfacet
  facet normal 0 0 -1
    outer loop
      vertex 0 -5.75 3.25
      vertex 1.2 5.75 3.25
      vertex 1.2 -5.75 3.25
    endloop
  endfacet
  facet normal -0 0 -1
    outer loop
      vertex 1.2 5.75 3.25
      vertex 0 -5.75 3.25
      vertex 0 5.75 3.25
    endloop
  endfacet
  facet normal -0 0 1
    outer loop
      vertex 0 5.75 -3.25
      vertex 1.2 -5.75 -3.25
      vertex 1.2 5.75 -3.25
    endloop
  endfacet
  facet normal 0 0 1
    outer loop
      vertex 1.2 -5.75 -3.25
      vertex 0 5.75 -3.25
      vertex 0 -5.75 -3.25
    endloop
  endfacet
  facet normal 0 1 -0
    outer loop
      vertex 1.2 -5.75 -3.25
      vertex 0 -5.75 3.25
      vertex 1.2 -5.75 3.25
    endloop
  endfacet
  facet normal 0 1 0
    outer loop
      vertex 0 -5.75 3.25
      vertex 1.2 -5.75 -3.25
      vertex 0 -5.75 -3.25
    endloop
  endfacet
  facet normal 0 -1 0
    outer loop
      vertex 0 5.75 -3.25
      vertex 1.2 5.75 3.25
      vertex 0 5.75 3.25
    endloop
  endfacet
  facet normal 0 -1 -0
    outer loop
      vertex 1.2 5.75 3.25
      vertex 0 5.75 -3.25
      vertex 1.2 5.75 -3.25
    endloop
  endfacet
  facet normal 1 0 0
    outer loop
      vertex 3.2 8 -6.75
      vertex 3.2 9.2 -6.72
      vertex 3.2 8 -6.72
    endloop
  endfacet
  facet normal 1 0 0
    outer loop
      vertex 3.2 9.2 -6.72
      vertex 3.2 8 -6.75
      vertex 3.2 9.2 -11.5
    endloop
  endfacet
  facet normal 1 0 0
    outer loop
      vertex 3.2 3.6 -11.5
      vertex 3.2 8 -6.75
      vertex 3.2 3.6 -6.75
    endloop
  endfacet
  facet normal 1 0 0
    outer loop
      vertex 3.2 8 -6.75
      vertex 3.2 3.6 -11.5
      vertex 3.2 9.2 -11.5
    endloop
  endfacet
  facet normal 0 0 -1
    outer loop
      vertex 3.2 8 -6.72
      vertex 5.4 9.2 -6.72
      vertex 5.4 8 -6.72
    endloop
  endfacet
  facet normal -0 0 -1
    outer loop
      vertex 5.4 9.2 -6.72
      vertex 3.2 8 -6.72
      vertex 3.2 9.2 -6.72
    endloop
  endfacet
  facet normal 0 1 -0
    outer loop
      vertex 5.4 3.6 -11.5
      vertex 3.2 3.6 -6.75
      vertex 5.4 3.6 -6.75
    endloop
  endfacet
  facet normal 0 1 0
    outer loop
      vertex 3.2 3.6 -6.75
      vertex 5.4 3.6 -11.5
      vertex 3.2 3.6 -11.5
    endloop
  endfacet
  facet normal -0.998426 0 -0.0560865
    outer loop
      vertex 5.35 -9.2 9
      vertex 5.34088 9.2 9.16235
      vertex 5.35 9.2 9
    endloop
  endfacet
  facet normal -0.998426 -0 -0.0560865
    outer loop
      vertex 5.34088 9.2 9.16235
      vertex 5.35 -9.2 9
      vertex 5.34088 -9.2 9.16235
    endloop
  endfacet
  facet normal -0.985877 0 -0.16747
    outer loop
      vertex 5.34088 -9.2 9.16235
      vertex 5.31365 9.2 9.32265
      vertex 5.34088 9.2 9.16235
    endloop
  endfacet
  facet normal -0.985877 -0 -0.16747
    outer loop
      vertex 5.31365 9.2 9.32265
      vertex 5.34088 -9.2 9.16235
      vertex 5.31365 -9.2 9.32265
    endloop
  endfacet
  facet normal 0.0559639 0 -0.998433
    outer loop
      vertex 3.73765 -9.2 10.4409
      vertex 3.9 9.2 10.45
      vertex 3.9 -9.2 10.45
    endloop
  endfacet
  facet normal 0.0559639 0 -0.998433
    outer loop
      vertex 3.9 9.2 10.45
      vertex 3.73765 -9.2 10.4409
      vertex 3.73765 9.2 10.4409
    endloop
  endfacet
  facet normal 0.745632 0 -0.666358
    outer loop
      vertex 2.87469 -9.2 10.0253
      vertex 2.76634 9.2 9.90406
      vertex 2.87469 9.2 10.0253
    endloop
  endfacet
  facet normal 0.745632 0 -0.666358
    outer loop
      vertex 2.76634 9.2 9.90406
      vertex 2.87469 -9.2 10.0253
      vertex 2.76634 -9.2 9.90406
    endloop
  endfacet
  facet normal -0.16746 0 0.985879
    outer loop
      vertex 4.06235 9.2 7.55912
      vertex 4.22266 -9.2 7.58635
      vertex 4.22266 9.2 7.58635
    endloop
  endfacet
  facet normal -0.16746 0 0.985879
    outer loop
      vertex 4.22266 -9.2 7.58635
      vertex 4.06235 9.2 7.55912
      vertex 4.06235 -9.2 7.55912
    endloop
  endfacet
  facet normal -0.923874 0 -0.382698
    outer loop
      vertex 5.26863 -9.2 9.4789
      vertex 5.2064 9.2 9.62913
      vertex 5.26863 9.2 9.4789
    endloop
  endfacet
  facet normal -0.923874 -0 -0.382698
    outer loop
      vertex 5.2064 9.2 9.62913
      vertex 5.26863 -9.2 9.4789
      vertex 5.2064 -9.2 9.62913
    endloop
  endfacet
  facet normal -0.38254 0 -0.923939
    outer loop
      vertex 4.3789 -9.2 10.3686
      vertex 4.52913 9.2 10.3064
      vertex 4.52913 -9.2 10.3064
    endloop
  endfacet
  facet normal -0.38254 0 -0.923939
    outer loop
      vertex 4.52913 9.2 10.3064
      vertex 4.3789 -9.2 10.3686
      vertex 4.3789 9.2 10.3686
    endloop
  endfacet
  facet normal -0.578296 0 -0.815827
    outer loop
      vertex 4.67145 -9.2 10.2277
      vertex 4.80406 9.2 10.1337
      vertex 4.80406 -9.2 10.1337
    endloop
  endfacet
  facet normal -0.578296 0 -0.815827
    outer loop
      vertex 4.80406 9.2 10.1337
      vertex 4.67145 -9.2 10.2277
      vertex 4.67145 9.2 10.2277
    endloop
  endfacet
  facet normal 0.923895 0 -0.382645
    outer loop
      vertex 2.59359 -9.2 9.62913
      vertex 2.53137 9.2 9.4789
      vertex 2.59359 9.2 9.62913
    endloop
  endfacet
  facet normal 0.923895 0 -0.382645
    outer loop
      vertex 2.53137 9.2 9.4789
      vertex 2.59359 -9.2 9.62913
      vertex 2.53137 -9.2 9.4789
    endloop
  endfacet
  facet normal 0.815566 0 -0.578664
    outer loop
      vertex 2.76634 -9.2 9.90406
      vertex 2.67225 9.2 9.77145
      vertex 2.76634 9.2 9.90406
    endloop
  endfacet
  facet normal 0.815566 0 -0.578664
    outer loop
      vertex 2.67225 9.2 9.77145
      vertex 2.76634 -9.2 9.90406
      vertex 2.67225 -9.2 9.77145
    endloop
  endfacet
  facet normal 0.276751 0 -0.960942
    outer loop
      vertex 3.42109 -9.2 10.3686
      vertex 3.57734 9.2 10.4136
      vertex 3.57734 -9.2 10.4136
    endloop
  endfacet
  facet normal 0.276751 0 -0.960942
    outer loop
      vertex 3.57734 9.2 10.4136
      vertex 3.42109 -9.2 10.3686
      vertex 3.42109 9.2 10.3686
    endloop
  endfacet
  facet normal -0.985879 0 0.16746
    outer loop
      vertex 5.31365 -9.2 8.67734
      vertex 5.34088 9.2 8.83765
      vertex 5.31365 9.2 8.67734
    endloop
  endfacet
  facet normal -0.985879 0 0.16746
    outer loop
      vertex 5.34088 9.2 8.83765
      vertex 5.31365 -9.2 8.67734
      vertex 5.34088 -9.2 8.83765
    endloop
  endfacet
  facet normal 0.578664 0 0.815566
    outer loop
      vertex 2.99594 9.2 7.86634
      vertex 3.12855 -9.2 7.77225
      vertex 3.12855 9.2 7.77225
    endloop
  endfacet
  facet normal 0.578664 0 0.815566
    outer loop
      vertex 3.12855 -9.2 7.77225
      vertex 2.99594 9.2 7.86634
      vertex 2.99594 -9.2 7.86634
    endloop
  endfacet
  facet normal -0.815566 0 -0.578664
    outer loop
      vertex 5.12775 -9.2 9.77145
      vertex 5.03366 9.2 9.90406
      vertex 5.12775 9.2 9.77145
    endloop
  endfacet
  facet normal -0.815566 -0 -0.578664
    outer loop
      vertex 5.03366 9.2 9.90406
      vertex 5.12775 -9.2 9.77145
      vertex 5.03366 -9.2 9.90406
    endloop
  endfacet
  facet normal -0.875243 0 -0.483684
    outer loop
      vertex 5.2064 -9.2 9.62913
      vertex 5.12775 9.2 9.77145
      vertex 5.2064 9.2 9.62913
    endloop
  endfacet
  facet normal -0.875243 -0 -0.483684
    outer loop
      vertex 5.12775 9.2 9.77145
      vertex 5.2064 -9.2 9.62913
      vertex 5.12775 -9.2 9.77145
    endloop
  endfacet
  facet normal -0.167878 0 -0.985808
    outer loop
      vertex 4.06235 -9.2 10.4409
      vertex 4.22266 9.2 10.4136
      vertex 4.22266 -9.2 10.4136
    endloop
  endfacet
  facet normal -0.167878 0 -0.985808
    outer loop
      vertex 4.22266 9.2 10.4136
      vertex 4.06235 -9.2 10.4409
      vertex 4.06235 9.2 10.4409
    endloop
  endfacet
  facet normal -0.276768 0 -0.960937
    outer loop
      vertex 4.22266 -9.2 10.4136
      vertex 4.3789 9.2 10.3686
      vertex 4.3789 -9.2 10.3686
    endloop
  endfacet
  facet normal -0.276768 0 -0.960937
    outer loop
      vertex 4.3789 9.2 10.3686
      vertex 4.22266 -9.2 10.4136
      vertex 4.22266 9.2 10.4136
    endloop
  endfacet
  facet normal 0.985877 0 -0.16747
    outer loop
      vertex 2.48635 -9.2 9.32265
      vertex 2.45912 9.2 9.16235
      vertex 2.48635 9.2 9.32265
    endloop
  endfacet
  facet normal 0.985877 0 -0.16747
    outer loop
      vertex 2.45912 9.2 9.16235
      vertex 2.48635 -9.2 9.32265
      vertex 2.45912 -9.2 9.16235
    endloop
  endfacet
  facet normal 0.875217 0 -0.483731
    outer loop
      vertex 2.67225 -9.2 9.77145
      vertex 2.59359 9.2 9.62913
      vertex 2.67225 9.2 9.77145
    endloop
  endfacet
  facet normal 0.875217 0 -0.483731
    outer loop
      vertex 2.59359 9.2 9.62913
      vertex 2.67225 -9.2 9.77145
      vertex 2.59359 -9.2 9.62913
    endloop
  endfacet
  facet normal 0.960909 0 -0.276865
    outer loop
      vertex 2.53137 -9.2 9.4789
      vertex 2.48635 9.2 9.32265
      vertex 2.53137 9.2 9.4789
    endloop
  endfacet
  facet normal 0.960909 0 -0.276865
    outer loop
      vertex 2.48635 9.2 9.32265
      vertex 2.53137 -9.2 9.4789
      vertex 2.48635 -9.2 9.32265
    endloop
  endfacet
  facet normal 0.578296 0 -0.815827
    outer loop
      vertex 2.99594 -9.2 10.1337
      vertex 3.12855 9.2 10.2277
      vertex 3.12855 -9.2 10.2277
    endloop
  endfacet
  facet normal 0.578296 0 -0.815827
    outer loop
      vertex 3.12855 9.2 10.2277
      vertex 2.99594 -9.2 10.1337
      vertex 2.99594 9.2 10.1337
    endloop
  endfacet
  facet normal 0.666498 0 -0.745507
    outer loop
      vertex 2.87469 -9.2 10.0253
      vertex 2.99594 9.2 10.1337
      vertex 2.99594 -9.2 10.1337
    endloop
  endfacet
  facet normal 0.666498 0 -0.745507
    outer loop
      vertex 2.99594 9.2 10.1337
      vertex 2.87469 -9.2 10.0253
      vertex 2.87469 9.2 10.0253
    endloop
  endfacet
  facet normal 0.167878 0 -0.985808
    outer loop
      vertex 3.57734 -9.2 10.4136
      vertex 3.73765 9.2 10.4409
      vertex 3.73765 -9.2 10.4409
    endloop
  endfacet
  facet normal 0.167878 0 -0.985808
    outer loop
      vertex 3.73765 9.2 10.4409
      vertex 3.57734 -9.2 10.4136
      vertex 3.57734 9.2 10.4136
    endloop
  endfacet
  facet normal -0.998426 0 0.0560865
    outer loop
      vertex 5.34088 -9.2 8.83765
      vertex 5.35 9.2 9
      vertex 5.34088 9.2 8.83765
    endloop
  endfacet
  facet normal -0.998426 0 0.0560865
    outer loop
      vertex 5.35 9.2 9
      vertex 5.34088 -9.2 8.83765
      vertex 5.35 -9.2 9
    endloop
  endfacet
  facet normal -0.745629 0 0.666362
    outer loop
      vertex 4.9253 -9.2 7.97469
      vertex 5.03366 9.2 8.09594
      vertex 4.9253 9.2 7.97469
    endloop
  endfacet
  facet normal -0.745629 0 0.666362
    outer loop
      vertex 5.03366 9.2 8.09594
      vertex 4.9253 -9.2 7.97469
      vertex 5.03366 -9.2 8.09594
    endloop
  endfacet
  facet normal -0.578664 0 0.815566
    outer loop
      vertex 4.67145 9.2 7.77225
      vertex 4.80406 -9.2 7.86634
      vertex 4.80406 9.2 7.86634
    endloop
  endfacet
  facet normal -0.578664 0 0.815566
    outer loop
      vertex 4.80406 -9.2 7.86634
      vertex 4.67145 9.2 7.77225
      vertex 4.67145 -9.2 7.77225
    endloop
  endfacet
  facet normal -0.815566 0 0.578664
    outer loop
      vertex 5.03366 -9.2 8.09594
      vertex 5.12775 9.2 8.22855
      vertex 5.03366 9.2 8.09594
    endloop
  endfacet
  facet normal -0.815566 0 0.578664
    outer loop
      vertex 5.12775 9.2 8.22855
      vertex 5.03366 -9.2 8.09594
      vertex 5.12775 -9.2 8.22855
    endloop
  endfacet
  facet normal 0.276865 0 0.960909
    outer loop
      vertex 3.42109 9.2 7.63137
      vertex 3.57734 -9.2 7.58635
      vertex 3.57734 9.2 7.58635
    endloop
  endfacet
  facet normal 0.276865 0 0.960909
    outer loop
      vertex 3.57734 -9.2 7.58635
      vertex 3.42109 9.2 7.63137
      vertex 3.42109 -9.2 7.63137
    endloop
  endfacet
  facet normal 0.875217 -0 0.483731
    outer loop
      vertex 2.59359 -9.2 8.37087
      vertex 2.67225 9.2 8.22855
      vertex 2.59359 9.2 8.37087
    endloop
  endfacet
  facet normal 0.875217 0 0.483731
    outer loop
      vertex 2.67225 9.2 8.22855
      vertex 2.59359 -9.2 8.37087
      vertex 2.67225 -9.2 8.22855
    endloop
  endfacet
  facet normal 0.923895 -0 0.382645
    outer loop
      vertex 2.53137 -9.2 8.5211
      vertex 2.59359 9.2 8.37087
      vertex 2.53137 9.2 8.5211
    endloop
  endfacet
  facet normal 0.923895 0 0.382645
    outer loop
      vertex 2.59359 9.2 8.37087
      vertex 2.53137 -9.2 8.5211
      vertex 2.59359 -9.2 8.37087
    endloop
  endfacet
  facet normal 0.985879 -0 0.16746
    outer loop
      vertex 2.45912 -9.2 8.83765
      vertex 2.48635 9.2 8.67734
      vertex 2.45912 9.2 8.83765
    endloop
  endfacet
  facet normal 0.985879 0 0.16746
    outer loop
      vertex 2.48635 9.2 8.67734
      vertex 2.45912 -9.2 8.83765
      vertex 2.48635 -9.2 8.67734
    endloop
  endfacet
  facet normal -0.960909 0 -0.276865
    outer loop
      vertex 5.31365 -9.2 9.32265
      vertex 5.26863 9.2 9.4789
      vertex 5.31365 9.2 9.32265
    endloop
  endfacet
  facet normal -0.960909 -0 -0.276865
    outer loop
      vertex 5.26863 9.2 9.4789
      vertex 5.31365 -9.2 9.32265
      vertex 5.26863 -9.2 9.4789
    endloop
  endfacet
  facet normal -0.745601 0 -0.666392
    outer loop
      vertex 5.03366 -9.2 9.90406
      vertex 4.9253 9.2 10.0253
      vertex 5.03366 9.2 9.90406
    endloop
  endfacet
  facet normal -0.745601 -0 -0.666392
    outer loop
      vertex 4.9253 9.2 10.0253
      vertex 5.03366 -9.2 9.90406
      vertex 4.9253 -9.2 10.0253
    endloop
  endfacet
  facet normal -0.666529 0 -0.745479
    outer loop
      vertex 4.80406 -9.2 10.1337
      vertex 4.9253 9.2 10.0253
      vertex 4.9253 -9.2 10.0253
    endloop
  endfacet
  facet normal -0.666529 0 -0.745479
    outer loop
      vertex 4.9253 9.2 10.0253
      vertex 4.80406 -9.2 10.1337
      vertex 4.80406 9.2 10.1337
    endloop
  endfacet
  facet normal -0.0559639 0 -0.998433
    outer loop
      vertex 3.9 -9.2 10.45
      vertex 4.06235 9.2 10.4409
      vertex 4.06235 -9.2 10.4409
    endloop
  endfacet
  facet normal -0.0559639 0 -0.998433
    outer loop
      vertex 4.06235 9.2 10.4409
      vertex 3.9 -9.2 10.45
      vertex 3.9 9.2 10.45
    endloop
  endfacet
  facet normal -0.483919 0 -0.875113
    outer loop
      vertex 4.52913 -9.2 10.3064
      vertex 4.67145 9.2 10.2277
      vertex 4.67145 -9.2 10.2277
    endloop
  endfacet
  facet normal -0.483919 0 -0.875113
    outer loop
      vertex 4.67145 9.2 10.2277
      vertex 4.52913 -9.2 10.3064
      vertex 4.52913 9.2 10.3064
    endloop
  endfacet
  facet normal 0.998426 0 -0.0560865
    outer loop
      vertex 2.45912 -9.2 9.16235
      vertex 2.45 9.2 9
      vertex 2.45912 9.2 9.16235
    endloop
  endfacet
  facet normal 0.998426 0 -0.0560865
    outer loop
      vertex 2.45 9.2 9
      vertex 2.45912 -9.2 9.16235
      vertex 2.45 -9.2 9
    endloop
  endfacet
  facet normal 0.998426 -0 0.0560865
    outer loop
      vertex 2.45 -9.2 9
      vertex 2.45912 9.2 8.83765
      vertex 2.45 9.2 9
    endloop
  endfacet
  facet normal 0.998426 0 0.0560865
    outer loop
      vertex 2.45912 9.2 8.83765
      vertex 2.45 -9.2 9
      vertex 2.45912 -9.2 8.83765
    endloop
  endfacet
  facet normal 0.382562 0 -0.92393
    outer loop
      vertex 3.27087 -9.2 10.3064
      vertex 3.42109 9.2 10.3686
      vertex 3.42109 -9.2 10.3686
    endloop
  endfacet
  facet normal 0.382562 0 -0.92393
    outer loop
      vertex 3.42109 9.2 10.3686
      vertex 3.27087 -9.2 10.3064
      vertex 3.27087 9.2 10.3064
    endloop
  endfacet
  facet normal 0.483919 0 -0.875113
    outer loop
      vertex 3.12855 -9.2 10.2277
      vertex 3.27087 9.2 10.3064
      vertex 3.27087 -9.2 10.3064
    endloop
  endfacet
  facet normal 0.483919 0 -0.875113
    outer loop
      vertex 3.27087 9.2 10.3064
      vertex 3.12855 -9.2 10.2277
      vertex 3.12855 9.2 10.2277
    endloop
  endfacet
  facet normal -0.276881 0 0.960904
    outer loop
      vertex 4.22266 9.2 7.58635
      vertex 4.3789 -9.2 7.63137
      vertex 4.3789 9.2 7.63137
    endloop
  endfacet
  facet normal -0.276881 0 0.960904
    outer loop
      vertex 4.3789 -9.2 7.63137
      vertex 4.22266 9.2 7.58635
      vertex 4.22266 -9.2 7.58635
    endloop
  endfacet
  facet normal -0.382645 0 0.923895
    outer loop
      vertex 4.3789 9.2 7.63137
      vertex 4.52913 -9.2 7.69359
      vertex 4.52913 9.2 7.69359
    endloop
  endfacet
  facet normal -0.382645 0 0.923895
    outer loop
      vertex 4.52913 -9.2 7.69359
      vertex 4.3789 9.2 7.63137
      vertex 4.3789 -9.2 7.63137
    endloop
  endfacet
  facet normal -0.483731 0 0.875217
    outer loop
      vertex 4.52913 9.2 7.69359
      vertex 4.67145 -9.2 7.77225
      vertex 4.67145 9.2 7.77225
    endloop
  endfacet
  facet normal -0.483731 0 0.875217
    outer loop
      vertex 4.67145 -9.2 7.77225
      vertex 4.52913 9.2 7.69359
      vertex 4.52913 -9.2 7.69359
    endloop
  endfacet
  facet normal -0.666358 0 0.745632
    outer loop
      vertex 4.80406 9.2 7.86634
      vertex 4.9253 -9.2 7.97469
      vertex 4.9253 9.2 7.97469
    endloop
  endfacet
  facet normal -0.666358 0 0.745632
    outer loop
      vertex 4.9253 -9.2 7.97469
      vertex 4.80406 9.2 7.86634
      vertex 4.80406 -9.2 7.86634
    endloop
  endfacet
  facet normal 0.483731 0 0.875217
    outer loop
      vertex 3.12855 9.2 7.77225
      vertex 3.27087 -9.2 7.69359
      vertex 3.27087 9.2 7.69359
    endloop
  endfacet
  facet normal 0.483731 0 0.875217
    outer loop
      vertex 3.27087 -9.2 7.69359
      vertex 3.12855 9.2 7.77225
      vertex 3.12855 -9.2 7.77225
    endloop
  endfacet
  facet normal 0.382667 0 0.923886
    outer loop
      vertex 3.27087 9.2 7.69359
      vertex 3.42109 -9.2 7.63137
      vertex 3.42109 9.2 7.63137
    endloop
  endfacet
  facet normal 0.382667 0 0.923886
    outer loop
      vertex 3.42109 -9.2 7.63137
      vertex 3.27087 9.2 7.69359
      vertex 3.27087 -9.2 7.69359
    endloop
  endfacet
  facet normal 0.16746 0 0.985879
    outer loop
      vertex 3.57734 9.2 7.58635
      vertex 3.73765 -9.2 7.55912
      vertex 3.73765 9.2 7.55912
    endloop
  endfacet
  facet normal 0.16746 0 0.985879
    outer loop
      vertex 3.73765 -9.2 7.55912
      vertex 3.57734 9.2 7.58635
      vertex 3.57734 -9.2 7.58635
    endloop
  endfacet
  facet normal 0.0560865 0 0.998426
    outer loop
      vertex 3.73765 9.2 7.55912
      vertex 3.9 -9.2 7.55
      vertex 3.9 9.2 7.55
    endloop
  endfacet
  facet normal 0.0560865 0 0.998426
    outer loop
      vertex 3.9 -9.2 7.55
      vertex 3.73765 9.2 7.55912
      vertex 3.73765 -9.2 7.55912
    endloop
  endfacet
  facet normal -0.0560865 0 0.998426
    outer loop
      vertex 3.9 9.2 7.55
      vertex 4.06235 -9.2 7.55912
      vertex 4.06235 9.2 7.55912
    endloop
  endfacet
  facet normal -0.0560865 0 0.998426
    outer loop
      vertex 4.06235 -9.2 7.55912
      vertex 3.9 9.2 7.55
      vertex 3.9 -9.2 7.55
    endloop
  endfacet
  facet normal 0.815566 -0 0.578664
    outer loop
      vertex 2.67225 -9.2 8.22855
      vertex 2.76634 9.2 8.09594
      vertex 2.67225 9.2 8.22855
    endloop
  endfacet
  facet normal 0.815566 0 0.578664
    outer loop
      vertex 2.76634 9.2 8.09594
      vertex 2.67225 -9.2 8.22855
      vertex 2.76634 -9.2 8.09594
    endloop
  endfacet
  facet normal 0.745659 -0 0.666327
    outer loop
      vertex 2.76634 -9.2 8.09594
      vertex 2.87469 9.2 7.97469
      vertex 2.76634 9.2 8.09594
    endloop
  endfacet
  facet normal 0.745659 0 0.666327
    outer loop
      vertex 2.87469 9.2 7.97469
      vertex 2.76634 -9.2 8.09594
      vertex 2.87469 -9.2 7.97469
    endloop
  endfacet
  facet normal 0.666327 0 0.745659
    outer loop
      vertex 2.87469 9.2 7.97469
      vertex 2.99594 -9.2 7.86634
      vertex 2.99594 9.2 7.86634
    endloop
  endfacet
  facet normal 0.666327 0 0.745659
    outer loop
      vertex 2.99594 -9.2 7.86634
      vertex 2.87469 9.2 7.97469
      vertex 2.87469 -9.2 7.97469
    endloop
  endfacet
  facet normal 0.960904 -0 0.276881
    outer loop
      vertex 2.48635 -9.2 8.67734
      vertex 2.53137 9.2 8.5211
      vertex 2.48635 9.2 8.67734
    endloop
  endfacet
  facet normal 0.960904 0 0.276881
    outer loop
      vertex 2.53137 9.2 8.5211
      vertex 2.48635 -9.2 8.67734
      vertex 2.53137 -9.2 8.5211
    endloop
  endfacet
  facet normal -0.923874 0 0.382698
    outer loop
      vertex 5.2064 -9.2 8.37087
      vertex 5.26863 9.2 8.5211
      vertex 5.2064 9.2 8.37087
    endloop
  endfacet
  facet normal -0.923874 0 0.382698
    outer loop
      vertex 5.26863 9.2 8.5211
      vertex 5.2064 -9.2 8.37087
      vertex 5.26863 -9.2 8.5211
    endloop
  endfacet
  facet normal -0.875243 0 0.483684
    outer loop
      vertex 5.12775 -9.2 8.22855
      vertex 5.2064 9.2 8.37087
      vertex 5.12775 9.2 8.22855
    endloop
  endfacet
  facet normal -0.875243 0 0.483684
    outer loop
      vertex 5.2064 9.2 8.37087
      vertex 5.12775 -9.2 8.22855
      vertex 5.2064 -9.2 8.37087
    endloop
  endfacet
  facet normal -0.960904 0 0.276881
    outer loop
      vertex 5.26863 -9.2 8.5211
      vertex 5.31365 9.2 8.67734
      vertex 5.26863 9.2 8.5211
    endloop
  endfacet
  facet normal -0.960904 0 0.276881
    outer loop
      vertex 5.31365 9.2 8.67734
      vertex 5.26863 -9.2 8.5211
      vertex 5.31365 -9.2 8.67734
    endloop
  endfacet
endsolid OpenSCAD_Model
