solid OpenSCAD_Model
  facet normal -1 0 0
    outer loop
      vertex -9 -13 0
      vertex -9 13 5
      vertex -9 13 0
    endloop
  endfacet
  facet normal -1 -0 0
    outer loop
      vertex -9 13 5
      vertex -9 -13 0
      vertex -9 -13 5
    endloop
  endfacet
  facet normal -0 0 1
    outer loop
      vertex -7.3 4.25 5
      vertex -5.3 -4.25 5
      vertex -5.3 4.25 5
    endloop
  endfacet
  facet normal 0 0 1
    outer loop
      vertex -5.3 -4.25 5
      vertex -7.3 4.25 5
      vertex -7.3 -4.25 5
    endloop
  endfacet
  facet normal -0 0 1
    outer loop
      vertex 5.3 4.25 5
      vertex 7.3 -4.25 5
      vertex 7.3 4.25 5
    endloop
  endfacet
  facet normal 0 0 1
    outer loop
      vertex 7.3 -4.25 5
      vertex 5.3 4.25 5
      vertex 5.3 -4.25 5
    endloop
  endfacet
  facet normal 0 0 1
    outer loop
      vertex 7.3 4.25 5
      vertex 9 13 5
      vertex 7.3 10.75 5
    endloop
  endfacet
  facet normal 0 0 1
    outer loop
      vertex 9 13 5
      vertex 5.3 10.75 5
      vertex 7.3 10.75 5
    endloop
  endfacet
  facet normal 0 0 1
    outer loop
      vertex 3.75 11 5
      vertex 5.3 4.25 5
      vertex 5.3 10.75 5
    endloop
  endfacet
  facet normal 0 0 1
    outer loop
      vertex 5.3 4.25 5
      vertex 3.75 11 5
      vertex 5.3 -4.25 5
    endloop
  endfacet
  facet normal 0 0 1
    outer loop
      vertex 3.75 -11 5
      vertex 5.3 -4.25 5
      vertex 3.75 11 5
    endloop
  endfacet
  facet normal 0 0 1
    outer loop
      vertex 9 13 5
      vertex 3.75 11 5
      vertex 5.3 10.75 5
    endloop
  endfacet
  facet normal 0 0 1
    outer loop
      vertex 9 13 5
      vertex -3.75 11 5
      vertex 3.75 11 5
    endloop
  endfacet
  facet normal 0 0 1
    outer loop
      vertex -5.3 4.25 5
      vertex -3.75 11 5
      vertex -5.3 10.75 5
    endloop
  endfacet
  facet normal 0 0 1
    outer loop
      vertex -9 13 5
      vertex -5.3 10.75 5
      vertex -3.75 11 5
    endloop
  endfacet
  facet normal -0 0 1
    outer loop
      vertex -9 13 5
      vertex -3.75 11 5
      vertex 9 13 5
    endloop
  endfacet
  facet normal 0 0 1
    outer loop
      vertex -9 13 5
      vertex -7.3 4.25 5
      vertex -7.3 10.75 5
    endloop
  endfacet
  facet normal 0 0 1
    outer loop
      vertex -7.3 4.25 5
      vertex -9 13 5
      vertex -7.3 -4.25 5
    endloop
  endfacet
  facet normal 0 0 1
    outer loop
      vertex -9 -13 5
      vertex -7.3 -4.25 5
      vertex -9 13 5
    endloop
  endfacet
  facet normal 0 0 1
    outer loop
      vertex -5.3 10.75 5
      vertex -9 13 5
      vertex -7.3 10.75 5
    endloop
  endfacet
  facet normal 0 0 1
    outer loop
      vertex 9 13 5
      vertex 7.3 4.25 5
      vertex 9 -13 5
    endloop
  endfacet
  facet normal -0 0 1
    outer loop
      vertex 7.3 -4.25 5
      vertex 9 -13 5
      vertex 7.3 4.25 5
    endloop
  endfacet
  facet normal -0 0 1
    outer loop
      vertex 7.3 -10.75 5
      vertex 9 -13 5
      vertex 7.3 -4.25 5
    endloop
  endfacet
  facet normal -0 0 1
    outer loop
      vertex 5.3 -10.75 5
      vertex 9 -13 5
      vertex 7.3 -10.75 5
    endloop
  endfacet
  facet normal 0 0 1
    outer loop
      vertex 5.3 -4.25 5
      vertex 3.75 -11 5
      vertex 5.3 -10.75 5
    endloop
  endfacet
  facet normal -0 0 1
    outer loop
      vertex 3.75 -11 5
      vertex 9 -13 5
      vertex 5.3 -10.75 5
    endloop
  endfacet
  facet normal -0 0 1
    outer loop
      vertex -3.75 -11 5
      vertex 9 -13 5
      vertex 3.75 -11 5
    endloop
  endfacet
  facet normal 0 0 1
    outer loop
      vertex -3.75 11 5
      vertex -5.3 4.25 5
      vertex -3.75 -11 5
    endloop
  endfacet
  facet normal -0 0 1
    outer loop
      vertex -5.3 -4.25 5
      vertex -3.75 -11 5
      vertex -5.3 4.25 5
    endloop
  endfacet
  facet normal -0 0 1
    outer loop
      vertex -5.3 -10.75 5
      vertex -3.75 -11 5
      vertex -5.3 -4.25 5
    endloop
  endfacet
  facet normal 0 0 1
    outer loop
      vertex -9 -13 5
      vertex -5.3 -10.75 5
      vertex -7.3 -10.75 5
    endloop
  endfacet
  facet normal 0 0 1
    outer loop
      vertex -5.3 -10.75 5
      vertex -9 -13 5
      vertex -3.75 -11 5
    endloop
  endfacet
  facet normal 0 0 1
    outer loop
      vertex -3.75 -11 5
      vertex -9 -13 5
      vertex 9 -13 5
    endloop
  endfacet
  facet normal 0 0 1
    outer loop
      vertex -7.3 -4.25 5
      vertex -9 -13 5
      vertex -7.3 -10.75 5
    endloop
  endfacet
  facet normal 1 -0 0
    outer loop
      vertex 9 -13 5
      vertex 9 13 0
      vertex 9 13 5
    endloop
  endfacet
  facet normal 1 0 0
    outer loop
      vertex 9 13 0
      vertex 9 -13 5
      vertex 9 -13 0
    endloop
  endfacet
  facet normal 0 1 0
    outer loop
      vertex 9 13 5
      vertex 0 13 2.37999
      vertex -9 13 5
    endloop
  endfacet
  facet normal 0 1 0
    outer loop
      vertex 6.44583 13 0
      vertex 9 13 5
      vertex 9 13 0
    endloop
  endfacet
  facet normal 0 1 0
    outer loop
      vertex 9 13 5
      vertex 6.44583 13 0
      vertex 0 13 2.37999
    endloop
  endfacet
  facet normal 0 1 -0
    outer loop
      vertex -6.44583 13 0
      vertex -9 13 5
      vertex 0 13 2.37999
    endloop
  endfacet
  facet normal 0 1 0
    outer loop
      vertex -9 13 5
      vertex -6.44583 13 0
      vertex -9 13 0
    endloop
  endfacet
  facet normal 0 0 -1
    outer loop
      vertex -6.44583 -13 0
      vertex -7.3 -10.75 0
      vertex -6.44583 -10.75 0
    endloop
  endfacet
  facet normal 0 0 -1
    outer loop
      vertex -9 -13 0
      vertex -7.3 -4.25 0
      vertex -7.3 -10.75 0
    endloop
  endfacet
  facet normal -0 0 -1
    outer loop
      vertex -7.3 -4.25 0
      vertex -9 -13 0
      vertex -7.3 4.25 0
    endloop
  endfacet
  facet normal 0 0 -1
    outer loop
      vertex -9 13 0
      vertex -7.3 4.25 0
      vertex -9 -13 0
    endloop
  endfacet
  facet normal 0 0 -1
    outer loop
      vertex -9 -13 0
      vertex -7.3 -10.75 0
      vertex -6.44583 -13 0
    endloop
  endfacet
  facet normal 0 0 -1
    outer loop
      vertex -7.3 -4.25 0
      vertex -6.44583 4.25 0
      vertex -6.44583 -4.25 0
    endloop
  endfacet
  facet normal -0 0 -1
    outer loop
      vertex -6.44583 4.25 0
      vertex -7.3 -4.25 0
      vertex -7.3 4.25 0
    endloop
  endfacet
  facet normal 0 0 -1
    outer loop
      vertex -7.3 10.75 0
      vertex -6.44583 13 0
      vertex -6.44583 10.75 0
    endloop
  endfacet
  facet normal 0 0 -1
    outer loop
      vertex -7.3 10.75 0
      vertex -9 13 0
      vertex -6.44583 13 0
    endloop
  endfacet
  facet normal 0 0 -1
    outer loop
      vertex -7.3 4.25 0
      vertex -9 13 0
      vertex -7.3 10.75 0
    endloop
  endfacet
  facet normal 0 0 -1
    outer loop
      vertex 6.44583 -4.25 0
      vertex 7.3 4.25 0
      vertex 7.3 -4.25 0
    endloop
  endfacet
  facet normal -0 0 -1
    outer loop
      vertex 7.3 4.25 0
      vertex 6.44583 -4.25 0
      vertex 6.44583 4.25 0
    endloop
  endfacet
  facet normal 0 0 -1
    outer loop
      vertex 7.3 -4.25 0
      vertex 9 -13 0
      vertex 7.3 -10.75 0
    endloop
  endfacet
  facet normal 0 0 -1
    outer loop
      vertex 6.44583 -13 0
      vertex 7.3 -10.75 0
      vertex 9 -13 0
    endloop
  endfacet
  facet normal -0 0 -1
    outer loop
      vertex 7.3 -10.75 0
      vertex 6.44583 -13 0
      vertex 6.44583 -10.75 0
    endloop
  endfacet
  facet normal 0 0 -1
    outer loop
      vertex 9 -13 0
      vertex 7.3 -4.25 0
      vertex 9 13 0
    endloop
  endfacet
  facet normal 0 0 -1
    outer loop
      vertex 7.3 4.25 0
      vertex 9 13 0
      vertex 7.3 -4.25 0
    endloop
  endfacet
  facet normal 0 0 -1
    outer loop
      vertex 7.3 10.75 0
      vertex 9 13 0
      vertex 7.3 4.25 0
    endloop
  endfacet
  facet normal 0 0 -1
    outer loop
      vertex 6.44583 13 0
      vertex 7.3 10.75 0
      vertex 6.44583 10.75 0
    endloop
  endfacet
  facet normal 0 0 -1
    outer loop
      vertex 7.3 10.75 0
      vertex 6.44583 13 0
      vertex 9 13 0
    endloop
  endfacet
  facet normal 0 -1 0
    outer loop
      vertex -9 -13 5
      vertex 0 -13 2.37999
      vertex 9 -13 5
    endloop
  endfacet
  facet normal 0 -1 0
    outer loop
      vertex -6.44583 -13 0
      vertex -9 -13 5
      vertex -9 -13 0
    endloop
  endfacet
  facet normal 0 -1 0
    outer loop
      vertex -9 -13 5
      vertex -6.44583 -13 0
      vertex 0 -13 2.37999
    endloop
  endfacet
  facet normal 0 -1 0
    outer loop
      vertex 6.44583 -13 0
      vertex 9 -13 5
      vertex 0 -13 2.37999
    endloop
  endfacet
  facet normal 0 -1 -0
    outer loop
      vertex 9 -13 5
      vertex 6.44583 -13 0
      vertex 9 -13 0
    endloop
  endfacet
  facet normal 0 1 -0
    outer loop
      vertex 3.75 11 5
      vertex -5.25 11 8
      vertex 5.25 11 8
    endloop
  endfacet
  facet normal 0 1 0
    outer loop
      vertex -5.25 11 8
      vertex 3.75 11 5
      vertex -3.75 11 5
    endloop
  endfacet
  facet normal 0.894427 0 -0.447214
    outer loop
      vertex 5.25 -11 8
      vertex 3.75 11 5
      vertex 5.25 11 8
    endloop
  endfacet
  facet normal 0.894427 0 -0.447214
    outer loop
      vertex 3.75 11 5
      vertex 5.25 -11 8
      vertex 3.75 -11 5
    endloop
  endfacet
  facet normal 0 -1 0
    outer loop
      vertex -3.75 -11 5
      vertex 5.25 -11 8
      vertex -5.25 -11 8
    endloop
  endfacet
  facet normal 0 -1 0
    outer loop
      vertex 5.25 -11 8
      vertex -3.75 -11 5
      vertex 3.75 -11 5
    endloop
  endfacet
  facet normal -0 0 1
    outer loop
      vertex -5.25 11 8
      vertex 5.25 -11 8
      vertex 5.25 11 8
    endloop
  endfacet
  facet normal 0 0 1
    outer loop
      vertex 5.25 -11 8
      vertex -5.25 11 8
      vertex -5.25 -11 8
    endloop
  endfacet
  facet normal -0.894427 0 -0.447214
    outer loop
      vertex -3.75 -11 5
      vertex -5.25 11 8
      vertex -3.75 11 5
    endloop
  endfacet
  facet normal -0.894427 -0 -0.447214
    outer loop
      vertex -5.25 11 8
      vertex -3.75 -11 5
      vertex -5.25 -11 8
    endloop
  endfacet
  facet normal 1 -0 0
    outer loop
      vertex -7.3 -10.75 5
      vertex -7.3 -4.25 0
      vertex -7.3 -4.25 5
    endloop
  endfacet
  facet normal 1 0 0
    outer loop
      vertex -7.3 -4.25 0
      vertex -7.3 -10.75 5
      vertex -7.3 -10.75 0
    endloop
  endfacet
  facet normal -1 0 0
    outer loop
      vertex -5.3 -10.75 0.423076
      vertex -5.3 -4.25 5
      vertex -5.3 -4.25 0.423076
    endloop
  endfacet
  facet normal -1 -0 0
    outer loop
      vertex -5.3 -4.25 5
      vertex -5.3 -10.75 0.423076
      vertex -5.3 -10.75 5
    endloop
  endfacet
  facet normal 0 1 -0
    outer loop
      vertex -5.3 -10.75 0.423076
      vertex -7.3 -10.75 5
      vertex -5.3 -10.75 5
    endloop
  endfacet
  facet normal 0 1 -0
    outer loop
      vertex -6.44583 -10.75 0
      vertex -7.3 -10.75 5
      vertex -5.3 -10.75 0.423076
    endloop
  endfacet
  facet normal 0 1 0
    outer loop
      vertex -7.3 -10.75 5
      vertex -6.44583 -10.75 0
      vertex -7.3 -10.75 0
    endloop
  endfacet
  facet normal 0 -1 0
    outer loop
      vertex -7.3 -4.25 5
      vertex -5.3 -4.25 0.423076
      vertex -5.3 -4.25 5
    endloop
  endfacet
  facet normal 0 -1 0
    outer loop
      vertex -6.44583 -4.25 0
      vertex -7.3 -4.25 5
      vertex -7.3 -4.25 0
    endloop
  endfacet
  facet normal 0 -1 0
    outer loop
      vertex -7.3 -4.25 5
      vertex -6.44583 -4.25 0
      vertex -5.3 -4.25 0.423076
    endloop
  endfacet
  facet normal 1 -0 0
    outer loop
      vertex 5.3 -10.75 5
      vertex 5.3 -4.25 0.423076
      vertex 5.3 -4.25 5
    endloop
  endfacet
  facet normal 1 0 0
    outer loop
      vertex 5.3 -4.25 0.423076
      vertex 5.3 -10.75 5
      vertex 5.3 -10.75 0.423076
    endloop
  endfacet
  facet normal -1 0 0
    outer loop
      vertex 7.3 -10.75 0
      vertex 7.3 -4.25 5
      vertex 7.3 -4.25 0
    endloop
  endfacet
  facet normal -1 -0 0
    outer loop
      vertex 7.3 -4.25 5
      vertex 7.3 -10.75 0
      vertex 7.3 -10.75 5
    endloop
  endfacet
  facet normal 0 -1 0
    outer loop
      vertex 5.3 -4.25 0.423076
      vertex 7.3 -4.25 5
      vertex 5.3 -4.25 5
    endloop
  endfacet
  facet normal 0 -1 0
    outer loop
      vertex 6.44583 -4.25 0
      vertex 7.3 -4.25 5
      vertex 5.3 -4.25 0.423076
    endloop
  endfacet
  facet normal 0 -1 -0
    outer loop
      vertex 7.3 -4.25 5
      vertex 6.44583 -4.25 0
      vertex 7.3 -4.25 0
    endloop
  endfacet
  facet normal 0 1 0
    outer loop
      vertex 7.3 -10.75 5
      vertex 5.3 -10.75 0.423076
      vertex 5.3 -10.75 5
    endloop
  endfacet
  facet normal 0 1 0
    outer loop
      vertex 6.44583 -10.75 0
      vertex 7.3 -10.75 5
      vertex 7.3 -10.75 0
    endloop
  endfacet
  facet normal 0 1 0
    outer loop
      vertex 7.3 -10.75 5
      vertex 6.44583 -10.75 0
      vertex 5.3 -10.75 0.423076
    endloop
  endfacet
  facet normal 1 -0 0
    outer loop
      vertex -7.3 4.25 5
      vertex -7.3 10.75 0
      vertex -7.3 10.75 5
    endloop
  endfacet
  facet normal 1 0 0
    outer loop
      vertex -7.3 10.75 0
      vertex -7.3 4.25 5
      vertex -7.3 4.25 0
    endloop
  endfacet
  facet normal -1 0 0
    outer loop
      vertex -5.3 4.25 0.423076
      vertex -5.3 10.75 5
      vertex -5.3 10.75 0.423076
    endloop
  endfacet
  facet normal -1 -0 0
    outer loop
      vertex -5.3 10.75 5
      vertex -5.3 4.25 0.423076
      vertex -5.3 4.25 5
    endloop
  endfacet
  facet normal 0 1 -0
    outer loop
      vertex -5.3 4.25 0.423076
      vertex -7.3 4.25 5
      vertex -5.3 4.25 5
    endloop
  endfacet
  facet normal 0 1 -0
    outer loop
      vertex -6.44583 4.25 0
      vertex -7.3 4.25 5
      vertex -5.3 4.25 0.423076
    endloop
  endfacet
  facet normal 0 1 0
    outer loop
      vertex -7.3 4.25 5
      vertex -6.44583 4.25 0
      vertex -7.3 4.25 0
    endloop
  endfacet
  facet normal 0 -1 0
    outer loop
      vertex -7.3 10.75 5
      vertex -5.3 10.75 0.423076
      vertex -5.3 10.75 5
    endloop
  endfacet
  facet normal 0 -1 0
    outer loop
      vertex -6.44583 10.75 0
      vertex -7.3 10.75 5
      vertex -7.3 10.75 0
    endloop
  endfacet
  facet normal 0 -1 0
    outer loop
      vertex -7.3 10.75 5
      vertex -6.44583 10.75 0
      vertex -5.3 10.75 0.423076
    endloop
  endfacet
  facet normal 1 -0 0
    outer loop
      vertex 5.3 4.25 5
      vertex 5.3 10.75 0.423076
      vertex 5.3 10.75 5
    endloop
  endfacet
  facet normal 1 0 0
    outer loop
      vertex 5.3 10.75 0.423076
      vertex 5.3 4.25 5
      vertex 5.3 4.25 0.423076
    endloop
  endfacet
  facet normal -1 0 0
    outer loop
      vertex 7.3 4.25 0
      vertex 7.3 10.75 5
      vertex 7.3 10.75 0
    endloop
  endfacet
  facet normal -1 -0 0
    outer loop
      vertex 7.3 10.75 5
      vertex 7.3 4.25 0
      vertex 7.3 4.25 5
    endloop
  endfacet
  facet normal 0 1 0
    outer loop
      vertex 7.3 4.25 5
      vertex 5.3 4.25 0.423076
      vertex 5.3 4.25 5
    endloop
  endfacet
  facet normal 0 1 0
    outer loop
      vertex 6.44583 4.25 0
      vertex 7.3 4.25 5
      vertex 7.3 4.25 0
    endloop
  endfacet
  facet normal 0 1 0
    outer loop
      vertex 7.3 4.25 5
      vertex 6.44583 4.25 0
      vertex 5.3 4.25 0.423076
    endloop
  endfacet
  facet normal 0 -1 0
    outer loop
      vertex 5.3 10.75 0.423076
      vertex 7.3 10.75 5
      vertex 5.3 10.75 5
    endloop
  endfacet
  facet normal 0 -1 0
    outer loop
      vertex 6.44583 10.75 0
      vertex 7.3 10.75 5
      vertex 5.3 10.75 0.423076
    endloop
  endfacet
  facet normal 0 -1 -0
    outer loop
      vertex 7.3 10.75 5
      vertex 6.44583 10.75 0
      vertex 7.3 10.75 0
    endloop
  endfacet
  facet normal -0.346374 0 -0.938096
    outer loop
      vertex 6.44583 -13 0
      vertex 5.3 -10.75 0.423076
      vertex 6.44583 -10.75 0
    endloop
  endfacet
  facet normal -0.346373 0 -0.938097
    outer loop
      vertex 0 -13 2.37999
      vertex 5.3 -4.25 0.423076
      vertex 5.3 -10.75 0.423076
    endloop
  endfacet
  facet normal -0.346373 0 -0.938097
    outer loop
      vertex 5.3 -4.25 0.423076
      vertex 0 -13 2.37999
      vertex 5.3 4.25 0.423076
    endloop
  endfacet
  facet normal -0.346373 -0 -0.938097
    outer loop
      vertex 0 13 2.37999
      vertex 5.3 4.25 0.423076
      vertex 0 -13 2.37999
    endloop
  endfacet
  facet normal -0.346373 7.78219e-07 -0.938097
    outer loop
      vertex 0 -13 2.37999
      vertex 5.3 -10.75 0.423076
      vertex 6.44583 -13 0
    endloop
  endfacet
  facet normal -0.346374 0 -0.938096
    outer loop
      vertex 5.3 -4.25 0.423076
      vertex 6.44583 4.25 0
      vertex 6.44583 -4.25 0
    endloop
  endfacet
  facet normal -0.346374 0 -0.938096
    outer loop
      vertex 6.44583 4.25 0
      vertex 5.3 -4.25 0.423076
      vertex 5.3 4.25 0.423076
    endloop
  endfacet
  facet normal -0.346374 0 -0.938096
    outer loop
      vertex 5.3 10.75 0.423076
      vertex 6.44583 13 0
      vertex 6.44583 10.75 0
    endloop
  endfacet
  facet normal -0.346373 -7.78219e-07 -0.938097
    outer loop
      vertex 5.3 10.75 0.423076
      vertex 0 13 2.37999
      vertex 6.44583 13 0
    endloop
  endfacet
  facet normal -0.346373 0 -0.938097
    outer loop
      vertex 5.3 4.25 0.423076
      vertex 0 13 2.37999
      vertex 5.3 10.75 0.423076
    endloop
  endfacet
  facet normal 0.346374 0 -0.938096
    outer loop
      vertex -6.44583 -4.25 0
      vertex -5.3 4.25 0.423076
      vertex -5.3 -4.25 0.423076
    endloop
  endfacet
  facet normal 0.346374 0 -0.938096
    outer loop
      vertex -5.3 4.25 0.423076
      vertex -6.44583 -4.25 0
      vertex -6.44583 4.25 0
    endloop
  endfacet
  facet normal 0.346373 0 -0.938097
    outer loop
      vertex -5.3 -4.25 0.423076
      vertex 0 -13 2.37999
      vertex -5.3 -10.75 0.423076
    endloop
  endfacet
  facet normal 0.346373 7.78219e-07 -0.938097
    outer loop
      vertex -6.44583 -13 0
      vertex -5.3 -10.75 0.423076
      vertex 0 -13 2.37999
    endloop
  endfacet
  facet normal 0.346374 0 -0.938096
    outer loop
      vertex -5.3 -10.75 0.423076
      vertex -6.44583 -13 0
      vertex -6.44583 -10.75 0
    endloop
  endfacet
  facet normal 0.346373 0 -0.938097
    outer loop
      vertex 0 -13 2.37999
      vertex -5.3 -4.25 0.423076
      vertex 0 13 2.37999
    endloop
  endfacet
  facet normal 0.346373 0 -0.938097
    outer loop
      vertex -5.3 4.25 0.423076
      vertex 0 13 2.37999
      vertex -5.3 -4.25 0.423076
    endloop
  endfacet
  facet normal 0.346373 0 -0.938097
    outer loop
      vertex -5.3 10.75 0.423076
      vertex 0 13 2.37999
      vertex -5.3 4.25 0.423076
    endloop
  endfacet
  facet normal 0.346374 0 -0.938096
    outer loop
      vertex -6.44583 13 0
      vertex -5.3 10.75 0.423076
      vertex -6.44583 10.75 0
    endloop
  endfacet
  facet normal 0.346373 -7.78219e-07 -0.938097
    outer loop
      vertex -5.3 10.75 0.423076
      vertex -6.44583 13 0
      vertex 0 13 2.37999
    endloop
  endfacet
endsolid OpenSCAD_Model
